<svg width="21" height="20" viewBox="0 0 21 20" fill="none" xmlns="http://www.w3.org/2000/svg">
<path d="M10.6202 0.0292969C12.5524 0.0292969 14.2755 0.433048 15.7896 1.24055C17.3181 2.03363 18.5077 3.15837 19.3585 4.61476C20.2092 6.05672 20.6346 7.70778 20.6346 9.56791C20.6346 11.3992 20.3174 12.834 19.6829 13.8722C19.0485 14.896 18.1689 15.4079 17.0441 15.4079C16.3376 15.4079 15.7608 15.1988 15.3138 14.7806C14.8812 14.3625 14.6432 13.7857 14.6 13.0503C14.1674 13.8001 13.5762 14.3841 12.8264 14.8023C12.0765 15.206 11.2258 15.4079 10.2741 15.4079C9.2647 15.4079 8.34905 15.17 7.52713 14.6941C6.71963 14.2038 6.07795 13.5333 5.6021 12.6826C5.14067 11.8318 4.90996 10.8729 4.90996 9.80584C4.90996 8.73878 5.14067 7.78709 5.6021 6.95074C6.07795 6.09998 6.71963 5.43668 7.52713 4.96083C8.34905 4.48498 9.2647 4.24705 10.2741 4.24705C11.1969 4.24705 12.0261 4.44893 12.7615 4.85268C13.5113 5.24201 14.1097 5.79717 14.5567 6.51815V4.33357H15.9626V12.5312C15.9626 13.1079 16.0852 13.5261 16.3303 13.7857C16.5755 14.0452 16.8999 14.175 17.3037 14.175C17.9814 14.175 18.5149 13.7713 18.9043 12.9637C19.308 12.1562 19.5099 11.0315 19.5099 9.58955C19.5099 7.91686 19.135 6.44605 18.3851 5.17712C17.6353 3.89377 16.5827 2.89881 15.2272 2.19225C13.8862 1.48568 12.3505 1.1324 10.6202 1.1324C8.87537 1.1324 7.32525 1.5001 5.9698 2.23551C4.62877 2.95649 3.58335 3.98029 2.83352 5.3069C2.0837 6.61909 1.70879 8.11874 1.70879 9.80584C1.70879 11.4929 2.07649 12.9998 2.81189 14.3264C3.56172 15.653 4.59993 16.684 5.92655 17.4194C7.26758 18.1548 8.80327 18.5225 10.5336 18.5225C11.2114 18.5225 11.9179 18.4432 12.6533 18.2846C13.4031 18.126 14.0809 17.8881 14.6865 17.5708L15.0542 18.6307C14.4342 18.9479 13.7132 19.1931 12.8913 19.3661C12.0837 19.5391 11.2979 19.6256 10.5336 19.6256C8.57256 19.6256 6.83498 19.2075 5.32092 18.3711C3.80685 17.5348 2.62444 16.374 1.77368 14.8888C0.937336 13.3891 0.519165 11.6948 0.519165 9.80584C0.519165 7.90244 0.944546 6.21534 1.79531 4.74453C2.64607 3.25931 3.83569 2.10573 5.36418 1.28381C6.90708 0.447468 8.65907 0.0292969 10.6202 0.0292969ZM10.4687 14.1534C11.2474 14.1534 11.9468 13.9731 12.5668 13.6126C13.1869 13.2521 13.6771 12.7475 14.0376 12.0986C14.3981 11.4353 14.5784 10.671 14.5784 9.80584C14.5784 8.95508 14.3981 8.20526 14.0376 7.55637C13.6771 6.89306 13.1869 6.38838 12.5668 6.0423C11.9468 5.68181 11.2474 5.50157 10.4687 5.50157C9.67566 5.50157 8.96189 5.68181 8.32742 6.0423C7.70738 6.4028 7.21711 6.90748 6.85661 7.55637C6.51054 8.20526 6.33751 8.95508 6.33751 9.80584C6.33751 10.6566 6.51054 11.4136 6.85661 12.0769C7.21711 12.7258 7.70738 13.2377 8.32742 13.6126C8.96189 13.9731 9.67566 14.1534 10.4687 14.1534Z" fill="#C4C4C4"/>
</svg>
