<svg width="12" height="14" viewBox="0 0 12 14" fill="none" xmlns="http://www.w3.org/2000/svg">
<mask id="path-1-inside-1" fill="white">
<path d="M2.96364 13.6362C2.20445 13.6362 1.44511 13.323 0.867067 12.6967C-0.289022 11.4444 -0.289022 9.40695 0.867067 8.15482L4.17706 4.56942C4.57706 4.13614 5.10893 3.8974 5.67455 3.8974C6.24003 3.8974 6.77219 4.13614 7.17204 4.56942C7.57204 5.00255 7.79245 5.57868 7.79245 6.19151C7.79245 6.80435 7.57204 7.38017 7.17204 7.8133L4.52256 10.6837C4.35708 10.8629 4.08909 10.8629 3.92361 10.6837C3.75814 10.5045 3.75814 10.2142 3.92361 10.0349L6.57353 7.16468C6.81341 6.90468 6.94557 6.55903 6.94557 6.19151C6.94557 5.82384 6.81341 5.4782 6.57353 5.2182C6.33336 4.9582 6.0144 4.81504 5.67483 4.81504C5.33555 4.81504 5.01631 4.9582 4.77628 5.2182L1.46615 8.8036C0.640311 9.69815 0.640311 11.1535 1.46615 12.0481C2.29213 12.9425 3.63544 12.9428 4.46142 12.0481L10.5336 5.47009C11.3593 4.57554 11.3593 3.12015 10.5336 2.2256C10.1336 1.79231 9.60141 1.55357 9.03622 1.55357C8.47031 1.55357 7.93872 1.79231 7.53858 2.2256L6.83558 2.98724C6.67024 3.16649 6.40212 3.16649 6.23664 2.98724C6.07116 2.80815 6.07116 2.51771 6.23664 2.33847L6.93964 1.57682C7.49961 0.970254 8.24426 0.63623 9.03622 0.63623C9.82831 0.63623 10.5728 0.970407 11.1329 1.57697C12.289 2.82925 12.289 4.86674 11.1329 6.11902L5.06036 12.6967C4.48232 13.323 3.72298 13.6362 2.96364 13.6362Z"/>
</mask>
<path d="M2.96364 13.6362C2.20445 13.6362 1.44511 13.323 0.867067 12.6967C-0.289022 11.4444 -0.289022 9.40695 0.867067 8.15482L4.17706 4.56942C4.57706 4.13614 5.10893 3.8974 5.67455 3.8974C6.24003 3.8974 6.77219 4.13614 7.17204 4.56942C7.57204 5.00255 7.79245 5.57868 7.79245 6.19151C7.79245 6.80435 7.57204 7.38017 7.17204 7.8133L4.52256 10.6837C4.35708 10.8629 4.08909 10.8629 3.92361 10.6837C3.75814 10.5045 3.75814 10.2142 3.92361 10.0349L6.57353 7.16468C6.81341 6.90468 6.94557 6.55903 6.94557 6.19151C6.94557 5.82384 6.81341 5.4782 6.57353 5.2182C6.33336 4.9582 6.0144 4.81504 5.67483 4.81504C5.33555 4.81504 5.01631 4.9582 4.77628 5.2182L1.46615 8.8036C0.640311 9.69815 0.640311 11.1535 1.46615 12.0481C2.29213 12.9425 3.63544 12.9428 4.46142 12.0481L10.5336 5.47009C11.3593 4.57554 11.3593 3.12015 10.5336 2.2256C10.1336 1.79231 9.60141 1.55357 9.03622 1.55357C8.47031 1.55357 7.93872 1.79231 7.53858 2.2256L6.83558 2.98724C6.67024 3.16649 6.40212 3.16649 6.23664 2.98724C6.07116 2.80815 6.07116 2.51771 6.23664 2.33847L6.93964 1.57682C7.49961 0.970254 8.24426 0.63623 9.03622 0.63623C9.82831 0.63623 10.5728 0.970407 11.1329 1.57697C12.289 2.82925 12.289 4.86674 11.1329 6.11902L5.06036 12.6967C4.48232 13.323 3.72298 13.6362 2.96364 13.6362Z" fill="#2F80ED"/>
<path d="M0.867067 12.6967L2.33676 11.3402L2.33659 11.3401L0.867067 12.6967ZM0.867067 8.15482L2.33651 9.51155L2.33659 9.51147L0.867067 8.15482ZM4.17706 4.56942L2.70753 3.21277L4.17706 4.56942ZM7.17204 4.56942L5.70228 5.92581L5.70276 5.92632L7.17204 4.56942ZM7.17204 7.8133L5.70276 6.4564L5.70241 6.45677L7.17204 7.8133ZM4.52256 10.6837L5.99208 12.0403L5.99219 12.0402L4.52256 10.6837ZM3.92361 10.0349L2.45412 8.67824L2.45409 8.67828L3.92361 10.0349ZM6.57353 7.16468L8.04302 8.52136L8.04345 8.52089L6.57353 7.16468ZM6.57353 5.2182L8.04345 3.86198L8.04266 3.86112L6.57353 5.2182ZM4.77628 5.2182L6.24578 6.57487L6.24581 6.57484L4.77628 5.2182ZM1.46615 8.8036L-0.00334937 7.44692L-0.0033782 7.44695L1.46615 8.8036ZM1.46615 12.0481L-0.00337822 13.4047L-0.00314701 13.405L1.46615 12.0481ZM4.46142 12.0481L5.93095 13.4047L5.93101 13.4047L4.46142 12.0481ZM10.5336 5.47009L12.0032 6.82667L12.0032 6.82661L10.5336 5.47009ZM10.5336 2.2256L12.0032 0.869074L12.0031 0.868949L10.5336 2.2256ZM7.53858 2.2256L6.06929 0.86869L6.06892 0.869096L7.53858 2.2256ZM6.83558 2.98724L5.36592 1.63074L5.36548 1.63122L6.83558 2.98724ZM6.23664 2.98724L7.70617 1.6306L7.70559 1.62997L6.23664 2.98724ZM6.23664 2.33847L7.70617 3.69511L7.7063 3.69496L6.23664 2.33847ZM6.93964 1.57682L5.47011 0.220172L5.46998 0.220319L6.93964 1.57682ZM11.1329 1.57697L12.6025 0.220325L12.6023 0.220141L11.1329 1.57697ZM11.1329 6.11902L12.6024 7.47568L12.6025 7.47567L11.1329 6.11902ZM5.06036 12.6967L3.59085 11.34L3.59067 11.3402L5.06036 12.6967ZM2.96364 11.6362C2.76459 11.6362 2.53748 11.5577 2.33676 11.3402L-0.602626 14.0532C0.352744 15.0883 1.64431 15.6362 2.96364 15.6362V11.6362ZM2.33659 11.3401C1.88776 10.8539 1.88787 9.99746 2.33651 9.51155L-0.602378 6.79808C-2.46592 8.81643 -2.4658 12.035 -0.602461 14.0534L2.33659 11.3401ZM2.33659 9.51147L5.64658 5.92606L2.70753 3.21277L-0.602461 6.79817L2.33659 9.51147ZM5.64658 5.92606C5.65872 5.91291 5.6682 5.90518 5.67393 5.90103C5.67686 5.89891 5.67904 5.89755 5.68042 5.89675C5.68179 5.89595 5.68252 5.89563 5.68259 5.89559C5.68266 5.89556 5.68226 5.89574 5.68144 5.89601C5.68061 5.89629 5.67957 5.89658 5.6784 5.89683C5.67579 5.89739 5.67422 5.8974 5.67455 5.8974V1.8974C4.5243 1.8974 3.4678 2.38924 2.70753 3.21277L5.64658 5.92606ZM5.67455 5.8974C5.67481 5.8974 5.67324 5.89738 5.67067 5.89683C5.66952 5.89658 5.66851 5.8963 5.6677 5.89603C5.6669 5.89577 5.66652 5.8956 5.6666 5.89564C5.66661 5.89564 5.66957 5.89694 5.67524 5.90105C5.68092 5.90517 5.69029 5.91281 5.70228 5.92581L8.64181 3.21303C7.88138 2.38904 6.82438 1.8974 5.67455 1.8974V5.8974ZM5.70276 5.92632C5.7471 5.97434 5.79245 6.05993 5.79245 6.19151H9.79245C9.79245 5.09743 9.39699 4.03076 8.64133 3.21251L5.70276 5.92632ZM5.79245 6.19151C5.79245 6.32283 5.74727 6.40819 5.70276 6.4564L8.64133 9.17021C9.39681 8.35215 9.79245 7.28587 9.79245 6.19151H5.79245ZM5.70241 6.45677L3.05292 9.32717L5.99219 12.0402L8.64168 9.16983L5.70241 6.45677ZM3.05303 9.32705C3.67946 8.6485 4.76671 8.6485 5.39314 9.32705L2.45409 12.0403C3.41148 13.0774 5.03469 13.0774 5.99208 12.0403L3.05303 9.32705ZM5.39314 9.32705C5.93496 9.91396 5.93496 10.8047 5.39314 11.3916L2.45409 8.67828C1.58131 9.62367 1.58131 11.095 2.45409 12.0403L5.39314 9.32705ZM5.39311 11.3916L8.04302 8.52136L5.10403 5.80799L2.45412 8.67824L5.39311 11.3916ZM8.04345 8.52089C8.63844 7.87601 8.94557 7.04019 8.94557 6.19151H4.94557C4.94557 6.07787 4.98838 5.93334 5.1036 5.80846L8.04345 8.52089ZM8.94557 6.19151C8.94557 5.3428 8.63852 4.50694 8.04345 3.86198L5.1036 6.57441C4.98831 6.44945 4.94557 6.30489 4.94557 6.19151H8.94557ZM8.04266 3.86112C7.4423 3.2112 6.59892 2.81504 5.67483 2.81504V6.81504C5.42989 6.81504 5.22441 6.70519 5.1044 6.57527L8.04266 3.86112ZM5.67483 2.81504C4.75137 2.81504 3.90737 3.21096 3.30675 3.86155L6.24581 6.57484C6.12525 6.70543 5.91972 6.81504 5.67483 6.81504V2.81504ZM3.30678 3.86152L-0.00334937 7.44692L2.93565 10.1603L6.24578 6.57487L3.30678 3.86152ZM-0.0033782 7.44695C-1.53651 9.10765 -1.53651 11.744 -0.0033782 13.4047L2.93568 10.6914C2.89256 10.6447 2.84677 10.5545 2.84677 10.4258C2.84677 10.2972 2.89256 10.2069 2.93568 10.1602L-0.0033782 7.44695ZM-0.00314701 13.405C1.61438 15.1565 4.31273 15.1576 5.93095 13.4047L2.99189 10.6914C2.98053 10.7037 2.97186 10.7107 2.9668 10.7143C2.96168 10.718 2.95867 10.7194 2.95793 10.7197C2.95698 10.7201 2.95942 10.719 2.96393 10.719C2.96842 10.719 2.97078 10.7201 2.96969 10.7196C2.96889 10.7193 2.96583 10.7178 2.96065 10.7141C2.95553 10.7105 2.94682 10.7035 2.93545 10.6912L-0.00314701 13.405ZM5.93101 13.4047L12.0032 6.82667L9.06398 4.11351L2.99183 10.6915L5.93101 13.4047ZM12.0032 6.82661C13.5361 5.16595 13.5361 2.52974 12.0032 0.869074L9.06393 3.58212C9.10702 3.6288 9.15284 3.71906 9.15284 3.84784C9.15284 3.97663 9.10702 4.06688 9.06393 4.11357L12.0032 6.82661ZM12.0031 0.868949C11.2428 0.0453605 10.186 -0.446428 9.03622 -0.446428V3.55357C9.03634 3.55357 9.03468 3.55354 9.03206 3.55298C9.02949 3.55243 9.02799 3.55179 9.02799 3.55179C9.02803 3.55181 9.03105 3.55314 9.03679 3.5573C9.04254 3.56147 9.05198 3.56918 9.06404 3.58224L12.0031 0.868949ZM9.03622 -0.446428C7.88549 -0.446428 6.82946 0.0455594 6.06929 0.86869L9.00787 3.5825C9.02016 3.56919 9.02973 3.56138 9.03551 3.55719C9.03846 3.55506 9.04065 3.55369 9.04203 3.5529C9.04341 3.5521 9.04413 3.55177 9.04418 3.55175C9.04424 3.55172 9.04382 3.55191 9.04297 3.55219C9.04212 3.55247 9.04107 3.55276 9.0399 3.55301C9.03727 3.55358 9.03576 3.55357 9.03622 3.55357V-0.446428ZM6.06892 0.869096L5.36592 1.63074L8.30524 4.34374L9.00824 3.58209L6.06892 0.869096ZM5.36548 1.63122C5.99248 0.951463 7.08007 0.952404 7.70617 1.6306L4.76711 4.34389C5.72417 5.38057 7.348 5.38152 8.30569 4.34326L5.36548 1.63122ZM7.70559 1.62997C8.24848 2.21753 8.24768 3.10854 7.70617 3.69511L4.76711 0.981819C3.89464 1.92689 3.89384 3.39877 4.76769 4.34451L7.70559 1.62997ZM7.7063 3.69496L8.4093 2.93332L5.46998 0.220319L4.76698 0.981966L7.7063 3.69496ZM8.40917 2.93347C8.60857 2.71748 8.82847 2.63623 9.03622 2.63623V-1.36377C7.66006 -1.36377 6.39066 -0.776968 5.47011 0.220172L8.40917 2.93347ZM9.03622 2.63623C9.24376 2.63623 9.46372 2.71737 9.66358 2.9338L12.6023 0.220141C11.6819 -0.776558 10.4129 -1.36377 9.03622 -1.36377V2.63623ZM9.66341 2.93362C10.1122 3.41975 10.1122 4.27624 9.66341 4.76237L12.6025 7.47567C14.4658 5.45723 14.4658 2.23876 12.6025 0.220325L9.66341 2.93362ZM9.66342 4.76236L3.59085 11.34L6.52987 14.0534L12.6024 7.47568L9.66342 4.76236ZM3.59067 11.3402C3.38998 11.5577 3.16289 11.6362 2.96364 11.6362V15.6362C4.28307 15.6362 5.57465 15.0883 6.53005 14.0532L3.59067 11.3402Z" fill="#2F80ED" mask="url(#path-1-inside-1)"/>
</svg>
