<svg width="29" height="19" viewBox="0 0 29 19" fill="none" xmlns="http://www.w3.org/2000/svg">
<path d="M28.5911 0.93355C28.5911 0.874893 28.5911 0.816236 28.5911 0.816236C28.5911 0.757578 28.5911 0.698921 28.5324 0.698921C28.4737 0.640264 28.4737 0.640264 28.4151 0.581607C28.3564 0.581607 28.3564 0.522949 28.2978 0.522949H28.2391C28.1805 0.522949 28.1805 0.522949 28.1218 0.522949H28.0631C28.0631 0.522949 28.0631 0.522949 28.0045 0.522949L0.787491 6.03674C0.611519 6.09539 0.494204 6.21271 0.435547 6.44734C0.435547 6.62331 0.494204 6.85794 0.670176 6.9166L8.4716 11.0226L9.82072 18.5894C9.82072 18.6481 9.82072 18.6481 9.82072 18.7067V18.7654C9.82072 18.824 9.82072 18.824 9.87937 18.8827L9.93803 18.9413C9.99669 18.9413 9.99669 19 10.0553 19C10.0553 19 10.0553 19 10.114 19C10.1727 19 10.1727 19 10.2313 19C10.3486 19 10.4659 18.9413 10.5833 18.824L15.8038 15.3632L21.2589 18.8827C21.3175 18.9413 21.4349 18.9413 21.4935 18.9413C21.5522 18.9413 21.6108 18.9413 21.6695 18.9413C21.7868 18.8827 21.9041 18.7654 21.9628 18.6481L28.5911 1.05086C28.5911 0.992208 28.5911 0.992208 28.5911 0.93355C28.5911 0.992208 28.5911 0.992208 28.5911 0.93355ZM23.1946 3.92507L11.9324 12.1958L11.8737 12.2544C11.8737 12.2544 11.8737 12.2544 11.8737 12.3131C11.8737 12.3131 11.8737 12.3131 11.8737 12.3717C11.8737 12.3717 11.8151 12.4304 11.8151 12.489L10.5246 16.6537L9.41012 10.9639L23.1946 3.92507ZM11.1698 17.5336L12.4603 13.3102L14.4546 14.6007L15.0412 14.9526L13.1055 16.2431L11.1698 17.5336ZM24.837 2.04804L8.94086 10.2014L2.31258 6.68197L24.837 2.04804ZM21.3175 18.0028L14.1027 13.3102L12.9882 12.6064L27.1833 2.16535L21.3175 18.0028Z" fill="#C4C4C4"/>
</svg>
