<svg width="14" height="14" viewBox="0 0 14 14" fill="none" xmlns="http://www.w3.org/2000/svg">
<path d="M13.6194 6.57416L7.1674 0.121328C7.11907 0.0728364 7.06113 0.0405089 7.00014 0.020838C6.91018 -0.0082872 6.8129 -0.00721973 6.72401 0.0261751C6.7205 0.0275475 6.71684 0.0278525 6.71349 0.0293774L6.71227 0.0299873C6.66226 0.0504206 6.61545 0.0807658 6.57489 0.12148L0.122702 6.57416C-0.0409008 6.73763 -0.0409008 7.00311 0.122702 7.16673L6.57474 13.6194C6.73834 13.783 7.00365 13.783 7.16725 13.6194L13.6193 7.16673C13.783 7.00296 13.783 6.73763 13.6194 6.57416ZM7.78736 4.23942C7.76875 4.13618 7.81038 4.03844 7.89744 3.98019C7.9194 3.9654 7.94257 3.95442 7.96651 3.94694C7.97276 3.94496 7.97932 3.94542 7.98572 3.9439C8.00341 3.93993 8.0211 3.93581 8.03924 3.93581C8.05312 3.93581 8.06699 3.93932 8.08071 3.94161C8.09078 3.94344 8.10099 3.94313 8.11075 3.94603C8.13438 3.95304 8.15741 3.96341 8.17921 3.97759L10.3036 5.94942L8.17906 7.92154C8.1571 7.93572 8.13408 7.94609 8.11045 7.95311C8.10587 7.95448 8.10114 7.95402 8.09657 7.95524C8.07736 7.95966 8.05815 7.96348 8.03863 7.96348C8.02613 7.96332 8.01393 7.95982 8.00143 7.95783C7.98969 7.95585 7.97764 7.95585 7.96605 7.95235C7.94242 7.94487 7.91924 7.93405 7.89729 7.91926C7.81038 7.86085 7.76875 7.76311 7.7872 7.65987L7.99411 6.5182L5.78432 6.50996L5.76953 9.18338H4.66288L4.65023 6.1937C4.64901 5.75103 5.00656 5.39116 5.44903 5.38979L7.99426 5.3814L7.78736 4.23942Z" fill="#E76800"/>
</svg>
