<svg width="40" height="56" viewBox="0 0 40 56" fill="none" xmlns="http://www.w3.org/2000/svg">
<g clip-path="url(#clip0)">
<path d="M39.3586 11.7358V55.3622H0.640625V0.637817H28.3329L39.3586 11.7358Z" stroke="#010973" stroke-width="2" stroke-miterlimit="10"/>
<path d="M22.8195 25.2574H22.3066V27.2984H22.8195C23.3323 27.2984 23.7169 27.1709 23.9733 27.0433C24.2297 26.9158 24.3579 26.6606 24.3579 26.2779C24.3579 25.8953 24.2297 25.6401 23.9733 25.5126C23.7169 25.385 23.3323 25.2574 22.8195 25.2574Z" fill="#FF8600"/>
<path d="M4.87109 20.0273V35.9727H35.1275V20.0273H4.87109ZM11.4096 30.1048C11.9224 30.1048 12.5634 29.9772 13.3326 29.7221V30.9977C12.6916 31.2529 12.0506 31.3804 11.2814 31.3804C10.2557 31.3804 9.35827 30.9977 8.84545 30.3599C8.33263 29.7221 7.94802 28.8292 7.94802 27.5535C7.94802 26.7882 8.07622 26.1504 8.33263 25.5125C8.58904 24.8747 8.97366 24.492 9.48648 24.2369C9.9993 23.9818 10.6403 23.7267 11.2814 23.7267C12.0506 23.7267 12.6916 23.8542 13.4608 24.2369L12.948 25.5125C12.8198 25.5125 12.5634 25.385 12.1788 25.2574C11.7942 25.1298 11.666 25.1299 11.4096 25.1299C10.7685 25.1299 10.3839 25.385 9.9993 25.7677C9.61468 26.1504 9.48648 26.7882 9.48648 27.6811C9.48648 29.3394 10.1275 30.1048 11.4096 30.1048ZM19.2301 25.2574H16.5378V26.7882H19.1019V28.0638H16.5378V29.9772H19.2301V31.2529H14.9993V23.8542H19.2301V25.2574ZM24.8711 31.3804L23.0762 28.574H22.1788V31.3804H20.6403V23.9818H22.8198C23.8455 23.9818 24.6147 24.1093 25.1275 24.492C25.6403 24.8747 25.8967 25.385 25.8967 26.1504C25.8967 26.533 25.7685 26.9157 25.5121 27.2984C25.2557 27.6811 24.8711 27.9362 24.4865 28.0638C25.6403 29.7221 26.2814 30.7426 26.666 31.2529H24.8711V31.3804ZM32.5634 25.2574H30.5121V31.3804H28.9737V25.2574H26.9224V23.9818H32.5634V25.2574Z" fill="#FF8600"/>
</g>
<defs>
<clipPath id="clip0">
<rect width="40" height="56" fill="white"/>
</clipPath>
</defs>
</svg>
