<svg width="20" height="23" viewBox="0 0 20 23" fill="none" xmlns="http://www.w3.org/2000/svg">
<mask id="path-1-inside-1" fill="white">
<path d="M4.9394 22.8037C3.67408 22.8037 2.40852 22.2736 1.44511 21.2138C-0.481704 19.0945 -0.481704 15.6465 1.44511 13.5275L6.96176 7.45988C7.62843 6.72663 8.51488 6.32261 9.45758 6.32261C10.4 6.32261 11.287 6.72663 11.9534 7.45988C12.6201 8.19286 12.9874 9.16785 12.9874 10.205C12.9874 11.2421 12.6201 12.2165 11.9534 12.9495L7.53759 17.8071C7.2618 18.1105 6.81516 18.1105 6.53936 17.8071C6.26356 17.5038 6.26356 17.0125 6.53936 16.7092L10.9559 11.8519C11.3557 11.4119 11.576 10.8269 11.576 10.205C11.576 9.58275 11.3557 8.99781 10.9559 8.55781C10.5556 8.11781 10.024 7.87555 9.45805 7.87555C8.89258 7.87555 8.36051 8.11781 7.96047 8.55781L2.44358 14.6254C1.06718 16.1393 1.06718 18.6022 2.44358 20.1161C3.82021 21.6297 6.05907 21.6302 7.4357 20.1161L17.5559 8.98409C18.9321 7.47023 18.9321 5.00726 17.5559 3.49341C16.8893 2.76016 16.0024 2.35613 15.0604 2.35613C14.1172 2.35613 13.2312 2.76016 12.5643 3.49341L11.3926 4.78235C11.1171 5.08569 10.6702 5.08569 10.3944 4.78235C10.1186 4.47926 10.1186 3.98776 10.3944 3.68442L11.5661 2.39548C12.4994 1.36898 13.7404 0.803711 15.0604 0.803711C16.3805 0.803711 17.6214 1.36924 18.5549 2.39573C20.4817 4.51498 20.4817 7.96303 18.5549 10.0823L8.43393 21.2138C7.47053 22.2736 6.20497 22.8037 4.9394 22.8037Z"/>
</mask>
<path d="M1.44511 21.2138L2.92508 19.8685L2.92491 19.8683L1.44511 21.2138ZM1.44511 13.5275L2.92483 14.873L2.92491 14.8729L1.44511 13.5275ZM6.96176 7.45988L5.48196 6.11444L6.96176 7.45988ZM11.9534 7.45988L10.4734 8.80505L10.4738 8.80557L11.9534 7.45988ZM11.9534 12.9495L10.4738 11.6038L10.4735 11.6042L11.9534 12.9495ZM7.53759 17.8071L9.01739 19.1526L9.0175 19.1524L7.53759 17.8071ZM6.53936 16.7092L5.05959 15.3637L5.05956 15.3638L6.53936 16.7092ZM10.9559 11.8519L12.4356 13.1973L12.4361 13.1969L10.9559 11.8519ZM10.9559 8.55781L12.4361 7.21281L12.4353 7.21194L10.9559 8.55781ZM7.96047 8.55781L9.44024 9.90327L9.44027 9.90324L7.96047 8.55781ZM2.44358 14.6254L0.963809 13.2799L0.96378 13.28L2.44358 14.6254ZM2.44358 20.1161L0.96378 21.4615L0.964009 21.4618L2.44358 20.1161ZM7.4357 20.1161L8.9155 21.4615L8.91556 21.4615L7.4357 20.1161ZM17.5559 8.98409L19.0358 10.3295L19.0359 10.3294L17.5559 8.98409ZM17.5559 3.49341L19.0359 2.1481L19.0357 2.14797L17.5559 3.49341ZM12.5643 3.49341L11.0847 2.14771L11.0844 2.14812L12.5643 3.49341ZM11.3926 4.78235L9.9127 3.43706L9.91226 3.43754L11.3926 4.78235ZM10.3944 4.78235L11.8742 3.43691L11.8736 3.43629L10.3944 4.78235ZM10.3944 3.68442L11.8742 5.02985L11.8743 5.0297L10.3944 3.68442ZM11.5661 2.39548L10.0863 1.05004L10.0861 1.05019L11.5661 2.39548ZM18.5549 2.39573L20.0347 1.0503L20.0345 1.05012L18.5549 2.39573ZM18.5549 10.0823L20.0347 11.4277L20.0347 11.4277L18.5549 10.0823ZM8.43393 21.2138L6.95415 19.8683L6.95397 19.8685L8.43393 21.2138ZM4.9394 20.8037C4.24487 20.8037 3.51435 20.5168 2.92508 19.8685L-0.0348536 22.559C1.30269 24.0305 3.10328 24.8037 4.9394 24.8037V20.8037ZM2.92491 19.8683C1.69165 18.5119 1.69177 16.229 2.92483 14.873L-0.0346083 12.182C-2.65517 15.0639 -2.65506 19.6771 -0.0346901 22.5592L2.92491 19.8683ZM2.92491 14.8729L8.44156 8.80531L5.48196 6.11444L-0.0346901 12.182L2.92491 14.8729ZM8.44156 8.80531C8.75127 8.46467 9.11035 8.32261 9.45758 8.32261V4.3226C7.91942 4.3226 6.50558 4.98859 5.48196 6.11444L8.44156 8.80531ZM9.45758 8.32261C9.80486 8.32261 10.1642 8.46487 10.4734 8.80505L13.4334 6.1147C12.4098 4.98839 10.9952 4.3226 9.45758 4.3226V8.32261ZM10.4738 8.80557C10.789 9.15204 10.9874 9.6402 10.9874 10.205H14.9874C14.9874 8.69551 14.4512 7.23369 13.433 6.11418L10.4738 8.80557ZM10.9874 10.205C10.9874 10.7695 10.7891 11.2572 10.4738 11.6038L13.433 14.2952C14.451 13.1759 14.9874 11.7147 14.9874 10.205H10.9874ZM10.4735 11.6042L6.05768 16.4618L9.0175 19.1524L13.4333 14.2948L10.4735 11.6042ZM6.05779 16.4617C6.29246 16.2036 6.64609 16.0346 7.03848 16.0346C7.43086 16.0346 7.78449 16.2036 8.01916 16.4617L5.05956 19.1526C6.12886 20.3287 7.94809 20.3287 9.01739 19.1526L6.05779 16.4617ZM8.01916 16.4617C8.24524 16.7103 8.33251 17.0045 8.33251 17.2582C8.33251 17.5118 8.24524 17.806 8.01916 18.0546L5.05956 15.3638C4.09016 16.43 4.09016 18.0863 5.05956 19.1526L8.01916 16.4617ZM8.01912 18.0547L12.4356 13.1973L9.47611 10.5064L5.05959 15.3637L8.01912 18.0547ZM12.4361 13.1969C13.1869 12.3706 13.576 11.2992 13.576 10.205H9.57595C9.57595 10.3547 9.5245 10.4531 9.47568 10.5069L12.4361 13.1969ZM13.576 10.205C13.576 9.1106 13.1869 8.03916 12.4361 7.21281L9.47568 9.9028C9.52443 9.95645 9.57595 10.0549 9.57595 10.205H13.576ZM12.4353 7.21194C11.6781 6.37966 10.6194 5.87555 9.45805 5.87555V9.87555C9.45642 9.87555 9.4529 9.87533 9.44844 9.87435C9.44403 9.87339 9.44104 9.87221 9.43996 9.87171C9.43893 9.87125 9.4415 9.87226 9.44732 9.87654C9.45318 9.88085 9.46331 9.8892 9.47647 9.90367L12.4353 7.21194ZM9.45805 5.87555C8.29756 5.87555 7.23799 6.37942 6.48067 7.21237L9.44027 9.90324C9.45319 9.88903 9.46315 9.88081 9.46893 9.87656C9.47468 9.87233 9.47724 9.87131 9.47628 9.87175C9.47526 9.87221 9.47233 9.87338 9.46795 9.87434C9.46352 9.8753 9.45991 9.87555 9.45805 9.87555V5.87555ZM6.48069 7.21234L0.963809 13.2799L3.92335 15.9709L9.44024 9.90327L6.48069 7.21234ZM0.96378 13.28C-1.10622 15.5567 -1.10622 19.1848 0.96378 21.4615L3.92338 18.7707C3.24058 18.0197 3.24058 16.7218 3.92338 15.9708L0.96378 13.28ZM0.964009 21.4618C3.13379 23.8474 6.74503 23.8488 8.9155 21.4615L5.9559 18.7707C5.3731 19.4117 4.50664 19.4119 3.92315 18.7704L0.964009 21.4618ZM8.91556 21.4615L19.0358 10.3295L16.0761 7.63872L5.95584 18.7707L8.91556 21.4615ZM19.0359 10.3294C21.1055 8.0527 21.1055 4.42479 19.0359 2.1481L16.076 4.83871C16.7587 5.58974 16.7587 6.88775 16.076 7.63878L19.0359 10.3294ZM19.0357 2.14797C18.0121 1.02206 16.5977 0.356135 15.0604 0.356135V4.35613C15.407 4.35613 15.7665 4.49825 16.0761 4.83884L19.0357 2.14797ZM15.0604 0.356135C13.5215 0.356135 12.1084 1.02227 11.0847 2.14771L14.0439 4.8391C14.3541 4.49805 14.7129 4.35613 15.0604 4.35613V0.356135ZM11.0844 2.14812L9.9127 3.43706L12.8726 6.12763L14.0442 4.83869L11.0844 2.14812ZM9.91226 3.43754C10.1474 3.1787 10.5014 3.00985 10.8936 3.00985C11.2857 3.00985 11.6394 3.17863 11.8742 3.43691L8.9146 6.12778C9.98357 7.3035 11.8035 7.30446 12.873 6.12715L9.91226 3.43754ZM11.8736 3.43629C12.1004 3.68548 12.1876 3.98007 12.1876 4.23348C12.1876 4.4869 12.1004 4.78105 11.8742 5.02985L8.9146 2.33898C7.9455 3.40487 7.94472 5.06194 8.91517 6.12841L11.8736 3.43629ZM11.8743 5.0297L13.046 3.74076L10.0861 1.05019L8.91446 2.33913L11.8743 5.0297ZM13.0459 3.74091C13.6219 3.10735 14.3355 2.80371 15.0604 2.80371V-1.19629C13.1454 -1.19629 11.3768 -0.369389 10.0863 1.05004L13.0459 3.74091ZM15.0604 2.80371C15.7851 2.80371 16.4987 3.10735 17.0753 3.74135L20.0345 1.05012C18.7441 -0.368868 16.9759 -1.19629 15.0604 -1.19629V2.80371ZM17.0751 3.74117C18.3083 5.09755 18.3083 7.38046 17.0751 8.73684L20.0347 11.4277C22.6551 8.54559 22.6551 3.93242 20.0347 1.0503L17.0751 3.74117ZM17.0751 8.73683L6.95415 19.8683L9.91372 22.5592L20.0347 11.4277L17.0751 8.73683ZM6.95397 19.8685C6.36473 20.5167 5.63422 20.8037 4.9394 20.8037V24.8037C6.77571 24.8037 8.57632 24.0305 9.9139 22.559L6.95397 19.8685Z" fill="#E76800" mask="url(#path-1-inside-1)"/>
</svg>
