<svg width="23" height="25" viewBox="0 0 23 25" fill="none" xmlns="http://www.w3.org/2000/svg">
<g filter="url(#filter0_d)">
<ellipse cx="11.5" cy="8.70469" rx="7.5" ry="7.42857" fill="white"/>
<path d="M18.5 8.70469C18.5 12.5267 15.3705 15.6333 11.5 15.6333C7.62948 15.6333 4.5 12.5267 4.5 8.70469C4.5 4.88265 7.62948 1.77612 11.5 1.77612C15.3705 1.77612 18.5 4.88265 18.5 8.70469Z" stroke="#5B5B5B"/>
</g>
<path d="M11.0385 8.63606L8.6205 5.29506H10.0115L11.6365 7.72606H11.7145L13.3785 5.29506H14.7045L12.2865 8.61006L14.8215 12.1331H13.4435L11.6885 9.50706H11.6105L9.8295 12.1331H8.5035L11.0385 8.63606Z" fill="#5B5B5B"/>
<defs>
<filter id="filter0_d" x="0" y="1.27612" width="23" height="22.8571" filterUnits="userSpaceOnUse" color-interpolation-filters="sRGB">
<feFlood flood-opacity="0" result="BackgroundImageFix"/>
<feColorMatrix in="SourceAlpha" type="matrix" values="0 0 0 0 0 0 0 0 0 0 0 0 0 0 0 0 0 0 127 0"/>
<feOffset dy="4"/>
<feGaussianBlur stdDeviation="2"/>
<feColorMatrix type="matrix" values="0 0 0 0 0 0 0 0 0 0 0 0 0 0 0 0 0 0 0.25 0"/>
<feBlend mode="normal" in2="BackgroundImageFix" result="effect1_dropShadow"/>
<feBlend mode="normal" in="SourceGraphic" in2="effect1_dropShadow" result="shape"/>
</filter>
</defs>
</svg>
