<svg width="362" height="370" viewBox="0 0 362 370" fill="none" xmlns="http://www.w3.org/2000/svg">
<g clip-path="url(#clip0)">
<path d="M0.529092 19.9967L-0.00488281 21.2507L67.4207 49.9473L67.9547 48.6933L0.529092 19.9967Z" fill="#010973"/>
<path d="M4.93339 26.6375L4.39941 27.8915L71.825 56.5882L72.359 55.3342L4.93339 26.6375Z" fill="#010973"/>
<path d="M40.8445 53.3382L40.3105 54.5922L107.736 83.2889L108.27 82.0349L40.8445 53.3382Z" fill="#010973"/>
<path d="M45.2478 59.9791L44.7139 61.2331L112.139 89.9298L112.673 88.6758L45.2478 59.9791Z" fill="#010973"/>
<path d="M46.8094 22.9357L46.2754 24.1897L113.701 52.8864L114.235 51.6324L46.8094 22.9357Z" fill="#010973"/>
<path d="M51.2078 29.5739L50.6738 30.8279L118.099 59.5246L118.633 58.2706L51.2078 29.5739Z" fill="#010973"/>
<path d="M267.113 46.5085C275.388 46.5085 283.324 49.7943 289.176 55.6434C295.028 61.4924 298.316 69.4257 298.318 77.6985V145.278H229.89V84.9287C229.891 79.8836 228.898 74.8877 226.967 70.2264C225.036 65.5651 222.206 61.3296 218.638 57.7619C215.07 54.1941 210.834 51.364 206.172 49.4331C201.51 47.5023 196.513 46.5085 191.467 46.5085H252.254V95.8932C252.337 97.2965 252.821 98.6466 253.648 99.7832C254.476 100.92 255.612 101.795 256.922 102.305C258.232 102.816 259.661 102.939 261.04 102.662C262.418 102.384 263.688 101.717 264.699 100.739C265.709 99.7617 266.418 98.5148 266.741 97.1466C267.063 95.7784 266.987 94.3463 266.52 93.0204C266.053 91.6944 265.215 90.5302 264.106 89.6661C262.997 88.8019 261.663 88.274 260.263 88.1451V46.5085H267.113Z" fill="white"/>
<path d="M152.479 352.971C152.479 357.482 182.886 361.148 220.388 361.148C257.891 361.148 288.298 357.482 288.298 352.971V361.148C288.298 365.659 257.898 369.325 220.388 369.325C182.879 369.325 152.479 365.666 152.479 361.148V352.971Z" fill="white"/>
<path d="M288.298 28.0411V37.7177H260.263V46.5085V88.1383V95.8932H252.254V46.5085V37.7177V28.0411H260.263H288.298Z" fill="#010973"/>
<path d="M236.188 345.052C266.078 345.911 288.298 349.141 288.298 353.005C288.298 357.516 257.898 361.182 220.388 361.182C182.879 361.182 152.479 357.516 152.479 353.005C152.479 348.964 176.846 345.604 208.862 344.95V353.005H236.188V345.052Z" fill="#CCCCCC"/>
<path d="M260.263 88.1451C261.661 88.2754 262.992 88.8037 264.098 89.6673C265.205 90.5308 266.041 91.6935 266.507 93.0175C266.972 94.3415 267.049 95.7712 266.726 97.1372C266.404 98.5032 265.697 99.7482 264.689 100.725C263.68 101.701 262.413 102.368 261.037 102.646C259.661 102.924 258.234 102.802 256.925 102.295C255.617 101.787 254.481 100.915 253.653 99.7812C252.825 98.6478 252.339 97.3009 252.254 95.9H260.263V88.1451Z" fill="#010973"/>
<path d="M236.188 345.018V352.971H229.89V188.973L236.188 184.748V345.018Z" fill="white"/>
<path d="M236.188 145.278V184.748L229.89 188.973V145.285V145.278H236.188Z" fill="#E6E6E6"/>
<path d="M229.889 188.973V352.971H208.861V344.916V188.973H229.889Z" fill="white"/>
<path d="M191.467 46.5085C196.513 46.5085 201.51 47.5023 206.172 49.4331C210.834 51.364 215.07 54.1941 218.638 57.7619C222.206 61.3296 225.037 65.5651 226.967 70.2264C228.898 74.8877 229.891 79.8836 229.89 84.9287V145.278H153.037V84.9287C153.037 74.739 157.086 64.9667 164.293 57.7615C171.5 50.5563 181.275 46.5085 191.467 46.5085Z" fill="black"/>
<path d="M208.861 166.798C218.493 157.006 229.889 145.285 229.889 145.285V189H208.861V166.798Z" fill="#E6E6E6"/>
<path d="M229.89 145.285C229.89 145.285 218.493 157.006 208.862 166.798C203.061 172.7 197.901 177.906 196.252 179.425C191.801 183.514 183.124 196.114 140.734 188.884C131.007 187.228 124.511 183.432 120.817 180.652C115.507 176.666 116.638 168.536 122.241 164.979L153.037 145.298H229.89V145.285Z" fill="white"/>
<path d="M298.999 145.959H236.188V144.596H297.636V77.6985C297.627 69.6087 294.408 61.8529 288.685 56.1332C282.963 50.4135 275.204 47.1971 267.113 47.1899H260.262V45.827H267.113C275.565 45.836 283.67 49.1966 289.647 55.1715C295.625 61.1464 298.988 69.2478 298.999 77.6985V145.959Z" fill="black"/>
<path d="M260.053 46H199V47.3629H260.053V46Z" fill="black"/>
<path d="M230.571 145.959H152.355V84.9287C152.287 79.7508 153.248 74.6109 155.182 69.8073C157.117 65.0038 159.987 60.6323 163.625 56.9465C167.263 53.2608 171.598 50.3343 176.377 48.3368C181.155 46.3394 186.283 45.3108 191.463 45.3108C196.643 45.3108 201.771 46.3394 206.549 48.3368C211.328 50.3343 215.663 53.2608 219.301 56.9465C222.939 60.6323 225.809 65.0038 227.744 69.8073C229.678 74.6109 230.639 79.7508 230.571 84.9287V145.959ZM153.718 144.597H229.208V84.9287C229.275 79.9305 228.348 74.9688 226.482 70.3317C224.615 65.6945 221.845 61.4743 218.334 57.9161C214.822 54.3579 210.638 51.5326 206.026 49.6042C201.413 47.6758 196.463 46.6828 191.463 46.6828C186.463 46.6828 181.513 47.6758 176.9 49.6042C172.287 51.5326 168.104 54.3579 164.592 57.9161C161.081 61.4743 158.311 65.6945 156.444 70.3317C154.578 74.9688 153.651 79.9305 153.718 84.9287V144.597Z" fill="black"/>
<path d="M229.889 353.652H208.18V166.798H209.543V352.289H229.889V353.652Z" fill="black"/>
<path d="M236.869 353.652H229.208V145.285H229.89V144.603H236.869V353.652ZM230.571 352.289H235.506V145.959H230.571V352.289Z" fill="black"/>
<path d="M220.388 361.829C202.223 361.829 185.142 360.971 172.286 359.424C151.797 356.957 151.797 353.972 151.797 352.971C151.797 351.424 153.535 349.12 168.572 346.994C178.919 345.536 193.226 344.555 208.849 344.234V345.597C193.28 345.911 179.034 346.892 168.735 348.323C153.569 350.47 153.133 352.705 153.133 352.95C153.133 353.986 157.223 356.221 172.423 358.054C185.224 359.594 202.25 360.446 220.361 360.446C238.472 360.446 255.499 359.594 268.3 358.054C283.527 356.221 287.589 353.965 287.589 352.95C287.589 352.718 287.194 350.606 273.323 348.521C263.924 347.103 250.721 346.095 236.141 345.679L236.182 344.316C241.587 344.473 288.953 346.027 288.953 352.95C288.953 353.938 288.953 356.937 268.463 359.403C255.608 360.971 238.567 361.829 220.388 361.829Z" fill="black"/>
<path d="M220.388 370C202.223 370 185.142 369.148 172.286 367.601C151.797 365.134 151.797 362.15 151.797 361.148H153.16C153.16 362.177 157.25 364.412 172.45 366.245C185.251 367.785 202.278 368.637 220.388 368.637C238.499 368.637 255.526 367.785 268.327 366.245C283.554 364.412 287.617 362.156 287.617 361.148H288.98C288.98 362.129 288.98 365.134 268.49 367.601C255.642 369.148 238.567 370 220.388 370Z" fill="black"/>
<path d="M153.16 352.971H151.797V361.148H153.16V352.971Z" fill="black"/>
<path d="M288.979 352.971H287.616V361.148H288.979V352.971Z" fill="black"/>
<path d="M163.841 191.773C156.051 191.685 148.283 190.941 140.618 189.552C130.912 187.903 124.259 184.1 120.408 181.197C119.196 180.287 118.225 179.093 117.58 177.721C116.935 176.35 116.635 174.841 116.707 173.327C116.797 171.536 117.313 169.793 118.211 168.242C119.11 166.69 120.365 165.376 121.873 164.406L152.683 144.706L153.419 145.857L122.616 165.531C121.293 166.375 120.191 167.523 119.4 168.879C118.61 170.235 118.154 171.759 118.07 173.327C117.993 174.626 118.242 175.924 118.793 177.103C119.344 178.282 120.18 179.305 121.226 180.08C124.968 182.887 131.409 186.574 140.85 188.182C148.441 189.557 156.134 190.294 163.848 190.383C184.235 190.383 190.997 183.644 194.705 179.95C195.1 179.562 195.454 179.207 195.788 178.901C197.213 177.586 201.446 173.347 208.378 166.294C217.921 156.611 229.29 144.903 229.399 144.781L229.89 145.258H230.572V145.537L230.381 145.741C230.265 145.857 218.875 157.571 209.353 167.255C202.4 174.321 198.154 178.58 196.709 179.909C196.388 180.202 196.027 180.55 195.666 180.925C191.828 184.775 184.794 191.767 163.841 191.773Z" fill="black"/>
<path d="M202.891 86.1144L183.663 127.812L174.393 94.5507L202.891 86.1144Z" fill="white"/>
<path d="M174.392 94.5507L183.662 127.812L115.889 96.5747L147.209 82.0189L155.307 100.2L174.392 94.5507Z" fill="white"/>
<path d="M202.891 86.1144L174.392 94.5507L155.307 100.2L147.209 82.0188L135.117 54.8766L202.891 86.1144Z" fill="white"/>
<path d="M135.117 54.8766L147.209 82.0188L115.889 96.5746L135.117 54.8766Z" fill="white"/>
<path d="M183.997 128.712L114.982 96.9086L134.784 53.9771L203.804 85.7805L183.997 128.712ZM116.796 96.2407L183.335 126.906L201.991 86.4483L135.452 55.783L116.796 96.2407Z" fill="#010973"/>
<path d="M154.925 101.025L134.49 55.156L135.738 54.5973L155.682 99.3822L202.7 85.4602L203.089 86.7617L154.925 101.025Z" fill="#010973"/>
<path d="M146.922 81.3916L115.603 95.946L116.177 97.182L147.497 82.6276L146.922 81.3916Z" fill="#010973"/>
<path d="M174.57 93.8527L173.262 94.2207L182.587 127.369L183.896 127.001L174.57 93.8527Z" fill="#010973"/>
</g>
<path d="M341.789 32L338.842 23.1579L330 19.7895L338.842 16.8421L341.789 8L345.158 16.8421L354 19.7895L345.158 23.1579L341.789 32Z" fill="#FF8600"/>
<path d="M292.93 8L291.947 5.05263L289 3.92982L291.947 2.94737L292.93 0L294.053 2.94737L297 3.92982L294.053 5.05263L292.93 8Z" fill="#010973"/>
<path d="M242.895 19L241.421 14.5789L237 12.8947L241.421 11.4211L242.895 7L244.579 11.4211L249 12.8947L244.579 14.5789L242.895 19Z" fill="#FF8600"/>
<path d="M317.912 53L316.684 49.3158L313 47.9123L316.684 46.6842L317.912 43L319.316 46.6842L323 47.9123L319.316 49.3158L317.912 53Z" fill="#FF8600"/>
<path d="M353.86 91L351.895 85.1053L346 82.8596L351.895 80.8947L353.86 75L356.105 80.8947L362 82.8596L356.105 85.1053L353.86 91Z" fill="#010973"/>
<defs>
<clipPath id="clip0">
<rect width="299" height="350" fill="white" transform="translate(0 20)"/>
</clipPath>
</defs>
</svg>
