<svg width="20" height="22" viewBox="0 0 20 22" fill="none" xmlns="http://www.w3.org/2000/svg">
<mask id="path-1-inside-1" fill="white">
<path d="M4.9394 22C3.67408 22 2.40852 21.4699 1.44511 20.41C-0.481704 18.2908 -0.481704 14.8428 1.44511 12.7238L6.96176 6.65616C7.62843 5.92292 8.51488 5.51889 9.45758 5.51889C10.4 5.51889 11.287 5.92292 11.9534 6.65616C12.6201 7.38915 12.9874 8.36414 12.9874 9.40125C12.9874 10.4384 12.6201 11.4128 11.9534 12.1458L7.53759 17.0034C7.2618 17.3068 6.81516 17.3068 6.53936 17.0034C6.26356 16.7001 6.26356 16.2088 6.53936 15.9055L10.9559 11.0481C11.3557 10.6081 11.576 10.0232 11.576 9.40125C11.576 8.77904 11.3557 8.19409 10.9559 7.75409C10.5556 7.31409 10.024 7.07184 9.45805 7.07184C8.89258 7.07184 8.36051 7.31409 7.96047 7.75409L2.44358 13.8217C1.06718 15.3356 1.06718 17.7985 2.44358 19.3124C3.82021 20.826 6.05907 20.8265 7.4357 19.3124L17.5559 8.18038C18.9321 6.66652 18.9321 4.20355 17.5559 2.68969C16.8893 1.95645 16.0024 1.55242 15.0604 1.55242C14.1172 1.55242 13.2312 1.95645 12.5643 2.68969L11.3926 3.97864C11.1171 4.28198 10.6702 4.28198 10.3944 3.97864C10.1186 3.67555 10.1186 3.18405 10.3944 2.88071L11.5661 1.59176C12.4994 0.56527 13.7404 0 15.0604 0C16.3805 0 17.6214 0.565529 18.5549 1.59202C20.4817 3.71127 20.4817 7.15932 18.5549 9.27856L8.43393 20.41C7.47053 21.4699 6.20497 22 4.9394 22Z"/>
</mask>
<path d="M1.44511 20.41L2.92508 19.0648L2.92491 19.0646L1.44511 20.41ZM1.44511 12.7238L2.92483 14.0693L2.92491 14.0692L1.44511 12.7238ZM6.96176 6.65616L5.48196 5.31073L6.96176 6.65616ZM11.9534 6.65616L10.4734 8.00134L10.4738 8.00186L11.9534 6.65616ZM11.9534 12.1458L10.4738 10.8001L10.4735 10.8005L11.9534 12.1458ZM7.53759 17.0034L9.01739 18.3488L9.0175 18.3487L7.53759 17.0034ZM6.53936 15.9055L5.05959 14.56L5.05956 14.5601L6.53936 15.9055ZM10.9559 11.0481L12.4356 12.3936L12.4361 12.3931L10.9559 11.0481ZM10.9559 7.75409L12.4361 6.4091L12.4353 6.40823L10.9559 7.75409ZM7.96047 7.75409L9.44024 9.09956L9.44027 9.09953L7.96047 7.75409ZM2.44358 13.8217L0.963809 12.4762L0.96378 12.4763L2.44358 13.8217ZM2.44358 19.3124L0.96378 20.6578L0.964009 20.6581L2.44358 19.3124ZM7.4357 19.3124L8.9155 20.6578L8.91556 20.6577L7.4357 19.3124ZM17.5559 8.18038L19.0358 9.52574L19.0359 9.52568L17.5559 8.18038ZM17.5559 2.68969L19.0359 1.34439L19.0357 1.34426L17.5559 2.68969ZM12.5643 2.68969L11.0847 1.344L11.0844 1.34441L12.5643 2.68969ZM11.3926 3.97864L9.9127 2.63335L9.91226 2.63383L11.3926 3.97864ZM10.3944 3.97864L11.8742 2.6332L11.8736 2.63257L10.3944 3.97864ZM10.3944 2.88071L11.8742 4.22614L11.8743 4.22599L10.3944 2.88071ZM11.5661 1.59176L10.0863 0.246332L10.0861 0.24648L11.5661 1.59176ZM18.5549 1.59202L20.0347 0.246591L20.0345 0.246406L18.5549 1.59202ZM18.5549 9.27856L20.0347 10.624L20.0347 10.624L18.5549 9.27856ZM8.43393 20.41L6.95415 19.0646L6.95397 19.0648L8.43393 20.41ZM4.9394 20C4.24487 20 3.51435 19.7131 2.92508 19.0648L-0.0348536 21.7553C1.30269 23.2268 3.10328 24 4.9394 24V20ZM2.92491 19.0646C1.69165 17.7082 1.69177 15.4253 2.92483 14.0693L-0.0346083 11.3782C-2.65517 14.2602 -2.65506 18.8734 -0.0346901 21.7555L2.92491 19.0646ZM2.92491 14.0692L8.44156 8.0016L5.48196 5.31073L-0.0346901 11.3783L2.92491 14.0692ZM8.44156 8.0016C8.75127 7.66095 9.11035 7.51889 9.45758 7.51889V3.51889C7.91942 3.51889 6.50558 4.18488 5.48196 5.31073L8.44156 8.0016ZM9.45758 7.51889C9.80486 7.51889 10.1642 7.66116 10.4734 8.00134L13.4334 5.31099C12.4098 4.18468 10.9952 3.51889 9.45758 3.51889V7.51889ZM10.4738 8.00186C10.789 8.34833 10.9874 8.83649 10.9874 9.40125H14.9874C14.9874 7.8918 14.4512 6.42998 13.433 5.31047L10.4738 8.00186ZM10.9874 9.40125C10.9874 9.96574 10.7891 10.4535 10.4738 10.8001L13.433 13.4915C14.451 12.3722 14.9874 10.911 14.9874 9.40125H10.9874ZM10.4735 10.8005L6.05768 15.6581L9.0175 18.3487L13.4333 13.4911L10.4735 10.8005ZM6.05779 15.658C6.29246 15.3999 6.64609 15.2309 7.03848 15.2309C7.43086 15.2309 7.78449 15.3999 8.01916 15.658L5.05956 18.3488C6.12886 19.5249 7.94809 19.5249 9.01739 18.3488L6.05779 15.658ZM8.01916 15.658C8.24524 15.9066 8.33251 16.2008 8.33251 16.4544C8.33251 16.7081 8.24524 17.0023 8.01916 17.2509L5.05956 14.5601C4.09016 15.6263 4.09016 17.2826 5.05956 18.3488L8.01916 15.658ZM8.01912 17.251L12.4356 12.3936L9.47611 9.70267L5.05959 14.56L8.01912 17.251ZM12.4361 12.3931C13.1869 11.5669 13.576 10.4955 13.576 9.40125H9.57595C9.57595 9.55094 9.5245 9.64942 9.47568 9.70314L12.4361 12.3931ZM13.576 9.40125C13.576 8.30689 13.1869 7.23545 12.4361 6.4091L9.47568 9.09909C9.52443 9.15274 9.57595 9.25118 9.57595 9.40125H13.576ZM12.4353 6.40823C11.6781 5.57595 10.6194 5.07184 9.45805 5.07184V9.07184C9.45642 9.07184 9.4529 9.07162 9.44844 9.07064C9.44403 9.06968 9.44104 9.06849 9.43996 9.068C9.43893 9.06754 9.4415 9.06855 9.44732 9.07283C9.45318 9.07714 9.46331 9.08549 9.47647 9.09996L12.4353 6.40823ZM9.45805 5.07184C8.29756 5.07184 7.23799 5.57571 6.48067 6.40866L9.44027 9.09953C9.45319 9.08532 9.46315 9.0771 9.46893 9.07285C9.47468 9.06862 9.47724 9.0676 9.47628 9.06804C9.47526 9.0685 9.47233 9.06967 9.46795 9.07063C9.46352 9.07159 9.45991 9.07184 9.45805 9.07184V5.07184ZM6.48069 6.40863L0.963809 12.4762L3.92335 15.1672L9.44024 9.09956L6.48069 6.40863ZM0.96378 12.4763C-1.10622 14.753 -1.10622 18.3811 0.96378 20.6578L3.92338 17.9669C3.24058 17.216 3.24058 15.9181 3.92338 15.1671L0.96378 12.4763ZM0.964009 20.6581C3.13379 23.0437 6.74503 23.045 8.9155 20.6578L5.9559 17.9669C5.3731 18.6079 4.50664 18.6082 3.92315 17.9667L0.964009 20.6581ZM8.91556 20.6577L19.0358 9.52574L16.0761 6.83501L5.95584 17.967L8.91556 20.6577ZM19.0359 9.52568C21.1055 7.24899 21.1055 3.62108 19.0359 1.34439L16.076 4.035C16.7587 4.78603 16.7587 6.08404 16.076 6.83507L19.0359 9.52568ZM19.0357 1.34426C18.0121 0.218353 16.5977 -0.447576 15.0604 -0.447576V3.55242C15.407 3.55242 15.7665 3.69454 16.0761 4.03513L19.0357 1.34426ZM15.0604 -0.447576C13.5215 -0.447576 12.1084 0.218555 11.0847 1.344L14.0439 4.03539C14.3541 3.69434 14.7129 3.55242 15.0604 3.55242V-0.447576ZM11.0844 1.34441L9.9127 2.63335L12.8726 5.32392L14.0442 4.03498L11.0844 1.34441ZM9.91226 2.63383C10.1474 2.37499 10.5014 2.20614 10.8936 2.20614C11.2857 2.20614 11.6394 2.37492 11.8742 2.6332L8.9146 5.32407C9.98357 6.49979 11.8035 6.50075 12.873 5.32344L9.91226 2.63383ZM11.8736 2.63257C12.1004 2.88177 12.1876 3.17636 12.1876 3.42977C12.1876 3.68319 12.1004 3.97734 11.8742 4.22614L8.9146 1.53527C7.9455 2.60116 7.94472 4.25823 8.91517 5.3247L11.8736 2.63257ZM11.8743 4.22599L13.046 2.93705L10.0861 0.24648L8.91446 1.53542L11.8743 4.22599ZM13.0459 2.9372C13.6219 2.30364 14.3355 2 15.0604 2V-2C13.1454 -2 11.3768 -1.1731 10.0863 0.246332L13.0459 2.9372ZM15.0604 2C15.7851 2 16.4987 2.30364 17.0753 2.93764L20.0345 0.246406C18.7441 -1.17258 16.9759 -2 15.0604 -2V2ZM17.0751 2.93746C18.3083 4.29383 18.3083 6.57675 17.0751 7.93313L20.0347 10.624C22.6551 7.74188 22.6551 3.12871 20.0347 0.246591L17.0751 2.93746ZM17.0751 7.93312L6.95415 19.0646L9.91372 21.7555L20.0347 10.624L17.0751 7.93312ZM6.95397 19.0648C6.36473 19.713 5.63422 20 4.9394 20V24C6.77571 24 8.57632 23.2268 9.9139 21.7553L6.95397 19.0648Z" fill="#010973" mask="url(#path-1-inside-1)"/>
</svg>
