<svg width="9" height="18" viewBox="0 0 9 18" fill="none" xmlns="http://www.w3.org/2000/svg">
<path d="M2.39007 17.8132V10.4634H0.455252C0.227626 10.4634 0 10.239 0 10.0146V7.65812C0 7.43369 0.227626 7.20927 0.455252 7.20927H2.39007V4.90894C2.39007 2.21587 4.04036 0.813232 6.43043 0.813232H8.42216C8.64978 0.813232 8.87741 1.03765 8.87741 1.26208V3.28188C8.87741 3.5063 8.64978 3.73072 8.42216 3.73072H7.22712C5.91827 3.73072 5.63374 4.34789 5.63374 5.24558V7.20927H8.53597C8.8205 7.20927 9.04813 7.43369 8.99122 7.71422L8.70669 10.0707C8.70669 10.2951 8.47906 10.4634 8.25144 10.4634H5.69065V17.8132H2.39007Z" fill="#E76800"/>
</svg>
