<svg width="40" height="56" viewBox="0 0 40 56" fill="none" xmlns="http://www.w3.org/2000/svg">
<g clip-path="url(#clip0)">
<path d="M39.3586 11.7356V55.3621H0.640625V0.637695H28.3329L39.3586 11.7356Z" stroke="#010973" stroke-width="2" stroke-miterlimit="10"/>
<path d="M4.87305 20.0273V35.9727H35.1295V20.0273H4.87305ZM13.9756 30.615C14.4884 30.615 15.2577 30.4875 16.0269 30.2324V31.6355C15.3859 31.8907 14.6166 32.0182 13.8474 32.0182C12.6936 32.0182 11.7961 31.6355 11.1551 30.9977C10.5141 30.3599 10.2577 29.3394 10.2577 27.9362C10.2577 27.1709 10.3859 26.4055 10.7705 25.7677C11.0269 25.1299 11.5397 24.6196 12.0525 24.3645C12.5654 24.1093 13.3346 23.8542 14.1038 23.8542C14.873 23.8542 15.6423 23.9818 16.4115 24.3645L15.8987 25.7677C15.6423 25.6401 15.2577 25.5125 15.0013 25.385C14.7448 25.2574 14.3602 25.2574 14.1038 25.2574C13.4628 25.2574 12.95 25.5125 12.5654 26.0228C12.1807 26.533 12.0525 27.1709 12.0525 28.0638C11.9243 29.7221 12.6936 30.615 13.9756 30.615ZM19.1038 31.8907C18.9756 32.0182 18.7192 32.1458 18.4628 32.1458C18.2064 32.1458 17.95 32.0182 17.6936 31.8907C17.4371 31.7631 17.4371 31.508 17.4371 31.2529C17.4371 30.9977 17.5654 30.7426 17.6936 30.615C17.8218 30.4875 18.0782 30.3599 18.4628 30.3599C18.7192 30.3599 18.9756 30.4875 19.1038 30.615C19.232 30.7426 19.3602 30.9977 19.3602 31.2529C19.3602 31.508 19.232 31.6355 19.1038 31.8907ZM24.4884 32.0182H22.6936L20.0013 23.9818H21.6679L23.2064 28.7016C23.3346 28.9567 23.3346 29.3394 23.4628 29.7221C23.591 30.1048 23.591 30.3599 23.591 30.4875C23.591 30.1048 23.7192 29.5945 23.9756 28.7016L25.5141 23.9818H27.1807L24.4884 32.0182ZM29.4884 31.8907C29.3602 32.0182 29.1038 32.1458 28.8474 32.1458C28.591 32.1458 28.3346 32.0182 28.0782 31.8907C27.8218 31.7631 27.8218 31.508 27.8218 31.2529C27.8218 30.9977 27.95 30.7426 28.0782 30.615C28.2064 30.4875 28.4628 30.3599 28.8474 30.3599C29.1038 30.3599 29.3602 30.4875 29.4884 30.615C29.6166 30.7426 29.7448 30.9977 29.7448 31.2529C29.7448 31.508 29.7448 31.6355 29.4884 31.8907Z" fill="#FF8600"/>
</g>
<defs>
<clipPath id="clip0">
<rect width="40" height="56" fill="white"/>
</clipPath>
</defs>
</svg>
