<svg width="18" height="18" viewBox="0 0 18 18" fill="none" xmlns="http://www.w3.org/2000/svg">
<path d="M13.2342 0.813477H5.63891C3.06095 0.813477 0.954224 2.92459 0.954224 5.50792V13.119C0.954224 15.7024 3.06095 17.8135 5.63891 17.8135H13.2342C15.8122 17.8135 17.9189 15.7024 17.9189 13.119V5.50792C17.9189 2.92459 15.8399 0.813477 13.2342 0.813477ZM16.422 13.119C16.422 14.869 15.0083 16.3135 13.2342 16.3135H5.63891C3.89255 16.3135 2.45111 14.8968 2.45111 13.119V5.50792C2.45111 3.75792 3.86483 2.31348 5.63891 2.31348H13.2342C14.9806 2.31348 16.422 3.73014 16.422 5.50792V13.119Z" fill="#FF8600"/>
<path d="M9.43665 4.92456C7.02501 4.92456 5.05688 6.89678 5.05688 9.31345C5.05688 11.7301 7.02501 13.7023 9.43665 13.7023C11.8483 13.7023 13.8164 11.7301 13.8164 9.31345C13.8164 6.89678 11.8483 4.92456 9.43665 4.92456ZM9.43665 12.2023C7.85661 12.2023 6.58149 10.9246 6.58149 9.34123C6.58149 7.75789 7.85661 6.48012 9.43665 6.48012C11.0167 6.48012 12.3195 7.73012 12.3195 9.31345C12.3195 10.8968 11.0167 12.2023 9.43665 12.2023Z" fill="#FF8600"/>
<path d="M14.0104 3.64673C13.7332 3.64673 13.4282 3.75784 13.2342 3.98006C13.0402 4.17451 12.9016 4.48006 12.9016 4.75784C12.9016 5.03562 13.0124 5.34117 13.2342 5.53562C13.4282 5.73006 13.7332 5.86895 14.0104 5.86895C14.3153 5.86895 14.5925 5.75784 14.7865 5.53562C14.9806 5.34117 15.1192 5.03562 15.1192 4.75784C15.1192 4.45228 15.0083 4.17451 14.7865 3.98006C14.5648 3.78562 14.2876 3.64673 14.0104 3.64673Z" fill="#FF8600"/>
</svg>
