<svg width="21" height="18" viewBox="0 0 21 18" fill="none" xmlns="http://www.w3.org/2000/svg">
<path d="M20.9283 2.69278C20.1458 3.006 19.3633 3.31922 18.5808 3.31922C19.3633 2.84939 20.1458 2.06635 20.4588 0.970085C19.6763 1.43991 18.7373 1.75313 17.7983 1.90974C17.0157 1.2833 15.9202 0.813477 14.8247 0.813477C12.4772 0.813477 10.5992 2.69278 10.5992 4.8853C10.5992 5.19852 10.5992 5.51174 10.7557 5.82496C7.31263 5.66835 4.3391 4.10226 2.30457 1.59652C1.99157 2.22295 1.67857 2.84939 1.67857 3.63243C1.67857 5.04191 2.46108 6.29478 3.55659 7.07783C2.93058 7.07783 2.30457 6.92122 1.67857 6.608C1.67857 8.64391 3.08708 10.21 4.9651 10.6798C4.6521 10.6798 4.3391 10.8364 3.86959 10.8364C3.55659 10.8364 3.40009 10.8364 3.08708 10.8364C3.55659 12.4025 5.12161 13.6554 6.99963 13.6554C5.59111 14.595 3.86959 15.3781 1.83507 15.3781C1.52206 15.3781 1.20906 15.3781 0.896057 15.3781C2.77408 16.4743 4.8086 17.2574 7.15613 17.2574C14.6682 17.2574 18.8938 10.993 18.8938 5.51174V5.04191C19.6763 4.25887 20.3023 3.63243 20.9283 2.69278Z" fill="#FF8600"/>
</svg>
