<svg width="17" height="18" viewBox="0 0 17 18" fill="none" xmlns="http://www.w3.org/2000/svg">
<path d="M12.3056 0.813232H4.69444C2.11111 0.813232 0 2.92434 0 5.50768V13.1188C0 15.7021 2.11111 17.8132 4.69444 17.8132H12.3056C14.8889 17.8132 17 15.7021 17 13.1188V5.50768C17 2.92434 14.9167 0.813232 12.3056 0.813232ZM15.5 13.1188C15.5 14.8688 14.0833 16.3132 12.3056 16.3132H4.69444C2.94444 16.3132 1.5 14.8966 1.5 13.1188V5.50768C1.5 3.75768 2.91667 2.31323 4.69444 2.31323H12.3056C14.0556 2.31323 15.5 3.7299 15.5 5.50768V13.1188Z" fill="#FF8600"/>
<path d="M8.50009 4.92444C6.08343 4.92444 4.11121 6.89666 4.11121 9.31333C4.11121 11.73 6.08343 13.7022 8.50009 13.7022C10.9168 13.7022 12.889 11.73 12.889 9.31333C12.889 6.89666 10.9168 4.92444 8.50009 4.92444ZM8.50009 12.2022C6.91676 12.2022 5.63898 10.9244 5.63898 9.3411C5.63898 7.75777 6.91676 6.47999 8.50009 6.47999C10.0834 6.47999 11.389 7.72999 11.389 9.31333C11.389 10.8967 10.0834 12.2022 8.50009 12.2022Z" fill="#FF8600"/>
<path d="M13.0833 3.64655C12.8055 3.64655 12.4999 3.75766 12.3055 3.97988C12.1111 4.17432 11.9722 4.47988 11.9722 4.75766C11.9722 5.03543 12.0833 5.34099 12.3055 5.53543C12.4999 5.72988 12.8055 5.86877 13.0833 5.86877C13.3888 5.86877 13.6666 5.75766 13.8611 5.53543C14.0555 5.34099 14.1944 5.03543 14.1944 4.75766C14.1944 4.4521 14.0833 4.17432 13.8611 3.97988C13.6388 3.78543 13.3611 3.64655 13.0833 3.64655Z" fill="#FF8600"/>
</svg>
