<svg width="9" height="18" viewBox="0 0 9 18" fill="none" xmlns="http://www.w3.org/2000/svg">
<path d="M2.3851 17.8135V10.4636H0.454305C0.227153 10.4636 0 10.2392 0 10.0148V7.65836C0 7.43394 0.227153 7.20952 0.454305 7.20952H2.3851V4.90919C2.3851 2.21612 4.03196 0.813477 6.41706 0.813477H8.40465C8.6318 0.813477 8.85895 1.0379 8.85895 1.26232V3.28212C8.85895 3.50655 8.6318 3.73097 8.40465 3.73097H7.2121C5.90597 3.73097 5.62203 4.34813 5.62203 5.24582V7.20952H8.51822C8.80216 7.20952 9.02932 7.43394 8.97253 7.71447L8.68859 10.0709C8.68859 10.2953 8.46144 10.4636 8.23428 10.4636H5.67882V17.8135H2.3851Z" fill="#FF8600"/>
</svg>
