<svg width="80" height="80" viewBox="0 0 80 80" fill="none" xmlns="http://www.w3.org/2000/svg">
<path d="M77.215 73.993C75.3765 69.3699 71.6996 65.6715 67.563 63.8223L55.613 58.7369C53.3149 57.8123 51.936 55.9631 51.936 53.6516V49.4908C56.9918 45.7924 60.6688 39.7824 60.6688 32.8479V21.2903C60.6688 9.73266 51.4764 0.486572 39.986 0.486572C28.4956 0.486572 19.3033 9.73266 19.3033 21.2903V32.8479C19.3033 39.7824 22.5206 45.7924 28.036 49.4908V53.6516C28.036 55.9631 26.6571 58.2746 24.359 58.7369L12.8686 63.8223C8.27247 65.6715 4.59553 69.3699 2.75707 73.993L0.458984 79.5406H79.513L77.215 73.993ZM23.8994 32.8479V21.2903C23.8994 12.5065 31.2533 5.10962 39.986 5.10962C48.7187 5.10962 56.0726 12.5065 56.0726 21.2903V32.8479C56.0726 41.6317 48.7187 49.0285 39.986 49.0285C31.2533 49.0285 23.8994 41.6317 23.8994 32.8479ZM6.89362 74.9176C8.27247 71.6814 10.5705 69.3699 13.7879 68.4453L25.2783 63.36C29.4148 61.9731 31.7129 57.8123 31.7129 53.6516V51.8024C34.011 52.727 36.7687 53.1893 39.0668 53.1893C41.3649 53.1893 44.1226 52.727 46.4206 51.8024V53.6516C46.4206 57.8123 49.1783 61.5108 52.8553 63.36L64.8053 68.4453C68.0226 69.8322 70.3207 72.1438 71.6996 74.9176H6.89362Z" fill="#9D9D9D"/>
</svg>
