<svg width="270" height="394" viewBox="0 0 270 394" fill="none" xmlns="http://www.w3.org/2000/svg">
<ellipse cx="121" cy="371.5" rx="88" ry="22.5" fill="#ECECEC"/>
<g clip-path="url(#clip0)">
<path d="M63.2323 77.0459C63.0582 77.0453 62.8872 77.0929 62.7384 77.1834C62.5895 77.2739 62.4686 77.4037 62.3888 77.5586C62.3091 77.7136 62.2736 77.8875 62.2865 78.0613C62.2993 78.2351 62.3598 78.4019 62.4614 78.5434L81.9935 105.826L86.8555 109.052L65.3763 79.7764H73.2882L72.9281 79.2134H78.7523C78.4355 78.5526 78.2446 77.8386 78.1895 77.1078H63.238L63.2323 77.0459Z" fill="#FF8600"/>
<path d="M65.3769 79.7258L86.856 109.029L97.6828 116.219L95.0718 108.568C95.0718 108.568 94.7679 102.836 99.1628 108.365C103.558 113.893 106.54 116.016 106.54 116.016C106.54 116.016 106.647 116.151 106.692 116.219H122.662L95.9159 79.7258H92.2863L92.849 80.6266C92.9588 80.7978 93.0202 80.9956 93.0267 81.1989C93.0332 81.4022 92.9845 81.6034 92.8858 81.7813C92.7871 81.9591 92.6421 82.1069 92.4662 82.2089C92.2903 82.3109 92.0901 82.3633 91.8868 82.3606H76.5807C76.0763 82.3625 75.5798 82.2353 75.1385 81.9909C74.6972 81.7465 74.3258 81.3931 74.0597 80.9644L73.2831 79.7258H65.3769Z" fill="white"/>
<path d="M72.9229 79.1516L73.283 79.7146L74.0595 80.9532C74.3257 81.3819 74.6971 81.7352 75.1384 81.9796C75.5797 82.224 76.0762 82.3513 76.5806 82.3494H91.8585C92.0618 82.3521 92.262 82.2997 92.4379 82.1977C92.6138 82.0957 92.7588 81.9479 92.8575 81.7701C92.9562 81.5922 93.0049 81.391 92.9985 81.1876C92.992 80.9843 92.9306 80.7866 92.8208 80.6154L92.258 79.7146L91.9035 79.1516H72.9003H72.9229Z" fill="#666666"/>
<path d="M80.2158 75.2275C78.567 75.2275 78.1562 76.1171 78.1844 77.046C78.2395 77.7767 78.4303 78.4908 78.7471 79.1516H86.2988C85.7591 78.3733 85.1217 77.6676 84.4025 77.0516C83.2688 75.9638 81.784 75.3169 80.2158 75.2275Z" fill="#666666"/>
<path d="M130.72 167.552C133.05 167.482 135.344 166.958 137.473 166.009C142.661 163.927 147.676 161.437 152.47 158.561C158.019 155.24 163.058 151.131 167.427 146.361C165.936 142.088 157.894 122.614 133.939 118.651C129.505 130.507 126.303 140.607 126.303 140.607L123.292 137.679L107.722 122.524C108.224 121.285 108.298 119.913 107.93 118.628C107.682 117.75 107.263 116.929 106.698 116.213C106.653 116.145 106.596 116.078 106.546 116.01C106.495 115.943 103.563 113.893 99.1684 108.359C94.7736 102.825 95.0774 108.562 95.0774 108.562L97.6885 116.213L86.8616 109.024L81.9997 105.798C81.9997 105.798 79.248 111.185 83.8736 115.712C88.4992 120.238 100.001 127.872 100.001 127.872L118.239 156.663L122.921 164.055C122.921 164.055 124.902 167.118 129.674 167.501C129.989 167.54 130.343 167.557 130.72 167.552Z" fill="white"/>
<path d="M84.4082 77.0459C85.1275 77.6619 85.7648 78.3676 86.3046 79.1458H91.9318L92.2863 79.7088H95.9215L122.668 116.202H106.703C107.269 116.918 107.688 117.738 107.936 118.617H124.637C124.811 118.616 124.981 118.568 125.129 118.477C125.277 118.386 125.397 118.256 125.476 118.102C125.556 117.947 125.59 117.773 125.577 117.6C125.564 117.427 125.504 117.26 125.403 117.119L103.113 86.0368L97.559 78.2901C97.2841 77.906 96.9218 77.5929 96.502 77.3766C96.0823 77.1602 95.6171 77.0469 95.1449 77.0459H84.4082Z" fill="#FF8600"/>
<path d="M85.657 355.927L131.479 356.822L131.142 353.01L90.0743 352.875L85.657 355.927Z" fill="black"/>
<path d="M108.825 345.923H108.819L90.075 352.875L131.143 353.011L129.516 334.545H116.607L110.085 339.054H110.254L116.607 334.702H129.426L129.736 338.159L116.765 342.972L108.825 345.923Z" fill="#FF8600"/>
<path d="M90.075 352.875L108.819 345.923H100.227L90.075 352.875Z" fill="#BF6A16"/>
<path d="M90.075 352.875L100.227 345.923H100.142L90.075 352.875Z" fill="#FF8600"/>
<path d="M99.1735 387.719H147.635C147.635 387.719 148.052 386.356 148.761 383.851H104.249L99.1735 387.719Z" fill="black"/>
<path d="M100.142 345.923H100.226L105.145 342.55H105.015L100.142 345.923Z" fill="#FF8600"/>
<path d="M105.144 342.55L100.226 345.923H108.819H108.825L116.765 342.973L116.607 342.55H105.144Z" fill="#BF6A16"/>
<path d="M103.113 86.0369L125.397 117.136C125.498 117.277 125.558 117.444 125.571 117.617C125.584 117.79 125.55 117.964 125.47 118.119C125.391 118.273 125.271 118.403 125.123 118.494C124.975 118.585 124.805 118.633 124.631 118.634H116.449L123.765 135.309C125.003 129.812 126.601 124.401 128.548 119.112L118.582 100.534C117.589 97.0037 115.71 93.7865 113.124 91.1882C109.522 87.4725 104.75 86.3296 103.113 86.0369Z" fill="white"/>
<path d="M120.89 376.949L104.711 383.665L113.524 376.949H113.4L104.278 383.851H148.79C150.022 379.696 152.166 372.394 154.766 362.885L130.186 373.092L120.89 376.949Z" fill="#FF8600"/>
<path d="M104.711 383.665L120.89 376.949H113.524L104.711 383.665Z" fill="#BF6A16"/>
<path d="M105.015 342.55H105.144L110.254 339.054H110.085H110.079L105.015 342.55Z" fill="#FF8600"/>
<path d="M110.254 339.054L105.144 342.55H116.607L116.765 342.972L129.735 338.159L129.426 334.702H116.607L110.254 339.054Z" fill="#BF6A16"/>
<path d="M104.295 211.763C107.632 213.684 111.17 215.231 114.846 216.374C116.191 216.813 117.66 217.247 119.219 217.646C127.385 219.739 135.857 220.372 144.243 219.515C153.371 218.574 162.414 216.936 171.293 214.617L169.205 206.037L167.742 200.475C163.556 199.524 157.765 210.609 157.765 210.609C158.104 207.627 159.009 204.738 160.432 202.097C155.765 202.679 151.068 202.996 146.364 203.048C119.652 203.42 110.119 198.927 109.979 198.859C108.369 203.74 106.49 208.227 104.295 211.763Z" fill="#FF8600"/>
<path d="M113.327 186.755C112.376 190.854 111.261 194.986 109.984 198.865C110.125 198.933 119.657 203.425 146.37 203.054C151.073 203.002 155.77 202.684 160.438 202.102C162.282 198.573 165.22 195.736 168.811 194.018C172.93 192.222 174.652 192.661 176.414 192.892C178.175 193.122 180.572 192.165 180.572 192.165C180.838 192.085 181.079 191.94 181.276 191.743C181.472 191.547 181.617 191.305 181.698 191.039L184.708 190.274C184.738 187.553 184.749 184.875 184.742 182.24C184.742 182.24 172.852 190.122 147.236 190.505C121.925 190.837 113.512 186.851 113.327 186.755Z" fill="white"/>
<path d="M113.399 376.949H113.523L118.672 373.03H118.582L113.399 376.949Z" fill="#FF8600"/>
<path d="M113.523 376.949H120.889L130.186 373.092L130.163 373.03H118.672L113.523 376.949Z" fill="#BF6A16"/>
<path d="M114.845 216.374L116.618 334.545H129.516L119.719 223.383L119.218 217.674C117.648 217.246 116.19 216.813 114.845 216.374Z" fill="white"/>
<path d="M117.181 165.373C116.405 171.048 115.15 178.845 113.315 186.766C113.501 186.862 121.914 190.87 147.242 190.516C172.891 190.15 184.759 182.24 184.759 182.24C184.759 174.786 184.631 167.694 184.376 160.965C180.623 162.727 167.545 168.148 148.176 168.379C141.978 168.497 135.779 168.269 129.606 167.698C120.603 166.808 117.226 165.378 117.226 165.378L117.181 165.373Z" fill="#FF8600"/>
<path d="M117.181 165.373H117.243C117.243 165.373 120.619 166.803 129.623 167.692V167.506C124.874 167.124 122.87 164.061 122.87 164.061L118.189 156.669C118.222 156.804 117.902 160.21 117.181 165.373Z" fill="white"/>
<path d="M118.582 373.03H118.672L124.435 368.639H124.384L118.582 373.03Z" fill="#FF8600"/>
<path d="M124.435 368.639L118.673 373.03H130.163L130.186 373.092L154.766 362.885L132.015 362.869L124.435 368.639Z" fill="#BF6A16"/>
<path d="M119.218 217.646L119.719 223.355C119.797 223.614 121.204 225.607 146.369 225.241C151.008 225.188 155.641 224.878 160.246 224.312C176.993 222.206 183.847 217.297 183.847 217.297C184.008 215.045 184.141 212.82 184.246 210.62C183.121 211.025 181.297 211.667 178.844 212.433C176.751 213.086 174.213 213.829 171.292 214.589C162.413 216.908 153.37 218.545 144.242 219.487C135.857 220.353 127.386 219.73 119.218 217.646Z" fill="#333333"/>
<path d="M131.142 353.01L131.48 356.822L132.008 362.868H154.692H154.765C162.379 335.282 174.168 289.117 180.363 247.648L160.246 249.156V224.34C155.641 224.906 151.008 225.216 146.369 225.269C121.204 225.612 119.797 223.642 119.719 223.383L129.516 334.544L131.142 353.01Z" fill="white"/>
<path d="M140.405 49.9383C136.805 49.6117 133.263 48.8227 129.865 47.5906C127.036 46.5623 124.313 45.2633 121.733 43.7117C121.733 43.7117 112.871 50.6251 124.98 54.9714C125.318 55.0952 125.656 55.2078 125.993 55.3148C126.46 55.4724 126.922 55.6076 127.383 55.737C138.075 58.7265 147.495 55.8102 154.118 52.2859C155.384 51.616 156.549 50.9235 157.596 50.2423C159.915 48.7733 162.081 47.0759 164.062 45.1754C164.062 45.1754 154.174 51.2163 140.405 49.9383Z" fill="#FF8600"/>
<path d="M123.292 137.685L126.303 140.613C126.303 140.613 129.505 130.479 133.939 118.656C136.837 110.893 140.253 102.386 143.629 95.5007C145.61 91.3069 148.845 87.8326 152.886 85.5583C149.767 87.2795 146.922 89.4559 144.445 92.0158C137.034 99.5148 131.919 110.031 128.582 119.107C126.635 124.395 125.037 129.806 123.799 135.304C123.45 136.818 123.292 137.685 123.292 137.685Z" fill="#FF8600"/>
<path d="M124.384 368.639H124.435L132.015 362.869L124.384 368.639Z" fill="#FF8600"/>
<path d="M121.734 43.7116C124.313 45.2632 127.036 46.5622 129.865 47.5906C129.865 47.5906 128.627 22.9149 138.244 19.4413C138.244 19.4413 122.308 19.1711 121.734 43.7116Z" fill="#FF8600"/>
<path d="M125.994 55.3259C125.994 55.3259 124.806 83.1205 141.362 81.426C148.694 80.6772 152.706 74.49 154.884 67.8242C157.698 59.4132 157.596 50.2478 157.596 50.2478C156.55 50.929 155.385 51.6215 154.119 52.2914C154.158 52.767 154.173 53.2443 154.164 53.7214C154.124 56.9079 153.184 64.3787 145.368 65.2176C135.397 66.2873 131.565 65.8425 129.432 64.5082C127.896 63.5455 127.513 59.4414 127.412 57.1894C127.378 56.3168 127.384 55.7257 127.384 55.7257C126.922 55.5962 126.461 55.4611 125.994 55.3034V55.3259Z" fill="black"/>
<path d="M127.383 55.7201C127.383 55.7201 127.383 56.2831 127.411 57.1839C143.286 63.0389 154.163 53.7215 154.163 53.7215C154.173 53.2444 154.158 52.7671 154.118 52.2915C147.495 55.8158 138.058 58.7321 127.383 55.7201Z" fill="#E6E6E6"/>
<path d="M127.411 57.2063C127.512 59.4583 127.895 63.5455 129.431 64.5251C131.564 65.8594 135.396 66.3042 145.368 65.2345C153.195 64.3788 154.124 56.9079 154.163 53.7214C154.163 53.7214 143.286 63.0389 127.411 57.2063Z" fill="white"/>
<path d="M129.645 167.512V167.698C135.818 168.27 142.017 168.497 148.215 168.379C167.584 168.148 180.662 162.749 184.415 160.965C184.291 157.538 184.145 154.209 183.976 150.977C183.942 150.977 183.723 151.174 183.306 151.456L183.16 151.546L182.828 151.754C182.761 151.805 182.682 151.85 182.609 151.895L182.22 152.12C182.147 152.16 182.074 152.21 181.995 152.25L181.208 152.678L180.915 152.824C180.414 153.083 179.851 153.353 179.227 153.635L178.855 153.798L178.45 153.967C178.163 154.091 177.859 154.214 177.544 154.338L176.734 154.642C176.036 154.901 175.288 155.166 174.483 155.414C174.173 155.515 173.864 155.611 173.543 155.701H173.487L172.44 155.999H172.362L171.743 156.162C171.116 156.328 170.463 156.485 169.784 156.635C169.334 156.742 168.873 156.838 168.394 156.934C167.916 157.029 167.432 157.131 166.931 157.215L166.172 157.35L164.602 157.598C164.331 157.643 164.039 157.677 163.786 157.716L163.043 157.812C162.171 157.925 161.276 158.026 160.347 158.11H160.162L159.706 158.155C153.212 163.813 143.843 168.391 130.782 167.49C130.343 167.557 129.988 167.54 129.645 167.512Z" fill="white"/>
<path d="M138.243 19.4412C128.626 22.9149 129.864 47.5905 129.864 47.5905C133.262 48.8225 136.805 49.6116 140.404 49.9382C140.207 46.7911 139.003 21.3779 151.906 21.3779C150.838 20.1468 149.437 19.2513 147.872 18.7994C147.872 18.7994 137.557 20.3758 137.557 31.1851H133.815C133.815 31.1851 133.353 18.7994 144.715 18.2364C142.501 18.2222 140.304 18.6311 138.243 19.4412Z" fill="#FF8600"/>
<path d="M132.015 362.869L154.766 362.885L154.692 362.869H132.015Z" fill="#FF8600"/>
<path d="M130.721 167.552C143.781 168.452 153.151 163.875 159.645 158.217L159.144 158.257L158.452 158.307C158.136 158.336 157.827 158.352 157.506 158.375C156.887 158.412 156.257 158.446 155.615 158.476H155.52C155.25 158.476 154.957 158.476 154.698 158.51C153.978 158.51 153.246 158.549 152.492 158.561C147.699 161.437 142.684 163.928 137.496 166.009C135.36 166.961 133.058 167.485 130.721 167.552Z" fill="#E6E6E6"/>
<path d="M144.715 18.2871C133.354 18.8501 133.815 31.2358 133.815 31.2358H137.557C137.557 20.4152 147.872 18.8501 147.872 18.8501C146.851 18.5152 145.789 18.3257 144.715 18.2871Z" fill="#FF8600"/>
<path d="M179.902 111.219C179.604 103.675 178.248 98.1579 176.301 94.1495C169.419 79.9116 155.199 84.5787 155.12 84.4661C154.37 84.7857 153.637 85.1447 152.925 85.5414H152.886C148.842 87.82 145.607 91.3005 143.629 95.5006C140.253 102.386 136.809 110.881 133.911 118.634C157.866 122.575 165.907 142.071 167.398 146.344C169.161 144.38 170.77 142.283 172.21 140.072C177.122 132.534 180.335 123.059 179.874 111.225L179.902 111.219Z" fill="white"/>
<path d="M151.907 21.3779C139.004 21.3779 140.208 46.7686 140.405 49.9157C154.175 51.1711 164.039 45.1584 164.039 45.1584C164.039 45.1584 165.665 21.3779 151.907 21.3779Z" fill="#FF8600"/>
<path d="M141.378 81.4259C141.888 82.2333 142.336 83.0783 142.718 83.9538C153.758 82.8953 154.884 68.1902 154.884 67.8242C152.706 74.49 148.694 80.6772 141.378 81.4259Z" fill="#E6E6E6"/>
<path d="M142.7 83.9537C143.874 86.477 144.465 89.2326 144.428 92.0157C146.905 89.4557 149.75 87.2794 152.868 85.5582H152.908C153.62 85.1615 154.353 84.8026 155.102 84.4829C162.834 81.2063 170.915 82.6532 172.429 82.9685C172.054 82.1128 171.662 81.3227 171.253 80.5983C168.601 75.5228 166.718 70.0812 165.665 64.4519L165.558 64.6264C162.311 63.309 160.319 59.7678 159.143 56.5307C159.143 56.5307 159.143 56.48 159.115 56.4575C158.458 54.6785 157.983 52.8375 157.697 50.9627C157.695 50.9271 157.695 50.8914 157.697 50.8558V50.7263V50.5968C157.697 50.5968 157.697 50.5574 157.697 50.5349C157.694 50.5087 157.694 50.4823 157.697 50.4561C157.694 50.445 157.694 50.4334 157.697 50.4223C157.694 50.4074 157.694 50.3922 157.697 50.3772V50.3378C157.694 50.3135 157.694 50.289 157.697 50.2646C157.697 50.2646 157.697 59.4132 154.883 67.8185C154.883 68.1901 153.758 82.8953 142.7 83.9537Z" fill="white"/>
<path d="M152.492 158.561C153.246 158.561 153.978 158.561 154.698 158.51L155.52 158.476H155.615C156.257 158.446 156.887 158.413 157.506 158.375C157.827 158.375 158.136 158.336 158.452 158.307L159.144 158.257L159.645 158.217C165.232 153.265 169.551 147.045 172.238 140.078C170.799 142.293 169.19 144.394 167.427 146.361C163.065 151.129 158.034 155.238 152.492 158.561Z" fill="#BF6A16"/>
<path d="M155.52 158.476L154.698 158.51C154.974 158.504 155.249 158.493 155.52 158.476Z" fill="white"/>
<path d="M155.12 84.4661C155.199 84.5505 169.419 79.9115 176.301 94.1495C175.313 90.3211 174.024 86.5768 172.446 82.9517C170.932 82.6364 162.852 81.1895 155.12 84.4661Z" fill="#FF8600"/>
<path d="M157.596 50.2479C157.593 50.2722 157.593 50.2967 157.596 50.321V50.3605C157.594 50.3754 157.594 50.3906 157.596 50.4055C157.593 50.4166 157.593 50.4282 157.596 50.4393C157.596 50.4393 157.596 50.4899 157.596 50.5181C157.877 52.2465 159.582 61.3781 165.063 64.1536C165.245 64.2498 165.433 64.3345 165.626 64.407C164.365 58.0701 163.821 51.6114 164.005 45.1528C162.043 47.0601 159.896 48.7669 157.596 50.2479Z" fill="black"/>
<path d="M157.624 50.4448C157.621 50.4721 157.621 50.4996 157.624 50.5269C157.629 50.4976 157.629 50.4683 157.624 50.4448Z" fill="black"/>
<path d="M157.635 50.5349C157.635 50.5349 157.635 50.5743 157.635 50.5968V50.7263V50.8558C157.957 52.7558 158.443 54.6244 159.087 56.4406C159.087 56.4406 159.087 56.4857 159.115 56.5138C160.257 59.4188 162.103 62.6729 165.103 64.1648C159.622 61.3949 157.917 52.2633 157.635 50.5349Z" fill="black"/>
<path d="M157.697 50.856C157.695 50.8916 157.695 50.9273 157.697 50.9629C157.989 52.8326 158.47 54.6679 159.132 56.4408C158.494 54.624 158.013 52.7554 157.697 50.856Z" fill="white"/>
<path d="M160.431 202.096C159.007 204.741 158.102 207.635 157.764 210.62C157.764 210.62 163.555 199.54 167.741 200.486L169.204 206.037L176.615 204.467C176.615 204.467 174.927 199.191 178.05 198.156C181.173 197.12 182.586 197.193 183.25 197.868L184.623 197.502L187.178 196.844L185.4 190.088L184.707 190.274L181.652 191.062C181.571 191.328 181.426 191.569 181.23 191.766C181.034 191.962 180.792 192.107 180.526 192.188C180.526 192.188 178.14 193.151 176.368 192.914C174.595 192.678 172.885 192.239 168.765 194.04C165.193 195.758 162.27 198.584 160.431 202.096Z" fill="#808080"/>
<path d="M159.644 158.212L160.1 158.167L159.644 158.212Z" fill="white"/>
<path d="M159.644 158.212L160.1 158.172H160.285C161.214 158.088 162.109 157.986 162.981 157.874L163.724 157.778C163.999 157.739 164.286 157.705 164.539 157.66L166.109 157.412L166.869 157.277C167.37 157.193 167.86 157.097 168.332 156.995C168.805 156.894 169.272 156.804 169.722 156.697C170.401 156.543 171.054 156.386 171.68 156.224L172.299 156.061H172.378L173.425 155.763H173.481C173.802 155.667 174.117 155.577 174.421 155.475C175.226 155.228 175.974 154.963 176.672 154.704L177.482 154.4C177.797 154.276 178.101 154.152 178.388 154.029L178.793 153.86L179.165 153.696C179.801 153.415 180.363 153.133 180.853 152.886L181.145 152.739L181.933 152.311C182.012 152.272 182.085 152.221 182.158 152.182L182.547 151.957C182.62 151.912 182.699 151.867 182.766 151.816L183.098 151.608L183.244 151.518C183.661 151.236 183.88 151.067 183.914 151.039C183.285 137.725 181.938 124.455 179.879 111.287C180.341 123.109 177.128 132.596 172.215 140.134C169.525 147.076 165.215 153.275 159.644 158.212Z" fill="#FF8600"/>
<path d="M160.246 224.34V249.173L180.363 247.665C181.939 237.125 183.177 226.885 183.847 217.325C183.847 217.325 176.993 222.234 160.246 224.34Z" fill="#1A1A1A"/>
<path d="M165.103 64.1649C162.104 62.6674 160.258 59.4133 159.161 56.5083C160.337 59.7455 162.329 63.2641 165.576 64.604L165.683 64.4295C165.484 64.354 165.29 64.2656 165.103 64.1649Z" fill="black"/>
<path d="M166.11 157.395L164.54 157.643L166.11 157.395Z" fill="white"/>
<path d="M169.205 206.037L171.293 214.595C174.214 213.835 176.751 213.091 178.845 212.438L176.594 204.467L169.205 206.037Z" fill="#1A1A1A"/>
<path d="M173.454 155.706C173.775 155.616 174.084 155.521 174.394 155.419C174.118 155.521 173.803 155.611 173.454 155.706Z" fill="white"/>
<path d="M178.05 198.156C174.927 199.191 176.615 204.467 176.615 204.467L178.866 212.439C181.32 211.673 183.154 211.031 184.268 210.626C184.336 209.258 184.392 207.901 184.432 206.567C184.522 203.493 184.593 200.471 184.646 197.503L183.272 197.868C182.586 197.215 181.174 197.148 178.05 198.156Z" fill="#FF8600"/>
<path d="M179.643 111.231H180.206C179.93 104.233 178.709 98.4508 176.576 94.0483C170.73 81.9609 159.762 83.1151 155.317 84.1679L155.125 84.2129L155.165 84.4719L154.94 84.6858C155.058 84.8097 155.154 84.7871 155.446 84.6858C159.762 83.6668 170.403 82.5465 176.07 94.2566C178.146 98.6028 179.351 104.311 179.643 111.231Z" fill="black"/>
<path d="M152.633 158.797C158.203 155.46 163.257 151.327 167.635 146.53C169.405 144.556 171.023 142.45 172.474 140.23C178.011 131.723 180.606 121.961 180.206 111.214H179.643C180.06 121.843 177.499 131.481 172.03 139.898C170.591 142.095 168.988 144.18 167.235 146.136C162.897 150.89 157.888 154.987 152.368 158.296L152.633 158.797Z" fill="black"/>
<path d="M130.625 167.833H130.72C133.094 167.763 135.431 167.231 137.602 166.268C142.803 164.18 147.828 161.682 152.633 158.797L152.34 158.319C147.559 161.188 142.558 163.673 137.383 165.75C135.279 166.684 133.015 167.2 130.715 167.27C130.355 167.27 130.006 167.27 129.662 167.231C125.121 166.865 123.163 163.943 123.146 163.915L118.464 156.523L117.992 156.827L122.673 164.219C122.758 164.354 124.789 167.405 129.617 167.794C129.949 167.822 130.287 167.833 130.625 167.833Z" fill="black"/>
<path d="M117.997 156.821L118.47 156.523L100.204 127.675L100.153 127.642C100.041 127.568 88.6173 119.974 84.0648 115.515C82.8242 114.354 81.9712 112.839 81.6218 111.176C81.2725 109.513 81.4437 107.782 82.1122 106.22L98.2173 116.917L95.3531 108.523C95.3531 107.96 95.4037 106.507 96.0114 106.271C96.3322 106.152 97.1369 106.271 98.9432 108.523C103.124 113.787 106 115.954 106.343 116.207L106.467 116.365L106.923 116.033L106.754 115.825L106.703 115.774C106.669 115.774 103.693 113.601 99.3878 108.174C97.829 106.209 96.6586 105.409 95.8145 105.73C94.689 106.152 94.7847 108.32 94.796 108.545V108.618L97.1369 115.487L81.8758 105.353L81.7351 105.635C81.707 105.691 78.9215 111.264 83.6597 115.881C88.0939 120.222 98.9432 127.484 99.7817 128.036L117.997 156.821Z" fill="black"/>
<path d="M126.432 141.131L126.567 140.697C126.601 140.596 129.819 130.445 134.203 118.741C137.709 109.356 140.956 101.581 143.91 95.6584C145.865 91.5258 149.046 88.0971 153.021 85.8399L152.745 85.3501C148.67 87.661 145.407 91.1746 143.404 95.4107C140.461 101.373 137.214 109.164 133.674 118.566C129.803 128.925 126.831 138.062 126.173 140.129L108.053 122.496C108.512 121.241 108.563 119.874 108.2 118.589C107.943 117.676 107.508 116.823 106.922 116.078L106.472 116.421C107.016 117.109 107.419 117.897 107.659 118.741C108.001 119.963 107.934 121.264 107.468 122.445L107.384 122.625L107.524 122.766L126.432 141.131Z" fill="black"/>
<path d="M153.06 85.7836C153.764 85.3934 154.489 85.0419 155.232 84.7308C162.874 81.488 170.864 82.9067 172.384 83.2276L172.502 82.6646C170.949 82.3381 162.806 80.8912 155.013 84.1959C154.243 84.5176 153.492 84.8804 152.762 85.2825L153.06 85.7836Z" fill="black"/>
<path d="M167.157 146.434L167.691 146.254C166.313 142.313 158.204 122.361 133.984 118.352L133.894 118.915C157.799 122.867 165.801 142.533 167.157 146.434Z" fill="black"/>
<path d="M136.314 57.2569C142.588 57.1687 148.747 55.5492 154.253 52.5391C155.446 51.9198 156.572 51.2161 157.748 50.4842C160.071 49.0114 162.244 47.3143 164.236 45.4173L164.332 45.361V45.2147C164.465 42.5415 164.376 39.8619 164.067 37.2034C163.6 33.1611 162.379 27.6326 159.234 24.2547C158.307 23.242 157.175 22.4384 155.914 21.8977C154.652 21.357 153.29 21.0915 151.918 21.1189C150.709 21.1055 149.51 21.3496 148.402 21.8349C147.294 22.3202 146.302 23.0356 145.492 23.9338C139.443 30.3856 139.887 45.7889 140.101 49.6285C136.642 49.2813 133.24 48.506 129.972 47.3202C127.158 46.3013 124.45 45.0117 121.886 43.4694L121.722 43.3681L121.57 43.4863C121.419 43.6045 117.862 46.4251 118.385 49.6791C118.746 51.9311 120.935 53.7889 124.896 55.2133C125.234 55.3372 125.577 55.4554 125.915 55.5623C126.387 55.7144 126.854 55.8551 127.321 55.9846C130.246 56.8196 133.272 57.2478 136.314 57.2569ZM162.3 46.4026C160.762 47.7102 159.14 48.9157 157.444 50.0113C156.319 50.7488 155.148 51.43 153.989 52.0437C147.883 55.2865 138.328 58.518 127.457 55.4723C127.001 55.3428 126.545 55.2077 126.078 55.0557C125.746 54.9487 125.408 54.8305 125.076 54.7122C121.323 53.3611 119.258 51.6496 118.931 49.6454C118.515 47.05 121.103 44.6404 121.745 44.0831C124.296 45.5848 126.982 46.8421 129.769 47.8382C133.19 49.0744 136.755 49.869 140.377 50.2027C147.89 50.8572 155.445 49.5477 162.3 46.4026ZM163.786 45.0232C156.68 48.745 148.662 50.3639 140.669 49.6904C140.473 45.9941 140.559 42.2883 140.928 38.6052C141.637 31.8494 143.308 27.064 145.891 24.3166C146.649 23.475 147.578 22.8048 148.615 22.3504C149.652 21.8961 150.775 21.6682 151.907 21.6819C153.204 21.6536 154.491 21.9027 155.684 22.4124C156.877 22.9222 157.947 23.6808 158.823 24.6375C164.343 30.5433 163.887 43.4807 163.786 45.0232Z" fill="black"/>
<path d="M129.561 47.6017H130.124C130.124 47.3315 129.032 23.0668 138.34 19.6889C140.374 18.9171 142.535 18.5351 144.71 18.5629C145.755 18.5927 146.791 18.767 147.788 19.0809C149.296 19.5207 150.647 20.3821 151.682 21.5636L152.138 21.2258C151.032 19.9504 149.579 19.025 147.957 18.5629C146.912 18.2249 145.824 18.0353 144.727 17.9999C142.479 17.9745 140.248 18.3737 138.148 19.1766C134.063 20.6572 131.368 25.8817 130.169 34.7769C129.621 39.0284 129.417 43.3174 129.561 47.6017Z" fill="black"/>
<path d="M122.015 43.7171C122.178 36.798 123.754 27.52 130.344 22.622C132.618 20.8845 135.364 19.874 138.222 19.7227V19.1597C138.064 19.1597 121.998 19.1597 121.424 43.7059L122.015 43.7171Z" fill="black"/>
<path d="M133.545 31.5117H137.839V31.2302C137.839 20.7699 147.506 19.1654 147.917 19.126L147.833 18.563C147.726 18.563 137.439 20.2519 137.276 30.9487H134.097C134.128 28.9306 134.527 26.9351 135.273 25.0598C136.961 20.9669 140.14 18.7882 144.754 18.563V18C133.191 18.563 133.5 31.1063 133.534 31.2302L133.545 31.5117Z" fill="black"/>
<path d="M119.498 217.619L120.001 223.323L119.44 223.372L118.938 217.669L119.498 217.619Z" fill="black"/>
<path d="M98.3244 388H147.844L147.906 387.797C147.906 387.797 148.322 386.44 149.06 383.93C150.117 380.355 152.301 372.878 155.041 362.964C163.386 332.709 174.579 288.126 180.645 247.698C182.3 236.613 183.459 226.4 184.128 217.342C184.303 214.949 184.432 212.765 184.528 210.659C184.595 209.297 184.652 207.923 184.708 206.6C184.798 203.464 184.871 200.407 184.922 197.536H184.359C184.292 200.407 184.218 203.442 184.145 206.6C184.106 207.929 184.05 209.291 183.982 210.659C183.886 212.765 183.757 214.944 183.583 217.325C182.93 226.372 181.759 236.574 180.105 247.642C174.073 288.036 162.857 332.58 154.512 362.834C151.777 372.749 149.594 380.219 148.536 383.789C147.973 385.742 147.585 386.998 147.445 387.459H100.018L132.307 362.998L129.798 334.522L119.995 223.355L119.432 223.405L131.716 362.739L98.3244 388Z" fill="black"/>
<path d="M185.006 190.274C185.006 187.639 185.045 184.937 185.039 182.234C185.039 174.916 184.893 167.76 184.657 160.948C184.539 157.57 184.387 154.192 184.212 150.955C183.585 137.632 182.238 124.352 180.178 111.174V111.112L179.615 111.242L179.891 111.18L179.609 111.225C181.668 124.397 183.016 137.671 183.65 150.989C183.824 154.243 183.976 157.57 184.094 160.999C184.33 167.799 184.46 174.955 184.477 182.262C184.477 184.965 184.477 187.667 184.443 190.296L185.006 190.274Z" fill="black"/>
<path d="M176.031 94.2226L176.594 94.0706C175.597 90.2218 174.301 86.457 172.717 82.8109C172.328 81.9607 171.934 81.1557 171.535 80.4238C168.893 75.3744 167.019 69.9589 165.975 64.3562C164.719 58.049 164.172 51.621 164.343 45.1921H163.781C163.604 51.6657 164.15 58.1387 165.407 64.4913C166.468 70.1489 168.365 75.6171 171.034 80.7165C171.428 81.4372 171.816 82.2253 172.199 83.0642C173.765 86.678 175.046 90.4088 176.031 94.2226Z" fill="black"/>
<path d="M110.249 339.285L116.889 334.691V334.539L115.127 216.374L114.565 216.379L116.32 334.398L109.928 338.818L110.249 339.285Z" fill="black"/>
<path d="M131.474 357.103L131.485 356.54L86.535 355.662L110.243 339.285L109.922 338.818L84.7793 356.191L131.474 357.103Z" fill="black"/>
<path d="M155.182 67.9087C156.68 63.0547 157.557 58.0304 157.793 52.9558C158.075 54.1708 158.434 55.3667 158.868 56.5364L158.896 56.6096C160.37 60.5167 162.418 63.1458 164.979 64.4238C165.162 64.5219 165.349 64.6103 165.542 64.6884L165.677 64.4351L165.767 64.1648C165.575 64.086 165.401 64.0016 165.204 63.9171C162.199 62.4083 160.398 59.0023 159.419 56.4125C159.41 56.3773 159.397 56.3433 159.38 56.3112C158.734 54.5644 158.262 52.7577 157.973 50.9178L157.933 50.6306L158.339 50.2422H157.877L157.315 50.276C157.315 50.366 157.382 59.4921 154.647 67.7567L155.182 67.9087Z" fill="black"/>
<path d="M139.943 81.7806C140.426 81.781 140.909 81.7566 141.389 81.7075C147.726 81.06 152.362 76.421 155.182 67.9143L154.619 67.7398C151.878 76.0157 147.399 80.5252 141.305 81.1445C137.884 81.4992 134.986 80.5815 132.678 78.4027C125.633 71.7595 126.235 55.5005 126.246 55.3203H125.684C125.615 58.3765 125.803 61.433 126.246 64.4576C126.916 69.0346 128.497 75.2388 132.301 78.8137C134.357 80.7728 137.104 81.8392 139.943 81.7806Z" fill="black"/>
<path d="M136.358 66.096C139.379 66.0544 142.396 65.8552 145.396 65.4992C153.443 64.6379 154.399 56.9756 154.444 53.7272C154.444 52.8433 154.399 52.2859 154.399 52.2634L153.837 52.3197C153.876 52.784 153.891 53.2501 153.882 53.7159C153.842 56.8461 152.936 64.1255 145.317 64.9419C134.918 66.0678 131.496 65.5048 129.561 64.2663C128.531 63.6245 127.873 61.046 127.676 57.1952C127.642 56.3394 127.647 55.7539 127.647 55.7483H127.085C127.085 55.7483 127.085 56.3507 127.113 57.2233C127.242 60.1227 127.715 63.7821 129.262 64.7504C130.568 65.5499 132.459 66.096 136.358 66.096Z" fill="black"/>
<path d="M136.927 220.168C139.37 220.165 141.812 220.039 144.242 219.791C153.386 218.857 162.445 217.219 171.337 214.893C173.932 214.212 176.475 213.486 178.9 212.731C181.326 211.977 183.194 211.324 184.297 210.918L184.212 210.671V210.372H184.106C182.98 210.772 181.179 211.414 178.715 212.18C176.25 212.945 173.763 213.66 171.18 214.336C162.315 216.655 153.285 218.289 144.169 219.223C135.815 220.078 127.376 219.449 119.24 217.365C117.811 216.999 116.348 216.571 114.885 216.098C111.343 214.971 107.925 213.486 104.683 211.667C107.003 207.647 108.87 203.382 110.248 198.949C111.441 195.341 112.567 191.259 113.624 186.817C115.51 178.682 116.77 170.688 117.496 165.424C118.222 160.16 118.531 156.742 118.537 156.709L117.974 156.68C117.974 156.68 117.659 160.058 116.939 165.339C116.219 170.62 114.958 178.581 113.073 186.699C112.049 191.118 110.923 195.189 109.736 198.781C107.997 204.044 106.095 208.351 104.109 211.622L103.957 211.859L104.193 212.011C107.553 213.936 111.111 215.492 114.806 216.65C116.281 217.128 117.755 217.562 119.195 217.928C124.989 219.414 130.946 220.166 136.927 220.168Z" fill="black"/>
<path d="M152.492 158.842C153.252 158.842 153.983 158.842 154.709 158.792L155.537 158.747C155.57 158.751 155.604 158.751 155.638 158.747C156.274 158.747 156.904 158.69 157.523 158.651C157.844 158.651 158.159 158.611 158.474 158.583L159.166 158.533L159.667 158.493L159.616 157.93L159.127 157.97L158.435 158.02C158.12 158.05 157.804 158.073 157.489 158.088C156.876 158.127 156.246 158.161 155.604 158.189H155.548L154.693 158.223C153.972 158.223 153.241 158.262 152.492 158.274V158.842Z" fill="black"/>
<path d="M159.673 158.499L160.309 158.437C161.158 158.358 162.047 158.262 163.015 158.138L163.713 158.043C164.039 158.003 164.31 157.964 164.58 157.919C165.142 157.846 165.643 157.761 166.155 157.671C166.414 157.632 166.667 157.581 166.921 157.536C167.421 157.451 167.911 157.356 168.389 157.254C168.868 157.153 169.329 157.057 169.785 156.956C170.471 156.804 171.124 156.646 171.754 156.478L172.373 156.314H172.463L173.375 156.055L173.561 155.999C173.881 155.909 174.197 155.808 174.506 155.712C175.254 155.475 175.997 155.222 176.757 154.935L177.522 154.648H177.573C177.894 154.524 178.198 154.4 178.49 154.276L178.895 154.107L179.272 153.938C179.835 153.685 180.398 153.415 180.96 153.128C181.062 153.077 181.163 153.026 181.259 152.97C181.54 152.824 181.821 152.683 182.047 152.548L182.238 152.441L182.379 152.356L182.671 152.182L182.896 152.047L183.234 151.833L183.369 151.743C183.797 151.461 184.027 151.287 184.072 151.247L184.146 151.152L183.898 151.033V150.741L183.74 150.842C183.74 150.842 183.543 151 183.093 151.298L182.958 151.388L182.626 151.596L182.407 151.732L182.125 151.895L182.024 151.957L181.805 152.081C181.563 152.221 181.304 152.356 181.022 152.503L180.735 152.649C180.173 152.942 179.61 153.212 179.047 153.454C178.923 153.511 178.805 153.567 178.676 153.618L178.276 153.786C177.989 153.91 177.714 154.034 177.376 154.152H177.32L176.571 154.44C175.806 154.721 175.069 154.969 174.32 155.205C174.016 155.301 173.707 155.397 173.386 155.487L173.201 155.543L172.289 155.802H172.227L171.597 155.965C170.972 156.134 170.325 156.292 169.644 156.444C169.194 156.545 168.738 156.641 168.26 156.736C167.782 156.832 167.298 156.928 166.802 157.018L166.048 157.147C165.536 157.238 165.013 157.322 164.484 157.401L163.674 157.513L162.931 157.615C161.963 157.733 161.085 157.834 160.241 157.907L159.605 157.969L159.673 158.499Z" fill="black"/>
<path d="M145.447 168.678H148.182C167.663 168.441 180.898 162.924 184.494 161.235L184.252 160.728C180.685 162.417 167.539 167.884 148.17 168.115C141.991 168.227 135.811 168 129.657 167.433C120.839 166.561 117.401 165.182 117.367 165.136L117.147 165.654C117.288 165.716 120.681 167.113 129.6 167.996C134.26 168.441 139.578 168.678 145.447 168.678Z" fill="black"/>
<path d="M144.191 190.837C145.193 190.837 146.217 190.837 147.281 190.837C172.682 190.482 184.814 182.606 184.933 182.527L184.623 182.06C184.505 182.138 172.491 189.941 147.27 190.274C121.902 190.628 113.557 186.597 113.472 186.552L113.416 186.524H113.349V186.811L113.225 187.059C113.281 187.048 121.064 190.837 144.191 190.837Z" fill="black"/>
<path d="M143.252 203.357C144.265 203.357 145.306 203.357 146.375 203.357C151.079 203.303 155.775 202.986 160.443 202.406L160.37 201.843C155.717 202.419 151.035 202.735 146.347 202.789C119.815 203.155 110.175 198.673 110.085 198.628L109.961 198.6V198.882L109.838 199.135C110.237 199.281 118.965 203.357 143.252 203.357Z" fill="black"/>
<path d="M140.686 225.59C142.436 225.59 144.327 225.59 146.375 225.55C151.025 225.493 155.669 225.181 160.285 224.616C176.903 222.527 183.92 217.596 184.01 217.551L183.683 217.089C183.616 217.14 176.672 221.987 160.212 224.059C155.618 224.617 150.997 224.925 146.369 224.982C121.519 225.32 120.034 223.36 119.983 223.293L119.752 223.383H119.437V223.456C119.657 224.132 122.245 225.59 140.686 225.59Z" fill="black"/>
<path d="M159.965 249.477L180.386 247.94L180.341 247.383L160.527 248.869V224.34H159.965V249.477Z" fill="black"/>
<path d="M157.298 212.129L158.012 210.761C158.069 210.648 163.6 200.171 167.511 200.74L169.002 206.37L176.982 204.681L176.886 204.382C176.886 204.332 175.316 199.36 178.141 198.426C180.848 197.531 182.412 197.418 183.053 198.071L183.166 198.184L187.521 197.03L185.603 189.745L181.438 190.814L181.399 190.978C181.328 191.192 181.208 191.386 181.047 191.545C180.887 191.703 180.691 191.822 180.476 191.89C180.437 191.89 178.118 192.824 176.447 192.599L176.048 192.548C174.416 192.317 172.57 192.053 168.693 193.747C167.1 194.44 163.066 196.63 160.184 201.95C158.746 204.628 157.83 207.555 157.483 210.575L157.298 212.129ZM167.224 200.16C163.848 200.16 159.909 206.308 158.277 209.128C158.702 206.717 159.514 204.39 160.68 202.237C163.493 197.069 167.382 194.952 168.918 194.277C172.649 192.65 174.337 192.886 175.969 193.123L176.374 193.179C178.192 193.421 180.572 192.475 180.673 192.436C180.944 192.345 181.192 192.197 181.402 192.003C181.611 191.809 181.777 191.573 181.889 191.31L185.203 190.443L186.835 196.636L183.329 197.593C182.463 196.872 180.836 196.979 177.961 197.925C175.085 198.871 175.941 203.116 176.273 204.292L169.419 205.745L167.978 200.278L167.815 200.239C167.622 200.189 167.423 200.162 167.224 200.16Z" fill="black"/>
<path d="M176.888 204.419L179.111 212.396L178.569 212.547L176.346 204.57L176.888 204.419Z" fill="black"/>
<path d="M169.478 205.986L171.568 214.545L171.022 214.679L168.931 206.12L169.478 205.986Z" fill="black"/>
<path d="M144.709 92.0213C144.747 89.1953 144.147 86.3972 142.954 83.8355C142.566 82.9464 142.11 82.0882 141.592 81.2683L141.125 81.5836C143.078 84.71 144.124 88.3178 144.147 92.0044L144.709 92.0213Z" fill="black"/>
<path d="M124.058 135.371C125.302 129.886 126.897 124.487 128.836 119.208C133.129 107.56 138.447 98.5069 144.637 92.2183C147.1 89.6822 149.923 87.5234 153.016 85.8116H153.066L152.779 85.3274C149.627 87.0685 146.749 89.2653 144.237 91.8468C137.991 98.1691 132.628 107.318 128.307 119.039C126.359 124.342 124.758 129.765 123.512 135.276L124.058 135.371Z" fill="black"/>
<path d="M123.568 137.73C123.568 137.73 123.726 136.858 124.058 135.377L123.495 135.253C123.157 136.751 123 137.623 123 137.635L123.568 137.73Z" fill="black"/>
<path d="M128.323 119.242L128.818 118.977L118.869 100.399C117.859 96.8259 115.951 93.5717 113.327 90.9461C109.714 87.2417 105.015 86.0707 103.164 85.7385L103.068 86.3015C104.469 86.5492 109.326 87.6583 112.921 91.3684C115.466 93.9358 117.319 97.1065 118.307 100.584V100.652L128.323 119.242Z" fill="black"/>
<path d="M123.529 135.422L123.782 135.309L124.069 135.315L124.041 135.197L116.709 118.516L116.191 118.746L123.529 135.422Z" fill="black"/>
<path d="M104.277 384.132H148.789L148.806 383.569H104.277V384.132Z" fill="black"/>
<path d="M131.143 353.292V352.729L90.0807 352.594L90.075 353.157L131.143 353.292Z" fill="black"/>
<path d="M132.009 362.587H154.692V363.15H132.009V362.587Z" fill="black"/>
<path d="M116.607 334.826H129.516L129.544 334.263H116.607V334.826Z" fill="black"/>
<path d="M81.7688 105.967L82.2246 105.634L62.6925 78.3803C62.619 78.2799 62.5754 78.1608 62.5668 78.0368C62.5582 77.9127 62.5849 77.7887 62.6437 77.6791C62.7026 77.5696 62.7913 77.479 62.8995 77.4177C63.0077 77.3565 63.131 77.3272 63.2552 77.3331H78.1786V76.7701H63.2327C63.0065 76.767 62.7838 76.827 62.5899 76.9435C62.3959 77.0601 62.2383 77.2284 62.1348 77.4297C62.0313 77.631 61.986 77.8571 62.004 78.0828C62.022 78.3084 62.1026 78.5245 62.2367 78.7068L81.7688 105.967Z" fill="black"/>
<path d="M107.93 118.915H124.637C124.862 118.913 125.081 118.849 125.272 118.731C125.463 118.612 125.617 118.443 125.719 118.243C125.82 118.043 125.865 117.818 125.848 117.594C125.831 117.37 125.753 117.155 125.622 116.973L97.7839 78.1268C97.4819 77.7073 97.0847 77.3656 96.6249 77.1297C96.1651 76.8939 95.6558 76.7706 95.1391 76.77H84.3967V77.333H95.1504C95.5777 77.3328 95.9988 77.435 96.3787 77.6308C96.7585 77.8267 97.086 78.1107 97.3337 78.459L125.172 117.305C125.244 117.406 125.288 117.525 125.296 117.649C125.304 117.773 125.278 117.897 125.219 118.007C125.16 118.117 125.072 118.208 124.964 118.27C124.856 118.332 124.733 118.362 124.609 118.358H107.902L107.93 118.915Z" fill="black"/>
<path d="M86.6253 109.192L87.0811 108.86L65.9283 80.0073H73.2831V79.4443H64.8197L86.6253 109.192Z" fill="black"/>
<path d="M106.697 116.5H123.219L96.0561 79.4443H92.2859V80.0073H95.7748L122.105 115.937H106.697V116.5Z" fill="black"/>
<path d="M76.5804 82.6421H91.8583C92.1105 82.6423 92.3581 82.5749 92.5754 82.4469C92.7927 82.3189 92.9719 82.1351 93.0942 81.9145C93.2165 81.6939 93.2776 81.4445 93.271 81.1923C93.2644 80.9401 93.1905 80.6942 93.0569 80.4803L92.0496 78.8701H86.2761V79.4331H91.7401L92.5786 80.7786C92.657 80.9086 92.6985 81.0575 92.6985 81.2093C92.6985 81.3611 92.657 81.5101 92.5786 81.64C92.5048 81.7737 92.3963 81.8851 92.2646 81.9624C92.1329 82.0396 91.9828 82.08 91.8302 82.0791H76.5241C76.0729 82.0766 75.6298 81.9595 75.2361 81.739C74.8425 81.5184 74.5112 81.2016 74.2732 80.8181L73.401 79.4331H78.7244V78.8701H72.3825L73.7949 81.1221C74.0888 81.5942 74.4998 81.9823 74.9878 82.2486C75.4759 82.5149 76.0245 82.6505 76.5804 82.6421Z" fill="black"/>
<path d="M78.7527 78.8701H86.2988V79.4331H78.7527V78.8701Z" fill="black"/>
<path d="M78.7527 79.4331V79.146L79.006 79.0334C78.6938 78.4107 78.5028 77.7344 78.4432 77.0404C78.4222 76.8445 78.4418 76.6464 78.5008 76.4584C78.5599 76.2705 78.6572 76.0968 78.7865 75.9482C78.9798 75.7848 79.2039 75.6618 79.4455 75.5863C79.6871 75.5109 79.9414 75.4847 80.1933 75.5091C81.5101 75.5091 82.855 76.0721 84.1943 77.2656C84.8905 77.8647 85.5104 78.5473 86.04 79.298L86.1244 79.4275H86.2764V79.1403L86.5127 78.994C85.9539 78.1952 85.2979 77.469 84.56 76.8321C83.1138 75.5766 81.6395 74.9405 80.1877 74.9405C79.8602 74.9141 79.5309 74.9544 79.2195 75.0589C78.908 75.1634 78.621 75.3299 78.3757 75.5485C78.1942 75.7517 78.0562 75.9898 77.97 76.2483C77.8839 76.5068 77.8515 76.7802 77.8749 77.0517C77.9296 77.8146 78.1302 78.56 78.4657 79.2473L78.5389 79.4106L78.7527 79.4331Z" fill="black"/>
<path d="M124.384 368.92H135.92V368.357H124.435L124.384 368.92Z" fill="black"/>
<path d="M118.582 372.749H130.163V373.312H118.582V372.749Z" fill="black"/>
<path d="M113.394 376.667H125.183V377.23H113.394V376.667Z" fill="black"/>
<path d="M110.079 338.773H121.143V339.336H110.079V338.773Z" fill="black"/>
<path d="M105.021 342.269H116.607V342.832H105.021V342.269Z" fill="black"/>
<path d="M108.824 345.641H112.234V346.204H108.824V345.641Z" fill="black"/>
<path d="M100.142 345.641H108.819V346.204H100.142V345.641Z" fill="black"/>
<path d="M81 154C78.8182 154 77 152.182 77 150C77 147.818 78.8182 146 81 146C83.1818 146 85 147.818 85 150C85 152.182 83.1818 154 81 154ZM81 147.455C79.5455 147.455 78.2727 148.727 78.2727 150.182C78.2727 151.636 79.5455 152.909 81 152.909C82.4545 152.909 83.7273 151.455 83.7273 150C83.7273 148.545 82.4545 147.455 81 147.455Z" fill="#FF8600"/>
</g>
<path d="M227.807 30L225.105 21.8947L217 18.807L225.105 16.1053L227.807 8L230.895 16.1053L239 18.807L230.895 21.8947L227.807 30Z" fill="#010973"/>
<path d="M27.3509 204L25.2632 197.737L19 195.351L25.2632 193.263L27.3509 187L29.7368 193.263L36 195.351L29.7368 197.737L27.3509 204Z" fill="#FF8600"/>
<path d="M203.378 59.9131L202.284 56.6293L199 55.3784L202.284 54.2838L203.378 51L204.629 54.2838L207.913 55.3784L204.629 56.6293L203.378 59.9131Z" fill="#FF8600"/>
<path d="M48.3784 127.913L47.2838 124.629L44 123.378L47.2838 122.284L48.3784 119L49.6293 122.284L52.9131 123.378L49.6293 124.629L48.3784 127.913Z" fill="#010973"/>
<path d="M66.3 41.3H60.7V35.7C60.7 35.35 60.35 35 60 35C59.65 35 59.3 35.35 59.3 35.7V41.3H53.7C53.35 41.3 53 41.65 53 42C53 42.35 53.35 42.7 53.7 42.7H59.3V48.3C59.3 48.65 59.65 49 60 49C60.35 49 60.7 48.65 60.7 48.3V42.7H66.3C66.65 42.7 67 42.35 67 42C67 41.65 66.65 41.3 66.3 41.3Z" fill="#010973"/>
<path d="M227.2 138.2H220.8V131.8C220.8 131.4 220.4 131 220 131C219.6 131 219.2 131.4 219.2 131.8V138.2H212.8C212.4 138.2 212 138.6 212 139C212 139.4 212.4 139.8 212.8 139.8H219.2V146.2C219.2 146.6 219.6 147 220 147C220.4 147 220.8 146.6 220.8 146.2V139.8H227.2C227.6 139.8 228 139.4 228 139C228 138.6 227.6 138.2 227.2 138.2Z" fill="#FF8600"/>
<path d="M7.6 89.6H4.4V86.4C4.4 86.2 4.2 86 4 86C3.8 86 3.6 86.2 3.6 86.4V89.6H0.4C0.2 89.6 0 89.8 0 90C0 90.2 0.2 90.4 0.4 90.4H3.6V93.6C3.6 93.8 3.8 94 4 94C4.2 94 4.4 93.8 4.4 93.6V90.4H7.6C7.8 90.4 8 90.2 8 90C8 89.8 7.8 89.6 7.6 89.6Z" fill="#010973"/>
<path d="M82.9022 7.80444C80.7737 7.80444 79 6.0307 79 3.90222C79 1.77374 80.7737 0 82.9022 0C85.0307 0 86.8044 1.77374 86.8044 3.90222C86.8044 6.0307 85.0307 7.80444 82.9022 7.80444ZM82.9022 1.41899C81.4832 1.41899 80.2416 2.6606 80.2416 4.07959C80.2416 5.49858 81.4832 6.7402 82.9022 6.7402C84.3212 6.7402 85.5628 5.32121 85.5628 3.90222C85.5628 2.48323 84.3212 1.41899 82.9022 1.41899Z" fill="#FF8600"/>
<path d="M254 229C249.636 229 246 225.364 246 221C246 216.636 249.636 213 254 213C258.364 213 262 216.636 262 221C262 225.364 258.364 229 254 229ZM254 215.909C251.091 215.909 248.545 218.455 248.545 221.364C248.545 224.273 251.091 226.818 254 226.818C256.909 226.818 259.455 223.909 259.455 221C259.455 218.091 256.909 215.909 254 215.909Z" fill="#010973"/>
<path d="M267 77C265.364 77 264 75.6364 264 74C264 72.3636 265.364 71 267 71C268.636 71 270 72.3636 270 74C270 75.6364 268.636 77 267 77ZM267 72.0909C265.909 72.0909 264.955 73.0455 264.955 74.1364C264.955 75.2273 265.909 76.1818 267 76.1818C268.091 76.1818 269.045 75.0909 269.045 74C269.045 72.9091 268.091 72.0909 267 72.0909Z" fill="#FF8600"/>
<defs>
<clipPath id="clip0">
<rect width="125.521" height="370" fill="white" transform="matrix(-1 0 0 1 187.521 18)"/>
</clipPath>
</defs>
</svg>
