<svg width="22" height="25" viewBox="0 0 22 25" fill="none" xmlns="http://www.w3.org/2000/svg">
<g clip-path="url(#clip0)">
<path d="M5.02348 4.67044L3.49789 10.4205C3.35246 10.9913 3.43388 11.626 3.72906 12.1373L9.75918 22.5818C10.223 23.3852 11.2438 23.6723 11.9564 23.2609L19.7232 18.7767C20.507 18.3242 20.6976 17.3377 20.2337 16.5343L14.2036 6.08983C13.9084 5.57856 13.3573 5.11767 12.7902 4.95818L7.16114 3.43626C6.18249 3.22221 5.25617 3.75702 5.02348 4.67044Z" stroke="#010973" stroke-miterlimit="10"/>
<path d="M9.29871 9.6042C10.0071 9.19523 10.2415 8.27509 9.82227 7.54901C9.40307 6.82293 8.489 6.56586 7.78064 6.97483C7.07228 7.3838 6.83788 8.30394 7.25708 9.03002C7.67629 9.7561 8.59036 10.0132 9.29871 9.6042Z" stroke="#FF8600" stroke-miterlimit="10"/>
</g>
<defs>
<clipPath id="clip0">
<rect y="6.5" width="13" height="21" transform="rotate(-30 0 6.5)" fill="white"/>
</clipPath>
</defs>
</svg>
