<svg width="141" height="250" viewBox="0 0 141 250" fill="none" xmlns="http://www.w3.org/2000/svg">
<ellipse cx="70.4983" cy="239.742" rx="70.4983" ry="10.2583" fill="#ECECEC"/>
<path d="M106.652 241.97L106.958 244.248H65.8721L69.0359 241.943L69.0544 241.97H106.652Z" fill="black"/>
<path d="M83.65 231.323L87.807 228.304H104.83L106.653 241.971H69.0556L69.0371 241.944L76.3211 236.652L80.2279 233.812L83.65 231.323Z" fill="#FF8600"/>
<path d="M48.5953 69.8367C48.9879 62.3143 49.9807 54.8352 51.5643 47.4709C53.9352 46.9914 54.8335 47.4709 54.8335 47.4709C54.8335 47.4709 51.696 70.3425 53.7403 79.0833C53.7403 79.0833 76.1008 80.3083 78.967 79.0833V64.6707C80.0392 65.9642 81.6672 67.5685 84.0434 68.0638V78.8436C84.0434 78.8436 95.2448 77.9822 97.3443 74.8921C95.6215 90.0897 95.3027 109.36 95.5266 116.333C95.8559 126.481 104.831 228.294 104.831 228.294H87.8079L75.5476 168.907L69.7994 221.331H51.4378C51.4378 221.331 48.2898 90.5139 48.4241 75.3873C48.4425 73.4853 48.5084 71.6412 48.5953 69.8367Z" fill="#010973"/>
<path d="M96.2792 37.5191C97.3106 37.2802 98.3659 37.1591 99.4246 37.1582C108.437 37.2004 107.934 49.4317 100.534 58.5493C100.14 59.0305 99.7293 59.5047 99.3008 59.9718C94.2507 47.3005 85.8418 48.291 85.8418 48.291C85.8418 48.291 88.0942 39.4185 96.2792 37.5191Z" fill="white"/>
<path d="M99.3012 59.9714C99.7315 59.506 100.142 59.0318 100.534 58.5488C99.1458 62.2607 98.1105 68.1801 97.3439 74.8819C95.2364 77.9747 84.043 78.8335 84.043 78.8335V68.0668C84.7444 68.2177 85.4638 68.2683 86.1794 68.217C88.9007 68.0247 92.7812 65.688 96.659 62.4872C97.5936 61.7071 98.4763 60.8667 99.3012 59.9714Z" fill="white"/>
<path d="M88.4241 37.2927C91.0441 37.125 93.6739 37.2009 96.2798 37.5192C88.0949 39.4186 85.8425 48.2911 85.8425 48.2911C85.6877 48.6993 85.5669 49.1196 85.4816 49.5477C84.4779 48.2727 83.3214 46.8844 82.0938 45.4566C82.0938 45.4566 83.8904 39.0445 88.4162 37.29L88.4241 37.2927Z" fill="#010973"/>
<path d="M80.5497 39.59C79.7904 40.0911 79.0843 40.6684 78.4422 41.3129C75.8079 38.3703 73.2077 35.5726 71.3848 33.56C72.0697 32.3666 72.6756 28.855 73.1445 25.3513C73.9348 25.3012 74.9596 24.856 75.8316 23.9287C75.8316 23.9313 73.2157 36.6053 80.5497 39.59Z" fill="white"/>
<path d="M78.9658 64.6718V79.0739C76.0996 80.2988 53.739 79.0739 53.739 79.0739C51.6948 70.3462 54.8297 47.4746 54.8297 47.4746C54.8297 47.4746 64.9299 57.285 70.815 49.9746C73.7392 57.206 75.2566 60.2487 77.7671 63.1465C78.0517 63.4758 78.4415 64.0422 78.9658 64.6718Z" fill="white"/>
<path d="M77.5993 18.467C77.6704 21.0619 76.859 22.8348 75.8316 23.9307C74.9596 24.858 73.9269 25.3032 73.1445 25.3533C73.7109 21.0619 74.0613 16.7626 74.0613 16.7626C74.0613 16.7626 76.859 13.9622 77.486 17.2447C77.5555 17.6485 77.5934 18.0572 77.5993 18.467Z" fill="white"/>
<path d="M59.8159 2.19942C61.6047 0.566116 64.0099 -0.229464 67.2343 0.816381C66.5125 1.41965 63.6252 3.45075 63.5199 7.69735L66.4177 8.02665C66.4177 8.02665 66.1542 2.40491 71.2728 0.608266C71.2728 0.608266 80.53 1.2089 77.4847 17.2496C76.8603 13.9672 74.06 16.7675 74.06 16.7675C73.1248 16.8017 72.1896 16.8123 71.2728 16.8017C68.7122 16.7807 66.2965 16.6121 64.3444 16.425L64.189 16.3144C62.6084 15.2027 61.2622 15.6637 61.2622 15.6637C59.4919 14.3017 58.2669 15.6637 58.2669 15.6637C57.4582 14.2991 55.9461 14.2095 54.8423 14.3702C54.3828 14.4356 53.9316 14.5495 53.4961 14.71L51.3096 14.7996C51.3596 12.8423 51.9866 0.732081 59.808 2.17835L59.8159 2.19942Z" fill="#FF8600"/>
<path d="M71.2723 16.7963C71.2723 16.7963 70.3003 29.3517 68.5537 29.8523C68.2534 28.7063 68.8724 27.7132 68.7618 24.2463C68.6248 20.0313 68.0005 19.6072 65.4082 17.289C65.0725 16.9801 64.7207 16.689 64.3545 16.417C66.296 16.6067 68.7117 16.7753 71.2723 16.7963Z" fill="white"/>
<path d="M70.7747 234.376L70.9433 236.652H31.001L34.041 234.376H70.7747Z" fill="black"/>
<path d="M47.5115 224.287L51.4367 221.347H69.7983L70.7756 234.376H34.042L40.4014 229.611H40.404L44.187 226.776L47.5089 224.287H47.5115Z" fill="#FF8600"/>
<path d="M68.5489 44.2759C69.3972 46.4308 70.1427 48.3118 70.8171 49.974C64.9319 57.2844 54.8291 47.474 54.8291 47.474C54.8291 47.474 60.4877 43.6305 59.7343 40.053H59.8107C63.5936 40.2137 66.7733 40.053 66.7733 40.053L66.8339 40.0293C67.2633 41.0541 67.8139 42.4187 68.5489 44.2759Z" fill="white"/>
<path d="M67.2415 0.812678C68.8221 -0.504507 71.2721 0.604563 71.2721 0.604563C66.143 2.4012 66.4222 8.02295 66.4222 8.02295L63.5244 7.69365C63.6324 3.43651 66.5197 1.41595 67.2415 0.812678Z" fill="#FF8600"/>
<path d="M62.3596 31.561L62.2885 31.6216C62.2885 31.6216 57.162 32.5884 55.123 28.4604C54.7638 27.7049 54.5256 26.8978 54.417 26.0684L55.6631 26.1553L56.6826 26.1922C57.9918 28.4893 60.5261 29.3982 62.3596 31.561Z" fill="white"/>
<path d="M51.5645 47.4648C49.9809 54.8292 48.9881 62.3082 48.5955 69.8306C46.1279 70.6593 43.6128 71.3393 41.0639 71.867C42.6129 59.8516 39.3673 54.957 38.5322 53.9243C44.9469 49.5592 49.0697 47.9759 51.5645 47.4648Z" fill="white"/>
<path d="M36.3392 55.4706C37.0997 54.9209 37.8303 54.4081 38.531 53.9321C39.3661 54.9648 42.6117 59.8595 41.0627 71.8748C37.5352 72.6151 33.2491 73.2262 29.2818 72.9918C16.1099 72.2015 17.8512 66.4059 21.6711 59.2035C26.3497 50.3836 35.5147 40.0305 37.2876 36.079C38.7418 32.8361 37.8145 27.2486 37.4246 25.3518L44.2028 24.7881C44.2858 24.8666 44.3738 24.9396 44.4663 25.0067C44.753 25.2154 45.0807 25.3608 45.4278 25.4335C45.575 25.4653 45.7251 25.4812 45.8757 25.4809H46.0785L49.8325 25.7444C49.793 26.1105 49.7561 26.4846 49.7218 26.864C49.5391 28.739 49.4819 30.6241 49.5506 32.5068C47.7408 34.5089 46.1575 38.7687 45.0458 40.0385C43.7181 41.5585 39.7745 49.2508 36.3392 55.4706Z" fill="white"/>
<path d="M69.7985 221.345L75.5467 168.908L68.6526 135.488L67.2695 221.342L69.7985 221.345Z" fill="#000642"/>
<path d="M59.7383 40.0537C59.7383 40.0537 60.2889 41.8609 64.0086 41.8609C66.2073 41.8731 68.362 41.2452 70.2099 40.0537H59.7383Z" fill="#CCCCCC"/>
<path d="M37.4248 25.3378L37.7146 27.2319L49.9249 26.9237L50.3385 24.5527L37.4248 25.3378Z" fill="#CCCCCC"/>
<path d="M66.8378 40.0307L66.7772 40.0544C66.7772 40.0544 63.5976 40.2204 59.8146 40.0544H59.7382C57.3578 39.9814 54.9871 39.7171 52.6491 39.2641C51.0158 38.9137 50.1675 37.1355 49.7882 34.7857C49.669 34.0294 49.5943 33.2667 49.5643 32.5017C49.4955 30.619 49.5527 28.7339 49.7355 26.8589C49.7698 26.4795 49.8066 26.1054 49.8461 25.7393L52.5385 25.9368L54.4168 26.0738C54.5251 26.9041 54.7633 27.7122 55.1228 28.4685C57.1618 32.5992 62.2883 31.6297 62.2883 31.6297L62.3594 31.5691C62.8212 32.1073 63.2125 32.7022 63.5238 33.3394C65.3679 37.1645 65.1044 35.8394 66.8378 40.0307Z" fill="black"/>
<path d="M56.6738 26.1868L55.6543 26.15L54.4161 26.0683L52.5378 25.9313L49.8455 25.7337L46.0915 25.4703C47.8987 25.307 49.3265 22.9676 49.3265 20.1014C49.3265 17.1351 47.7881 14.7273 45.8887 14.7273L51.3023 14.8064L53.4888 14.7168C53.5688 14.7481 53.6449 14.7888 53.7154 14.838C54.3134 15.2279 55.9203 16.7795 55.8071 22.2142C55.7728 23.9345 56.1127 25.191 56.6738 26.1868Z" fill="black"/>
<path d="M49.3266 20.0912C49.3266 22.9574 47.8988 25.2967 46.0916 25.4601H45.8888C45.7383 25.4603 45.5881 25.4444 45.441 25.4126C45.0939 25.34 44.7661 25.1945 44.4794 24.9859C44.387 24.9187 44.299 24.8457 44.216 24.7672C44.1883 24.745 44.162 24.7212 44.1369 24.6961C43.1201 23.7635 42.4483 22.0485 42.4483 20.0912C42.4447 19.2214 42.5853 18.357 42.8645 17.5332C43.1133 16.7731 43.5344 16.0807 44.0948 15.51C44.5669 15.0229 45.2106 14.7393 45.8888 14.7197C47.7882 14.7171 49.3266 17.1249 49.3266 20.0912Z" fill="#FF8600"/>
<path d="M44.2016 24.7744L37.4234 25.3382L35.8428 25.4462C36.388 25.3597 36.8932 25.1066 37.289 24.7218C38.298 23.7892 38.9803 22.0663 38.9803 20.0958C38.9803 17.7881 38.0504 15.8202 36.7464 15.0615L44.0857 15.5094C43.5253 16.08 43.1042 16.7724 42.8555 17.5326C42.5789 18.3568 42.441 19.2212 42.4471 20.0905C42.4471 22.0479 43.1189 23.7628 44.1226 24.7033C44.1476 24.7285 44.174 24.7522 44.2016 24.7744Z" fill="black"/>
<path d="M38.9889 20.0965C38.9889 22.067 38.3066 23.7846 37.2976 24.7224C36.9046 25.1054 36.4034 25.3583 35.8619 25.4469L35.559 25.468C33.6622 25.468 32.1211 23.0628 32.1211 20.0965C32.1211 17.1302 33.6622 14.7197 35.559 14.7197C35.9846 14.7235 36.4013 14.8418 36.7655 15.0622C38.059 15.8209 38.9889 17.7888 38.9889 20.0965Z" fill="#FF8600"/>
<path d="M100.534 58.5488C100.534 58.5488 95.5894 70.5905 84.043 68.0642C84.043 68.0642 95.1942 64.3787 100.534 58.5488Z" fill="#CCCCCC"/>
<path d="M68.5523 29.8565C68.6289 30.1393 68.7451 30.4098 68.8974 30.66C69.1081 31.0262 70.0354 32.0773 71.3842 33.5578C73.2072 35.5705 75.8073 38.3682 78.4417 41.3108C79.6746 42.6833 80.918 44.0848 82.0929 45.452C83.3206 46.8798 84.4771 48.2681 85.4807 49.5432C85.5661 49.1151 85.6869 48.6948 85.8417 48.2866C85.8417 48.2866 94.2506 47.2961 99.3006 59.9674C98.4711 60.8595 97.584 61.6964 96.6452 62.4727C92.7648 65.6787 88.887 68.0154 86.1789 68.2182C85.4679 68.2709 84.7531 68.223 84.0556 68.076C81.6846 67.5728 80.0513 65.9685 78.9791 64.6829C78.4523 64.0533 78.065 63.4948 77.7831 63.1655C75.2726 60.2677 73.7552 57.2171 70.831 49.9936C70.1566 48.3314 69.4111 46.4504 68.5628 44.2955C67.8278 42.4383 67.2773 41.0737 66.8505 40.0436C65.1039 35.8392 65.3673 37.1643 63.5233 33.3392C63.2117 32.6991 62.8195 32.1015 62.3563 31.561C60.5122 29.3981 57.999 28.4893 56.6792 26.1868C56.1102 25.1911 55.7703 23.9345 55.8046 22.2037C55.9179 16.769 54.3109 15.2173 53.7129 14.8274C53.6424 14.7783 53.5663 14.7376 53.4863 14.7063C53.9209 14.5459 54.3713 14.432 54.8299 14.3664C55.9389 14.2057 57.4642 14.2953 58.2545 15.6599C58.2545 15.6599 59.4795 14.2979 61.2498 15.6599C61.2498 15.6599 62.5828 15.1989 64.1766 16.3106L64.332 16.4212C64.6983 16.6933 65.05 16.9843 65.3858 17.2932C67.978 19.6115 68.6023 20.0251 68.7393 24.2506C68.871 27.7174 68.2651 28.7027 68.5523 29.8565Z" fill="white"/>
<path d="M69.0566 241.97L98.1638 228.306H87.8081L69.0566 241.97Z" fill="#C16000"/>
<path d="M34.042 234.376L51.4367 221.347H64.2424L34.042 234.376Z" fill="#C16000"/>
<path d="M35.0508 57.7717C35.0508 57.7717 43.7179 51.3149 50.9834 50.2532L51.5419 47.5583C51.5419 47.5583 49.5293 46.5888 36.4101 55.3376L35.0508 57.7717Z" fill="#CCCCCC"/>
<path d="M75.8316 23.9326C75.8316 23.9326 74.4881 31.4959 71.3848 33.5639L73.1445 25.3552C73.1445 25.3552 74.9517 25.1602 75.8316 23.9326Z" fill="#CCCCCC"/>
<path d="M73.1444 25.3543C72.6755 28.858 72.0696 32.3696 71.3847 33.563C70.0359 32.0772 69.1086 31.0261 68.8978 30.6652C68.7455 30.4149 68.6293 30.1444 68.5527 29.8617C70.2993 29.3611 71.2714 16.8057 71.2714 16.8057C72.1882 16.8057 73.1155 16.8057 74.0586 16.7715C74.0612 16.7636 73.7108 21.0629 73.1444 25.3543Z" fill="black"/>
<path d="M41.1004 72.0424L41.0293 71.7079C43.569 71.1798 46.0752 70.5016 48.5346 69.6768H48.5952V69.8506L48.6558 70.0087C46.1804 70.8376 43.6574 71.5167 41.1004 72.0424Z" fill="black"/>
<path d="M31.0706 73.2225C30.4516 73.2225 29.8536 73.2041 29.2714 73.1698C23.7972 72.8458 20.5384 71.6261 19.3108 69.4396C17.9199 66.9632 19.187 63.5254 21.5211 59.1286C24.1423 54.1866 28.2282 48.6807 31.5106 44.2576C34.1107 40.7539 36.3578 37.727 37.1323 36.0015C38.5918 32.7481 37.596 27.0446 37.2561 25.3771L37.5933 25.3086C37.9384 27.0051 38.9448 32.7955 37.4432 36.1411C36.6529 37.9035 34.3979 40.9409 31.7872 44.4605C28.51 48.8757 24.432 54.371 21.824 59.2893C19.5426 63.5886 18.294 66.929 19.6111 69.2736C20.7755 71.3468 23.942 72.5112 29.2924 72.8273C32.6223 73.0249 36.5712 72.6508 41.0286 71.7156L41.0997 72.0502C37.8054 72.7822 34.4449 73.175 31.0706 73.2225Z" fill="black"/>
<path d="M71.0893 79.79C63.8316 79.79 54.3295 79.2763 53.7288 79.2447H53.5998L53.5708 79.1209C51.624 70.8068 54.3927 49.4763 54.643 47.5901C54.3479 47.49 53.418 47.2713 51.595 47.6428C49.3005 48.1117 45.1856 49.6107 38.6286 54.0812C37.9516 54.5396 37.2166 55.0559 36.4395 55.617L36.2393 55.3378C37.0296 54.7767 37.7567 54.2577 38.4363 53.7967C45.0381 49.2972 49.2004 47.7824 51.5265 47.3056C53.929 46.8182 54.8748 47.3056 54.9117 47.3293L55.017 47.3872L55.0012 47.5032C54.9696 47.7323 51.9217 70.2272 53.8764 78.918C55.6835 79.0128 75.7258 80.0482 78.7949 78.9654V64.6713H79.1373V79.1867L79.0346 79.2315C78.0493 79.6504 74.8749 79.79 71.0893 79.79Z" fill="black"/>
<path d="M32.2509 62.6587L31.9717 62.4585C32.9069 61.1598 34.2451 58.9127 36.1867 55.3852C37.1403 53.6571 38.1335 51.813 39.0845 50.0269C41.5792 45.401 43.9343 41.0332 44.917 39.9083C45.3859 39.3814 45.9707 38.2329 46.5872 37.029C47.4302 35.3851 48.3838 33.5252 49.4217 32.374L49.6852 32.6032C48.6762 33.7202 47.7331 35.5616 46.9006 37.1844C46.2447 38.462 45.6783 39.5553 45.183 40.1349C44.2268 41.2281 41.8795 45.5828 39.3874 50.1903C38.4259 51.9764 37.4301 53.8231 36.4764 55.5512C34.5455 59.0892 33.1914 61.3495 32.2509 62.6587Z" fill="black"/>
<path d="M96.3185 37.6941H96.279C93.6773 37.3786 91.0521 37.3028 88.4365 37.4675L88.4102 37.1277C91.0414 36.9604 93.6825 37.0354 96.3001 37.3516C96.3281 37.3488 96.3564 37.3488 96.3844 37.3516L96.3185 37.6941Z" fill="black"/>
<path d="M78.5669 41.4378L78.3271 41.1901C78.9752 40.5384 79.6885 39.9549 80.4557 39.4488C82.4842 38.1316 85.0843 37.3782 88.4062 37.1279L88.4326 37.4678C85.1686 37.7154 82.6185 38.4583 80.6428 39.736C79.8935 40.2295 79.1978 40.7999 78.5669 41.4378Z" fill="black"/>
<path d="M63.1991 40.2937C62.1848 40.2937 61.0257 40.2779 59.806 40.2252H59.7375C57.3445 40.1582 54.9611 39.8939 52.6115 39.4349C51.0652 39.103 50.0588 37.5487 49.6189 34.809C49.4991 34.0456 49.4235 33.276 49.3923 32.5039C49.3234 30.6142 49.3815 28.722 49.5662 26.84C49.5978 26.4607 49.6373 26.0866 49.6769 25.7178L50.0167 25.7547C49.9772 26.1208 49.9403 26.4923 49.906 26.8716C49.7234 28.7387 49.6662 30.616 49.7348 32.4907C49.7645 33.2496 49.8384 34.0061 49.9561 34.7563C50.3723 37.3406 51.2891 38.8027 52.6827 39.1004C55.0114 39.5564 57.3735 39.8207 59.7454 39.8907H59.8139C63.5521 40.0487 66.737 39.8907 66.7686 39.8907L66.7871 40.2332C66.766 40.22 65.3013 40.2937 63.1991 40.2937Z" fill="black"/>
<path d="M73.1556 25.5242L73.1424 25.1817C73.9854 25.129 74.947 24.6153 75.7057 23.8119C76.5329 22.9293 77.5023 21.2855 77.4259 18.472C77.4195 18.0708 77.3808 17.6709 77.31 17.276C77.1572 16.4699 76.8595 15.993 76.4275 15.8613C75.5028 15.5742 74.1909 16.8703 74.1777 16.8835L74.1303 16.9309H74.0618C73.1793 16.9625 72.2388 16.9757 71.2668 16.9651C69.0829 16.9467 66.7462 16.8202 64.3252 16.5884L64.3594 16.2486C66.7699 16.4778 69.1013 16.6042 71.2694 16.6227C72.2125 16.6227 73.1135 16.6227 73.9828 16.591C74.2462 16.3276 75.5081 15.2159 76.5276 15.5373C77.0913 15.7085 77.4681 16.2749 77.6472 17.2154C77.7211 17.6286 77.7617 18.047 77.7684 18.4667C77.8474 21.3961 76.8253 23.119 75.9533 24.0489C75.1419 24.913 74.0961 25.4662 73.1556 25.5242Z" fill="black"/>
<path d="M51.4743 14.7974H51.1318C51.1687 13.3512 51.5428 5.99339 55.1282 3.09031C56.4269 2.03656 58.0102 1.67566 59.8332 2.01285L59.7699 2.35005C58.0523 2.0313 56.5613 2.37113 55.3442 3.35638C51.8747 6.15935 51.5112 13.3802 51.4743 14.7974Z" fill="black"/>
<path d="M56.2601 8.62627L55.9229 8.56832C55.9571 8.37074 56.779 3.6921 59.7111 2.06142H59.7242C61.8107 0.172579 64.3528 -0.296338 67.2928 0.657304L67.1848 0.981331C64.3607 0.0566672 61.9213 0.515048 59.9376 2.32223L59.8981 2.3512C57.0925 3.88704 56.268 8.57885 56.2601 8.62627Z" fill="black"/>
<path d="M41.235 71.9064L40.8925 71.8854C41.1691 69.741 42.3335 58.9085 38.4004 54.0481L38.6638 53.832C39.657 55.0465 42.7708 59.9701 41.235 71.9064Z" fill="black"/>
<path d="M69.9517 221.517H51.2688V221.349C51.2372 220.031 48.1075 90.3571 48.2551 75.4045C48.2735 73.6026 48.3315 71.7164 48.4289 69.8433C48.8268 62.3127 49.8195 54.8253 51.3979 47.4512L51.7324 47.5302C50.1574 54.8798 49.1673 62.3426 48.7714 69.8486C48.6766 71.7295 48.6186 73.5973 48.6002 75.3939C48.4684 90.1095 51.4795 215.806 51.6086 221.175H69.6514L75.3785 168.89L75.7184 168.927L69.9517 221.517Z" fill="black"/>
<path d="M85.5983 68.3967C85.0626 68.3979 84.5284 68.3423 84.0045 68.2308C82.1183 67.833 80.427 66.7055 78.8332 64.7797C78.554 64.4452 78.3063 64.1317 78.1035 63.8577C77.9007 63.5837 77.7689 63.4178 77.6372 63.2676C75.2294 60.4778 73.7304 57.6353 70.6588 50.0378C69.9607 48.3176 69.1862 46.3497 68.3906 44.3397C67.6951 42.5905 67.1366 41.1995 66.6782 40.0904L66.6651 40.0562C65.6745 37.6853 65.3479 37.1031 64.8895 36.3154C64.5602 35.7437 64.1519 35.0298 63.3695 33.4176C63.0657 32.7905 62.6823 32.2053 62.2288 31.6763C61.4483 30.8139 60.5745 30.0408 59.6234 29.3712C58.4248 28.465 57.2946 27.6088 56.5306 26.2784C55.8958 25.1641 55.6034 23.8311 55.635 22.2057C55.7456 16.7894 54.1202 15.3037 53.6197 14.977C53.5614 14.9358 53.4987 14.9013 53.4326 14.8743L53.0059 14.7215L53.4247 14.5529C53.8727 14.3866 54.3373 14.2691 54.8104 14.2025C55.9326 14.0392 57.4237 14.1235 58.2983 15.4038C58.704 15.0745 59.8315 14.4001 61.2936 15.4775C61.6334 15.3906 62.8558 15.1798 64.2836 16.1756L64.3231 16.2046L64.4179 16.2705L64.4443 16.2889C64.8179 16.5638 65.1767 16.8584 65.5191 17.1714L65.7826 17.398C68.1535 19.5239 68.8042 20.0929 68.9438 24.2473C68.9904 25.5264 68.9261 26.8071 68.7515 28.0751C68.6567 28.8153 68.5961 29.3027 68.7304 29.8164C68.8025 30.0823 68.9116 30.3369 69.0544 30.5725C69.2757 30.9544 70.3716 32.1821 71.5202 33.4492C72.1735 34.1684 72.9243 34.9877 73.741 35.8781C75.2162 37.4877 76.8864 39.3028 78.5803 41.2021C80.0266 42.8117 81.1857 44.1263 82.2316 45.3434C83.5724 46.9055 84.6842 48.2412 85.6246 49.4424C86.7032 50.7617 87.6774 52.1631 88.5382 53.6337L88.2379 53.7971C87.3851 52.3438 86.4216 50.9584 85.3559 49.6532C84.4181 48.4598 83.3117 47.1242 81.9734 45.5673C80.9196 44.3528 79.7684 43.0383 78.3248 41.4313C76.6335 39.5399 74.9633 37.7169 73.4881 36.1099C72.6714 35.2195 71.9075 34.3976 71.2673 33.6784C69.9211 32.1979 68.9807 31.1309 68.7594 30.7437C68.5988 30.4804 68.4764 30.1957 68.3958 29.8981C68.2457 29.3238 68.3142 28.7811 68.409 28.0303C68.5823 26.7799 68.6458 25.5167 68.5987 24.2552C68.4591 20.2457 67.898 19.7452 65.5481 17.6377L65.2847 17.4085C64.9369 17.095 64.5997 16.8158 64.281 16.5813L64.2335 16.5471C64.1967 16.519 64.1598 16.4926 64.1229 16.468L64.0834 16.4391C62.5897 15.3853 61.3647 15.7936 61.312 15.8121L61.2251 15.8411L61.1513 15.7936C59.5312 14.5476 58.43 15.7225 58.3852 15.7726L58.2272 15.9438L58.1113 15.7436C57.3526 14.4633 55.9221 14.379 54.8552 14.5318C54.5309 14.5801 54.2104 14.6514 53.8963 14.7452C54.6234 15.272 56.0802 16.9976 55.9722 22.2031C55.9405 23.7652 56.2198 25.0403 56.8231 26.0993C57.5528 27.3691 58.6671 28.2068 59.8262 29.0919C60.7971 29.7757 61.6886 30.5656 62.4843 31.4471C62.9572 31.9982 63.3566 32.6083 63.6724 33.2621C64.4627 34.8691 64.8553 35.5751 65.1819 36.1415C65.6456 36.9318 65.9722 37.5246 66.9891 39.9534L67.0023 39.9877C67.458 41.0941 68.0139 42.4745 68.7041 44.2027C69.4944 46.2232 70.2715 48.178 70.9696 49.8982C74.0255 57.4536 75.5139 60.2776 77.8927 63.0332C78.0297 63.1912 78.1878 63.3993 78.3722 63.6391C78.5566 63.8788 78.8148 64.2213 79.0914 64.5506C80.074 65.7387 81.6625 67.3772 84.0703 67.8857C84.7532 68.0295 85.4529 68.0765 86.1489 68.0253C88.6067 67.8514 92.2922 65.8309 96.5283 62.335C97.4351 61.5873 98.2923 60.7813 99.0942 59.922C97.6611 56.3577 95.032 51.7027 90.6168 49.5346C87.956 48.2175 85.8749 48.4493 85.8538 48.4519L85.6062 48.4809L85.6694 48.2385C85.6905 48.149 88.0403 39.2422 96.2359 37.3402C97.2797 37.1003 98.3472 36.9783 99.4182 36.9766C102.284 36.9898 104.379 38.22 105.477 40.5304C107.585 44.9904 105.564 52.609 100.664 58.6469C100.282 59.1159 99.8739 59.5979 99.4261 60.0774C98.5909 60.9753 97.6977 61.8175 96.7522 62.5985C92.4608 66.1496 88.7068 68.1992 86.1778 68.3757C85.9829 68.3915 85.7906 68.3967 85.5983 68.3967ZM86.2885 48.1121C87.8417 48.1468 89.3671 48.5313 90.7511 49.237C95.2137 51.4182 97.8824 56.0573 99.3576 59.6664C99.7238 59.2581 100.074 58.8498 100.411 58.452C105.23 52.5115 107.237 45.0457 105.18 40.699C104.144 38.5151 102.158 37.3533 99.434 37.3402C98.3886 37.3408 97.3466 37.4601 96.3281 37.6958C89.073 39.3792 86.5071 46.7185 86.083 48.1147L86.2885 48.1121Z" fill="black"/>
<path d="M66.5978 8.21464L63.3496 7.84583V7.68777C63.4497 3.64664 65.984 1.5971 66.9482 0.838406L67.1247 0.693516C68.7632 -0.686894 71.2316 0.411638 71.3397 0.459057L71.7269 0.635559L71.3265 0.777815C66.3765 2.51386 66.5846 7.97228 66.5846 8.02497L66.5978 8.21464ZM63.7 7.54024L66.2421 7.83002C66.258 6.83686 66.5583 2.35844 70.7838 0.603947C70.0383 0.364219 68.4497 0.0164826 67.3591 0.941146L67.1773 1.09131C66.258 1.83156 63.8607 3.76256 63.7026 7.54024H63.7Z" fill="black"/>
<path d="M77.6524 17.2774L77.3152 17.2141C78.5007 10.9628 77.9764 6.3342 75.753 3.45746C75.2171 2.73705 74.5443 2.12954 73.773 1.66978C73.0018 1.21003 72.1474 0.907077 71.2588 0.77831L71.2825 0.438477C71.3931 0.438477 74.0012 0.641323 76.0244 3.24671C78.3084 6.19721 78.859 10.918 77.6524 17.2774Z" fill="black"/>
<path d="M71.5321 33.6492L71.2344 33.4779C71.7981 32.5006 72.383 29.7582 72.9757 25.3325C73.5315 21.0832 73.8819 16.7919 73.8872 16.7471L74.227 16.776C74.227 16.8182 73.874 21.1175 73.3129 25.3773C72.7149 29.8478 72.1169 32.6323 71.5321 33.6492Z" fill="black"/>
<path d="M68.576 30.0184H68.5523V29.8445L68.5049 29.6838C69.693 29.3413 70.7283 21.5857 71.0997 16.7754L71.4422 16.8017C71.3395 18.0978 70.4069 29.4889 68.5997 30.0105L68.576 30.0184Z" fill="black"/>
<path d="M80.4829 39.7501C73.1067 36.7417 75.6357 24.0229 75.662 23.8965L75.9992 23.965C75.9729 24.0888 73.4965 36.5336 80.612 39.4314L80.4829 39.7501Z" fill="black"/>
<path d="M65.3898 52.8539C62.7396 52.8539 60.0657 51.5051 58.248 50.3381C56.9911 49.5298 55.8081 48.6121 54.7127 47.5957L54.5625 47.4508L54.7364 47.3322C54.7917 47.2927 60.2922 43.5124 59.5704 40.0877L59.9076 40.0166C60.2317 41.5603 59.4861 43.3096 57.6921 45.2221C56.8988 46.0552 56.0321 46.8152 55.1025 47.4929C56.0351 48.3465 61.1194 52.7828 65.8297 52.4982C67.7422 52.3797 69.3756 51.4946 70.6875 49.8639L70.9509 50.0773C69.5758 51.7843 67.8608 52.7116 65.8481 52.8354C65.698 52.8486 65.5425 52.8539 65.3898 52.8539Z" fill="black"/>
<path d="M35.5495 25.6388C33.5606 25.6388 31.9404 23.1519 31.9404 20.1066C31.9404 17.0612 33.5606 14.5586 35.5495 14.5586C36.0058 14.5617 36.4528 14.6883 36.843 14.9248C38.2287 15.7335 39.1612 17.8226 39.1612 20.1066C39.1612 22.0086 38.5132 23.7947 37.47 24.8063L37.4147 24.859C36.9943 25.2691 36.4565 25.538 35.8762 25.6282C35.7676 25.6384 35.6585 25.642 35.5495 25.6388ZM35.5495 14.8905C33.7476 14.8905 32.2829 17.2246 32.2829 20.096C32.2829 22.9675 33.7476 25.2963 35.5495 25.2963C35.6429 25.2968 35.7362 25.2906 35.8288 25.2778C36.3227 25.2017 36.782 24.9776 37.1459 24.6351L37.1855 24.5955C38.1971 23.663 38.824 21.9401 38.824 20.096C38.824 17.9227 37.96 15.9574 36.6744 15.2093C36.3353 15.003 35.9464 14.8928 35.5495 14.8905Z" fill="black"/>
<path d="M45.8881 25.6383C45.7261 25.6387 45.5645 25.6219 45.406 25.5882C45.0361 25.5103 44.6868 25.355 44.3812 25.1325C44.279 25.0612 44.1805 24.9847 44.0862 24.9033L44.0019 24.8242C42.9244 23.8126 42.2764 22.0423 42.2764 20.0824C42.2764 19.195 42.4233 18.3138 42.711 17.4743L43.0351 17.5876C42.7617 18.3936 42.6237 19.2392 42.6267 20.0903C42.6267 21.9343 43.2484 23.6414 44.2495 24.5687C44.2709 24.5912 44.2938 24.6124 44.318 24.6319C44.4021 24.7067 44.49 24.7771 44.5814 24.8427C44.85 25.0367 45.1559 25.1731 45.4798 25.2431C45.6792 25.2823 45.8831 25.2938 46.0857 25.2773C47.8085 25.1219 49.16 22.8379 49.16 20.0797C49.16 17.2109 47.6953 14.8769 45.8934 14.8769C45.2598 14.8963 44.6589 15.1619 44.2179 15.6171C43.6762 16.1677 43.2703 16.837 43.0324 17.5718L42.711 17.4691C42.9676 16.6835 43.4031 15.9684 43.9834 15.38C44.4884 14.864 45.1743 14.5646 45.896 14.5449C47.8849 14.5449 49.5051 17.0318 49.5051 20.0903C49.5051 23.025 48.0167 25.4565 46.1146 25.6224L45.8881 25.6383Z" fill="black"/>
<path d="M36.7718 14.8877L36.751 15.2295L44.0925 15.6772L44.1133 15.3354L36.7718 14.8877Z" fill="black"/>
<path d="M35.5625 25.6388L35.5361 25.299L37.4144 25.1673L44.19 24.6035L44.2164 24.946L37.4381 25.5097L35.5625 25.6388Z" fill="black"/>
<path d="M51.3073 14.9672L45.8857 14.8882L45.891 14.5457L51.3046 14.6247L53.4833 14.5352L53.4964 14.8776L51.3073 14.9672Z" fill="black"/>
<path d="M56.6739 26.3576L55.6544 26.3208L46.0811 25.6306L46.1048 25.2881L55.6728 25.9783L56.687 26.0152L56.6739 26.3576Z" fill="black"/>
<path d="M105.017 228.475H87.6669L68.4834 135.524L68.818 135.452L75.7147 168.872L87.9461 228.124H104.643C104.208 223.203 95.6727 126.174 95.354 116.332C95.1301 109.428 95.4356 90.1755 97.1743 74.8672C98.0252 67.3935 99.1 61.8824 100.372 58.4814L100.694 58.6026C99.432 61.9746 98.3624 67.462 97.5142 74.9067C95.7781 90.1861 95.4752 109.417 95.6964 116.322C96.0205 126.348 104.917 227.26 104.998 228.282L105.017 228.475Z" fill="black"/>
<path d="M83.8711 79.0316V68.0674H84.2136V78.6602C85.673 78.5311 95.3174 77.5722 97.2036 74.7982L97.4855 74.9905C95.378 78.1149 84.5165 78.9816 84.0502 79.0185L83.8711 79.0316Z" fill="black"/>
<path d="M71.1287 236.823H30.4883L40.2987 229.473L40.5042 229.747L31.5157 236.481H70.7599L70.6045 234.389L69.6271 221.359L69.9696 221.333L71.1287 236.823Z" fill="black"/>
<path d="M47.4001 224.163L40.293 229.487L40.4983 229.761L47.6054 224.437L47.4001 224.163Z" fill="black"/>
<path d="M51.3271 221.223L47.4014 224.164L47.6067 224.438L51.5324 221.497L51.3271 221.223Z" fill="black"/>
<path d="M107.154 244.42H65.3467L87.7072 228.163L87.9074 228.44L66.3978 244.077H106.764L104.659 228.324L104.999 228.279L107.154 244.42Z" fill="black"/>
<path d="M70.8099 234.204H34.042V234.547H70.8099V234.204Z" fill="black"/>
<path d="M106.96 241.798H69.0566V242.14H106.96V241.798Z" fill="black"/>
<path d="M82.2597 45.5013L81.9277 45.4091C82.299 44.2067 82.7952 43.0465 83.4083 41.9476C84.3435 40.2695 85.9557 38.0777 88.3266 37.1477L88.3503 37.124H88.4241V37.2953L88.5426 37.4191L88.4768 37.4454C84.0853 39.1525 82.2755 45.4381 82.2597 45.5013Z" fill="black"/>
<path d="M61.0267 31.8844C59.3301 31.8844 56.4007 31.4287 54.9676 28.5309C54.5999 27.7588 54.3554 26.9339 54.2432 26.0862L54.583 26.0361C54.6892 26.8489 54.9221 27.64 55.2732 28.3807C57.2305 32.3323 62.2042 31.4629 62.2543 31.4524L62.3175 31.7896C61.8905 31.8561 61.4588 31.8879 61.0267 31.8844Z" fill="black"/>
<path d="M56.3744 224.458H47.5124L47.5098 224.115H56.3744V224.458Z" fill="black"/>
<path d="M53.0126 226.604H44.1875V226.947H53.0126V226.604Z" fill="black"/>
<path d="M49.3434 229.781H40.405L40.4023 229.438H49.3434V229.781Z" fill="black"/>
<path d="M92.6797 231.494H83.6491L83.6465 231.151H92.6797V231.494Z" fill="black"/>
<path d="M89.0105 233.64H80.2275V233.982H89.0105V233.64Z" fill="black"/>
<path d="M85.3378 236.481H76.3203V236.824H85.3378V236.481Z" fill="black"/>
<path d="M85.6517 49.5776L85.3145 49.5197C85.4018 49.0809 85.5252 48.65 85.6833 48.2314L86.002 48.3526C85.8532 48.7511 85.736 49.1607 85.6517 49.5776Z" fill="black"/>
</svg>
