<svg width="378" height="473" viewBox="0 0 378 473" fill="none" xmlns="http://www.w3.org/2000/svg">
<ellipse cx="206" cy="444.5" rx="172" ry="28.5" fill="#ECECEC"/>
<path d="M335.879 328H215.844V444H335.879V328Z" fill="#010973"/>
<path d="M244.087 328H215.844V444H244.087V328Z" fill="#01053F"/>
<rect x="264.261" y="345.148" width="61.5304" height="12.1043" rx="6.05217" fill="#01053F"/>
<path d="M230.465 327.5V212.5H349.5V327.5H230.465Z" fill="white" stroke="#9D9D9D"/>
<path d="M230.465 327.5V212.5H257.709V327.5H230.465Z" fill="#ECECEC" stroke="#9D9D9D"/>
<rect x="278.883" y="229.648" width="60.5304" height="11.1043" rx="5.55217" fill="#ECECEC" stroke="#9D9D9D"/>
<path d="M328.817 96H208.783V212H328.817V96Z" fill="#0D91FF"/>
<path d="M237.026 96H208.783V212H237.026V96Z" fill="#0E70C2"/>
<rect x="257.2" y="113.148" width="61.5304" height="12.1043" rx="6.05217" fill="#0E70C2"/>
<path d="M21.3158 28L18.7368 20.2632L11 17.3158L18.7368 14.7368L21.3158 7L24.2632 14.7368L32 17.3158L24.2632 20.2632L21.3158 28Z" fill="#FF8600"/>
<path d="M41.4035 80L40.0526 75.9474L36 74.4035L40.0526 73.0526L41.4035 69L42.9474 73.0526L47 74.4035L42.9474 75.9474L41.4035 80Z" fill="#010973"/>
<path d="M264.35 49.85H259.15V44.65C259.15 44.325 258.825 44 258.5 44C258.175 44 257.85 44.325 257.85 44.65V49.85H252.65C252.325 49.85 252 50.175 252 50.5C252 50.825 252.325 51.15 252.65 51.15H257.85V56.35C257.85 56.675 258.175 57 258.5 57C258.825 57 259.15 56.675 259.15 56.35V51.15H264.35C264.675 51.15 265 50.825 265 50.5C265 50.175 264.675 49.85 264.35 49.85Z" fill="#010973"/>
<path d="M8 194C3.63636 194 0 190.364 0 186C0 181.636 3.63636 178 8 178C12.3636 178 16 181.636 16 186C16 190.364 12.3636 194 8 194ZM8 180.909C5.09091 180.909 2.54545 183.455 2.54545 186.364C2.54545 189.273 5.09091 191.818 8 191.818C10.9091 191.818 13.4545 188.909 13.4545 186C13.4545 183.091 10.9091 180.909 8 180.909Z" fill="#010973"/>
<path d="M28.4589 128.918C26.5722 128.918 25 127.345 25 125.459C25 123.572 26.5722 122 28.4589 122C30.3455 122 31.9177 123.572 31.9177 125.459C31.9177 127.345 30.3455 128.918 28.4589 128.918ZM28.4589 123.258C27.2011 123.258 26.1005 124.358 26.1005 125.616C26.1005 126.874 27.2011 127.974 28.4589 127.974C29.7166 127.974 30.8172 126.717 30.8172 125.459C30.8172 124.201 29.7166 123.258 28.4589 123.258Z" fill="#FF8600"/>
<g clip-path="url(#clip0)">
<path d="M167.869 0.916145C165.221 0.790921 162.567 0.610721 159.92 0.543527C158.101 0.497714 156.531 0.965013 155.834 2.74869C155.751 2.94173 155.736 3.1569 155.791 3.35954L155.34 3.58556C155.186 3.56486 155.03 3.58729 154.888 3.65037C154.746 3.71344 154.624 3.8147 154.536 3.9429C152.836 6.10938 151.226 8.33796 149.706 10.6286C149.51 10.6237 149.315 10.669 149.141 10.7604C148.966 10.8518 148.818 10.9862 148.71 11.1509C148.223 11.8575 147.75 12.5701 147.293 13.2889C147.173 13.3574 147.07 13.451 146.989 13.5632C146.909 13.6755 146.854 13.8038 146.827 13.9395L146.702 14.0066C146.511 14.0934 146.356 14.2434 146.262 14.4313C146.168 14.6193 146.142 14.8338 146.187 15.039C145.642 15.4575 145.196 15.9928 144.883 16.6058C144.619 16.929 144.402 17.2878 144.237 17.6717C143.504 18.1917 142.999 18.9749 142.826 19.8586C142.36 22.5188 140.73 24.6782 139.81 27.3384C139.487 28.2761 138.762 29.3848 138.286 30.3927C137.598 31.7586 137.157 33.2365 136.985 34.7572C136.955 34.8061 136.931 34.8549 136.9 34.9038C136.324 35.8903 135.569 36.7699 135.057 37.7901C134.489 38.9813 134.09 40.2455 133.868 41.5468C133.777 42.0141 133.698 42.4875 133.582 42.9487C133.518 43.2144 133.439 43.4771 133.354 43.7336C133.399 43.5687 133.323 43.6817 133.122 44.0757C132.85 44.5183 132.672 45.012 132.598 45.5265C132.298 45.932 132.065 46.3825 131.906 46.8612C131.108 49.2924 130.288 51.7164 129.447 54.1333C128.696 54.9015 128.26 55.9256 128.229 57.0013C127.768 57.4093 127.398 57.909 127.141 58.4685C126.884 59.028 126.746 59.6351 126.736 60.251C126.736 59.8265 126.586 60.929 126.541 61.0909C126.495 61.2528 126.434 61.4574 126.379 61.6407C126.379 61.6407 126.355 61.662 126.346 61.6743C125.692 62.4007 125.261 63.3012 125.106 64.2673C124.846 64.6492 124.659 65.0758 124.554 65.5257C124.396 66.2129 124.249 66.897 124.076 67.5842C123.415 68.3477 123.049 69.3226 123.043 70.3331V70.3789C123.043 70.4338 123.018 70.4919 123.009 70.5499C122.823 70.9164 122.634 71.2829 122.446 71.6494C122.176 72.1649 122.006 72.7264 121.943 73.3048C121.059 74.9698 120.26 76.6782 119.548 78.4238C119.027 79.7218 118.704 80.9374 118.113 82.0339C117.772 82.6623 117.385 83.2646 116.955 83.8359C116.531 80.9557 115.922 78.1092 114.853 75.4428C114.581 74.7534 114.176 74.1245 113.661 73.5919C113.631 73.4789 113.597 73.3659 113.567 73.2529C113.466 72.9031 113.265 72.5908 112.988 72.355C113.02 71.9983 113.02 71.6396 112.988 71.2829C112.86 70.2995 112.235 69.4504 111.16 69.4504C110.804 69.4656 110.458 69.5755 110.158 69.7687C109.858 69.9619 109.615 70.2315 109.453 70.5499C107.646 70.8378 105.894 71.4033 104.258 72.2267C103.376 72.7202 102.448 73.1293 101.489 73.4484C100.842 73.6187 100.215 73.8604 99.621 74.1692C99.3922 74.1295 99.1582 74.1295 98.9294 74.1692C97.5962 74.3544 96.2826 74.6611 95.005 75.0855C93.7466 75.5467 92.7929 76.0537 91.4705 76.2247C91.2298 76.243 90.9922 76.2644 90.7515 76.2797C90.1967 76.3161 89.6519 76.4451 89.1396 76.6615L88.2256 76.7225C87.9142 76.7413 87.612 76.8357 87.345 76.9974L85.9617 76.9272C85.7599 76.928 85.5666 77.0087 85.424 77.1517C85.2813 77.2947 85.2008 77.4885 85.2 77.6907C85.1267 77.8624 85.1171 78.0547 85.173 78.2329C85.2289 78.411 85.3465 78.5632 85.5047 78.662C85.5625 78.6986 85.6143 78.7353 85.6692 78.775C85.7667 78.8575 85.8581 78.943 85.9465 79.0316C86.0348 79.1201 86.1262 79.227 86.2115 79.337L86.2268 79.3614C86.2633 79.4164 86.3029 79.4714 86.3365 79.5263C86.4059 79.6335 86.469 79.7446 86.5254 79.8593C86.5244 79.8663 86.5244 79.8735 86.5254 79.8806C86.4874 80.0975 86.4681 80.3172 86.4675 80.5373C86.4703 81.0612 86.5737 81.5797 86.7722 82.0644C86.68 82.1602 86.6081 82.2737 86.561 82.3982C86.5139 82.5226 86.4924 82.6553 86.4979 82.7883L86.5254 84.9537C86.4673 85.3751 86.4307 85.7992 86.4157 86.2243C86.1527 85.5085 85.688 84.8846 85.0781 84.4284C84.2615 83.8176 83.4327 83.2311 82.6588 82.55C81.8849 81.8689 81.1354 81.1665 80.3218 80.5281C79.3732 79.7504 78.3119 79.1221 77.1744 78.665C76.9797 78.6133 76.7725 78.6404 76.5975 78.7404C76.4226 78.8404 76.2938 79.0053 76.239 79.1995C76.1975 79.3494 76.2047 79.5086 76.2595 79.6541C76.3143 79.7996 76.4138 79.9238 76.5437 80.0089C76.5199 80.0808 76.5076 80.1561 76.5071 80.2319C76.4553 82.602 76.4004 85.1889 77.5126 87.3574C78.0031 88.3134 78.8319 89.1197 79.9227 89.2938C81.1171 89.4893 82.3602 89.1228 83.4267 88.5761C83.5153 88.5299 83.594 88.4665 83.6582 88.3898L84.487 90.6713C84.529 90.8139 84.6111 90.9413 84.7235 91.0383C84.8359 91.1352 84.9738 91.1976 85.1207 91.218H85.1847C85.0562 91.7646 85.0731 92.3354 85.2335 92.8734C85.2844 93.0326 85.3838 93.1718 85.5176 93.2715C85.6515 93.3712 85.8132 93.4264 85.98 93.4293C85.9126 93.5752 85.8776 93.7342 85.8776 93.895C85.8776 94.0559 85.9126 94.2148 85.98 94.3608C86.1293 94.7059 86.2847 95.048 86.4431 95.3901C86.369 95.608 86.3481 95.8405 86.3822 96.0681C86.5619 97.3784 86.6869 98.6948 86.7326 100.014C86.7356 100.225 86.8033 100.429 86.9265 100.6C87.0498 100.77 87.2225 100.899 87.4212 100.967C87.3968 101.844 87.3389 102.726 87.2993 103.563C87.2447 104.518 87.5589 105.458 88.1768 106.187C88.0871 106.355 88.049 106.547 88.0671 106.737C88.1798 108.227 88.2469 109.724 88.253 111.22C88.1358 111.341 88.0527 111.491 88.0123 111.654C87.8351 112.394 87.8031 113.162 87.9178 113.914C87.64 114.705 87.5049 115.54 87.5187 116.379C87.5203 116.544 87.561 116.706 87.6375 116.852C87.5087 117.192 87.4357 117.549 87.4212 117.912C87.3548 117.992 87.3051 118.084 87.2749 118.184C87.2566 118.239 87.2414 118.294 87.2231 118.346C87.1974 118.429 87.1912 118.517 87.2048 118.602C87.0907 118.699 87.0029 118.823 86.9496 118.963C86.8963 119.103 86.8793 119.254 86.9001 119.403C86.7948 119.515 86.7135 119.648 86.6611 119.793C86.6087 119.938 86.5864 120.092 86.5955 120.246C86.5152 120.281 86.4419 120.331 86.3791 120.392L86.3243 120.447C86.2519 120.513 86.1983 120.598 86.1689 120.691C86.1128 120.831 86.0976 120.983 86.1251 121.131C86.1526 121.279 86.2217 121.416 86.3243 121.525L86.4797 121.644C86.5581 121.689 86.6437 121.719 86.7326 121.733C86.34 122.221 85.9904 122.742 85.6875 123.291C84.8831 124.76 84.6972 126.531 84.7734 128.327C84.6302 128.556 84.5272 128.808 84.4687 129.072C83.905 131.516 83.5546 134.265 84.7734 136.549C85.465 137.862 87.2871 138.263 88.5272 137.536C88.976 137.27 89.3389 136.881 89.5723 136.414C89.8058 135.947 89.8999 135.422 89.8435 134.903C90.2373 134.547 90.5296 134.093 90.6903 133.587C90.8509 133.081 90.8741 132.541 90.7575 132.023C90.5134 130.625 90.3679 129.211 90.3218 127.793C90.2914 126.8 90.2457 126.128 90.9099 125.349C92.4334 123.581 94.3377 121.818 96.3944 120.713C98.6856 119.491 101.425 118.88 103.92 118.178C106.623 117.42 109.338 116.813 112.147 116.706C114.956 116.599 115.541 113.041 113.817 111.7C114.347 111.7 114.874 111.675 115.404 111.657C115.992 111.706 116.592 111.715 117.18 111.712H118.076L118.031 112.469C117.967 113.526 118.552 114.763 119.28 115.493C120.084 116.289 121.166 116.739 122.296 116.745C123.399 116.697 124.545 116.333 125.313 115.493C125.985 114.779 126.412 113.869 126.531 112.894C127.259 111.953 127.989 111.014 128.722 110.075C129.256 109.421 129.62 108.644 129.783 107.815C130.834 106.333 131.586 104.681 132.324 103.029C132.474 102.69 132.592 102.339 132.677 101.978L134.697 99.0644C135.146 98.3881 135.353 97.5798 135.285 96.7706C135.355 96.5935 135.422 96.4163 135.492 96.2361C135.563 96.0559 135.648 95.8513 135.724 95.6253C135.851 95.2592 135.913 94.8736 135.907 94.486C135.998 94.3058 136.087 94.1226 136.184 93.9454C136.605 93.149 136.784 92.2465 136.699 91.3493L136.717 91.2974C137.055 90.4945 137.318 89.6623 137.503 88.8112C137.588 88.4199 137.629 88.0204 137.625 87.6201C137.953 87.1914 138.207 86.7102 138.375 86.1968C139.079 83.9619 139.536 81.6565 139.74 79.3217C139.765 79.0662 139.757 78.8085 139.716 78.5551C139.795 77.9626 139.862 77.3731 139.914 76.7806C140.878 73.0462 141.767 69.2905 142.58 65.5135C142.665 65.107 142.698 64.6913 142.677 64.2765C143.087 63.5995 143.323 62.8315 143.366 62.0408C143.399 61.5246 143.43 61.0054 143.463 60.4862C143.68 59.6951 143.865 58.8918 144.009 58.0672C144.402 55.8101 144.691 53.5622 145.532 51.4212C145.741 50.8843 145.802 50.3009 145.709 49.7322C145.947 49.4771 146.14 49.1839 146.282 48.8648C146.888 47.4602 147.208 45.9482 147.223 44.4178C147.223 44.2223 147.241 44.0238 147.257 43.8283C147.257 43.7672 147.281 43.6909 147.299 43.5901C147.433 43.077 147.54 42.5547 147.671 42.0416C147.859 41.2909 147.845 40.5037 147.631 39.76C147.708 39.6043 147.784 39.4546 147.851 39.2836C148.402 37.9275 148.573 36.4095 148.856 34.9802C149.173 33.3797 149.491 31.7793 149.81 30.1789C149.869 29.8677 149.899 29.5518 149.901 29.2351C150.206 29.0458 150.486 28.8503 150.779 28.6609C151.998 28.3127 153.137 27.65 153.786 26.6329C155.513 25.4234 157.206 24.1641 158.865 22.8548C158.948 22.7884 159.019 22.7102 159.079 22.6227C159.155 22.6014 159.23 22.5728 159.301 22.5372C160.011 22.1816 160.655 21.7075 161.205 21.1353C161.345 20.9894 161.441 20.8075 161.483 20.6099C161.987 20.3054 162.459 19.9492 162.89 19.547C163.184 19.3368 163.447 19.0859 163.67 18.8018C163.761 18.6887 163.829 18.5587 163.87 18.4193C163.911 18.2799 163.924 18.1338 163.908 17.9894C163.961 17.7106 163.906 17.422 163.753 17.1831C163.711 16.8593 163.628 16.5421 163.506 16.2393C163.417 16.0086 163.255 15.8138 163.045 15.6851C162.834 15.5564 162.587 15.5011 162.342 15.5277C162.144 15.3969 161.91 15.3334 161.673 15.3466C161.437 15.3598 161.211 15.449 161.029 15.601C159.776 16.618 158.552 17.7573 157.211 18.6552C156.71 19.0112 156.112 19.2032 155.499 19.205C155.44 19.147 155.373 19.0977 155.301 19.0584C155.057 18.9206 154.804 18.8022 154.542 18.7041C153.966 16.8074 154.024 12.507 154.012 11.1357L154.045 11.099C154.182 10.9035 154.31 10.705 154.435 10.5065C154.534 10.5722 154.645 10.6188 154.761 10.6439C155.029 10.7019 155.319 10.7814 155.614 10.8638C155.686 11.0259 155.794 11.1693 155.93 11.283C156.065 11.3967 156.225 11.4778 156.397 11.52C156.569 11.5622 156.748 11.5643 156.921 11.5263C157.094 11.4882 157.255 11.411 157.394 11.3006L157.54 11.1876H157.595C158.366 11.1234 158.771 10.4179 159.377 10.0209C159.584 9.91396 159.798 9.81622 160.014 9.71543C160.227 9.61939 160.395 9.44533 160.484 9.22895C160.573 9.01257 160.576 8.77027 160.492 8.55176C161.182 8.43789 161.815 8.1036 162.299 7.59884C162.448 7.44334 162.547 7.24642 162.583 7.0338C162.769 7.0338 162.957 7.0338 163.14 7.01242C164.505 6.93912 164.514 4.80115 163.14 4.87445C161.9 4.94164 160.563 4.9111 159.274 5.02716C160.149 4.59252 161.09 4.30466 162.059 4.17503C162.313 4.14421 162.549 4.02541 162.726 3.83906C163.814 3.73521 164.904 3.67108 165.983 3.5825C166.136 3.57232 166.286 3.52964 166.422 3.45728C166.876 3.36932 167.321 3.23421 167.747 3.05412H167.854C169.225 3.11826 169.222 0.980284 167.869 0.916145Z" fill="white"/>
<path d="M241.842 84.0897L240.38 82.7855C240.27 82.6888 240.151 82.6038 240.023 82.532C239.916 82.0458 239.649 81.61 239.265 81.295C237.906 80.1889 236.679 78.9293 235.608 77.5414C234.859 76.62 233.961 75.8312 232.951 75.2079C232.893 75.0733 232.82 74.9454 232.735 74.8261C231.663 73.3696 230.431 72.0379 229.064 70.8556C228.067 69.9729 227.299 68.4886 226.303 67.4471C226.207 67.3478 226.105 67.254 225.998 67.1661C225.553 66.2223 224.578 65.5198 223.561 64.9487L223.317 64.6616C223.148 64.276 222.888 63.9367 222.561 63.672C221.873 62.7069 221.257 61.6837 220.642 60.6514C220.574 60.5418 220.481 60.4505 220.37 60.3856C220.259 60.3206 220.133 60.2839 220.005 60.2788C218.762 58.8066 217.482 57.365 216.166 55.9539C216.038 55.8293 215.872 55.7525 215.694 55.7364C215.517 55.7202 215.339 55.7658 215.191 55.8654L209.457 48.978C209.298 48.7876 209.107 48.6264 208.893 48.5016C208.706 47.7205 208.223 47.0433 207.546 46.6141C206.762 46.11 206.006 45.5624 205.282 44.9739C205.255 44.922 205.234 44.8701 205.203 44.8182C204.707 43.8872 204.028 43.0664 203.207 42.4053C203.005 42.2434 202.786 42.1022 202.555 41.9838C202.487 41.7392 202.378 41.5079 202.232 41.2997C201.825 40.716 201.317 40.2093 200.733 39.8031C200.669 39.7573 200.611 39.7084 200.566 39.6748C200.401 39.5313 200.234 39.3877 200.072 39.2381C199.767 38.9326 199.484 38.6272 199.204 38.3218L199.103 38.2118L199.033 38.111C198.89 37.9033 198.75 37.6926 198.616 37.4788C198.305 36.9823 197.859 36.5858 197.33 36.3365C197.197 36.0632 197.024 35.811 196.818 35.5882C196.594 35.3453 196.356 35.1158 196.105 34.901C196.114 34.6085 196.075 34.3165 195.989 34.0367C195.948 34.0085 195.909 33.9768 195.873 33.942C195.688 33.7557 195.502 33.5694 195.31 33.3922C195.218 33.3067 195.124 33.2212 195.026 33.1387C194.987 33.1021 194.941 33.0685 194.898 33.0349L194.944 33.0685C194.649 32.8707 194.425 32.584 194.304 32.2499C192.607 31.1687 191.169 29.5011 189.907 27.974C189.213 27.131 188.771 26.1231 188.064 25.2985C187.509 24.6258 186.766 24.1345 185.931 23.8874C185.684 23.3957 185.435 22.8917 185.142 22.3817C184.268 20.8545 183.009 19.9566 181.763 18.8113C180.352 17.5224 179.045 16.0991 177.698 14.743C177.477 14.5159 177.221 14.3253 176.94 14.178C175.672 12.6671 174.337 11.2092 172.933 9.80428C172.771 9.64314 172.592 9.4998 172.4 9.37669C172.136 8.95952 171.901 8.52481 171.696 8.07558C171.549 7.77268 171.34 7.50413 171.083 7.28735C170.826 7.07057 170.526 6.9104 170.203 6.81723C170.039 5.69632 169.188 4.63344 168.092 4.37383C167.994 4.35245 167.897 4.33412 167.787 4.32191C167.768 4.14375 167.683 3.97919 167.549 3.86132C167.414 3.74346 167.24 3.68104 167.062 3.68662C166.961 3.68648 166.861 3.70765 166.769 3.74874C166.676 3.78983 166.594 3.84993 166.526 3.92512C166.459 4.00032 166.408 4.08892 166.377 4.18517C166.346 4.28143 166.335 4.38317 166.346 4.48378C165.691 4.72633 165.144 5.1939 164.801 5.80322C164.524 5.94093 164.272 6.1236 164.054 6.34382C163.577 6.82582 163.068 7.27481 162.531 7.68769L162.65 7.59606C162.309 7.86059 162.023 8.18953 161.809 8.56426C161.678 8.50731 161.532 8.49378 161.393 8.52564C161.254 8.55751 161.128 8.6331 161.035 8.7414C159.996 9.86042 158.894 10.9189 157.735 11.9117C157.391 12.2171 157.126 12.5531 157.229 13.0418C157.354 13.4019 157.546 13.7347 157.796 14.0222C158.218 14.6497 158.711 15.2267 159.265 15.7417C159.36 15.8337 159.477 15.8996 159.605 15.933C159.733 15.9664 159.868 15.9663 159.996 15.9325C160.124 15.8988 160.241 15.8326 160.336 15.7403C160.431 15.6481 160.5 15.5329 160.538 15.4058C160.523 15.4577 160.556 15.3905 160.569 15.3813C160.602 15.3531 160.641 15.3304 160.681 15.3141C160.71 15.2971 160.739 15.2818 160.77 15.2683L160.858 15.2347C160.956 15.2011 161.056 15.1675 161.163 15.14C161.567 15.0288 161.987 14.9825 162.406 15.0026C162.563 15.0045 162.715 14.9528 162.839 14.856L163.707 15.3386C163.766 15.6677 163.895 15.9803 164.085 16.2548C164.286 16.5603 164.484 16.8413 164.676 17.1375C164.589 17.4047 164.534 17.6817 164.514 17.9622C164.226 18.3493 164.037 18.8012 163.963 19.2786C163.143 19.4313 163.192 20.7904 164.118 20.7904H164.167C164.299 21.148 164.513 21.4693 164.792 21.7281C165.111 22.0179 165.476 22.2513 165.873 22.4183C165.96 22.6831 166.084 22.9341 166.242 23.1636L166.321 23.1941C166.487 23.6421 166.745 24.0499 167.079 24.3905C167.413 24.7311 167.815 24.9969 168.259 25.1702C168.499 25.5892 168.837 25.9435 169.243 26.2025C169.978 26.679 170.553 27.4028 171.154 28.0687C171.22 28.2669 171.313 28.455 171.431 28.6276C172.628 30.3594 174.112 31.7307 175.599 33.209C176.986 34.5834 177.857 36.2999 179.191 37.7079C179.302 37.8273 179.424 37.9367 179.554 38.0347C179.758 38.2371 179.99 38.4089 180.243 38.5447C180.459 39.1913 180.906 39.7351 181.498 40.0719C181.982 40.3674 182.433 40.7134 182.845 41.1042L182.869 41.1439C183.468 42.0286 184.159 42.8475 184.929 43.5873C185.285 44.076 185.633 44.5738 185.992 45.0564C186.453 45.695 187.112 46.1624 187.866 46.385C187.997 46.6183 188.169 46.8254 188.375 46.9958C189.472 47.9408 190.432 49.0346 191.227 50.2456C192.275 51.7727 193.549 52.8356 195.023 53.9107C195.569 55.3034 196.279 56.6106 197.61 57.2245C197.735 57.2795 197.86 57.3284 197.988 57.3711C198.115 57.7767 198.36 58.1351 198.692 58.4004L199.911 59.3625C199.986 59.8027 200.148 60.2232 200.389 60.599C200.63 60.9747 200.944 61.2979 201.312 61.5493C202.043 62.0767 202.766 62.6122 203.478 63.1559C203.649 63.5356 203.901 63.8733 204.216 64.1454L204.755 64.628C204.907 64.9842 205.129 65.3062 205.407 65.5748C207.895 68.0502 210.246 70.6604 212.449 73.3937C212.704 73.7064 213.042 73.9412 213.424 74.0717C213.947 74.8908 214.59 75.6268 215.331 76.2555C215.436 76.423 215.558 76.5795 215.694 76.7228C217.176 78.3151 218.713 79.8514 220.304 81.3317C220.266 81.8054 220.331 82.2817 220.496 82.7275L218.716 82.9443C218.62 82.9024 218.516 82.8806 218.411 82.8802L216.723 82.8313C216.322 82.7155 215.9 82.6884 215.486 82.7519H215.368C215.278 82.7473 215.189 82.7473 215.099 82.7519L214.874 82.7763L212.897 82.7183C212.73 82.7168 212.569 82.7729 212.44 82.8771C212.053 82.7209 211.637 82.6511 211.221 82.6725L204.082 82.9107C203.909 82.9181 203.737 82.9385 203.567 82.9718C197.126 82.6542 190.676 82.5625 184.219 82.6969C184.103 82.6987 183.987 82.7068 183.872 82.7214C183.826 82.6988 183.778 82.6834 183.728 82.6755L183.223 82.5992C183.003 82.5505 182.78 82.5259 182.555 82.5259C182.435 82.4448 182.292 82.4022 182.147 82.4037C182.047 82.4033 181.948 82.4228 181.855 82.461C181.762 82.4993 181.678 82.5555 181.607 82.6265C181.537 82.6974 181.481 82.7818 181.442 82.8746C181.404 82.9674 181.385 83.0669 181.385 83.1673C181.398 83.533 181.458 83.8955 181.565 84.2454C181.588 84.3132 181.62 84.3779 181.659 84.4378C181.422 85.0405 181.364 85.6997 181.495 86.3345C181.232 86.7568 181.111 87.2525 181.151 87.7486C181.312 89.5568 181.294 91.3924 181.349 93.2066C181.356 93.4945 181.407 93.7796 181.498 94.0526L181.416 94.1626C181.347 94.2768 181.311 94.4079 181.312 94.5413C181.281 94.7365 181.233 94.9287 181.169 95.1155C181.137 95.2141 181.131 95.3196 181.154 95.4209C181.163 95.5197 181.193 95.6152 181.243 95.7011C181.292 95.787 181.359 95.8613 181.44 95.9188C181.514 95.9856 181.603 96.0329 181.699 96.0562L181.903 96.0806C182.038 96.0818 182.171 96.0458 182.287 95.9768L182.443 95.8577C182.503 95.7955 182.551 95.7231 182.586 95.6439C183.079 96.012 183.681 96.2035 184.295 96.1875H217.961C219.618 96.1875 220.532 95.0391 220.718 93.7655C221.055 93.3603 221.416 92.9758 221.8 92.6141C222.476 92.0338 223.323 91.6764 224.006 91.0717C225.285 89.9263 226.193 88.3778 227.616 87.4066C227.936 87.32 228.261 87.2507 228.588 87.1989C228.941 87.1359 229.257 86.9431 229.475 86.6583C231.134 86.3546 232.82 86.2266 234.505 86.2765H234.536C234.512 86.4951 234.531 86.7162 234.594 86.9271C234.438 87.2068 234.362 87.5234 234.371 87.8433C234.371 87.8678 234.371 87.8953 234.371 87.9227C233.7 88.712 233.151 89.5986 232.744 90.5525C231.041 90.583 230.133 91.8352 230.02 93.173C228.28 93.7319 228.475 96.7495 230.614 96.7495C230.853 96.7575 231.09 96.7145 231.311 96.6234C231.532 96.5323 231.73 96.3952 231.894 96.2211C232.19 96.3112 232.499 96.3555 232.808 96.3525C233.183 96.3645 233.556 96.2977 233.904 96.1561C234.251 96.0146 234.565 95.8016 234.825 95.5309C234.913 95.4923 234.998 95.4463 235.078 95.3934C236.76 94.242 238.07 92.3819 238.865 90.5066C239 90.4617 239.128 90.3969 239.243 90.3142C239.771 89.9521 240.212 89.4773 240.535 88.9238C240.858 88.3704 241.055 87.7521 241.111 87.1134C241.395 87.0333 241.651 86.8745 241.848 86.6552C242.479 85.9864 242.607 84.7708 241.842 84.0897Z" fill="#FC8524"/>
<path d="M115.767 58.5835C115.116 58.5714 114.475 58.7474 113.92 59.0905C113.634 59.116 113.353 59.1775 113.082 59.2738L112.89 59.2494C112.79 58.9502 112.665 58.66 112.516 58.3819C112.235 57.8554 111.879 57.3728 111.458 56.9495C110.13 54.0938 108.265 51.4763 105.669 49.714L105.285 49.4574C105.094 49.2867 104.89 49.1305 104.676 48.9901C103.761 48.3858 102.777 47.8936 101.745 47.5241C101.217 47.2906 100.677 47.0866 100.127 46.9133C97.6162 46.1558 95.0934 46.5193 92.5614 46.9133C91.9507 47.0123 91.3826 47.2896 90.9282 47.7104C89.027 47.3545 87.0732 47.394 85.1878 47.8265C83.8716 48.1319 82.8143 49.2009 82.3298 50.4806C81.1891 50.9325 80.0866 51.4759 79.033 52.1055L78.8777 52.2093C78.0496 52.6011 77.3638 53.2416 76.9154 54.0419C76.3378 54.129 75.7837 54.3322 75.2863 54.6392C74.7889 54.9463 74.3585 55.3508 74.0209 55.8286C73.1609 56.6737 72.6414 57.8066 72.5614 59.0111C72.3146 61.9096 72.1379 65.1715 73.0245 67.9876C73.3708 69.0576 73.7777 70.1069 74.2433 71.1304C74.2593 71.8366 74.4543 72.5272 74.81 73.137L74.8466 73.2011C74.8466 73.2409 74.8679 73.2775 74.8801 73.3172C74.8923 73.3569 74.8801 73.3691 74.8801 73.3966C74.8931 74.2828 75.1712 75.1446 75.6784 75.8706C75.3737 76.7624 75.849 77.9322 77.0647 77.9322C77.4315 77.9431 77.7884 77.8118 78.0611 77.5657C78.7294 77.9129 79.472 78.0919 80.2247 78.0871C80.9775 78.0823 81.7178 77.8939 82.3816 77.5382C82.7293 77.3348 83.0463 77.0829 83.3231 76.7899C85.2975 76.8296 87.2476 76.4142 89.1915 76.1088C89.9238 76.0198 90.6481 75.8738 91.3579 75.672C91.7722 75.5407 92.1897 75.3941 92.5766 75.2231C93.1494 74.9787 92.8021 75.0459 93.4298 75.1039C94.1016 75.1604 94.7748 75.0125 95.3615 74.6794C96.3201 74.8041 97.2938 74.6326 98.1525 74.1877C99.0442 73.7318 99.9596 73.3239 100.895 72.966C101.195 72.9411 101.491 72.8774 101.775 72.7766C102.409 72.5475 103.034 72.3063 103.652 72.0466C104.103 71.9184 104.566 71.7992 105.023 71.6923C107.683 71.0898 110.228 70.0583 112.558 68.6381C113.006 68.3653 113.399 68.0123 113.719 67.5966C114.459 67.3784 115.123 66.9549 115.633 66.3749C116.104 66.1696 116.516 65.8481 116.83 65.4403C120.249 64.411 119.895 58.5835 115.767 58.5835Z" fill="#FC8524"/>
<path d="M111.257 218.314C110.737 218.356 110.229 218.49 109.755 218.708C109.558 218.623 109.345 218.58 109.13 218.583C108.826 218.583 108.521 218.583 108.234 218.583C108.028 218.334 107.741 218.165 107.424 218.107L105.769 217.74C105.628 217.682 105.479 217.644 105.328 217.627L105.111 217.597L92.7561 214.881C92.6209 214.853 92.4828 214.841 92.3447 214.845C91.0285 214.305 89.7183 213.724 88.4142 213.101C82.2503 210.132 76.2631 207.121 70.8792 202.878C70.9219 202.744 70.9219 202.6 70.8792 202.466C70.8539 202.37 70.81 202.28 70.7498 202.202C70.6897 202.123 70.6145 202.057 70.5288 202.008C70.0279 201.773 69.553 201.487 69.112 201.153C69.0741 201.054 69.016 200.964 68.9413 200.89C68.8761 200.816 68.7918 200.761 68.6976 200.731C68.6042 200.681 68.4987 200.658 68.3929 200.664H68.3228C68.2944 200.662 68.2659 200.662 68.2375 200.664C68.0887 200.663 67.943 200.707 67.8185 200.788C67.6941 200.87 67.5964 200.987 67.5376 201.124C67.4788 201.261 67.4615 201.412 67.4879 201.559C67.5143 201.706 67.5832 201.842 67.686 201.95C67.7231 202.137 67.7771 202.321 67.8475 202.499C67.8528 203.412 67.6863 204.318 67.3569 205.169C67.5154 206.914 67.7043 208.655 67.9237 210.392C67.7696 210.531 67.6538 210.708 67.5871 210.906C67.5204 211.103 67.5052 211.314 67.5428 211.519C67.8962 214.442 67.1132 217.502 67.7987 220.355C67.8448 220.601 67.9593 220.829 68.1292 221.013C68.299 221.196 68.5172 221.328 68.7585 221.393C68.8762 221.515 69.0119 221.618 69.1607 221.698L73.4142 224.117C73.6968 224.288 74.0288 224.357 74.3557 224.313C74.5405 224.552 74.7918 224.73 75.0778 224.826C75.867 225.107 76.6592 225.373 77.4544 225.629C79.4532 226.814 81.7201 227.251 83.8743 228.073C84.0583 228.334 84.3194 228.53 84.6208 228.635C91.13 231.023 97.9219 232.55 104.825 233.179C104.953 233.195 105.083 233.195 105.212 233.179C105.431 233.315 105.686 233.379 105.943 233.364C106.2 233.348 106.446 233.254 106.647 233.094C107.713 232.355 107.866 231.496 108.058 230.547C108.157 230.515 108.245 230.457 108.314 230.379C108.71 229.927 108.995 229.388 109.145 228.806C109.195 228.607 109.166 228.397 109.066 228.219C109.044 228.18 109.018 228.143 108.987 228.109C109.347 227.498 109.734 226.888 110.047 226.258C110.657 225.773 110.901 224.866 110.565 224.246C110.931 223.461 111.303 222.676 111.684 221.897C111.786 221.691 111.843 221.465 111.851 221.234C112.123 221.122 112.355 220.931 112.518 220.685C112.681 220.44 112.767 220.151 112.765 219.857C112.78 219.066 112.083 218.247 111.257 218.314Z" fill="#FC8524"/>
<path d="M117.981 192.57C115.413 192.753 112.765 192.375 110.203 192.201L102.32 191.663C102.13 191.65 101.939 191.672 101.757 191.727C99.6237 191.226 97.5335 190.628 95.4373 190.029C95.2343 189.962 95.0186 189.943 94.8071 189.974C94.5957 190.005 94.3942 190.084 94.2185 190.206C92.171 189.525 90.1478 188.749 88.146 187.974C82.6798 185.836 77.7621 183.279 73.1917 179.574C73.0424 179.453 72.8734 179.358 72.692 179.293C72.6054 179.122 72.4797 178.973 72.3251 178.86C72.1705 178.746 71.9914 178.671 71.8023 178.64C71.7463 178.582 71.6934 178.52 71.6438 178.456C71.5505 178.334 71.4651 178.205 71.3879 178.072C71.3555 178.016 71.3143 177.965 71.266 177.922C71.2494 177.781 71.1934 177.647 71.1043 177.536C71.0153 177.425 70.8969 177.341 70.7626 177.295C70.6284 177.248 70.4838 177.241 70.3454 177.273C70.207 177.305 70.0805 177.375 69.9802 177.476C69.909 177.547 69.8526 177.631 69.8144 177.724C69.7762 177.817 69.7569 177.916 69.7578 178.017C69.7944 178.524 69.8309 179.028 69.8705 179.544C69.8691 179.559 69.8691 179.574 69.8705 179.59C69.8027 179.739 69.7565 179.897 69.7334 180.06C69.4623 182.161 68.5147 184.052 68.3867 186.199C68.3237 187.795 68.4258 189.392 68.6914 190.967C68.5768 191.249 68.5409 191.556 68.5876 191.857C68.6343 192.158 68.7618 192.44 68.9565 192.674C69.0152 192.934 69.1602 193.166 69.3678 193.333C69.5754 193.499 69.8332 193.59 70.0991 193.59C72.5793 195.768 75.4769 197.384 78.2953 199.088C79.9041 200.05 81.5006 201.037 83.1186 201.98C83.5346 202.244 83.9968 202.425 84.4805 202.515C84.5314 202.57 84.5853 202.622 84.642 202.671C86.33 204.097 88.2983 204.775 90.3459 205.398C90.4537 205.477 90.5702 205.544 90.6932 205.597C92.4117 206.311 94.1149 207.124 95.873 207.735C97.1774 208.15 98.5307 208.391 99.898 208.452C100.091 208.659 100.34 208.804 100.614 208.871C104.579 209.919 108.62 210.647 112.701 211.048C112.931 211.077 113.164 211.049 113.381 210.966C113.448 210.997 113.519 211.021 113.591 211.039C113.794 211.13 114.014 211.175 114.237 211.171C115.276 211.171 115.76 210.318 115.705 209.512C117.107 204.854 118.417 200.181 118.835 195.313C119.871 194.5 119.593 192.457 117.981 192.57Z" fill="#FC8524"/>
<path d="M122.44 156.24C122.483 156.129 122.519 156.014 122.546 155.898C122.595 155.69 122.563 155.471 122.455 155.287C122.549 155.058 122.644 154.829 122.723 154.594C122.877 154.195 122.95 153.769 122.936 153.341C122.922 152.913 122.821 152.493 122.641 152.105C122.538 151.93 122.371 151.804 122.176 151.752C121.981 151.701 121.773 151.729 121.599 151.83C121.428 151.935 121.304 152.102 121.253 152.297C121.202 152.492 121.227 152.698 121.324 152.874L121.346 152.92C121.356 152.946 121.365 152.973 121.373 153C121.373 153.027 121.407 153.168 121.413 153.18C121.42 153.297 121.42 153.414 121.413 153.531C121.413 153.531 121.391 153.696 121.385 153.723C121.367 153.815 121.343 153.904 121.318 153.992C121.273 154.148 121.221 154.298 121.163 154.45C120.983 154.915 120.791 155.367 120.66 155.825C120.378 155.923 120.133 156.107 119.959 156.351C119.785 156.595 119.692 156.887 119.691 157.187C119.618 159.386 118.326 161.157 116.967 162.782C115.788 163.393 114.835 164.34 113.68 165.03C112.25 165.876 110.628 166.338 108.969 166.374C108.656 166.374 108.351 166.476 108.101 166.665C107.851 166.854 107.669 167.12 107.583 167.422C103.595 167.303 99.708 166.138 96.3092 164.044C96.1377 163.937 95.9474 163.865 95.7486 163.83L95.5353 163.625C94.4536 162.59 93.1709 161.793 91.9369 160.947C91.7898 160.838 91.622 160.76 91.4439 160.718C91.2657 160.677 91.0809 160.673 90.9009 160.705C90.4033 160.16 89.9374 159.585 89.5054 158.986C89.3796 158.803 89.2155 158.649 89.0245 158.537C88.8334 158.424 88.6201 158.354 88.3994 158.332C88.3902 158.321 88.3821 158.309 88.375 158.296C87.5082 156.882 86.7455 155.407 86.0929 153.882C86.0219 153.705 85.9123 153.546 85.772 153.417C85.6318 153.288 85.4645 153.193 85.2824 153.137C85.0539 151.702 84.8193 150.275 83.9143 149.032C83.8407 148.932 83.757 148.84 83.6645 148.757C83.5944 148.116 83.5243 147.474 83.4634 146.83C83.1739 143.831 82.9942 140.825 82.9058 137.814C82.9018 137.666 82.8762 137.52 82.8296 137.38C83.0398 136.41 83.1803 135.426 83.2501 134.436C83.2591 134.264 83.2342 134.091 83.1766 133.929C83.1191 133.767 83.0302 133.617 82.9149 133.489C83.1197 132.403 83.4195 131.337 83.8107 130.303C83.8548 130.175 83.8548 130.035 83.8107 129.906C83.9801 129.512 84.1146 129.103 84.2129 128.685C84.2621 128.49 84.234 128.283 84.1346 128.108C84.0352 127.934 83.8722 127.804 83.6797 127.747C83.485 127.694 83.2774 127.721 83.1018 127.82C82.9262 127.919 82.7967 128.084 82.7413 128.279C82.5463 129.17 82.1319 129.94 81.7723 130.777C81.4556 131.529 81.1999 132.305 81.0076 133.098C80.7719 133.236 80.5744 133.431 80.4329 133.666C80.2914 133.9 80.2103 134.166 80.1971 134.439C80.1247 135.403 79.9646 136.359 79.7187 137.295C79.6956 137.39 79.6793 137.487 79.67 137.585C79.439 137.706 79.2414 137.882 79.0947 138.098C78.9479 138.313 78.8567 138.562 78.829 138.822C78.6889 139.988 78.506 141.152 78.2958 142.307C77.9774 142.502 77.7461 142.813 77.6499 143.174C76.7561 146.2 75.97 149.254 75.2915 152.337C74.545 153.626 74.3409 155.11 74.1489 156.649C73.854 159.218 73.1964 161.731 72.1959 164.114C72.037 164.429 71.9873 164.789 72.0546 165.135C72.1219 165.482 72.3024 165.796 72.5676 166.029C72.6873 166.273 72.8665 166.483 73.0886 166.64C74.3561 167.556 75.1148 168.778 76.2666 169.795C77.2419 170.617 78.3193 171.309 79.4719 171.853C79.5911 172.155 79.8051 172.409 80.0813 172.577C87.6799 177.375 96.2452 180.424 105.161 181.505C105.358 181.532 105.559 181.518 105.752 181.465C110.336 182.099 114.959 182.417 119.588 182.415C120.645 182.415 121.132 181.523 121.05 180.705C121.192 180.478 121.272 180.218 121.282 179.95L121.748 171.75C121.897 169.108 122.217 166.432 121.864 163.809C122.044 162.779 122.168 161.741 122.299 160.699C122.333 160.45 122.298 160.197 122.199 159.966C122.519 159.074 122.699 158.138 122.732 157.19C122.754 156.848 122.65 156.51 122.44 156.24Z" fill="#FC8524"/>
<path d="M86.5163 83.9459C86.4614 83.8207 86.4005 83.7046 86.3396 83.5855C86.2616 83.2358 86.244 82.8752 86.2878 82.5196C86.3499 81.8853 86.2868 81.2449 86.1019 80.6351C85.8838 80.0878 85.6987 79.5278 85.5474 78.9583C85.5149 78.8076 85.4753 78.658 85.4285 78.5093C85.4797 78.3114 85.4537 78.1014 85.3557 77.9221C85.2578 77.7428 85.0953 77.6076 84.9014 77.5442C84.8472 77.4874 84.7892 77.4343 84.7277 77.3854C84.582 77.2484 84.3897 77.1721 84.19 77.1721C83.9902 77.1721 83.7979 77.2484 83.6522 77.3854C83.5752 77.4663 83.5169 77.5633 83.4816 77.6694H83.0915C82.5797 77.6969 82.0647 77.7152 81.5498 77.7274C80.523 77.7488 79.4931 77.7274 78.4663 77.7C78.2643 77.7 78.0705 77.7804 77.9277 77.9236C77.7848 78.0668 77.7046 78.261 77.7046 78.4635C77.7046 78.666 77.7848 78.8602 77.9277 79.0034C78.0705 79.1466 78.2643 79.2271 78.4663 79.2271H78.9599C79.0625 79.3512 79.196 79.4461 79.3469 79.502C80.6022 79.9815 81.6778 80.913 82.6985 81.7529C83.5751 82.4116 84.3256 83.2239 84.9136 84.1505C84.9788 84.3444 85.0723 84.5276 85.1909 84.6942C85.2413 84.7808 85.3082 84.8566 85.3879 84.9173C85.4675 84.978 85.5583 85.0224 85.6551 85.048C85.7519 85.0735 85.8527 85.0796 85.9518 85.0661C86.051 85.0526 86.1465 85.0196 86.2329 84.9691C86.3194 84.9185 86.395 84.8514 86.4556 84.7716C86.5161 84.6917 86.5604 84.6007 86.5858 84.5037C86.6113 84.4067 86.6175 84.3056 86.604 84.2063C86.5905 84.1069 86.5576 84.0111 86.5071 83.9245L86.5163 83.9459Z" fill="black"/>
<path d="M132.439 225.049C132.424 225.025 132.403 225 132.385 224.976C132.403 224.915 132.415 224.853 132.418 224.789C132.58 221.315 132.367 217.834 131.784 214.405C131.751 214.268 131.678 214.143 131.573 214.048C131.469 213.953 131.339 213.891 131.199 213.871C131.144 212.872 131.102 211.873 131.09 210.874C131.089 210.807 131.08 210.741 131.062 210.676C131.129 210.558 131.161 210.423 131.154 210.288C130.992 204.61 129.459 199.006 129.935 193.306C129.935 193.104 129.855 192.91 129.712 192.766C129.569 192.623 129.375 192.543 129.173 192.543C128.971 192.543 128.777 192.623 128.634 192.766C128.492 192.91 128.411 193.104 128.411 193.306C128.321 194.411 128.295 195.521 128.335 196.629C128.206 196.721 128.118 196.859 128.088 197.014C127.701 199.332 126.446 201.479 126.598 203.883C126.242 205.045 125.946 206.224 125.712 207.417C125.395 208.753 124.999 210.069 124.523 211.357C124.033 212.653 123.61 213.973 123.256 215.312C122.971 216.605 122.813 217.922 122.784 219.246C122.785 219.262 122.785 219.279 122.784 219.295C122.663 219.331 122.554 219.397 122.466 219.488C122.379 219.579 122.317 219.692 122.287 219.814C121.925 221.537 121.528 223.251 121.096 224.957C121.034 225.009 120.98 225.069 120.937 225.138C119.923 226.757 119.078 228.478 118.417 230.272C118.365 230.435 118.377 230.612 118.451 230.767L118.366 230.782C118.171 230.836 118.006 230.965 117.907 231.141C117.807 231.316 117.78 231.524 117.832 231.72C117.891 231.912 118.02 232.075 118.195 232.175C118.37 232.274 118.576 232.303 118.771 232.254C122.698 231.643 126.766 230.589 129.816 227.935C129.977 227.916 130.128 227.843 130.243 227.728C130.319 227.644 130.379 227.546 130.419 227.441L132.159 226.106C132.326 225.999 132.45 225.837 132.509 225.648C132.538 225.548 132.547 225.444 132.535 225.341C132.522 225.239 132.49 225.139 132.439 225.049Z" fill="#FC8524"/>
<path d="M146.401 325.048C146.535 320.311 146.556 315.58 146.282 310.834C146.176 309.15 145.681 307.514 144.837 306.054C144.928 304.303 144.55 302.56 143.744 301.005C143.655 300.715 143.576 300.422 143.509 300.129C143.485 299.477 143.503 298.824 143.561 298.174C143.619 296.891 143.355 295.614 142.793 294.46C142.712 293.534 142.507 292.622 142.184 291.751C142.127 291.282 142.033 290.818 141.903 290.364C141.815 290.059 141.742 289.753 141.678 289.469C141.495 287.38 141.419 285.288 141.05 283.205C140.767 281.592 140.234 280.047 139.895 278.45C139.777 276.974 139.743 275.493 139.722 274.009C139.696 272.691 139.399 271.393 138.847 270.197C138.847 269.711 138.847 269.226 138.847 268.737C138.846 267.41 138.552 266.099 137.988 264.898C137.988 264.849 137.988 264.803 137.988 264.754C137.967 263.594 137.731 262.448 137.293 261.373C137.293 261.175 137.293 260.973 137.293 260.762C137.25 259.814 137.098 258.875 136.839 257.962C136.839 257.864 136.839 257.769 136.839 257.656C136.79 256.613 136.585 255.584 136.23 254.602C136.306 254.049 136.334 253.49 136.312 252.931C136.26 251.825 136.06 250.731 135.718 249.679C135.772 249.247 135.789 248.812 135.77 248.377C135.714 247.043 135.404 245.731 134.856 244.514C134.801 243.571 134.641 242.638 134.377 241.731C134.389 241.683 134.397 241.634 134.402 241.585C134.545 239.563 133.832 237.59 133.558 235.602C133.259 233.314 133.211 231 133.415 228.702C133.433 228.561 133.418 228.418 133.37 228.284C133.323 228.15 133.244 228.03 133.14 227.932C133.194 227.706 133.175 227.469 133.086 227.254C132.998 227.039 132.844 226.858 132.647 226.735C132.402 226.596 132.112 226.559 131.84 226.63C131.568 226.701 131.334 226.876 131.187 227.117C130.726 227.804 130.061 228.33 129.286 228.62C129.091 228.616 128.897 228.66 128.722 228.748C128.354 228.934 128.008 229.163 127.692 229.429C127.637 229.474 127.59 229.527 127.552 229.588C123.601 230.869 119.56 231.851 115.462 232.526C115.111 232.584 114.776 232.714 114.478 232.908C110.035 233.181 105.579 233.157 101.139 232.837C100.899 232.82 100.658 232.836 100.422 232.883C100.162 232.814 99.8959 232.771 99.6272 232.755C94.8314 232.492 90.261 230.727 85.648 229.533L85.4255 229.487L84.8832 229.279C84.5965 229.172 84.2933 229.116 83.9874 229.114C81.7898 228.224 79.6416 227.216 77.5523 226.094C76.9258 225.743 76.2061 225.596 75.4926 225.672L75.2427 225.303C74.8708 224.719 74.3439 224.251 73.7211 223.951C73.0984 223.651 72.4045 223.531 71.7174 223.604C71.5896 223.346 71.3912 223.129 71.1453 222.978C70.8994 222.828 70.616 222.751 70.328 222.755C70.295 222.513 70.1732 222.291 69.9864 222.133C69.7995 221.975 69.5608 221.892 69.3165 221.9C68.1708 221.9 67.9849 223.391 68.7558 223.882C68.6631 224.169 68.6424 224.475 68.6955 224.771C68.7487 225.068 68.874 225.347 69.0605 225.584C68.7984 226.092 68.6716 226.66 68.6924 227.232C68.7133 227.804 68.881 228.361 69.1793 228.849L70.2854 230.504C70.1954 231.032 70.1954 231.571 70.2854 232.098C70.6366 234.34 71.4783 236.476 72.7503 238.353C73.0836 238.828 73.4416 239.285 73.8229 239.722C73.8978 240.002 73.9998 240.274 74.1275 240.534L78.2866 249.33C78.3079 249.401 78.3262 249.474 78.3536 249.547C79.7402 253.162 81.3197 256.698 83.0855 260.142C83.1085 260.58 83.2194 261.008 83.4115 261.401C83.3646 261.863 83.4081 262.33 83.5395 262.775C84.2261 265.206 84.8781 267.65 85.4956 270.105C85.1672 270.869 85.08 271.716 85.2458 272.53C86.1172 276.992 86.8799 281.471 87.534 285.969C87.1413 287.48 87.2017 289.074 87.7077 290.551C87.8748 291.046 88.0142 291.551 88.1251 292.062C88.3536 295.083 88.2439 298.171 88.2836 301.176C88.3079 302.905 88.3313 304.636 88.3536 306.368C88.375 307.896 88.314 309.539 88.7193 311.023C88.7528 311.145 88.7924 311.264 88.832 311.387C88.832 311.567 88.832 311.75 88.832 311.933C88.8663 312.681 88.9797 313.424 89.1702 314.148C89.048 315.239 89.0583 316.342 89.2007 317.431C88.9025 318.361 88.7503 319.331 88.7497 320.308V320.387C88.7323 320.899 88.766 321.41 88.8503 321.915C88.8243 322.244 88.8182 322.574 88.832 322.904C88.862 323.579 88.9579 324.249 89.1184 324.905C88.6832 325.913 88.5062 327.014 88.6035 328.109C88.7017 328.968 88.7211 329.835 88.6614 330.699C88.1251 333.661 87.3786 336.547 87.0282 339.556C86.7514 340.133 86.5467 340.743 86.4188 341.37C86.3609 341.642 86.2909 341.905 86.2086 342.164C85.6207 343.335 85.1345 344.554 84.7552 345.808C84.3713 347.225 84.3043 348.694 84.2433 350.157C83.6075 351.407 83.2077 352.763 83.0642 354.158C82.8296 354.769 82.5919 355.407 82.3695 356.024C82.1696 356.608 82.0536 357.216 82.0252 357.833L81.9642 357.997C81.6809 358.538 81.3731 359.069 81.0502 359.595C80.0837 361.188 79.6464 363.048 79.8009 364.906C79.5627 365.704 79.3945 366.522 79.2982 367.35C77.6663 369.371 76.7206 371.862 76.5986 374.46C76.5346 375.449 76.4737 376.436 76.4127 377.426C75.797 378.135 75.4706 379.051 75.4987 379.991C75.3064 380.289 75.1759 380.622 75.1148 380.971C75.0782 381.201 75.0386 381.427 75.002 381.656L74.9502 381.741C74.3905 382.672 73.927 383.657 73.5669 384.682C73.4101 385.122 73.358 385.593 73.4146 386.057C73.3313 386.223 73.259 386.394 73.1982 386.57C70.7607 393.914 68.6106 401.346 66.7479 408.866C66.7296 408.936 66.7205 409.006 66.7083 409.077C66.0452 409.551 65.5568 410.232 65.3189 411.013C65.1526 411.583 65.1421 412.188 65.2884 412.763C64.7918 413.759 65.2671 415.271 66.7174 415.271C66.9376 415.272 67.1559 415.231 67.3603 415.149C67.4923 415.216 67.6275 415.278 67.7656 415.332C73.5167 417.609 79.4868 419.285 85.5809 420.335C85.9611 420.4 86.3481 420.418 86.7327 420.387C87.2545 420.745 87.8561 420.969 88.4846 421.04C88.636 421.201 88.8196 421.328 89.0234 421.412C89.2272 421.496 89.4465 421.536 89.6669 421.529C90.7881 421.529 91.3244 420.613 91.2817 419.748C91.3829 419.606 91.4745 419.457 91.5559 419.302C93.25 416.055 94.8547 412.765 96.3701 409.434C97.8783 406.114 99.2586 402.739 101.078 399.575C101.361 399.097 101.528 398.56 101.565 398.005C101.644 397.816 101.727 397.623 101.809 397.434C102.538 396.066 103.287 394.71 104.054 393.366C104.252 393.028 104.395 392.661 104.478 392.278C104.624 392.06 104.773 391.847 104.926 391.637C105.206 391.24 105.374 390.775 105.413 390.29C106.261 389.085 106.982 387.796 107.564 386.442C107.772 386.38 107.976 386.306 108.174 386.219C108.197 386.406 108.241 386.591 108.305 386.768C108.454 387.184 108.594 387.59 108.728 387.99C108.468 388.654 108.446 389.388 108.664 390.067C108.701 390.177 108.731 390.287 108.768 390.397C108.789 391.252 108.85 392.104 108.936 392.953C108.862 394.378 108.875 395.806 108.975 397.229C108.997 397.497 109.043 397.763 109.112 398.023C109.112 398.57 109.112 399.12 109.146 399.673C108.985 399.818 108.858 399.998 108.775 400.199C108.693 400.399 108.656 400.616 108.667 400.833C108.681 401.599 108.85 402.353 109.164 403.051C109.104 403.724 109.118 404.402 109.207 405.073C108.533 406.145 108.558 407.516 109.109 408.768C109.222 409.016 109.316 409.269 109.414 409.52C109.414 409.541 109.414 409.562 109.414 409.581C109.385 409.925 109.423 410.271 109.524 410.601C109.372 411.212 109.351 411.849 109.46 412.47C109.572 413.139 109.658 413.826 109.725 414.529C109.675 414.767 109.651 415.009 109.652 415.252C109.653 415.403 109.665 415.553 109.688 415.701C109.594 416.126 109.49 416.55 109.356 416.966C109.14 417.668 109.174 418.424 109.454 419.104C109.423 419.598 109.483 420.094 109.63 420.567C109.198 421.562 109.685 423.01 111.096 423.01C111.375 423.014 111.65 422.948 111.897 422.818C112.201 422.899 112.513 422.943 112.827 422.949C120.651 423.083 128.471 422.982 136.288 422.644C136.442 422.637 136.596 422.62 136.748 422.592C137.05 422.869 137.448 423.017 137.857 423.004C139.185 423.004 139.685 421.727 139.38 420.747C139.626 420.293 139.763 419.79 139.783 419.274C139.802 418.759 139.703 418.246 139.493 417.775C139.767 416.228 139.952 414.667 140.048 413.099C140.181 412.879 140.296 412.648 140.392 412.409C140.839 411.264 140.859 409.996 140.447 408.838C140.499 408.487 140.547 408.139 140.596 407.791C140.737 406.881 140.816 405.963 140.834 405.042C140.855 404.953 140.88 404.865 140.898 404.779C141.216 403.422 141.25 402.012 140.995 400.641C141.544 398.197 142.11 395.724 141.931 393.21C142.325 392.162 142.562 391.062 142.635 389.945C143.244 381.23 144.018 372.532 144.956 363.849C145.027 362.964 144.913 362.074 144.621 361.235C145.072 358.953 145.45 356.654 145.718 354.326C146.12 350.869 145.764 347.384 146.169 343.942C146.227 343.342 146.189 342.737 146.056 342.149C146.274 340.865 146.182 339.548 145.788 338.307L145.73 338.133C145.797 337.797 145.867 337.458 145.95 337.122C146.281 335.755 146.335 334.335 146.108 332.947C146.132 332.641 146.154 332.314 146.169 331.997C146.266 329.675 146.334 327.36 146.401 325.048Z" fill="black"/>
<path d="M169.139 442.004H168.487C168.424 441.751 168.265 441.531 168.043 441.394C166.76 440.636 165.432 439.96 164.066 439.369C163.757 438.859 163.278 438.475 162.714 438.284C162.439 438.049 162.165 437.82 161.888 437.619C159.99 436.235 157.759 435.404 155.794 434.106C152.004 431.593 148.874 428.251 144.545 426.617C144.457 426.586 144.366 426.566 144.274 426.556C142.608 425.334 140.94 424.113 139.27 422.891C139.17 422.809 139.052 422.751 138.927 422.72C138.801 422.689 138.67 422.686 138.543 422.711C138.416 422.737 138.296 422.79 138.191 422.867C138.087 422.944 138.001 423.043 137.939 423.157C129.381 422.933 120.82 422.838 112.256 422.873C112.126 422.872 111.997 422.896 111.876 422.943C111.352 422.137 109.834 422.302 109.919 423.468V423.517C109.733 423.704 109.625 423.955 109.615 424.22C109.484 426.529 109.228 428.835 108.951 431.14C108.632 432.381 108.261 433.602 107.838 434.806C107.791 434.607 107.685 434.427 107.534 434.289C107.668 434.188 107.778 434.057 107.855 433.907C107.932 433.757 107.975 433.592 107.981 433.424C107.986 433.255 107.954 433.087 107.887 432.933C107.82 432.778 107.719 432.641 107.592 432.53C107.605 432.346 107.561 432.162 107.465 432.004C107.37 431.846 107.228 431.721 107.058 431.648C102.342 429.231 97.7399 426.611 93.2528 423.789C93.1509 423.726 93.0399 423.68 92.9237 423.651C92.2138 423.046 91.3826 422.6 90.4862 422.344C90.4094 422.324 90.3308 422.311 90.2516 422.305C90.1334 422.204 89.9952 422.13 89.8464 422.088L84.3467 420.417C84.1482 420.355 83.9357 420.355 83.7373 420.417C83.46 419.965 82.9938 419.721 82.354 419.501C80.7056 418.933 79.0024 418.496 77.3235 418.013C74.0572 417.077 70.7777 416.186 67.485 415.341H67.4454C67.3524 415.21 67.2286 415.105 67.085 415.034C66.9415 414.963 66.7826 414.929 66.6227 414.935C66.4441 414.934 66.2681 414.978 66.1108 415.063C65.9728 414.939 65.8066 414.85 65.6267 414.805C65.4468 414.76 65.2586 414.759 65.0785 414.804C64.8983 414.848 64.7317 414.935 64.593 415.059C64.4543 415.182 64.3478 415.338 64.2827 415.512C63.0639 418.93 61.8451 422.36 60.1571 425.591C59.4868 426.883 58.786 428.111 58.4082 429.528C57.9481 431.25 57.4941 432.826 56.5618 434.375V434.396C56.3205 434.473 56.1191 434.642 56.0011 434.867C55.1084 435.282 55.2577 436.91 56.4582 436.91C56.624 436.916 56.7884 436.878 56.9357 436.802C57.083 436.725 57.2082 436.612 57.2991 436.473L80.151 436.207C89.0481 436.458 97.9471 436.458 106.848 436.207C107.019 436.208 107.186 436.165 107.336 436.083C107.485 436.001 107.611 435.882 107.701 435.737C107.753 435.912 107.86 436.065 108.006 436.174C108.006 436.223 107.985 436.272 107.976 436.324C107.671 437.985 107.366 439.647 107.061 441.308C107.014 441.544 107.047 441.789 107.153 442.004C106.543 442.615 106.772 443.898 107.848 443.837L116.153 443.443C116.264 443.482 116.381 443.502 116.498 443.504C132.214 443.744 147.93 443.861 163.646 443.855C163.808 443.953 163.993 444.007 164.182 444.011L169.155 444.145C170.514 444.182 170.514 442.041 169.139 442.004Z" fill="#FC8524"/>
<path d="M130.721 146.011C129.679 145.4 127.979 145.581 127.199 146.607C126.802 146.374 126.348 146.259 125.888 146.274H125.773C125.35 146.172 124.911 146.164 124.486 146.251C124.06 146.338 123.659 146.518 123.311 146.778C122.907 147.094 122.599 147.517 122.421 147.999C122.486 147.405 122.527 146.807 122.543 146.207C122.592 144.423 120.748 143.076 119.069 143.556C117.576 143.98 116.431 144.866 115.276 145.871C114.59 146.463 114.03 147.12 113.113 146.643C111.997 146.063 111.525 144.609 111.16 143.494C109.504 138.361 108.693 132.992 108.759 127.597C108.798 124.219 108.92 120.505 110.514 117.454C112.147 114.32 107.415 111.538 105.776 114.678C105.414 115.376 105.099 116.099 104.834 116.84C104.428 116.642 103.982 116.54 103.53 116.543C103.078 116.546 102.633 116.653 102.229 116.855C101.706 116.677 101.14 116.667 100.611 116.828C97.4393 117.72 94.3345 118.938 92.5459 121.892C91.9365 122.887 91.3881 123.889 90.8305 124.885C90.1785 122.206 85.5837 122.49 85.4192 125.716L85.3887 126.342C85.0643 126.581 84.8043 126.897 84.6325 127.261C84.4606 127.626 84.3823 128.028 84.4045 128.431C84.4692 129.168 84.6216 129.895 84.8585 130.596C84.3319 130.957 83.9582 131.502 83.8104 132.124C83.1614 134.509 83.1309 137.035 82.9694 139.487C82.9482 139.881 83.0279 140.273 83.201 140.627C83.1094 141.068 83.1032 141.523 83.1827 141.967C83.268 142.468 83.3808 142.96 83.4874 143.446C83.2563 144.017 83.2476 144.655 83.463 145.232L83.5697 145.538C83.5697 145.675 83.588 145.819 83.6062 145.962C83.7863 147.24 84.0789 148.499 84.4807 149.725C84.5662 149.979 84.6851 150.22 84.8342 150.443C84.8168 150.983 84.9296 151.52 85.1632 152.007C85.3338 152.37 85.5289 152.731 85.736 153.091C86.6989 157.672 91.8299 161.154 95.5289 163.384C95.8862 163.603 96.2882 163.739 96.705 163.781C97.1047 164.116 97.5695 164.365 98.07 164.511C98.6053 165.092 99.3448 165.442 100.133 165.488L100.422 165.513C100.694 165.729 101.012 165.879 101.352 165.952C101.975 166.083 102.601 166.184 103.228 166.258C103.684 166.572 104.227 166.735 104.779 166.722C104.974 166.723 105.168 166.705 105.358 166.667C105.922 166.876 106.532 166.926 107.122 166.814C108.813 166.508 110.425 166.175 111.903 165.467C112.041 165.447 112.177 165.419 112.311 165.384C112.978 165.209 113.576 164.838 114.03 164.318C114.433 164.308 114.825 164.181 115.157 163.952C116.077 163.337 116.824 162.496 117.327 161.508C117.418 161.31 117.495 161.106 117.558 160.898C118.106 160.428 118.47 159.778 118.585 159.065C118.825 158.687 118.98 158.262 119.042 157.819C120.707 155.213 121.808 152.286 122.275 149.227C122.285 149.379 122.305 149.53 122.336 149.679C122.443 150.165 122.598 150.639 122.799 151.093C122.779 151.235 122.766 151.378 122.762 151.521C122.625 161.887 121.909 172.18 120.934 182.482C106.7 183.394 92.5098 180.12 80.1053 173.063C79.8311 172.901 79.5312 172.787 79.2187 172.727C77.844 171.589 76.55 170.358 75.346 169.04C74.9324 168.558 74.3501 168.253 73.719 168.188L73.7708 167.883C73.8479 167.571 73.8028 167.241 73.6446 166.961C73.4865 166.682 73.2274 166.474 72.9207 166.38C72.3357 166.218 71.5343 166.578 71.4216 167.232L71.0133 169.621C70.9992 169.702 70.991 169.785 70.9889 169.868C70.7698 170.292 70.6706 170.768 70.7023 171.245C70.734 171.721 70.8953 172.18 71.1687 172.571C71.1123 172.798 71.0676 173.027 71.0346 173.258C70.9889 173.35 70.9432 173.444 70.9036 173.542L70.346 175.008C69.9134 176.126 70.6507 177.543 71.6075 178.111C72.4444 178.604 73.2894 179.083 74.1425 179.547C74.2563 179.718 74.3869 179.878 74.5325 180.023C76.2222 181.674 78.204 182.995 80.3765 183.917C80.6965 184.196 81.0599 184.42 81.4521 184.58L87.9298 187.305C88.1713 187.718 88.5297 188.051 88.9597 188.261C89.8702 188.742 90.8466 189.086 91.8573 189.281C92.3585 189.368 92.8727 189.342 93.3625 189.204C94.7257 189.597 96.0629 190.076 97.3661 190.637C97.7981 190.851 98.2736 190.963 98.7555 190.963C99.2375 190.963 99.713 190.851 100.145 190.637C103.186 191.376 106.275 191.904 109.389 192.216C112.86 192.548 116.358 192.467 119.81 191.975H119.855C119.855 192.045 119.831 192.118 119.822 192.194C119.688 193.26 119.575 194.332 119.472 195.398C119.047 195.892 118.812 196.521 118.81 197.173C118.815 197.377 118.834 197.582 118.865 197.784C117.628 200.581 116.93 203.526 116.266 206.519C115.894 208.196 115.395 209.839 114.901 211.485C113.189 211.351 111.47 211.232 109.755 211.085C109.304 210.8 108.79 210.632 108.259 210.596L103.606 210.254C102.591 209.7 101.456 209.405 100.3 209.396C100.018 209.168 99.6958 208.996 99.3497 208.889C97.1986 208.203 95.0312 207.574 92.8476 207.001C87.4972 204.641 82.2991 201.736 77.1772 198.999C76.9165 198.857 76.6362 198.754 76.3454 198.694C75.4801 197.939 74.6331 197.167 73.8165 196.327C73.5759 196.066 73.283 195.858 72.9569 195.718C72.6309 195.578 72.279 195.509 71.9243 195.514C71.8241 195.308 71.6636 195.138 71.4643 195.026C71.3607 194.965 71.254 194.904 71.1596 194.833L71.0529 194.76C70.8684 194.6 70.6953 194.428 70.5349 194.244C70.4497 194.15 70.3459 194.075 70.2303 194.024C70.2303 193.987 70.2303 193.951 70.2303 193.917C70.2303 192.344 67.7927 192.341 67.7927 193.917C67.7933 194.895 67.7312 195.873 67.6069 196.843C67.54 197.228 67.6276 197.625 67.8506 197.946C67.7388 198.384 67.7478 198.845 67.8766 199.279C68.0053 199.713 68.2491 200.104 68.5819 200.41C70.5679 202.068 72.7109 203.527 74.9804 204.766C75.0795 204.819 75.1812 204.867 75.2851 204.909C77.8076 206.832 80.486 208.54 83.2924 210.016C83.6577 210.386 84.1281 210.633 84.6392 210.725H84.691C93.527 215.12 103.436 217.444 113.299 218.666C113.095 219.061 112.971 219.493 112.933 219.936C112.799 221.424 111.964 222.905 111.525 224.322C111.394 224.744 111.275 225.171 111.163 225.599C110.913 225.6 110.671 225.685 110.475 225.84C110.279 225.995 110.141 226.211 110.081 226.454C109.545 228.305 108.703 230.052 107.592 231.625C106.757 232.81 108.484 233.94 109.462 233.112C109.636 233.188 109.825 233.221 110.014 233.207L114.228 232.963C114.4 232.956 114.57 232.913 114.724 232.835C114.878 232.757 115.013 232.646 115.121 232.511C115.254 232.534 115.39 232.546 115.526 232.547H115.635C116.002 232.564 116.367 232.483 116.693 232.312C117.024 232.188 117.325 231.994 117.574 231.743C117.824 231.492 118.017 231.19 118.14 230.858C118.161 230.818 118.177 230.779 118.195 230.736C118.712 230.347 119.105 229.817 119.328 229.209C120.456 226.298 121.595 223.363 122.119 220.272C122.253 219.484 122.333 218.693 122.4 217.899C122.714 217.65 122.968 217.332 123.142 216.969C123.316 216.606 123.405 216.209 123.402 215.807C123.402 215.685 123.478 214.952 123.426 215.162C123.46 214.988 123.5 214.814 123.551 214.64C123.585 214.527 123.884 213.916 123.618 214.402C123.774 214.118 123.923 213.843 124.1 213.571C124.296 213.25 124.421 212.89 124.464 212.516C124.507 212.142 124.468 211.763 124.35 211.406C124.908 209.536 125.373 207.639 125.742 205.722C125.787 205.493 125.805 205.261 125.797 205.028C125.848 204.898 125.885 204.763 125.907 204.625C125.991 203.995 126.121 203.373 126.297 202.762C126.37 202.499 126.464 202.243 126.547 201.983C126.626 201.78 126.656 201.697 126.638 201.736C126.69 201.62 126.742 201.504 126.796 201.388C127.139 200.675 127.213 199.863 127.004 199.1C127.579 197.988 127.811 196.608 127.918 195.487C127.948 195.16 127.963 194.836 127.976 194.516C128.533 193.948 129.008 193.404 129.167 192.451C129.253 191.603 129.164 190.746 128.905 189.934C129.019 189.425 129.088 188.907 129.112 188.386C129.138 187.927 129.045 187.469 128.841 187.057C128.996 184.449 128.743 181.865 128.646 179.238C128.539 176.263 129.118 173.35 129.066 170.381C129.064 169.933 128.954 169.493 128.743 169.098C128.928 168.294 129.141 167.495 129.383 166.701C129.526 166.299 129.56 165.866 129.482 165.447C129.405 165.028 129.218 164.636 128.941 164.312C129.047 162.315 129.184 160.317 129.353 158.32C129.644 157.998 129.871 157.623 130.02 157.214C130.885 154.829 130.706 152.107 131.723 149.786C132.299 148.415 132.101 146.821 130.721 146.011Z" fill="white"/>
<path d="M107.488 438.352L107.424 438.202C107.659 437.487 107.293 436.547 106.318 436.547C106.091 436.542 105.868 436.603 105.675 436.724C88.9519 437.08 72.2263 437.136 55.4987 436.892C54.3774 436.892 54.0605 438.113 54.5419 438.837C53.7863 439.491 54.0301 441.045 55.2884 440.994C72.0384 440.326 88.7965 440.144 105.563 440.45C105.639 440.456 105.715 440.456 105.791 440.45C105.926 440.498 106.068 440.522 106.212 440.523C106.373 440.527 106.533 440.496 106.682 440.434C106.831 440.371 106.966 440.278 107.076 440.16C107.187 440.043 107.272 439.903 107.326 439.75C107.38 439.598 107.401 439.435 107.388 439.274L107.427 439.17C107.452 439.122 107.473 439.072 107.491 439.02C107.491 439.02 107.534 438.715 107.534 438.694C107.534 438.672 107.491 438.361 107.488 438.352Z" fill="black"/>
<path d="M174.986 445.615C174.792 445.487 174.564 445.421 174.331 445.425C174.298 445.424 174.264 445.424 174.231 445.425C173.601 444.957 172.938 444.535 172.247 444.164C172.044 444.054 171.815 444.001 171.584 444.011C171.353 444.022 171.13 444.094 170.937 444.222H157.095C156.987 444.114 156.858 444.03 156.717 443.975C156.575 443.919 156.424 443.893 156.272 443.898H107.29C106.12 443.898 105.824 445.254 106.4 445.948C106.168 446.662 106.534 447.594 107.506 447.585C128.808 447.361 150.109 447.442 171.409 447.829C171.636 447.842 171.861 447.784 172.053 447.662C172.245 447.541 172.394 447.362 172.479 447.151C172.658 447.273 172.838 447.398 173.012 447.533C173.299 447.77 173.667 447.888 174.039 447.863C174.199 447.933 174.372 447.969 174.548 447.966C175.949 447.988 176.095 446.036 174.986 445.615Z" fill="black"/>
<path d="M109.795 423.233L170.837 443.968L139.615 423.288L109.795 423.233Z" fill="#AB6930"/>
<path d="M64.6304 415.014L107.531 436.675L107.863 432.124L89.4262 421.162L64.6304 415.014Z" fill="#AB6930"/>
<path d="M76.4401 78.6103L76.2847 77.7124C103.935 70.7548 110.77 64.4447 112.385 61.3172C113.088 59.9458 112.805 59.1792 112.793 59.1456L112.595 58.6447L113.116 58.5225C115.943 57.9117 117.936 58.1682 119.033 59.3044C120.31 60.6239 119.84 62.5755 119.819 62.6641L119.792 62.7466C117.443 67.8013 109.414 72.0101 95.9251 75.269C89.5024 76.7715 82.9958 77.8873 76.4401 78.6103ZM113.759 59.3258C113.81 60.1239 113.634 60.9202 113.253 61.6226C111.464 65.2877 104.722 70.7212 83.4967 76.735C94.5723 74.9972 115.014 70.712 118.942 62.3984C118.99 62.1571 119.216 60.8041 118.372 59.9367C117.574 59.1151 115.983 58.9074 113.759 59.3258Z" fill="black"/>
<path d="M178.99 448H105.553L109.03 422.769L109.935 422.894L106.601 447.084H175.894L139.079 423.215L139.575 422.445L178.99 448Z" fill="black"/>
<path d="M172.184 443.507H106.571V444.423H172.184V443.507Z" fill="black"/>
<path d="M85.9066 87.6783L85.5379 86.3314C84.4715 82.4464 76.2966 78.6102 76.2143 78.5705L76.065 78.5003L75.995 78.3537C74.8343 75.8095 73.8508 73.1878 73.0516 70.5073C71.324 64.6676 71.0833 60.1901 72.3356 57.2C72.6776 56.3335 73.2053 55.5529 73.8813 54.9132C74.5573 54.2736 75.3652 53.7906 76.2479 53.4982C80.5562 52.0108 85.3612 54.668 90.5257 61.3934C92.9722 64.6506 95.1141 68.1268 96.9243 71.7779L96.0986 72.1719C95.998 71.9611 85.9432 51.1189 76.5465 54.3595C75.7826 54.6068 75.0833 55.0216 74.4994 55.5737C73.9154 56.1258 73.4615 56.8013 73.1705 57.5512C70.5227 63.8735 76.0589 76.3165 76.7445 77.81C77.814 78.3231 83.8195 81.3194 85.867 84.8348C86.2174 83.0847 86.4276 79.8075 83.9413 77.4221L84.572 76.7594C88.5513 80.5772 86.4855 86.142 86.4002 86.3772L85.9066 87.6783Z" fill="black"/>
<path d="M94.5813 59.1821L94.3833 58.9622C94.365 58.9409 92.5826 56.9556 90.4223 54.9154C86.8665 51.5557 85.0567 50.6394 84.167 50.4775C83.3588 50.3596 82.5339 50.4652 81.7812 50.783C79.2279 51.742 76.7447 54.219 76.7203 54.2434L76.0713 53.599C76.1779 53.4921 78.6642 51.009 81.3729 49.9583C83.9506 47.5149 86.6898 46.4979 89.5113 46.9407C96.0134 47.9547 100.608 56.2745 100.8 56.6288L101.068 57.1175L94.5813 59.1821ZM83.5759 49.5063C83.8326 49.5054 84.0887 49.53 84.3406 49.5796C87.5064 50.1904 93.6581 56.8059 94.8647 58.1315L99.7154 56.6044C98.6338 54.8207 94.5631 48.6633 89.3559 47.8662C87.3022 47.5607 85.2791 48.1044 83.3291 49.5246L83.5759 49.5063Z" fill="black"/>
<path d="M112.814 59.1913C109.066 52.3834 104.715 48.3029 99.8797 47.0629C96.92 46.2845 93.7756 46.6656 91.0863 48.1288L90.5957 47.3561C93.4944 45.7391 96.907 45.3163 100.111 46.1772C105.203 47.4813 109.746 51.7115 113.618 58.7484L112.814 59.1913Z" fill="black"/>
<path d="M80.9371 89.9108C79.9173 89.9373 78.9206 89.6032 78.1218 88.967C74.7245 86.2182 75.8914 78.4146 75.9432 78.0847L76.8573 78.2252C76.8573 78.3016 75.7147 85.8333 78.7068 88.2553C79.8494 89.1716 81.5069 89.2358 83.6367 88.4172L83.9627 89.2724C83.0018 89.6694 81.9762 89.8858 80.9371 89.9108Z" fill="black"/>
<path d="M161.922 8.30442C161.949 8.27693 161.976 8.26166 162.004 8.23723C159.582 8.22839 157.171 8.57096 154.847 9.25429L155.118 10.1278C157.036 9.57721 159.011 9.25329 161.005 9.16266C161.318 8.89694 161.611 8.60068 161.922 8.30442Z" fill="black"/>
<path d="M164.822 5.62273C164.985 5.37042 165.218 5.17175 165.492 5.05159C163.631 4.66454 161.724 4.5432 159.828 4.69119L159.883 5.60746C161.419 5.49331 162.964 5.55171 164.487 5.78156C164.589 5.71082 164.702 5.65719 164.822 5.62273Z" fill="black"/>
<path d="M160.251 9.70929C160.482 9.57394 160.7 9.4186 160.904 9.24504L159.913 8.43872L159.337 9.16258C159.337 9.16258 159.66 9.42219 160.12 9.80092C160.175 9.77343 160.215 9.73373 160.251 9.70929Z" fill="#231F20"/>
<path d="M157.698 12.0613C157.794 11.8688 157.92 11.6926 158.07 11.539C157.146 10.9486 156.079 10.6223 154.983 10.5952L154.435 11.5329C154.453 11.5329 156.4 11.5329 157.589 12.3545C157.616 12.2535 157.653 12.1554 157.698 12.0613Z" fill="black"/>
<path d="M120.974 182.406C120.964 182.186 120.983 181.967 121.029 181.752C105.49 183.071 93.8381 179.376 86.4584 175.717C77.1409 171.099 72.3938 165.54 72.3481 165.497L71.6504 166.09C71.8454 166.322 76.5255 171.814 86.0075 176.517C92.4487 179.715 102.074 182.931 114.649 182.931C116.68 182.931 118.795 182.84 120.995 182.659C120.995 182.586 120.986 182.494 120.974 182.406Z" fill="black"/>
<path d="M119.591 191.694C104.597 192.763 93.0094 189.421 85.4835 186.083C75.6907 181.728 70.4682 176.471 70.4164 176.419L69.7583 177.061C69.8101 177.113 75.13 182.488 85.066 186.902C91.7144 189.858 101.483 192.818 113.936 192.818C115.674 192.818 117.466 192.757 119.31 192.634C119.362 192.31 119.456 191.994 119.591 191.694Z" fill="black"/>
<path d="M115.73 210.972C114.962 210.95 114.17 210.912 113.353 210.859C103.271 210.151 87.3022 206.305 68.4631 192.008L67.9116 192.738C86.9305 207.173 103.085 211.064 113.289 211.772C113.981 211.821 114.654 211.855 115.31 211.879C115.409 211.559 115.55 211.254 115.73 210.972Z" fill="black"/>
<path d="M113.542 218.104L112.686 218.079C102.147 217.719 85.7908 214.216 67.7408 199.573L67.168 200.285C85.4495 215.104 102.016 218.641 112.707 218.995L113.256 219.011C113.311 218.697 113.407 218.392 113.542 218.104Z" fill="black"/>
<path d="M90.4224 422.402L64.0635 414.852L64.2006 414.406C64.359 413.893 80.0842 362.686 86.3334 339.067C92.5613 315.55 83.6156 264.031 83.5242 263.511L84.4382 263.353C84.5297 263.872 93.5089 315.58 87.2292 339.302C81.2877 361.757 66.7905 409.116 65.2244 414.229L89.9562 421.312L107.884 385.312L108.704 385.721L90.4224 422.402Z" fill="black"/>
<path d="M106.355 167.538C101.035 167.538 95.1238 164.764 89.5449 159.539C84.3377 154.652 81.9093 146.808 82.5369 136.845C82.8417 132.207 83.6853 127.62 85.0506 123.178L85.919 123.468C85.8367 123.706 78.0519 147.499 90.1847 158.867C97.0129 165.281 104.606 167.922 110.499 165.974C116.288 164.056 120.294 157.956 122.056 148.333L122.954 148.497C120.648 161.096 115.063 165.43 110.785 166.844C109.355 167.311 107.859 167.545 106.355 167.538Z" fill="black"/>
<path d="M108.713 233.812C103.162 233.812 97.1775 232.966 90.8704 231.283C82.8842 229.121 75.19 225.992 67.9575 221.967L68.4207 221.179C75.5889 225.164 83.2133 228.261 91.1263 230.403C98.6096 232.398 105.627 233.201 111.979 232.792C119.901 232.285 126.791 229.884 132.488 225.657L133.031 226.393C127.19 230.73 120.121 233.189 112.025 233.723C110.94 233.778 109.834 233.812 108.713 233.812Z" fill="black"/>
<path d="M107.503 233.555L106.684 233.152C111.72 222.875 118.289 204.839 120.983 177.278C122.595 160.785 122.04 148.568 122.034 148.436L122.948 148.391C122.948 148.513 123.515 160.812 121.897 177.369C120.398 192.656 116.681 214.814 107.503 233.555Z" fill="black"/>
<path d="M117.704 232.853L116.937 232.352C122.232 224.222 128.893 189.538 128.954 189.205L129.536 191.037C129.277 192.393 123.094 224.573 117.704 232.853Z" fill="black"/>
<path d="M106.571 441.009H53L64.2157 414.361L65.0567 414.718L54.3772 440.093H106.571V441.009Z" fill="black"/>
<path d="M90.4215 421.429L89.9668 422.224L108.068 432.628L108.522 431.833L90.4215 421.429Z" fill="black"/>
<path d="M107.777 436.217H55.6323V437.133H107.777V436.217Z" fill="black"/>
<path d="M82.9294 423.875L82.834 424.786L96.9551 426.271L97.0505 425.36L82.9294 423.875Z" fill="black"/>
<path d="M145.685 426.599H131.486V427.515H145.685V426.599Z" fill="black"/>
<path d="M151.809 430.334H137.61V431.25H151.809V430.334Z" fill="black"/>
<path d="M156.757 433.856H142.558V434.772H156.757V433.856Z" fill="black"/>
<path d="M89.0446 427.479L88.9492 428.39L103.07 429.876L103.166 428.964L89.0446 427.479Z" fill="black"/>
<path d="M93.7433 430.676L93.6479 431.587L107.769 433.072L107.864 432.161L93.7433 430.676Z" fill="black"/>
<path d="M167.324 2.74878L155.95 12.8767L159.338 16.554C159.385 16.4773 159.441 16.4057 159.502 16.3402C159.658 16.1779 159.853 16.0598 160.069 15.9981L157.254 12.9439L167.26 4.02545L242.491 85.47L243.162 84.8592L167.324 2.74878Z" fill="#FC8524"/>
<path d="M221.879 83.0908L163.116 19.3059C163.022 19.6125 162.835 19.8818 162.58 20.0756L219.779 82.1592L180.971 81.921V96.4959H219.277V95.5796H181.885V82.8434L221.879 83.0908Z" fill="#FC8524"/>
<path d="M169.459 1.18808C169.624 1.42937 169.834 1.93942 169.392 2.63885C168.734 3.66507 167.065 3.9705 164.95 4.33701C160.922 5.03948 155.407 6.00157 154.621 12.9317C154.155 17.0518 154.831 18.0445 155.279 18.2674C156.336 18.8019 158.631 16.6365 159.752 15.598C160.023 15.3445 160.255 15.1277 160.437 14.9872C161.501 14.0709 163.052 14.5626 163.941 15.5675C164.929 16.6853 165.16 18.5057 163.475 20.0603C160.733 22.5861 151.76 29.0459 150.444 29.9896C149.575 34.4244 137.985 93.4294 135.355 98.7102C132.701 104.028 127.025 113.731 126.967 113.829L126.178 113.364C126.236 113.267 131.9 103.591 134.539 98.3009C137.177 93.0109 149.456 30.2523 149.587 29.6262L149.624 29.446L149.77 29.3391C149.874 29.2658 159.999 22.0089 162.872 19.3761C164.188 18.1544 163.941 16.9327 163.268 16.1661C162.689 15.5094 161.672 15.1338 161.044 15.6713C160.87 15.824 160.648 16.0317 160.389 16.2822C158.844 17.7329 156.507 19.9228 154.88 19.1012C153.676 18.4904 153.308 16.5051 153.725 12.8431C154.587 5.2319 160.733 4.15986 164.804 3.44822C166.632 3.1428 168.192 2.8557 168.634 2.16238C168.82 1.85696 168.746 1.76533 168.716 1.72257C167.945 0.610827 161.239 0.809353 158.393 1.37744C156.675 1.72257 150.328 9.49869 144.804 17.0518C142.257 20.5306 119.173 80.2747 117.805 83.8116C117.695 83.3005 117.57 82.7802 117.43 82.2508C121.12 72.7063 141.574 19.9167 144.066 16.5112C147.467 11.8627 155.645 0.992608 158.213 0.479495C159.819 0.158799 168.174 -0.708607 169.459 1.18808Z" fill="black"/>
<path d="M146.586 311.533C149.633 327.192 140.188 418.976 139.78 422.876L139.737 423.285H109.039L105.782 322.089C104.697 317.611 85.133 264.156 72.0922 238.018C68.8441 231.527 64.1671 215.325 69.1702 179.831C72.1257 158.861 78.0062 136.797 83.1312 127.362C92.6376 109.892 83.2744 88.7902 83.1769 88.5733L84.0087 88.1946C85.7295 92.3438 86.9458 96.6856 87.6315 101.126C88.7527 108.133 89.0209 118.447 83.9325 127.799C78.8441 137.151 73.0184 159.087 70.0629 179.959C65.1056 215.215 69.7186 231.207 72.9118 237.621C85.5017 262.864 105.493 316.808 106.684 321.939V322.028L109.914 422.384H138.923C139.624 415.536 148.628 326.725 145.7 311.726C145.63 311.368 143.756 301.705 141.269 287.142L142.168 286.989C144.67 301.696 146.541 311.353 146.586 311.533Z" fill="black"/>
<path d="M142.159 286.977L141.26 287.13C134.505 247.583 123.232 171.908 131.306 148.467C131.422 148.467 131.541 148.485 131.666 148.485C131.87 148.484 132.074 148.466 132.275 148.43C126.705 163.922 130.392 204.742 134.53 236.564C136.973 255.375 139.837 273.355 142.159 286.977Z" fill="black"/>
<path d="M117.805 83.8115C119.609 91.9939 118.037 97.7633 111.05 101.758L110.867 101.37L110.042 101.764L109.837 101.377C109.971 101.309 110.102 101.239 110.237 101.166C115.173 98.4597 117.5 94.8129 117.549 89.694C117.545 87.659 117.297 85.6318 116.812 83.6558H116.882L117.735 83.9856C117.753 83.9551 117.775 83.9001 117.805 83.8115Z" fill="black"/>
<path d="M117.805 83.8117C117.775 83.9003 117.753 83.9553 117.747 83.9705L116.894 83.6407C116.964 83.4574 117.15 82.9809 117.43 82.251C117.57 82.7824 117.695 83.3027 117.805 83.8117Z" fill="black"/>
<path d="M117.43 82.2508C117.15 82.9808 116.964 83.4572 116.894 83.6405H116.824C115.952 79.841 114.283 75.2046 111.659 69.2214L112.494 68.8518C114.697 73.8944 116.409 78.3352 117.43 82.2508Z" fill="black"/>
<path d="M111.05 101.758L115.815 111.807C115.489 111.786 115.161 111.816 114.843 111.895L110.246 102.198L110.675 101.969L111.05 101.758Z" fill="black"/>
<path d="M110.867 101.37L111.05 101.758L110.675 101.969L110.246 102.198L110.042 101.764L110.867 101.37Z" fill="black"/>
<path d="M110.041 101.765L110.246 102.198C108.171 103.262 105.873 103.816 103.542 103.814C95.8672 103.814 89.6393 98.0751 89.5601 98.0109L90.1694 97.342C90.27 97.4337 100.008 106.392 109.837 101.386L110.041 101.765Z" fill="black"/>
<path d="M108.835 145.626L109.481 144.979L109.557 145.052L109.591 145.153L108.835 145.626Z" fill="black"/>
<path d="M113.378 112.222C112.93 112.222 112.485 112.222 112.049 112.222C112.327 111.941 112.616 111.669 112.912 111.407L113.521 112.094L113.378 112.222Z" fill="black"/>
<path d="M109.557 145.052C109.015 143.403 102.336 122.185 113.378 112.222C116.179 112.262 118.972 112.547 121.723 113.074C145.968 117.656 163.85 124.681 164.027 124.757L164.201 124.824L216.62 102.559L216.803 102.482L216.87 102.296C216.928 102.143 222.659 86.9942 233.549 86.6735C233.71 86.8488 233.803 87.0765 233.811 87.3149C233.835 87.831 233.533 88.7321 231.958 90.0851C229.758 91.9726 227.628 94.529 228.241 96.0348C228.546 96.7494 229.319 97.0701 230.584 96.9846C231.16 96.948 231.632 96.9327 232.049 96.9205C234.414 96.8533 234.828 96.7158 237.708 93.4173C238.841 92.1192 239.798 90.5554 240.721 89.0436C242.549 86.0718 244.1 83.5062 246.205 84.2393C246.405 84.3083 246.582 84.4298 246.719 84.5909C246.856 84.7521 246.947 84.9471 246.982 85.1555C247.07 85.5327 247.097 85.9212 247.065 86.307C246.842 89.8041 243.229 96.1691 241.885 97.6902C240.971 98.7194 223.479 110.805 205.261 122.637C182.409 137.487 167.418 146.115 164.158 146.311C163.119 146.375 161.556 146.497 159.588 146.65C147.351 147.6 114.95 150.122 109.557 145.052Z" fill="white"/>
<path d="M109.481 144.979L108.835 145.626C107.444 141.383 106.57 136.986 106.23 132.533C105.62 123.697 107.631 116.709 112.049 112.225C112.485 112.225 112.93 112.225 113.378 112.225C102.336 122.188 109.015 143.406 109.557 145.055L109.481 144.979Z" fill="black"/>
<path d="M94.2096 115.832C98.3686 113.581 104.636 111.294 112.912 111.303V111.41C112.607 111.673 112.327 111.944 112.049 112.225C104.408 112.369 98.5911 114.51 94.6819 116.617C88.8104 119.785 85.861 123.566 85.8458 123.602L85.1206 123.044C85.2333 122.885 88.1797 119.097 94.2096 115.832Z" fill="black"/>
<path d="M234.728 87.2385C234.795 88.2952 234.064 89.4864 232.558 90.7783C229.929 93.0385 228.811 94.9962 229.094 95.6896C229.259 96.0927 230.063 96.1019 230.529 96.0713C231.12 96.0316 231.605 96.0164 232.031 96.0041C234.128 95.9431 234.298 95.94 237.028 92.8125C238.107 91.5755 239.042 90.0453 239.947 88.564C241.882 85.3967 243.71 82.4005 246.523 83.3718C246.863 83.4906 247.168 83.6955 247.406 83.9668C247.645 84.2381 247.81 84.5665 247.884 84.9203C247.995 85.3922 248.028 85.8792 247.982 86.3619L247.083 86.3039C247.116 85.9181 247.088 85.5295 247.001 85.1524C246.965 84.944 246.874 84.749 246.737 84.5878C246.601 84.4266 246.423 84.3052 246.224 84.2361C244.106 83.5031 242.54 86.0687 240.739 89.0405C239.825 90.5523 238.86 92.1161 237.726 93.4141C234.847 96.7127 234.432 96.8502 232.068 96.9174C231.65 96.9174 231.178 96.9449 230.602 96.9815C229.338 97.067 228.549 96.7463 228.259 96.0316C227.65 94.5259 229.783 91.9695 231.977 90.082C233.552 88.7289 233.853 87.8279 233.829 87.3118C233.821 87.0733 233.728 86.8456 233.567 86.6704C222.693 86.9911 216.946 102.14 216.888 102.293L216.821 102.479L216.638 102.556L164.213 124.824L164.039 124.757C163.863 124.687 145.98 117.647 121.736 113.074C118.984 112.547 116.192 112.262 113.39 112.222L113.527 112.097L112.918 111.41V111.303C115.932 111.314 118.94 111.605 121.9 112.173C144.941 116.52 162.269 123.086 164.189 123.834L216.093 101.792C217.219 99.0184 218.675 96.3911 220.429 93.967C224.295 88.6648 228.89 85.8243 233.716 85.7541H233.856L233.975 85.8335C234.196 85.9976 234.378 86.2086 234.509 86.4515C234.639 86.6944 234.714 86.9631 234.728 87.2385Z" fill="black"/>
<path d="M129.758 149.047C117.982 149.047 111.132 147.923 108.835 145.62L109.591 145.147L109.557 145.046C114.95 150.116 147.339 147.594 159.588 146.641C161.565 146.488 163.128 146.366 164.158 146.302C167.418 146.106 182.4 137.478 205.261 122.628C223.488 110.802 240.995 98.7164 241.909 97.6871C243.262 96.16 246.876 89.8011 247.089 86.304L247.988 86.362C247.72 90.2042 244.073 96.6181 242.586 98.2949C241.492 99.5166 223.445 111.926 205.773 123.404C189.265 134.121 168.661 146.955 164.213 147.215C163.183 147.276 161.623 147.398 159.642 147.551C152.909 148.076 141.635 148.953 131.343 149.038L129.758 149.047Z" fill="black"/>
<path d="M108.835 145.626C108.835 145.626 115.389 157.214 121.937 148.846C121.943 148.846 111.196 148.391 108.835 145.626Z" fill="#E5E5E5"/>
<path d="M90.8975 99.1011C90.8975 99.1011 96.3819 110.387 110.827 103.426L110.245 102.204C110.245 102.204 101.833 107.381 90.8975 99.1011Z" fill="#DCDBDA"/>
<path d="M85.2334 77.3915C85.2334 77.3915 97.8294 80.9986 113.679 74.0502L112.025 69.6765C108.781 71.352 105.371 72.6828 101.851 73.647C95.925 75.2475 93.5241 76.0141 85.2334 77.3915Z" fill="#E5E5E5"/>
<path d="M149.588 29.6262C149.588 29.6262 134.557 89.0893 130.45 96.2424C126.343 103.395 119.92 111.785 119.92 111.785C119.92 111.785 117.098 111.453 126.532 112.934L134.539 98.2887C134.539 98.2887 137.278 92.2658 149.588 29.6262Z" fill="#E5E5E5"/>
<path d="M94.8947 27L93.4211 22.5789L89 20.8947L93.4211 19.4211L94.8947 15L96.5789 19.4211L101 20.8947L96.5789 22.5789L94.8947 27Z" fill="#010973"/>
<path d="M168.45 59.95H164.05V55.55C164.05 55.275 163.775 55 163.5 55C163.225 55 162.95 55.275 162.95 55.55V59.95H158.55C158.275 59.95 158 60.225 158 60.5C158 60.775 158.275 61.05 158.55 61.05H162.95V65.45C162.95 65.725 163.225 66 163.5 66C163.775 66 164.05 65.725 164.05 65.45V61.05H168.45C168.725 61.05 169 60.775 169 60.5C169 60.225 168.725 59.95 168.45 59.95Z" fill="#FF8600"/>
<path d="M185.5 189C183.591 189 182 187.409 182 185.5C182 183.591 183.591 182 185.5 182C187.409 182 189 183.591 189 185.5C189 187.409 187.409 189 185.5 189ZM185.5 183.273C184.227 183.273 183.114 184.386 183.114 185.659C183.114 186.932 184.227 188.045 185.5 188.045C186.773 188.045 187.886 186.773 187.886 185.5C187.886 184.227 186.773 183.273 185.5 183.273Z" fill="#FF8600"/>
<path d="M206.459 22.9177C204.572 22.9177 203 21.3455 203 19.4589C203 17.5722 204.572 16 206.459 16C208.345 16 209.918 17.5722 209.918 19.4589C209.918 21.3455 208.345 22.9177 206.459 22.9177ZM206.459 17.2578C205.201 17.2578 204.101 18.3583 204.101 19.6161C204.101 20.8738 205.201 21.9744 206.459 21.9744C207.717 21.9744 208.817 20.7166 208.817 19.4589C208.817 18.2011 207.717 17.2578 206.459 17.2578Z" fill="#FF8600"/>
<path d="M73.55 116.05H69.95V112.45C69.95 112.225 69.725 112 69.5 112C69.275 112 69.05 112.225 69.05 112.45V116.05H65.45C65.225 116.05 65 116.275 65 116.5C65 116.725 65.225 116.95 65.45 116.95H69.05V120.55C69.05 120.775 69.275 121 69.5 121C69.725 121 69.95 120.775 69.95 120.55V116.95H73.55C73.775 116.95 74 116.725 74 116.5C74 116.275 73.775 116.05 73.55 116.05Z" fill="#010973"/>
<path d="M68.4589 42.9177C67.1177 42.9177 66 41.8 66 40.4589C66 39.1177 67.1177 38 68.4589 38C69.8 38 70.9177 39.1177 70.9177 40.4589C70.9177 41.8 69.8 42.9177 68.4589 42.9177ZM68.4589 38.8941C67.5647 38.8941 66.7824 39.6765 66.7824 40.5706C66.7824 41.4647 67.5647 42.2471 68.4589 42.2471C69.353 42.2471 70.1353 41.353 70.1353 40.4589C70.1353 39.5647 69.353 38.8941 68.4589 38.8941Z" fill="#010973"/>
<path d="M158.404 166L157.053 161.947L153 160.404L157.053 159.053L158.404 155L159.947 159.053L164 160.404L159.947 161.947L158.404 166Z" fill="#010973"/>
</g>
<defs>
<clipPath id="clip0">
<rect width="195" height="448" fill="white" transform="translate(53)"/>
</clipPath>
</defs>
</svg>
