<svg width="39" height="39" viewBox="0 0 39 39" fill="none" xmlns="http://www.w3.org/2000/svg">
<path d="M37.8663 36.2632C36.9593 33.9825 35.1453 32.1579 33.1046 31.2456L27.2093 28.7368C26.0756 28.2807 25.3953 27.3684 25.3953 26.2281V24.1754C27.8895 22.3509 29.7035 19.386 29.7035 15.9649V10.2632C29.7035 4.5614 25.1686 0 19.5 0C13.8314 0 9.29651 4.5614 9.29651 10.2632V15.9649C9.29651 19.386 10.8837 22.3509 13.6047 24.1754V26.2281C13.6047 27.3684 12.9244 28.5088 11.7907 28.7368L6.12209 31.2456C3.85465 32.1579 2.0407 33.9825 1.13372 36.2632L0 39H39L37.8663 36.2632ZM11.564 15.9649V10.2632C11.564 5.92982 15.1919 2.2807 19.5 2.2807C23.8081 2.2807 27.436 5.92982 27.436 10.2632V15.9649C27.436 20.2982 23.8081 23.9474 19.5 23.9474C15.1919 23.9474 11.564 20.2982 11.564 15.9649ZM3.17442 36.7193C3.85465 35.1228 4.98837 33.9825 6.57558 33.5263L12.2442 31.0175C14.2849 30.3333 15.4186 28.2807 15.4186 26.2281V25.3158C16.5523 25.7719 17.9128 26 19.0465 26C20.1802 26 21.5407 25.7719 22.6744 25.3158V26.2281C22.6744 28.2807 24.0349 30.1053 25.8488 31.0175L31.7442 33.5263C33.3314 34.2105 34.4651 35.3509 35.1453 36.7193H3.17442Z" fill="#9D9D9D"/>
</svg>
