<svg width="183" height="175" viewBox="0 0 183 175" fill="none" xmlns="http://www.w3.org/2000/svg">
<g clip-path="url(#clip0)">
<path d="M178.955 169.658C177.104 171.766 174.655 173.268 171.929 173.969C169.203 174.67 166.328 174.536 163.68 173.585C161.032 172.634 158.735 170.91 157.091 168.639C155.447 166.369 154.532 163.658 154.466 160.862H165.967C168.77 160.866 171.507 161.707 173.824 163.275C176.14 164.844 177.927 167.068 178.955 169.658Z" fill="#0D91FF"/>
<path d="M14.5661 0.590834C16.4024 0.588245 18.2212 0.945325 19.9184 1.64164C21.6155 2.33796 23.1578 3.35985 24.457 4.64884C25.7562 5.93783 26.7867 7.46862 27.4897 9.15363C28.1926 10.8386 28.5542 12.6448 28.5537 14.4687V146.988C28.5849 145.146 28.2467 143.317 27.5587 141.606C26.8706 139.895 25.8466 138.338 24.5463 137.024C23.246 135.711 21.6954 134.667 19.985 133.955C18.2746 133.243 16.4386 132.876 14.584 132.876C12.7294 132.876 10.8933 133.243 9.18293 133.955C7.47251 134.667 5.92194 135.711 4.62164 137.024C3.32134 138.338 2.29732 139.895 1.60931 141.606C0.92129 143.317 0.583043 145.146 0.614288 146.988V14.4687C0.614284 10.7915 2.08357 7.26457 4.69948 4.66253C7.31539 2.06049 10.8641 0.596053 14.5661 0.590834Z" fill="#0D91FF"/>
<path d="M182.401 160.531C182.41 163.889 181.184 167.134 178.955 169.658C177.926 167.065 176.136 164.839 173.817 163.271C171.498 161.702 168.757 160.863 165.951 160.862H14.5667C11.8038 160.859 9.10395 160.042 6.80833 158.515C4.5127 156.988 2.72438 154.82 1.66945 152.283C0.614516 149.747 0.340324 146.957 0.881536 144.266C1.42275 141.575 2.75506 139.103 4.71007 137.164C6.66507 135.225 9.15498 133.905 11.865 133.371C14.5751 132.838 17.3837 133.114 19.9357 134.165C22.4877 135.217 24.6685 136.996 26.2026 139.279C27.7366 141.561 28.555 144.244 28.5542 146.988V14.4687H168.434C170.269 14.4687 172.087 14.8282 173.783 15.5267C175.479 16.2252 177.02 17.2489 178.317 18.5393C179.615 19.8297 180.643 21.3614 181.344 23.047C182.045 24.7325 182.404 26.5388 182.401 28.3624V160.531Z" fill="#0D91FF"/>
<path d="M14.5666 161.453C11.6853 161.454 8.86845 160.606 6.47238 159.016C4.07632 157.427 2.20867 155.167 1.10567 152.523C0.00267257 149.879 -0.286128 146.969 0.275799 144.162C0.837726 141.355 2.22514 138.777 4.26254 136.753C6.29995 134.73 8.89583 133.351 11.7218 132.793C14.5478 132.235 17.477 132.522 20.1389 133.618C22.8007 134.713 25.0757 136.568 26.6759 138.948C28.2762 141.328 29.13 144.126 29.1292 146.988C29.1292 147.177 29.1292 147.382 29.1292 147.567L27.9394 147.524C27.9394 147.347 27.9394 147.165 27.9394 146.988C27.9402 144.36 27.1563 141.79 25.6867 139.605C24.2171 137.419 22.128 135.716 19.6836 134.709C17.2391 133.703 14.5492 133.44 11.9539 133.952C9.35873 134.465 6.97484 135.73 5.10383 137.589C3.23281 139.447 1.95871 141.815 1.44269 144.393C0.926672 146.971 1.19191 149.643 2.20486 152.071C3.21781 154.499 4.93296 156.574 7.13337 158.034C9.33378 159.493 11.9206 160.272 14.5666 160.271V161.453Z" fill="black"/>
<path d="M29.1306 14.4688H27.9409C27.9715 12.7049 27.6481 10.9526 26.9897 9.31421C26.3313 7.67579 25.351 6.18401 24.106 4.92589C22.861 3.66777 21.3762 2.66851 19.7383 1.9864C18.1004 1.30429 16.3421 0.952986 14.5661 0.952986C12.79 0.952986 11.0317 1.30429 9.39383 1.9864C7.75592 2.66851 6.27115 3.66777 5.02616 4.92589C3.78116 6.18401 2.80086 7.67579 2.14244 9.31421C1.48402 10.9526 1.16067 12.7049 1.19125 14.4688H0.00149479C-0.0304012 12.5489 0.322753 10.6419 1.04037 8.85891C1.75799 7.07596 2.82572 5.45273 4.18133 4.08382C5.53694 2.71491 7.1533 1.62771 8.93622 0.885584C10.7191 0.143461 12.6329 -0.238739 14.5661 -0.238739C16.4992 -0.238739 18.413 0.143461 20.1959 0.885584C21.9788 1.62771 23.5952 2.71491 24.9508 4.08382C26.3064 5.45273 27.3741 7.07596 28.0917 8.85891C28.8094 10.6419 29.1625 12.5489 29.1306 14.4688Z" fill="black"/>
<path d="M1.18975 14.0079H0V147.548H1.18975V14.0079Z" fill="black"/>
<path d="M29.1292 14.4687H27.9395V146.988H29.1292V14.4687Z" fill="black"/>
<path d="M168.433 175C164.637 174.979 160.997 173.495 158.281 170.86C155.565 168.226 153.985 164.647 153.875 160.878L155.064 160.85C155.15 164.345 156.619 167.665 159.152 170.091C161.685 172.518 165.079 173.855 168.598 173.813C172.117 173.771 175.477 172.353 177.951 169.867C180.425 167.381 181.813 164.027 181.814 160.531C181.814 160.421 181.814 160.307 181.814 160.196L183.004 160.153H182.409H183.004C183.004 160.275 183.004 160.401 183.004 160.523C183.003 164.36 181.468 168.04 178.736 170.753C176.005 173.466 172.3 174.991 168.437 174.992L168.433 175Z" fill="black"/>
<path d="M178.399 169.875C177.425 167.386 175.713 165.249 173.491 163.745C171.268 162.242 168.64 161.443 165.951 161.453V160.271C168.879 160.26 171.741 161.13 174.161 162.767C176.581 164.404 178.445 166.731 179.506 169.442L178.399 169.875Z" fill="black"/>
<path d="M183 28.3624H181.81C181.806 24.8401 180.395 21.4633 177.888 18.9731C175.38 16.4828 171.98 15.0824 168.434 15.0793V13.8976C172.295 13.9017 175.997 15.4269 178.728 18.1386C181.458 20.8502 182.995 24.527 183 28.3624Z" fill="black"/>
<path d="M183 27.8582H181.81V160.535H183V27.8582Z" fill="black"/>
<path d="M165.951 160.271H14.5664V161.453H165.951V160.271Z" fill="black"/>
<path d="M168.429 13.8778H28.5342V15.0596H168.429V13.8778Z" fill="black"/>
<path d="M73.8719 50.0439H49.938V26.2668H73.8719V32.928H72.6821V27.4486H51.1277V48.8622H72.6821V41.0428H73.8719V50.0439Z" fill="white"/>
<path d="M73.277 128.647H49.938V104.87H73.8719V111.693H72.6821V106.052H51.1277V127.465H73.277V128.647Z" fill="white"/>
<path d="M73.277 106.052H49.938V82.2786H73.8719V88.1441H72.6821V83.4603H51.1277V104.87H73.277V106.052Z" fill="white"/>
<path d="M133.463 128.647H72.6821V119.488H73.8719V127.465H132.273V99.6859H124.579V98.5041H133.463V128.647Z" fill="white"/>
<path d="M73.8719 97.5312H72.6821V111.693H73.8719V97.5312Z" fill="white"/>
<path d="M73.8719 41.0428H72.6821V88.1401H73.8719V41.0428Z" fill="white"/>
<path d="M110.08 99.686H88.7041V27.4486H73.8719V32.928H72.6821V26.2668H89.8939V98.5043H110.08V99.686Z" fill="white"/>
<path d="M93.2137 99.1188H92.0239V58.5487H110.08V59.7305H93.2137V99.1188Z" fill="white"/>
<path d="M133.463 99.1188H132.273V59.7305H124.698V58.5487H133.463V99.1188Z" fill="white"/>
<path d="M148.12 26.8577H146.931V128.056H148.12V26.8577Z" fill="white"/>
<path d="M152.65 26.2668H142.398V27.4486H152.65V26.2668Z" fill="white"/>
<path d="M133.268 139.13H49.9297V140.311H133.268V139.13Z" fill="white"/>
<path d="M133.864 134.627H132.674V144.81H133.864V134.627Z" fill="white"/>
<path d="M50.5247 137.231H49.335V147.776H50.5247V137.231Z" fill="white"/>
<path d="M152.65 127.465H142.398V128.647H152.65V127.465Z" fill="white"/>
<path d="M133.863 59.1396H132.673V27.4486H102.707V59.1396H101.518V26.2668H133.863V59.1396Z" fill="white"/>
</g>
<defs>
<clipPath id="clip0">
<rect width="183" height="175" fill="white"/>
</clipPath>
</defs>
</svg>
