<svg width="21" height="18" viewBox="0 0 21 18" fill="none" xmlns="http://www.w3.org/2000/svg">
<path d="M9.78296 11.3506L9.52148 11.0891L9.78296 11.3506Z" fill="#C4C4C4"/>
<path d="M9.78418 11.3508L10.5686 12.1353L9.78418 11.3508Z" fill="#C4C4C4"/>
<path d="M13.2151 7.91861C13.0844 7.42835 12.8229 6.97077 12.4307 6.57856L12.1692 6.31708L11.3848 5.53266C11.2868 5.43461 11.1887 5.36924 11.0907 5.27118C9.91403 4.35602 8.21444 4.45408 7.13586 5.53266L1.87369 10.8275C0.697052 12.0042 0.697052 13.8998 1.87369 15.0438L2.49469 15.6648L2.95227 16.1224C4.1289 17.299 6.02459 17.299 7.16855 16.1224L10.8946 12.3964C10.7965 12.331 10.6985 12.2329 10.6004 12.1349L9.81598 11.3505L6.08996 15.0438C5.50165 15.6321 4.5538 15.6321 3.96548 15.0438L3.5079 14.5862L2.8869 13.9652C2.29858 13.3769 2.29858 12.429 2.8869 11.8407L8.21444 6.57856C8.70471 6.08829 9.45645 5.99024 10.0448 6.34977C10.1428 6.41514 10.2409 6.4805 10.3389 6.57856L10.9599 7.19956L11.156 7.39567L11.4175 7.65714C11.9731 8.21277 12.0058 9.09525 11.4829 9.68357C11.4502 9.71625 11.4502 9.74894 11.4175 9.74894L10.8946 10.2719L11.679 11.0563C11.777 11.1544 11.8751 11.2197 11.9731 11.2851L12.4307 10.8275C13.1825 10.0431 13.4766 8.96451 13.2151 7.91861Z" fill="#C4C4C4"/>
<path d="M20.0782 2.62393L19.2938 1.83951L19.0323 1.57803C17.8556 0.401398 15.96 0.401398 14.816 1.57803L11.09 5.27136C11.188 5.33673 11.2861 5.43478 11.3842 5.53284L12.0052 6.15384L12.2013 6.34994L15.8619 2.62393C16.4502 2.03561 17.3981 2.03561 17.9864 2.62393L18.2479 2.88541L19.0323 3.66983C19.6206 4.25815 19.6206 5.20599 19.0323 5.79431L13.7374 11.0892C13.2472 11.5794 12.4954 11.6775 11.9071 11.318C11.8091 11.2526 11.711 11.1872 11.6129 11.0892L10.8285 10.3047L10.567 10.0433C9.97873 9.45495 9.97873 8.50711 10.567 7.91879L11.09 7.39584L10.8939 7.19974L10.3056 6.57873C10.2075 6.48068 10.1095 6.41531 10.0114 6.34994L9.52115 6.84021C8.34451 8.01684 8.34451 9.91253 9.52115 11.0565L9.78262 11.318L10.567 12.1024C10.6651 12.2004 10.7632 12.2658 10.8612 12.3639C12.0378 13.279 13.7374 13.181 14.816 12.1024L20.1109 6.80752C21.2548 5.69626 21.2548 3.80057 20.0782 2.62393Z" fill="#C4C4C4"/>
<path d="M10.8623 10.2722L11.6467 11.0566L10.8623 10.2722Z" fill="#C4C4C4"/>
<path d="M10.5674 10.0105L10.8289 10.272L10.5674 10.0105Z" fill="#C4C4C4"/>
</svg>
