<svg width="25" height="25" viewBox="0 0 25 25" fill="none" xmlns="http://www.w3.org/2000/svg">
<path d="M17.8947 8.52232C18.6116 8.52232 19.1927 7.94117 19.1927 7.22429C19.1927 6.50741 18.6116 5.92627 17.8947 5.92627C17.1778 5.92627 16.5967 6.50741 16.5967 7.22429C16.5967 7.94117 17.1778 8.52232 17.8947 8.52232Z" fill="#E76800"/>
<path d="M1.64593 24.531C1.26133 24.531 0.924805 24.1945 0.924805 23.8099V19.6274C0.924805 19.4351 1.02095 19.2428 1.1171 19.1466L9.38599 10.9258L9.28984 10.7816C9.04947 10.397 8.85717 9.96431 8.66487 9.53164C8.08797 8.18554 8.37642 6.64714 9.38599 5.5895L13.0878 1.88773C13.8089 1.21468 14.7223 0.830078 15.6838 0.830078C16.1165 0.830078 16.5492 0.926228 16.9338 1.07045C18.1837 1.5512 19.9625 2.41655 21.5009 3.95495C22.9912 5.44527 23.9046 7.27212 24.4334 8.57014C24.9623 9.86816 24.6257 11.3585 23.6162 12.3681L19.8663 16.1179C19.1933 16.791 18.3279 17.1756 17.3664 17.1756C16.8857 17.1756 16.453 17.0794 15.9723 16.8871C15.2992 16.5987 14.6742 16.2621 14.0493 15.8775C13.7127 15.6852 13.6166 15.2526 13.8089 14.916C13.9531 14.7237 14.1454 14.5795 14.4339 14.5795C14.5781 14.5795 14.6742 14.6276 14.8185 14.6757C15.3473 15.0122 15.9723 15.3006 16.5492 15.541C16.8376 15.6372 17.078 15.6852 17.3664 15.6852C17.9433 15.6852 18.4721 15.4449 18.8567 15.0603L22.6066 11.3104C23.1835 10.7335 23.3758 9.82009 23.0873 9.05089C22.6547 7.89709 21.8374 6.26254 20.4913 4.96452C19.1452 3.61842 17.5587 2.84922 16.4049 2.41655C16.1646 2.3204 15.9242 2.27233 15.6357 2.27233C15.0588 2.27233 14.53 2.5127 14.1454 2.8973L10.4436 6.59907C9.81866 7.22404 9.62636 8.13747 10.011 8.95474C10.2994 9.57971 10.5879 10.1566 10.9244 10.6854C11.1167 10.9739 11.0686 11.3104 10.8282 11.5508L2.31898 19.9639V23.1368H5.05925V21.2138C5.05925 20.8292 5.39577 20.4927 5.78037 20.4927H7.70337V18.5697C7.70337 18.1851 8.03989 17.8486 8.42449 17.8486H11.0686C11.4532 17.8486 11.7897 18.1851 11.7897 18.5697C11.7897 18.9543 11.4532 19.2908 11.0686 19.2908H9.14562V21.2138C9.14562 21.5984 8.80909 21.935 8.42449 21.935H6.5015V23.858C6.5015 24.2426 6.16497 24.5791 5.78037 24.5791H1.64593V24.531Z" fill="#E76800"/>
</svg>
