<svg width="16" height="21" viewBox="0 0 16 21" fill="none" xmlns="http://www.w3.org/2000/svg">
<g clip-path="url(#clip0)">
<path d="M14.1271 12.6793C15.0637 11.4114 15.6101 9.82645 15.6101 8.08305C15.6101 3.80381 12.1759 0.317017 7.96128 0.317017C3.74665 0.317017 0.3125 3.80381 0.3125 8.08305C0.3125 9.82645 0.858841 11.4114 1.79543 12.6793C1.87348 12.8378 1.95152 12.917 2.10762 12.9963L7.96128 20.5246L13.8149 12.9963C13.971 12.917 14.0491 12.8378 14.1271 12.6793Z" stroke="#010973" stroke-miterlimit="10" stroke-linecap="round" stroke-linejoin="round"/>
<path d="M8.04015 11.0944C9.63504 11.0944 10.928 9.78164 10.928 8.1623C10.928 6.54296 9.63504 5.23022 8.04015 5.23022C6.44526 5.23022 5.15234 6.54296 5.15234 8.1623C5.15234 9.78164 6.44526 11.0944 8.04015 11.0944Z" fill="#FF8600"/>
</g>
<defs>
<clipPath id="clip0">
<rect width="16" height="21" fill="white"/>
</clipPath>
</defs>
</svg>
