<svg width="9" height="14" viewBox="0 0 9 14" fill="none" xmlns="http://www.w3.org/2000/svg">
<path fill-rule="evenodd" clip-rule="evenodd" d="M9 4.89429C9 5.97583 8.67773 6.97559 8.13086 7.78564L4.50781 14L0.857422 7.76758C0.75 7.60645 0.648438 7.43335 0.558594 7.2583C0.201172 6.5564 0 5.75366 0 4.89429C0 2.19116 2.01562 0 4.5 0C6.98633 0 9 2.19116 9 4.89429ZM4.50195 7.38525C5.76562 7.38525 6.79102 6.27002 6.79102 4.89453C6.79102 3.5188 5.76562 2.40381 4.50195 2.40381C3.23633 2.40381 2.21094 3.5188 2.21094 4.89453C2.21094 6.27002 3.23633 7.38525 4.50195 7.38525Z" fill="#5B5B5B"/>
</svg>
