<svg width="144" height="40" viewBox="0 0 144 40" fill="none" xmlns="http://www.w3.org/2000/svg">
<path d="M65 20.0741C65 29.2777 59.4473 34.8693 51.2224 34.8693C42.8933 34.8693 38 28.5831 38 20.5604C38 12.1556 43.4139 5.8694 51.6735 5.8694C60.3149 5.83467 65 12.2945 65 20.0741ZM44.7326 20.4214C44.7326 25.9088 47.3355 29.7986 51.5694 29.7986C55.8728 29.7986 58.3021 25.7352 58.3021 20.2825C58.3021 15.2119 55.9075 10.9053 51.5347 10.9053C47.2314 10.9053 44.7326 14.934 44.7326 20.4214Z" fill="#E76800"/>
<path d="M66.169 20.9041C66.169 18.3618 66.1014 16.2026 66 14.3568H71.3754L71.6459 17.1777H71.7811C72.5925 15.8543 74.5872 13.8693 77.9004 13.8693C81.9573 13.8693 85 16.6553 85 22.6802V34.7996H78.8132V23.516C78.8132 20.8693 77.9004 19.0931 75.669 19.0931C73.9786 19.0931 72.9644 20.312 72.5249 21.4961C72.3559 21.8792 72.3221 22.5061 72.3221 23.0633V34.8693H66.1352V20.9041H66.169Z" fill="#E76800"/>
<path d="M87.2004 27.8537C88.8466 28.7567 91.4874 29.625 94.1625 29.625C97.0433 29.625 98.5866 28.4094 98.5866 26.5687C98.5866 24.8321 97.2491 23.825 93.9567 22.6441C89.3267 20.977 86.3087 18.4417 86.3087 14.3088C86.3087 9.51597 90.287 5.86926 96.8033 5.86926C99.9585 5.86926 102.256 6.49441 103.903 7.29321L102.531 12.3986C101.433 11.8776 99.4441 11.0788 96.7347 11.0788C93.991 11.0788 92.6877 12.3639 92.6877 13.7878C92.6877 15.5591 94.231 16.3579 97.8321 17.7471C102.736 19.6226 105 22.1926 105 26.1519C105 30.8405 101.468 34.8693 93.8195 34.8693C90.6643 34.8693 87.5433 34.001 86 33.1327L87.2004 27.8537Z" fill="white"/>
<path d="M112 8.116C112 9.93522 110.85 11.3621 108.953 11.3621C107.15 11.3621 106 9.93522 106 8.116C106 6.2611 107.181 4.86993 109.016 4.86993C110.819 4.83426 111.969 6.22543 112 8.116ZM106.155 34.8693V13.9304H111.845V34.8693H106.155Z" fill="white"/>
<path d="M121.273 7.86926V13.7678H126V18.5078H121.273V25.9863C121.273 28.4791 121.923 29.6027 123.871 29.6027C124.737 29.6027 125.387 29.5325 125.82 29.4271L125.856 34.3075C124.99 34.6235 123.438 34.8693 121.598 34.8693C119.469 34.8693 117.701 34.1319 116.619 33.0786C115.392 31.8498 114.814 29.8836 114.814 26.9694V18.5429H112V13.7678H114.814V9.3439L121.273 7.86926Z" fill="white"/>
<path d="M130.891 26.3733C131.061 28.9769 133.615 30.2102 136.543 30.2102C138.654 30.2102 140.357 29.9361 142.059 29.3538L142.91 33.6017C140.833 34.4582 138.348 34.8693 135.658 34.8693C128.882 34.8693 125 30.8954 125 24.6262C125 19.5218 128.167 13.8693 135.079 13.8693C141.548 13.8693 144 18.9394 144 23.9068C144 25.003 143.898 25.928 143.762 26.3733H130.891ZM138.177 22.0911C138.177 20.5838 137.53 18.0144 134.704 18.0144C132.082 18.0144 131.027 20.4125 130.857 22.0911H138.177Z" fill="white"/>
<path d="M31.9659 39.8693L32 0.869263L0 21.6199L20.7761 21.8313L31.9659 39.8693Z" fill="#E76800"/>
<path d="M32 0.869263V39.8693L21 21.8503L32 0.869263Z" fill="#BD5600"/>
</svg>
