<svg width="37" height="19" viewBox="0 0 37 19" fill="none" xmlns="http://www.w3.org/2000/svg">
<path d="M29.2514 11.3212V0.492218H0.484375V18.5078H29.2514H36.5158L29.2514 11.3212Z" stroke="#010973" stroke-miterlimit="10" stroke-linecap="round" stroke-linejoin="round"/>
<path d="M15.9664 9.54921C15.9664 10.2594 15.4021 10.8212 14.7229 10.8212C14.0438 10.8212 13.4795 10.2594 13.4795 9.54921C13.4795 8.839 14.0438 8.27719 14.7229 8.27719C15.4021 8.27719 15.9664 8.839 15.9664 9.54921Z" fill="#FF8600" stroke="#FF8600"/>
<path d="M9.18613 9.54921C9.18613 10.2594 8.62179 10.8212 7.94267 10.8212C7.26356 10.8212 6.69922 10.2594 6.69922 9.54921C6.69922 8.839 7.26356 8.27719 7.94267 8.27719C8.62179 8.27719 9.18613 8.839 9.18613 9.54921Z" fill="#FF8600" stroke="#FF8600"/>
<path d="M22.7457 9.54921C22.7457 10.2594 22.1814 10.8212 21.5022 10.8212C20.8231 10.8212 20.2588 10.2594 20.2588 9.54921C20.2588 8.839 20.8231 8.27719 21.5022 8.27719C22.1814 8.27719 22.7457 8.839 22.7457 9.54921Z" fill="#FF8600" stroke="#FF8600"/>
</svg>
