<svg width="37" height="19" viewBox="0 0 37 19" fill="none" xmlns="http://www.w3.org/2000/svg">
<g clip-path="url(#clip0)">
<path d="M29.2514 11.3212V0.492188H0.484375V18.5077H29.2514H36.5158L29.2514 11.3212Z" stroke="#9D9D9D" stroke-miterlimit="10" stroke-linecap="round" stroke-linejoin="round"/>
<path d="M15.9664 9.54912C15.9664 10.2593 15.4021 10.8211 14.7229 10.8211C14.0438 10.8211 13.4795 10.2593 13.4795 9.54912C13.4795 8.83891 14.0438 8.2771 14.7229 8.2771C15.4021 8.2771 15.9664 8.83891 15.9664 9.54912Z" fill="#9D9D9D" stroke="#9D9D9D"/>
<path d="M9.18613 9.54912C9.18613 10.2593 8.62179 10.8211 7.94267 10.8211C7.26356 10.8211 6.69922 10.2593 6.69922 9.54912C6.69922 8.83891 7.26356 8.2771 7.94267 8.2771C8.62179 8.2771 9.18613 8.83891 9.18613 9.54912Z" fill="#9D9D9D" stroke="#9D9D9D"/>
<path d="M22.7457 9.54912C22.7457 10.2593 22.1814 10.8211 21.5022 10.8211C20.8231 10.8211 20.2588 10.2593 20.2588 9.54912C20.2588 8.83891 20.8231 8.2771 21.5022 8.2771C22.1814 8.2771 22.7457 8.83891 22.7457 9.54912Z" fill="#9D9D9D" stroke="#9D9D9D"/>
</g>
<defs>
<clipPath id="clip0">
<rect width="37" height="19" fill="white"/>
</clipPath>
</defs>
</svg>
