<svg width="16" height="16" viewBox="0 0 16 16" fill="none" xmlns="http://www.w3.org/2000/svg">
<path d="M8.55379 8.41512C8.27667 8.41512 7.99955 8.30427 7.77786 8.08257C7.33447 7.63918 7.33447 6.9741 7.77786 6.53071L13.8745 0.434105C14.3179 -0.00928493 14.9829 -0.00928493 15.4263 0.434105C15.8697 0.877494 15.8697 1.54258 15.4263 1.98597L9.32972 8.08257C9.10802 8.30427 8.8309 8.41512 8.55379 8.41512ZM14.0962 5.69935V12.849C14.0962 13.4587 13.5973 13.9575 12.9877 13.9575H3.01142C2.40176 13.9575 1.90294 13.4587 1.90294 12.849V2.87275C1.90294 2.26309 2.40176 1.76427 3.01142 1.76427H10.1611L11.8238 0.101563H3.01142C1.51498 0.101563 0.240234 1.37631 0.240234 2.87275V12.849C0.240234 14.4009 1.51498 15.6202 3.01142 15.6202H12.9877C14.5395 15.6202 15.7589 14.3454 15.7589 12.849V4.03664L14.0962 5.69935ZM6.33684 7.86088L5.7826 9.52359C5.7826 9.85613 6.0043 10.0778 6.33684 10.0778L7.99955 9.52359L6.33684 7.86088Z" fill="white"/>
</svg>
