<svg width="476" height="550" viewBox="0 0 476 550" fill="none" xmlns="http://www.w3.org/2000/svg">
<path d="M239.972 550C355.776 550 449.653 541.11 449.653 530.143C449.653 519.176 355.776 510.285 239.972 510.285C124.168 510.285 30.291 519.176 30.291 530.143C30.291 541.11 124.168 550 239.972 550Z" fill="#ECECEC"/>
<path d="M301.298 155.409L303.654 160.592L292.547 165.708L273.632 124.378L284.739 119.262L287.094 124.445L301.298 155.409Z" fill="#A6A8AB"/>
<path d="M369.147 147.131L374.263 158.305L333.942 176.883L328.826 165.709L333.942 163.353L363.964 149.554L369.147 147.131Z" fill="#A6A8AB"/>
<path d="M355.284 132.657L362.352 148.139L334.013 161.198L326.945 145.716C326.811 145.379 326.542 145.042 326.272 144.773C326.003 144.504 325.599 144.302 325.263 144.167C324.926 144.033 324.522 144.033 324.186 144.033C323.849 144.033 323.445 144.167 323.109 144.369L302.645 153.793L289.25 124.579L309.309 115.357C323.647 108.693 343.235 106.405 355.284 132.657Z" fill="#A6A8AB"/>
<path d="M370.491 145.448L376.415 158.372C376.482 158.506 376.482 158.574 376.482 158.708C376.482 158.843 376.482 158.978 376.415 159.045C376.348 159.18 376.28 159.247 376.213 159.382C376.146 159.449 376.011 159.516 375.944 159.583L333.873 178.97C333.671 179.104 333.402 179.104 333.133 178.97C332.931 178.902 332.729 178.7 332.594 178.498L326.67 165.574C326.603 165.44 326.603 165.372 326.603 165.238C326.603 165.103 326.603 164.969 326.67 164.901C326.738 164.767 326.805 164.699 326.872 164.565C326.94 164.497 327.074 164.43 327.142 164.363L332.257 162.007L325.19 146.525C325.122 146.39 325.055 146.255 324.92 146.188C324.786 146.121 324.718 146.053 324.584 145.986C324.449 145.919 324.315 145.919 324.247 145.919C324.113 145.919 323.978 145.986 323.911 146.053L303.38 155.545L305.736 160.728C305.803 160.862 305.803 160.997 305.803 161.064C305.803 161.199 305.803 161.334 305.736 161.401C305.669 161.536 305.601 161.603 305.534 161.737C305.467 161.805 305.332 161.872 305.265 161.939L292.408 167.863C292.206 167.998 291.937 167.998 291.668 167.863C291.466 167.796 291.264 167.594 291.129 167.392L271.474 124.379C271.406 124.244 271.406 124.177 271.406 124.042C271.406 123.907 271.406 123.773 271.474 123.705C271.541 123.571 271.608 123.504 271.675 123.369C271.743 123.302 271.877 123.234 271.945 123.167L284.802 117.243C284.936 117.176 285.004 117.176 285.138 117.176C285.273 117.176 285.407 117.176 285.475 117.243C285.542 117.311 285.677 117.378 285.811 117.445C285.879 117.513 285.946 117.647 286.013 117.715L288.369 122.898L308.429 113.676C329.767 103.848 346.932 110.377 356.894 131.985L363.962 147.467L369.078 145.111C369.212 145.044 369.28 145.044 369.414 145.044C369.549 145.044 369.684 145.044 369.751 145.111C369.818 145.178 369.953 145.246 370.088 145.313C370.357 145.246 370.424 145.313 370.491 145.448ZM374.261 158.304L369.145 147.13L364.029 149.486L334.008 163.286L328.892 165.642L334.008 176.816L374.261 158.304ZM362.347 148.14L355.279 132.658C343.23 106.339 323.641 108.695 309.304 115.291L289.244 124.513L302.64 153.727L323.103 144.303C323.439 144.101 323.776 144.034 324.18 143.967C324.516 143.967 324.92 143.967 325.257 144.101C325.661 144.236 325.997 144.438 326.267 144.707C326.536 144.976 326.805 145.313 326.94 145.65L334.008 161.132L362.347 148.14ZM303.717 160.593L301.361 155.41L287.225 124.446L284.869 119.263L273.762 124.379L292.677 165.709L303.717 160.593Z" fill="white"/>
<path d="M57.0109 231.34C55.7993 230.128 54.1838 229.455 52.4336 229.388H52.3663C50.6161 229.455 49.0006 230.195 47.7217 231.407C46.4427 232.619 45.8369 234.301 45.7696 236.052C45.7696 237.802 46.51 239.485 47.7217 240.696C48.9333 241.908 50.6161 242.648 52.3663 242.648H52.5009C53.7799 242.648 55.0588 242.244 56.2032 241.504C57.2802 240.764 58.1552 239.754 58.6264 238.475C59.0976 237.263 59.2323 235.917 58.963 234.638C58.6264 233.426 57.9533 232.282 57.0109 231.34ZM66.5694 228.378C73.9739 228.378 81.3783 228.378 88.7828 228.378C89.1194 228.378 89.5232 228.378 89.8598 228.445C93.764 228.916 96.4565 232.013 96.4565 236.052C96.4565 237.129 96.3219 238.138 95.918 239.081C95.5141 240.023 94.9756 240.966 94.2352 241.706C93.4947 242.446 92.6196 243.052 91.6773 243.456C90.7349 243.86 89.6579 244.062 88.6482 243.995C82.6573 243.995 76.6664 243.995 70.7428 243.995H56.0685C50.145 243.995 44.1541 243.995 38.2305 243.995C36.5477 243.995 34.9321 243.456 33.6532 242.446C32.3069 241.437 31.3645 240.023 30.9607 238.408C29.951 234.975 31.2299 231.407 34.0571 229.522C34.461 229.253 34.8648 229.051 35.2687 228.916C36.2111 228.513 37.2208 228.378 38.2305 228.378H66.5694ZM79.157 229.455C77.4742 229.59 75.9259 230.33 74.7816 231.542C73.6373 232.753 72.9642 234.436 73.0315 236.119C73.0315 237.802 73.7046 239.417 74.8489 240.629C75.9933 241.841 77.6088 242.581 79.2916 242.716C80.9745 242.581 82.5227 241.841 83.667 240.629C84.8113 239.417 85.4844 237.802 85.4844 236.052C85.4844 234.369 84.8113 232.753 83.667 231.474C82.4553 230.263 80.9071 229.522 79.157 229.455Z" fill="#A6A8AB"/>
<path d="M24.5659 226.089H12.4495C12.0456 226.089 2.28516 225.954 2.28516 215.925V202.664L8.14142 204.212L15.142 206.03L17.498 206.703C18.7096 207.847 21.4021 210.876 21.4021 213.636V223.8C21.4021 224.002 21.4694 224.204 21.6041 224.406C21.7387 224.608 21.8733 224.743 22.0753 224.81L24.5659 226.089Z" fill="#A6A8AB"/>
<path d="M89.0576 220.434V226.223C88.9903 226.223 88.923 226.223 88.8557 226.223C76.8739 226.223 64.8921 226.223 52.9104 226.223H38.2361C37.4956 226.223 36.8225 226.29 36.082 226.425L36.2167 205.827L40.592 195.797C40.592 195.662 41.5344 192.095 45.7078 192.095C49.0735 192.095 55.8048 192.162 60.4495 192.229C62.94 192.229 64.8921 192.297 65.3633 192.297C66.5076 192.297 66.5076 192.499 66.5076 192.768C66.5076 193.979 66.4403 213.568 66.4403 213.568C66.4403 213.837 66.5076 214.106 66.7096 214.308C66.8442 214.51 67.1135 214.645 67.3827 214.712L75.3257 216.395L89.0576 219.289V220.434ZM63.142 206.904V196.672C63.142 196.403 63.0074 196.066 62.8054 195.864C62.6035 195.662 62.3342 195.528 61.9977 195.528H45.102C44.9001 195.528 44.6981 195.595 44.4962 195.73C44.2943 195.864 44.1596 195.999 44.0923 196.201L39.5823 206.365C39.515 206.567 39.4477 206.702 39.515 206.904C39.5823 207.106 39.5823 207.24 39.717 207.442C39.8516 207.577 39.9862 207.711 40.1208 207.846C40.2555 207.913 40.4574 207.981 40.6593 207.981L62.065 208.048C62.3342 208.048 62.6708 207.913 62.8727 207.711C63.0074 207.442 63.142 207.173 63.142 206.904Z" fill="#A6A8AB"/>
<path d="M89.0533 175.806V216.799L76.6677 214.174V177.758C76.6677 177.556 76.6003 177.354 76.533 177.219C76.4657 177.017 76.2638 176.883 76.1292 176.815L42.8091 157.496C42.5398 157.362 42.2706 157.294 41.934 157.362C41.6647 157.429 41.3955 157.631 41.2609 157.9L14.874 203.741L10.1621 202.462L41.3282 148.274L78.0139 169.545L89.0533 175.806Z" fill="#A6A8AB"/>
<path d="M98.8159 236.118C98.8159 241.907 94.4406 246.282 88.6516 246.349C82.6607 246.349 76.6699 246.349 70.7463 246.349H56.072H48.6675C45.1672 246.349 41.6669 246.349 38.1666 246.349C36.0126 246.349 33.9259 245.609 32.2431 244.33C30.5602 243.051 29.2813 241.234 28.7428 239.147C27.4638 234.704 29.0793 230.127 32.8489 227.771C33.1855 227.569 33.522 227.367 33.8586 227.232L33.9932 205.558C33.9932 205.423 34.0605 205.221 34.0605 205.086L38.5032 195.057C38.9071 193.374 40.9938 189.806 45.773 189.806C49.1387 189.806 55.87 189.874 60.5147 189.941C63.0053 189.941 64.89 190.008 65.4285 190.008C68.2557 190.008 68.8615 191.489 68.8615 192.768C68.8615 193.845 68.7942 208.721 68.7942 212.625L74.4485 213.837V178.43L42.6766 159.986L17.1649 204.279L18.3765 204.615C18.5112 204.682 18.7131 204.75 18.8477 204.817C19.0497 205.019 23.7616 209.058 23.7616 213.568V223.059L29.8871 226.155C30.089 226.29 30.291 226.425 30.4256 226.694C30.5602 226.896 30.5602 227.165 30.4929 227.434C30.4256 227.704 30.291 227.906 30.089 228.04C29.8871 228.175 29.6179 228.309 29.4159 228.309H12.3856C11.8471 228.309 0 228.175 0 215.856V201.182C0 200.98 0.0673133 200.846 0.134627 200.711C0.20194 200.576 0.336567 200.442 0.471193 200.307C0.60582 200.172 0.740446 200.105 0.942386 200.105C1.14433 200.038 1.27895 200.105 1.48089 200.105L7.94297 201.855L39.9841 146.187C40.1187 145.918 40.388 145.716 40.6572 145.649C40.9265 145.581 41.2631 145.581 41.5323 145.716L90.8056 174.122C91.0076 174.19 91.1422 174.391 91.2095 174.526C91.2768 174.728 91.3441 174.863 91.3441 175.065V226.357C95.7868 227.502 98.8159 231.204 98.8159 236.118ZM96.5273 236.118C96.5273 232.079 93.8347 228.983 89.9306 228.511C89.594 228.444 89.1901 228.444 88.8536 228.444C81.4491 228.444 74.0446 228.444 66.6402 228.444H38.1666C37.1569 228.444 36.1472 228.646 35.2049 228.983C34.801 229.185 34.3971 229.386 33.9932 229.588C31.1661 231.406 29.8871 234.973 30.8968 238.474C31.3007 240.089 32.2431 241.503 33.5893 242.513C34.9356 243.522 36.5511 244.061 38.1666 244.061C44.0902 244.061 50.0811 244.061 56.0047 244.061H70.679C76.6699 244.061 82.6607 244.061 88.5843 244.061C89.6613 244.061 90.671 243.859 91.6134 243.522C92.5558 243.118 93.4309 242.513 94.1713 241.772C94.9118 241.032 95.5176 240.157 95.8541 239.147C96.3926 238.205 96.5273 237.127 96.5273 236.118ZM89.0555 226.155V219.02L75.3236 216.126L67.3806 214.443C67.1114 214.376 66.9094 214.241 66.7075 214.039C66.5729 213.837 66.4382 213.568 66.4382 213.299C66.4382 213.299 66.5055 193.778 66.5055 192.499C66.5055 192.23 66.5055 192.028 65.3612 192.028C64.8227 192.028 62.9379 192.028 60.4473 191.96C55.8027 191.893 49.0714 191.826 45.7057 191.826C41.465 191.826 40.5899 195.393 40.5899 195.528L36.2146 205.558L36.0799 226.155C36.7531 226.021 37.4935 225.953 38.234 225.953H52.9756C64.9573 225.953 76.9391 225.953 88.9209 225.953C88.9209 226.155 88.9882 226.155 89.0555 226.155ZM89.0555 216.732V175.805L78.0161 169.478L41.3304 148.207L10.1643 202.394L14.8762 203.673L41.2631 157.832C41.3977 157.563 41.6669 157.361 41.9362 157.294C42.2054 157.227 42.542 157.227 42.8113 157.429L76.1313 176.747C76.3333 176.815 76.4679 177.017 76.5352 177.151C76.6025 177.353 76.6699 177.488 76.6699 177.69V214.106L89.0555 216.732ZM12.3856 226.088H24.502L22.0114 224.809C21.8095 224.742 21.6749 224.54 21.5403 224.405C21.4056 224.203 21.3383 224.001 21.3383 223.799V213.635C21.3383 210.875 18.6458 207.914 17.4341 206.769L15.0782 206.163L8.0776 204.346L2.22134 202.798V215.991C2.28865 225.953 11.9818 226.088 12.3856 226.088Z" fill="white"/>
<path d="M85.8286 236.051C85.8286 237.801 85.1555 239.484 83.9438 240.695C82.7322 241.907 81.0493 242.647 79.2992 242.647C77.6164 242.58 76.0682 241.84 74.8565 240.561C73.7122 239.349 73.0391 237.734 73.0391 236.051C73.0391 234.368 73.6449 232.752 74.7892 231.473C75.9335 230.262 77.4817 229.521 79.1646 229.387H79.2319C80.107 229.387 80.9147 229.589 81.7225 229.925C82.5302 230.262 83.2034 230.733 83.8092 231.339C84.415 231.945 84.8862 232.685 85.2228 233.493C85.5593 234.301 85.8286 235.176 85.8286 236.051ZM82.3283 239.147C82.7322 238.743 83.0687 238.272 83.2707 237.734C83.4726 237.195 83.6072 236.657 83.6072 236.051C83.6072 234.906 83.1361 233.762 82.261 232.954C81.8571 232.55 81.3859 232.214 80.9147 232.012C80.3762 231.81 79.8377 231.675 79.2992 231.675C78.1549 231.743 77.0779 232.214 76.2701 233.022C75.4623 233.829 74.9911 234.906 74.9911 236.118C74.9911 237.262 75.4623 238.339 76.2701 239.147C77.0779 239.955 78.1549 240.426 79.2992 240.426C79.8377 240.426 80.4435 240.291 80.9147 240.09C81.4532 239.888 81.9244 239.551 82.3283 239.147Z" fill="white"/>
<path d="M63.1397 196.673V206.904C63.1397 207.039 63.1397 207.173 63.0723 207.308C63.005 207.443 62.9377 207.577 62.8031 207.645C62.6685 207.779 62.6012 207.847 62.4665 207.914C62.3319 207.981 62.1973 207.981 62.0627 207.981L40.657 207.914C40.4551 207.914 40.2531 207.847 40.1185 207.779C39.9839 207.712 39.7819 207.577 39.7146 207.375C39.58 207.241 39.58 207.039 39.5127 206.837C39.5127 206.635 39.5127 206.433 39.58 206.298L44.09 196.134C44.1573 195.932 44.2919 195.73 44.4939 195.663C44.6958 195.528 44.8978 195.461 45.0997 195.461H61.9953C62.2646 195.461 62.6012 195.596 62.8031 195.798C63.005 196.067 63.1397 196.336 63.1397 196.673ZM60.851 205.76V197.817H45.8401L42.3399 205.76H60.851Z" fill="white"/>
<path d="M59.0371 236.051C59.0371 237.801 58.2966 239.484 57.085 240.695C55.8734 241.907 54.1905 242.648 52.4404 242.715H52.3731C50.6229 242.715 49.0074 242.042 47.7285 240.763C46.5168 239.551 45.7764 237.868 45.7764 236.118C45.7764 234.368 46.4495 232.685 47.7285 231.474C48.9401 230.195 50.6229 229.521 52.3731 229.454H52.4404C54.1232 229.454 55.806 230.195 57.0177 231.406C58.2966 232.618 59.0371 234.301 59.0371 236.051ZM52.4404 240.426C53.3155 240.426 54.1232 240.157 54.8637 239.686C55.6041 239.215 56.1426 238.541 56.4792 237.734C56.8158 236.926 56.8831 236.051 56.6811 235.176C56.4792 234.301 56.0753 233.56 55.4022 232.954C54.5944 232.147 53.5174 231.675 52.4404 231.675H52.3731C51.2287 231.743 50.1517 232.214 49.344 233.022C48.5362 233.829 48.065 234.974 48.065 236.118C48.065 236.657 48.1996 237.262 48.4016 237.801C48.6035 238.339 48.9401 238.811 49.344 239.215C50.219 239.955 51.3634 240.426 52.4404 240.426Z" fill="white"/>
<path d="M193.86 73.3541L187.129 88.4323L182.013 86.1436L188.811 71.0654C189.484 71.4693 190.158 71.8059 190.831 72.1424L191.84 72.6136C192.446 72.8829 193.119 73.1521 193.86 73.3541Z" fill="#A6A8AB"/>
<path d="M205.913 27.1775L198.845 42.9289L193.729 40.6402L200.797 24.8889C200.932 24.5523 201.134 24.2158 201.403 24.0138C201.672 23.7446 202.009 23.5426 202.346 23.408C202.682 23.2734 203.086 23.2061 203.423 23.2061C203.759 23.2061 204.163 23.2734 204.5 23.4753C204.836 23.6099 205.173 23.8119 205.375 24.0811C205.644 24.3504 205.846 24.6869 205.981 25.0235C206.115 25.3601 206.182 25.764 206.182 26.1005C206.182 26.4371 206.115 26.841 205.913 27.1775Z" fill="#A6A8AB"/>
<path d="M220.316 33.7078L213.248 49.4591L208.132 47.1705L215.2 31.4192C215.334 31.0826 215.536 30.746 215.806 30.5441C216.075 30.2748 216.411 30.0729 216.748 29.9383C217.084 29.8036 217.488 29.7363 217.825 29.7363C218.162 29.7363 218.565 29.8036 218.902 30.0056C219.239 30.1402 219.575 30.3421 219.777 30.6114C220.046 30.8807 220.248 31.2172 220.383 31.5538C220.517 31.8904 220.585 32.2942 220.585 32.6308C220.585 32.9674 220.45 33.3712 220.316 33.7078Z" fill="#A6A8AB"/>
<path d="M217.485 53.8337L213.581 62.5171C211.831 66.354 208.667 69.3831 204.763 70.8639C200.858 72.3448 196.483 72.2102 192.646 70.5274L191.637 70.0562C187.8 68.306 184.838 65.1423 183.357 61.1708C181.876 57.1994 182.011 52.8913 183.761 48.9871L187.665 40.3037L217.485 53.8337Z" fill="#A6A8AB"/>
<path d="M231.826 58.4117C231.826 58.6137 231.826 58.8156 231.759 58.9502C231.692 59.1522 231.557 59.2868 231.423 59.4214L178.043 104.252C177.909 104.387 177.707 104.454 177.437 104.521C177.235 104.521 177.033 104.521 176.832 104.454C176.764 104.387 176.697 104.387 176.63 104.319C176.428 104.185 176.293 103.916 176.226 103.714C176.158 103.444 176.158 103.175 176.293 102.973L182.62 88.9046L180.063 87.7603C179.793 87.6257 179.591 87.4237 179.457 87.1545C179.322 86.8852 179.389 86.5487 179.457 86.2794L186.794 69.9896L163.773 59.6234C163.571 59.556 163.436 59.4214 163.302 59.2195C163.167 59.0848 163.1 58.8829 163.1 58.681C163.1 58.479 163.1 58.2771 163.167 58.0751C163.234 57.8732 163.369 57.7386 163.571 57.604L184.034 42.997L186.121 38.4197C186.255 38.1504 186.457 37.9485 186.727 37.8138C186.996 37.6792 187.332 37.7465 187.602 37.8138L191.708 39.6313L198.776 23.88C199.247 22.8703 199.987 22.0625 200.93 21.524C201.872 20.9855 203.016 20.7836 204.093 20.9182C205.17 21.0528 206.18 21.5913 206.988 22.3318C207.796 23.0722 208.267 24.0819 208.469 25.1589L225.499 12.9079C225.701 12.7733 225.97 12.6387 226.239 12.6387C226.509 12.6387 226.778 12.706 226.913 12.9079C227.115 13.0426 227.249 13.3118 227.317 13.5811C227.384 13.8503 227.317 14.1196 227.249 14.3215L220.854 28.5246C221.73 29.1977 222.403 30.2074 222.672 31.3518C222.941 32.4961 222.874 33.6404 222.403 34.7174L215.335 50.4687L219.508 52.3535L231.221 57.6713C231.423 57.7386 231.557 57.8732 231.625 58.0078C231.692 58.0078 231.759 58.2098 231.826 58.4117ZM180.332 99.4055L228.595 58.8829L219.575 54.7768L215.671 63.4602C213.988 67.0951 211.229 70.1242 207.661 72.009C204.093 73.8938 200.055 74.5669 196.083 73.8938L188.679 90.3855C188.611 90.5202 188.544 90.6548 188.409 90.7221C188.275 90.8567 188.207 90.924 188.006 90.924C187.871 90.9914 187.736 90.9914 187.602 90.9914C187.467 90.9914 187.332 90.924 187.198 90.924L184.64 89.7797L180.332 99.4055ZM213.585 62.5178L217.489 53.8344L187.669 40.3718L183.765 49.0552C182.015 52.892 181.88 57.2674 183.361 61.2389C184.842 65.2104 187.804 68.3741 191.64 70.1242L192.65 70.5954C196.487 72.3456 200.862 72.4129 204.767 70.932C208.738 69.3838 211.902 66.3547 213.585 62.5178ZM213.248 49.459L220.316 33.7077C220.451 33.3712 220.518 33.0346 220.585 32.6307C220.585 32.2942 220.518 31.8903 220.383 31.5537C220.249 31.2171 220.047 30.8806 219.777 30.6113C219.508 30.3421 219.239 30.1401 218.902 30.0055C218.566 29.8709 218.229 29.7362 217.825 29.7362C217.489 29.7362 217.085 29.8036 216.748 29.9382C216.412 30.0728 216.075 30.2748 215.806 30.544C215.537 30.8133 215.335 31.0825 215.2 31.4191L208.132 47.1704L213.248 49.459ZM218.768 27.5822L223.412 17.2833L207.863 28.4573L200.93 43.9394L206.046 46.2953L213.113 30.544C213.585 29.467 214.392 28.6592 215.402 28.1207C216.479 27.4476 217.623 27.313 218.768 27.5822ZM187.063 88.4335L193.794 73.3553C193.054 73.1533 192.381 72.8841 191.708 72.5475L190.698 72.0763C190.025 71.7398 189.352 71.4032 188.679 70.9993L181.88 86.0775L187.063 88.4335ZM198.843 42.9297L205.911 27.1783C206.045 26.8418 206.113 26.5052 206.18 26.1013C206.18 25.7648 206.113 25.3609 205.978 25.0243C205.844 24.6878 205.642 24.3512 205.372 24.0819C205.103 23.8127 204.834 23.6107 204.497 23.4761C204.161 23.3415 203.824 23.2069 203.42 23.2069C203.084 23.2069 202.68 23.2742 202.343 23.4088C202.007 23.5434 201.67 23.7454 201.401 24.0146C201.132 24.2839 200.93 24.5531 200.795 24.8897L193.727 40.641L198.843 42.9297ZM166.465 58.2771L183.294 65.8835C181.543 63.3256 180.466 60.2965 180.197 57.2001C179.928 54.1037 180.466 50.9399 181.745 48.1128L182.217 47.0358L166.465 58.2771Z" fill="white"/>
<path d="M207.727 139.86L229.335 110.579C231.287 107.819 230.681 103.578 227.921 99.9433C225.162 96.3084 221.123 94.7602 218.026 95.9718L184.774 110.242C183.764 110.646 182.889 111.252 182.148 112.06C181.408 112.867 180.869 113.81 180.6 114.887C180.264 116.098 180.264 117.377 180.533 118.656C180.802 119.868 181.341 121.08 182.148 122.022L188.207 129.83L182.889 134.004L176.629 125.994C176.561 125.859 176.427 125.792 176.292 125.724C176.157 125.657 176.023 125.59 175.888 125.59C175.754 125.59 175.619 125.59 175.417 125.59C175.282 125.657 175.148 125.724 175.013 125.792L167.205 131.917L165.993 130.369C165.387 129.628 164.512 129.09 163.57 128.955C162.627 128.821 161.618 129.09 160.877 129.696L134.491 150.361C133.75 150.967 133.212 151.842 133.077 152.784C132.942 153.727 133.212 154.736 133.817 155.477L137.654 160.391C138.26 161.131 139.135 161.67 140.078 161.804C141.02 161.939 142.03 161.67 142.77 161.064L169.157 140.399C169.897 139.793 170.436 138.918 170.57 137.975C170.705 137.033 170.436 136.023 169.83 135.283L168.618 133.735L175.552 128.35L181.812 136.36C181.879 136.494 182.014 136.562 182.148 136.629C182.283 136.696 182.418 136.764 182.552 136.764C182.687 136.764 182.821 136.764 183.023 136.764C183.158 136.696 183.293 136.629 183.427 136.562L189.62 131.715L195.746 139.591C196.486 140.601 197.496 141.408 198.64 141.947C199.784 142.485 200.996 142.755 202.275 142.755C203.352 142.755 204.429 142.485 205.371 141.947C206.247 141.476 207.054 140.735 207.727 139.86Z" fill="#A6A8AB"/>
<path d="M192.514 224.337L187.869 219.087L211.16 198.354L213.583 201.047L215.804 203.538L192.514 224.337Z" fill="#A6A8AB"/>
<path d="M268.581 201.047C267.975 201.586 267.234 201.855 266.427 201.788C265.619 201.721 264.946 201.384 264.407 200.778L219.779 150.159C219.509 149.889 219.307 149.553 219.173 149.149C219.038 148.812 218.971 148.408 219.038 148.005C219.038 147.601 219.173 147.264 219.307 146.86C219.442 146.456 219.711 146.187 219.981 145.918L227.856 138.917C228.125 138.648 228.462 138.446 228.866 138.311C229.202 138.177 229.606 138.109 230.01 138.177C230.414 138.177 230.751 138.311 231.155 138.446C231.491 138.648 231.828 138.85 232.097 139.119L276.658 189.739C277.197 190.345 277.466 191.085 277.399 191.893C277.331 192.701 276.995 193.441 276.389 193.912L272.283 197.547L272.014 197.816L268.581 201.047Z" fill="#A6A8AB"/>
<path d="M193.259 226.963C193.124 227.098 192.99 227.165 192.855 227.233C192.72 227.3 192.518 227.3 192.384 227.3C192.249 227.3 192.047 227.233 191.913 227.165C191.778 227.098 191.643 226.963 191.509 226.896L185.249 219.828C185.047 219.559 184.912 219.29 184.912 218.953C184.912 218.617 185.047 218.347 185.316 218.078L210.491 195.663C210.76 195.461 211.03 195.326 211.366 195.326C211.703 195.326 211.972 195.461 212.241 195.73L214.665 198.423L216.28 200.24L218.501 202.798C218.703 203.067 218.838 203.336 218.771 203.673C218.771 204.01 218.636 204.279 218.367 204.548L193.259 226.963ZM187.874 219.088L192.519 224.338L215.809 203.606L213.588 201.048L211.164 198.355L187.874 219.088Z" fill="white"/>
<path d="M265.551 212.492C265.416 212.626 265.214 212.761 264.945 212.761C264.743 212.828 264.474 212.761 264.272 212.694L219.778 197.144L216.278 200.308L214.662 198.491L218.701 194.856C218.836 194.721 219.037 194.586 219.307 194.586C219.509 194.519 219.778 194.586 219.98 194.654L264.474 210.203L274.032 201.722L272.955 200.51L274.773 198.895L276.658 201.049C276.792 201.183 276.86 201.318 276.927 201.452C276.994 201.587 276.994 201.789 276.994 201.924C276.994 202.058 276.927 202.26 276.86 202.395C276.792 202.529 276.658 202.664 276.59 202.799L265.551 212.492Z" fill="#A6A8AB"/>
<path d="M216.278 200.308L214.662 198.423L216.278 200.308Z" fill="#A6A8AB"/>
<path d="M270.194 202.866C269.117 203.809 267.704 204.28 266.29 204.212C264.876 204.145 263.53 203.472 262.52 202.395L217.959 151.775C217.017 150.698 216.545 149.285 216.613 147.804C216.68 146.39 217.353 145.044 218.43 144.034L226.306 137.034C227.383 136.091 228.796 135.553 230.21 135.687C231.624 135.755 232.97 136.428 233.98 137.505L278.541 188.057C279.483 189.134 279.955 190.548 279.887 192.029C279.82 193.442 279.147 194.789 278.07 195.798L274.771 198.76L272.954 200.376L270.194 202.866ZM264.405 200.779C264.944 201.385 265.684 201.722 266.425 201.789C267.232 201.856 267.973 201.587 268.579 201.049L272.079 197.952L272.348 197.683L276.454 194.048C277.06 193.51 277.397 192.769 277.464 192.029C277.531 191.221 277.262 190.48 276.724 189.875L232.162 139.255C231.893 138.986 231.624 138.717 231.22 138.582C230.883 138.38 230.479 138.313 230.075 138.313C229.672 138.313 229.268 138.313 228.931 138.447C228.595 138.582 228.258 138.784 227.921 139.053L220.046 146.054C219.777 146.323 219.507 146.592 219.373 146.996C219.171 147.333 219.103 147.737 219.103 148.14C219.103 148.544 219.103 148.948 219.238 149.285C219.373 149.621 219.575 150.025 219.844 150.294L264.405 200.779Z" fill="white"/>
<path d="M272.345 197.683L272.075 197.953C272.143 197.885 272.143 197.885 272.21 197.818C272.21 197.75 272.278 197.683 272.345 197.683Z" fill="#A6A8AB"/>
<path d="M64.0789 95.2996C64.2809 95.3669 64.4828 95.5015 64.6174 95.7035C64.7521 95.8381 64.8867 96.04 64.954 96.242L65.8964 98.7999L55.5301 102.637L54.5877 100.079C54.5204 99.8769 54.4531 99.675 54.4531 99.4057C54.4531 99.2038 54.5204 98.9345 54.5877 98.7326C54.7897 98.3287 55.1263 97.9921 55.5301 97.8575L62.7327 95.2323C62.9346 95.165 63.1365 95.0977 63.4058 95.0977C63.675 95.165 63.877 95.165 64.0789 95.2996Z" fill="#A6A8AB"/>
<path d="M52.5069 108.626L56.4784 119.396C48.4008 122.627 38.2365 129.426 27.6683 138.715L27.3318 139.052C26.8606 139.523 26.5913 139.388 26.3894 139.321C26.3221 139.254 26.1201 139.186 26.1201 138.58C26.1201 137.975 26.1874 137.301 26.3221 136.696C27.601 129.089 38.5731 114.28 52.5069 108.626Z" fill="#A6A8AB"/>
<path d="M72.0938 101.358C86.3642 96.579 104.27 100.685 110.193 105.666C110.664 106.07 111.135 106.474 111.607 106.945C111.943 107.416 111.876 107.551 111.876 107.686C111.809 107.888 111.674 108.09 111.001 108.09H110.53C96.5285 107.888 84.3448 109.368 76.1325 112.128L72.0938 101.358Z" fill="#A6A8AB"/>
<path d="M73.1719 118.453L95.7892 179.91C95.8565 180.112 95.9238 180.314 95.9238 180.583C95.9238 180.785 95.8565 181.055 95.7892 181.256C95.7219 181.458 95.5872 181.66 95.3853 181.795C95.2507 181.93 95.0487 182.064 94.8468 182.132L87.6443 184.824C87.4423 184.891 87.2404 184.959 86.9711 184.959C86.7692 184.959 86.4999 184.891 86.298 184.824C86.0961 184.757 85.8941 184.622 85.7595 184.42C85.6249 184.286 85.4902 184.084 85.4229 183.882L62.8057 122.425L73.1719 118.453Z" fill="#A6A8AB"/>
<path d="M69.197 100.011L69.6009 101.088L74.3129 114.012L74.8514 115.425L73.4378 115.964L60.9848 120.541L60.8502 120.609L59.5039 121.08L58.9654 119.666V119.599V119.532L54.2535 106.742L53.8496 105.665L55.2632 105.127L67.7835 100.482L69.197 100.011Z" fill="#A6A8AB"/>
<path d="M71.3516 99.2691C85.2854 94.6244 104.537 97.9228 111.672 103.914C112.278 104.385 112.817 104.923 113.288 105.462C114.432 106.808 114.163 108.02 113.894 108.626C113.826 108.76 113.759 108.895 113.692 108.962C113.422 109.433 113.019 109.77 112.48 110.039C112.009 110.308 111.47 110.376 110.932 110.376H110.393C96.6614 110.174 84.8142 111.587 76.804 114.28L77.3425 115.694C77.4098 115.828 77.4098 116.03 77.4098 116.232C77.4098 116.434 77.3425 116.569 77.2078 116.703C77.0732 116.905 76.8713 117.107 76.6693 117.174L75.2558 117.713L97.873 179.17C98.2096 180.18 98.2096 181.257 97.7384 182.199C97.2672 183.141 96.5268 183.882 95.5171 184.286L88.3145 186.978C87.3048 187.315 86.2278 187.315 85.2854 186.844C84.343 186.372 83.6026 185.632 83.1987 184.622L60.5815 123.165L59.1679 123.704C58.8986 123.838 58.5621 123.771 58.2928 123.636C58.0236 123.502 57.8216 123.3 57.687 123.031L57.1485 121.617C49.3401 124.781 39.3778 131.445 29.0788 140.532L28.7423 140.869C27.7326 141.744 26.5209 141.946 25.3766 141.475C24.7708 141.205 23.7611 140.465 23.8284 138.715C23.8284 137.974 23.8957 137.234 24.0303 136.493C25.5785 127.271 38.0988 112.193 51.6288 106.674L51.2249 105.597C51.1576 105.462 51.1576 105.327 51.1576 105.193C51.1576 105.058 51.2249 104.923 51.2922 104.789C51.3595 104.654 51.4268 104.52 51.5615 104.452C51.6961 104.385 51.8307 104.25 51.9654 104.25L53.3789 103.712L52.4366 101.154C52.1 100.144 52.1 99.0671 52.5712 98.1247C53.0424 97.1823 53.7828 96.4419 54.7925 96.038L61.995 93.4128C62.4662 93.2109 63.0047 93.1436 63.5432 93.1436C64.0818 93.1436 64.5529 93.2782 65.0241 93.4801C65.4953 93.6821 65.8992 94.0186 66.3031 94.4225C66.6397 94.8264 66.9089 95.2303 67.1108 95.7688L68.0532 98.3267L69.4668 97.7882C69.6014 97.7209 69.7361 97.7209 69.8707 97.7209C70.0053 97.7209 70.1399 97.7882 70.2746 97.8555C70.5438 97.9901 70.7458 98.192 70.8804 98.4613L71.3516 99.2691ZM110.191 105.664C104.335 100.683 86.3624 96.6438 72.092 101.356L76.0635 112.126C84.2757 109.299 96.4594 107.885 110.461 108.087H110.932C111.605 108.087 111.74 107.818 111.807 107.683C111.874 107.616 111.942 107.414 111.538 106.943C111.134 106.472 110.663 106.068 110.191 105.664ZM64.9568 96.24C64.8895 96.038 64.7549 95.8361 64.6203 95.7015C64.4856 95.5668 64.2837 95.4322 64.0817 95.2976C63.8798 95.2303 63.6779 95.163 63.4086 95.163C63.2067 95.163 62.9374 95.163 62.7355 95.2976L55.533 97.9228C55.1291 98.0574 54.7925 98.394 54.5906 98.7979C54.5233 98.9998 54.4559 99.2017 54.4559 99.471C54.4559 99.6729 54.4559 99.9422 54.5906 100.144L55.533 102.702L65.8992 98.8652L64.9568 96.24ZM69.6014 101.087L69.1976 100.01L67.784 100.548L55.2637 105.193L53.8501 105.731L54.254 106.808L58.9659 119.598V119.665V119.732L59.5044 121.146L60.8507 120.675L60.9853 120.607L73.4383 115.963L74.8519 115.424L74.3134 114.011L69.6014 101.087ZM95.719 179.91L73.1017 118.453L62.7355 122.29L85.3528 183.747C85.4201 183.949 85.5547 184.151 85.6893 184.286C85.8239 184.42 86.0259 184.555 86.2278 184.69C86.4298 184.757 86.6317 184.824 86.901 184.824C87.1029 184.824 87.3722 184.824 87.5741 184.69L94.7766 181.997C94.9786 181.93 95.1805 181.795 95.3151 181.661C95.4498 181.526 95.5844 181.324 95.719 181.122C95.7863 180.92 95.8536 180.718 95.8536 180.449C95.8536 180.314 95.8536 180.112 95.719 179.91ZM56.4753 119.396L52.5039 108.626C38.57 114.28 27.5979 129.089 26.319 136.695C26.1844 137.301 26.117 137.974 26.117 138.58C26.117 139.186 26.319 139.253 26.3863 139.32C26.5209 139.388 26.7902 139.522 27.3287 139.051L27.6653 138.715C38.2334 129.425 48.3978 122.627 56.4753 119.396Z" fill="white"/>
<path d="M335.824 69.99C336.026 70.4612 336.16 70.9997 336.093 71.5382C336.093 72.0767 335.958 72.6152 335.756 73.0864C335.352 74.0288 334.545 74.7692 333.602 75.1731C332.66 75.577 331.583 75.577 330.573 75.1731L333.737 67.8359C334.679 68.2398 335.42 69.0476 335.824 69.99Z" fill="#A6A8AB"/>
<path d="M297.992 54.5064L299.002 52.2178L296.511 57.8721L293.146 56.3912L294.626 52.9582L297.992 54.5064Z" fill="#A6A8AB"/>
<path d="M333.133 63.123L332.056 65.6809L327.883 75.3067L326.806 77.8646L307.554 69.4505C307.756 68.2388 307.554 67.0272 306.948 65.9502C306.342 64.8732 305.467 63.9981 304.323 63.5269C303.179 63.0557 301.967 62.9211 300.755 63.2577C299.544 63.5269 298.534 64.2674 297.794 65.2097L296.515 64.6039L302.909 49.8623L304.188 50.4008C304.054 51.3432 304.121 52.3529 304.525 53.228C304.861 54.103 305.467 54.9108 306.208 55.5166C306.948 56.1224 307.823 56.5263 308.833 56.6609C309.843 56.7956 310.785 56.7283 311.66 56.3917C312.603 56.0551 313.41 55.4493 314.016 54.6415L333.133 63.123Z" fill="#A6A8AB"/>
<path d="M313.202 18.3595L315.759 12.5706C316.231 14.5226 316.298 16.6094 315.894 18.6288C315.49 20.6482 314.615 22.4656 313.403 24.0811C312.192 25.6967 310.576 27.0429 308.826 27.918C307.009 28.8604 305.057 29.3316 303.037 29.3989C302.835 29.3989 302.566 29.4662 302.364 29.6008C302.162 29.7355 302.028 29.9374 301.893 30.1393L301.758 30.4759C301.691 30.6105 301.691 30.7452 301.691 30.8125L293.479 49.7275L283.112 73.6237C283.045 73.8257 282.978 74.0949 283.045 74.2969C283.045 74.4988 283.18 74.7681 283.314 74.9027C285.267 77.2587 286.344 80.2878 286.344 83.3168C286.411 86.4133 285.401 89.3751 283.516 91.7983C281.632 94.2216 279.006 95.9718 276.045 96.7122C273.083 97.4527 269.919 97.1834 267.159 95.9044C264.399 94.6255 262.111 92.4715 260.697 89.7116C259.284 86.9518 258.88 83.8554 259.486 80.8263C260.091 77.7972 261.707 75.1046 263.996 73.0852C266.351 71.0658 269.246 69.9888 272.342 69.8542C272.544 69.8542 272.814 69.7869 273.015 69.6522C273.217 69.5176 273.352 69.3157 273.487 69.1137L282.103 49.2563C282.17 49.1217 282.17 48.9871 282.17 48.9197L283.651 45.4868L292.132 25.764C292.2 25.562 292.267 25.3601 292.2 25.0908C292.2 24.8889 292.065 24.687 291.931 24.485C290.584 22.8695 289.642 20.9847 289.171 18.898C288.699 16.8786 288.699 14.7246 289.171 12.7052C289.642 10.6858 290.584 8.7337 291.931 7.11818C293.277 5.50266 294.96 4.22371 296.844 3.34863L294.017 9.94534C293.95 10.1473 293.883 10.3492 293.95 10.5512C293.95 10.7531 294.085 10.955 294.152 11.157L300.008 19.3019C300.143 19.5038 300.277 19.6385 300.479 19.7058C300.681 19.7731 300.883 19.8404 301.085 19.8404L312.192 19.0999C312.394 19.0999 312.663 19.0326 312.865 18.898C313 18.7634 313.134 18.5614 313.202 18.3595ZM280.083 83.3842C280.151 83.1822 280.218 82.9803 280.151 82.711C280.151 82.5091 280.016 82.3072 279.881 82.1052L275.977 77.124C275.843 76.9894 275.708 76.8548 275.506 76.7875C275.304 76.7201 275.102 76.6528 274.9 76.6528L268.64 77.1913C268.438 77.1913 268.236 77.2587 268.034 77.3933C267.832 77.5279 267.698 77.7298 267.63 77.9318L265.073 83.788C265.005 83.99 264.938 84.1919 265.005 84.4612C265.005 84.6631 265.14 84.8651 265.274 85.067L269.179 90.0482C269.313 90.1828 269.448 90.3174 269.65 90.4521C269.852 90.5194 270.054 90.5867 270.256 90.5867L276.583 90.0482C276.718 90.0482 276.785 89.9809 276.92 89.9809C277.054 89.9136 277.189 89.8462 277.324 89.7116C277.458 89.577 277.525 89.4424 277.593 89.3077L280.083 83.3842Z" fill="#A6A8AB"/>
<path d="M263.335 39.3615L280.298 46.766L279.625 48.3142C279.557 48.4488 279.557 48.5834 279.557 48.6507L278.884 50.1989L261.854 42.7945C261.652 42.7272 261.45 42.6598 261.181 42.7272L255.325 43.4676L244.42 35.39L246.305 31.0146L259.565 33.5052L262.729 38.8903C262.864 39.0922 263.066 39.2942 263.335 39.3615Z" fill="#A6A8AB"/>
<path d="M316.978 8.66659C318.122 11.0226 318.661 13.6478 318.594 16.273C318.526 18.8982 317.786 21.4561 316.507 23.7448C315.228 26.0334 313.411 27.9855 311.189 29.3991C308.968 30.8127 306.477 31.6877 303.852 31.8897L295.64 50.8047L299.006 52.2856L297.996 54.5743L294.63 53.0934L293.149 56.5263L296.515 58.0072L295.505 60.2959L292.14 58.815L285.543 74.0951C287.697 76.9896 288.774 80.4899 288.707 84.0575C288.639 87.6251 287.36 91.0581 285.139 93.8852C282.918 96.6451 279.821 98.5972 276.321 99.4722C272.821 100.28 269.186 99.9434 265.955 98.4625C262.724 96.9816 260.031 94.4911 258.348 91.3273C256.665 88.1636 256.127 84.5287 256.733 81.0284C257.339 77.5281 259.089 74.2971 261.714 71.8738C264.339 69.4505 267.705 67.9696 271.272 67.7003L277.802 52.6895L261.108 45.4197L255.117 46.1601C254.781 46.2274 254.511 46.0928 254.242 45.8908L242.126 36.9382C241.924 36.8035 241.722 36.5343 241.655 36.265C241.587 35.9958 241.587 35.7265 241.722 35.4573L244.414 29.2645C244.549 28.9952 244.684 28.7933 244.953 28.6586C245.222 28.524 245.491 28.4567 245.761 28.524L260.57 31.2839C260.772 31.2839 260.906 31.4185 261.041 31.4858C261.175 31.5531 261.31 31.6877 261.377 31.8897L264.608 37.4094L281.235 44.4773L289.582 25.3603C287.966 23.2063 286.956 20.7157 286.553 18.0905C286.149 15.4652 286.418 12.7727 287.36 10.2148C288.303 7.7242 289.784 5.43555 291.803 3.6854C293.822 1.93526 296.178 0.656305 298.804 0.050485C299.005 -0.0168283 299.275 -0.0168283 299.477 0.050485C299.679 0.117798 299.881 0.252425 300.015 0.454365C300.15 0.656305 300.284 0.858245 300.284 1.06018C300.284 1.26212 300.284 1.53138 300.217 1.73332L296.515 10.2148L301.563 17.2154L311.257 16.6096L314.689 8.66659C314.757 8.46465 314.959 8.26271 315.161 8.12808C315.363 7.99345 315.565 7.92614 315.834 7.92614C316.103 7.92614 316.305 7.99345 316.507 8.12808C316.709 8.26271 316.844 8.46465 316.978 8.66659ZM315.767 12.5708L313.276 18.3597C313.209 18.5616 313.007 18.7636 312.872 18.8982C312.67 19.0328 312.468 19.1001 312.266 19.1001L301.16 19.8406C300.958 19.8406 300.756 19.8406 300.554 19.706C300.352 19.6387 300.217 19.504 300.082 19.3021L294.226 11.1572C294.092 10.9552 294.024 10.7533 294.024 10.5514C294.024 10.3494 294.024 10.1475 294.092 9.94554L296.986 3.34884C295.101 4.22391 293.418 5.50286 292.072 7.11838C290.726 8.7339 289.851 10.6187 289.312 12.6381C288.774 14.6575 288.841 16.8115 289.312 18.8309C289.784 20.8503 290.726 22.7351 292.005 24.4179C292.14 24.6198 292.207 24.8218 292.274 25.0237C292.274 25.2257 292.274 25.4949 292.207 25.6969L283.591 45.487L282.11 48.9199C282.11 49.0546 282.043 49.1892 282.043 49.2565L273.292 69.1812C273.224 69.3832 273.023 69.5851 272.821 69.7197C272.619 69.8544 272.417 69.9217 272.147 69.9217C269.051 69.989 266.089 71.1333 263.801 73.1527C261.445 75.1721 259.829 77.8647 259.223 80.8938C258.618 83.9229 259.021 87.0866 260.435 89.7791C261.849 92.539 264.137 94.693 266.897 95.9719C269.724 97.2509 272.821 97.5201 275.85 96.7797C278.811 96.0392 281.504 94.2891 283.389 91.8658C285.274 89.4425 286.283 86.4134 286.216 83.317C286.149 80.2206 285.072 77.2588 283.12 74.8356C282.985 74.6336 282.918 74.4317 282.85 74.2297C282.85 74.0278 282.85 73.7585 282.918 73.5566L293.284 49.6604L301.496 30.7453C301.496 30.6107 301.563 30.4761 301.563 30.4088L301.698 30.0722C301.765 29.8703 301.967 29.6683 302.169 29.5337C302.371 29.3991 302.573 29.3318 302.842 29.3318C304.862 29.2645 306.881 28.726 308.631 27.8509C310.449 26.9085 311.997 25.6295 313.209 23.9467C314.42 22.3312 315.295 20.4464 315.699 18.4943C316.238 16.5422 316.238 14.5228 315.767 12.5708ZM280.225 46.7659L263.262 39.3615C262.993 39.2268 262.791 39.0922 262.724 38.8903L259.56 33.5052L246.299 31.0146L244.414 35.39L255.319 43.4676L261.175 42.7271C261.377 42.7271 261.647 42.7271 261.849 42.7944L278.879 50.1989L279.552 48.6507C279.552 48.5161 279.619 48.3814 279.619 48.3141L280.225 46.7659Z" fill="white"/>
<path d="M335.217 61.3051C335.351 61.3724 335.486 61.4398 335.621 61.5744C335.755 61.709 335.822 61.8436 335.89 61.9783C335.957 62.1129 335.957 62.3148 335.957 62.4494C335.957 62.5841 335.89 62.786 335.822 62.9206L334.745 65.4785C336.226 66.219 337.438 67.4306 338.111 68.9788C338.448 69.7866 338.582 70.5944 338.582 71.4694C338.582 72.3445 338.38 73.1523 338.044 73.96C337.707 74.7678 337.236 75.4409 336.63 76.0467C336.024 76.6526 335.284 77.1238 334.476 77.393C332.861 77.9988 331.111 77.9988 329.562 77.393L328.485 79.9509C328.351 80.2202 328.081 80.4894 327.812 80.624C327.543 80.7587 327.139 80.7587 326.87 80.624L305.464 71.2675C305.195 71.1329 304.926 70.8636 304.791 70.5944C304.656 70.2578 304.656 69.9212 304.791 69.652C305.06 68.9115 304.993 68.1038 304.724 67.4306C304.387 66.7575 303.849 66.1517 303.176 65.8824C302.502 65.5459 301.695 65.5459 300.954 65.8151C300.214 66.0844 299.608 66.6229 299.271 67.296C299.137 67.5653 298.867 67.8345 298.598 67.9691C298.262 68.1038 297.925 68.1038 297.656 67.9691L294.223 66.4882C294.088 66.4209 293.954 66.3536 293.819 66.219C293.684 66.0844 293.617 65.9497 293.55 65.8151C293.482 65.6805 293.482 65.4785 293.482 65.3439C293.482 65.2093 293.55 65.0074 293.617 64.8727L296.579 58.0741L299.069 52.4198L301.022 47.8425C301.156 47.5732 301.425 47.304 301.695 47.1693C301.964 47.0347 302.3 47.0347 302.637 47.1693L306.07 48.6502C306.339 48.7848 306.609 49.0541 306.676 49.3234C306.81 49.6599 306.81 49.9965 306.676 50.2657C306.541 50.6023 306.474 51.0062 306.474 51.4101C306.474 51.8139 306.541 52.1505 306.676 52.5544C306.81 52.891 307.012 53.2275 307.349 53.4968C307.618 53.766 307.955 53.968 308.291 54.1026C309.032 54.4392 309.84 54.4392 310.58 54.1699C310.917 54.0353 311.253 53.8333 311.522 53.5641C311.792 53.2948 311.994 52.9583 312.196 52.6217C312.33 52.3525 312.599 52.0832 312.869 51.9486C313.138 51.8139 313.474 51.8139 313.811 51.9486L335.217 61.3051ZM331.986 65.6805L333.063 63.1226L313.744 54.7084C313.138 55.5162 312.33 56.122 311.388 56.4586C310.513 56.7951 309.503 56.8624 308.561 56.7278C307.618 56.5932 306.743 56.1893 305.935 55.5835C305.195 54.9777 304.589 54.1699 304.253 53.2948C303.916 52.4198 303.781 51.4101 303.916 50.4677L302.637 49.9292L296.242 64.6708L297.521 65.2093C298.262 64.2669 299.339 63.5938 300.483 63.2572C301.695 62.988 302.906 63.0553 304.051 63.5265C305.195 63.9977 306.07 64.8727 306.676 65.9497C307.282 67.0268 307.484 68.2384 307.282 69.45L326.533 77.8642L327.61 75.3063L331.986 65.6805ZM335.822 73.085C336.024 72.6138 336.159 72.0753 336.159 71.5367C336.159 70.9982 336.092 70.4597 335.89 69.9885C335.486 69.0462 334.745 68.2384 333.87 67.8345L330.707 75.1717C331.649 75.5755 332.726 75.5755 333.736 75.1717C334.611 74.7678 335.351 74.0273 335.822 73.085Z" fill="white"/>
<path d="M279.951 82.173C280.086 82.3749 280.153 82.5769 280.221 82.7788C280.221 82.9808 280.221 83.25 280.153 83.452L277.595 89.3082C277.528 89.4429 277.461 89.5775 277.326 89.7121C277.192 89.8467 277.057 89.914 276.922 89.9814C276.788 90.0487 276.72 90.0487 276.586 90.0487L270.258 90.5872C270.056 90.5872 269.854 90.5872 269.652 90.4525C269.45 90.3852 269.316 90.2506 269.181 90.0487L265.277 85.0675C265.142 84.8655 265.075 84.6636 265.008 84.4617C265.008 84.2597 265.008 83.9905 265.075 83.7885L267.633 77.9323C267.7 77.7303 267.835 77.5284 268.037 77.3938C268.239 77.2591 268.441 77.1918 268.643 77.1918L274.97 76.6533C275.172 76.6533 275.374 76.6533 275.576 76.7206C275.778 76.7879 275.913 76.9226 276.047 77.1245L279.951 82.173ZM277.595 83.1154L274.566 79.2112L269.652 79.6151L267.7 84.1251L270.729 88.0293L275.643 87.6254L277.595 83.1154Z" fill="white"/>
<path d="M458 111.724L449.047 139.322L413.438 110.714L438.277 95.9053L458 111.724Z" fill="#A6A8AB"/>
<path d="M399.774 127.407L435.787 156.285C435.45 156.487 435.046 156.621 434.643 156.689L420.305 159.044C419.901 159.112 419.43 159.112 419.026 158.977C418.622 158.843 418.218 158.641 417.882 158.439L401.659 145.447C401.322 145.178 401.053 144.841 400.851 144.437C400.649 144.034 400.515 143.63 400.515 143.226L399.64 128.686C399.64 128.215 399.64 127.811 399.774 127.407Z" fill="#A6A8AB"/>
<path d="M445.748 151.909L441.17 157.698L438.209 155.342L400.109 124.782L397.147 122.426L401.59 116.839C401.657 116.771 401.725 116.771 401.725 116.704C401.792 116.637 401.792 116.569 401.859 116.502L407.716 109.098L410.677 111.454L448.777 142.014L451.739 144.37L445.748 151.909Z" fill="#A6A8AB"/>
<path d="M435.785 156.287L399.773 127.409C399.638 127.813 399.571 128.217 399.638 128.621L400.513 143.161C400.513 143.564 400.648 144.036 400.85 144.372C401.052 144.776 401.321 145.113 401.658 145.382L417.88 158.373C418.217 158.643 418.621 158.845 419.024 158.912C419.428 159.047 419.9 159.047 420.303 158.979L434.641 156.623C435.045 156.623 435.449 156.489 435.785 156.287ZM437.603 157.768C436.862 158.373 435.92 158.777 434.978 158.912L420.64 161.268C419.9 161.402 419.159 161.335 418.419 161.133C417.678 160.931 417.005 160.595 416.467 160.124L400.244 147.132C399.638 146.661 399.167 146.055 398.83 145.449C398.494 144.776 398.292 144.036 398.225 143.295L397.35 128.756C397.282 127.813 397.484 126.803 397.888 125.928L394.859 123.505C394.724 123.438 394.657 123.303 394.59 123.169C394.522 123.034 394.455 122.899 394.455 122.765C394.455 122.63 394.455 122.495 394.522 122.293C394.59 122.159 394.657 122.024 394.724 121.89L399.302 116.101L400.715 114.35L406.706 106.811C406.908 106.609 407.177 106.408 407.447 106.408C407.716 106.408 408.052 106.475 408.254 106.677L411.418 109.235L437.67 93.5507C437.872 93.4161 438.074 93.3487 438.343 93.4161C438.545 93.4161 438.815 93.5507 438.949 93.6853L459.884 110.446C460.086 110.581 460.22 110.783 460.287 110.985C460.355 111.187 460.355 111.456 460.287 111.658L450.864 140.805L454.027 143.363C454.162 143.43 454.229 143.564 454.297 143.699C454.364 143.834 454.431 143.968 454.431 144.103C454.431 144.238 454.431 144.372 454.364 144.574C454.297 144.709 454.229 144.843 454.162 144.978L448.171 152.517L446.758 154.267L442.18 160.056C442.113 160.191 441.978 160.258 441.844 160.325C441.709 160.393 441.574 160.46 441.44 160.46C441.305 160.46 441.171 160.46 441.036 160.393C440.901 160.325 440.767 160.258 440.632 160.191L437.603 157.768ZM438.209 155.344L441.171 157.7L445.748 151.911L451.739 144.372L448.777 142.016L410.678 111.456L407.716 109.1L401.86 116.505C401.792 116.572 401.792 116.639 401.725 116.706C401.658 116.774 401.658 116.841 401.59 116.841L397.148 122.428L400.109 124.784L438.209 155.344ZM449.046 139.324L457.999 111.725L438.276 95.9066L413.437 110.716L449.046 139.324Z" fill="white"/>
<path d="M375.334 138.178L374.863 138.784C375.065 138.514 375.2 138.38 375.334 138.178Z" fill="#A6A8AB"/>
<path d="M376.751 136.427L375.337 138.177C375.203 138.312 375.068 138.513 374.866 138.783C374.664 138.985 374.395 139.187 374.126 139.187C373.856 139.187 373.52 139.119 373.318 138.917C373.116 138.715 372.914 138.446 372.914 138.177C372.914 137.908 372.981 137.571 373.183 137.369L374.462 135.821C374.664 135.619 374.933 135.484 375.203 135.484C375.472 135.484 375.741 135.552 375.943 135.754L376.751 136.427Z" fill="#A6A8AB"/>
<path d="M475.501 155.612L468.837 150.294C468.702 150.227 468.567 150.16 468.433 150.093C468.298 150.025 468.163 150.025 467.961 150.025C467.827 150.025 467.692 150.093 467.558 150.16C467.423 150.227 467.288 150.362 467.221 150.429L458.807 160.997L453.018 156.353L448.171 152.449L446.758 154.199L450.729 157.362L432.151 180.787L376.819 136.428L375.406 138.178L430.737 182.538L428.785 184.961C428.381 185.499 427.91 186.105 427.574 186.172C427.439 186.172 427.17 186.172 426.564 185.634L374.194 143.63C372.713 142.419 372.309 141.948 373.79 140.063L374.867 138.649C374.665 138.851 374.396 139.053 374.127 139.053C373.857 139.053 373.521 138.986 373.319 138.784C373.117 138.582 372.915 138.313 372.915 138.043C372.915 137.774 372.982 137.438 373.184 137.236L374.463 135.688C374.396 135.755 374.396 135.755 374.396 135.822C374.396 135.822 374.059 136.293 372.107 138.649C369.617 141.746 370.626 143.563 372.848 145.381L425.218 187.384C426.16 188.125 427.035 188.461 427.91 188.394C429.189 188.259 429.929 187.249 430.603 186.307L452.547 158.709L457.461 162.613L450.797 170.96C450.662 171.094 450.595 171.229 450.595 171.364C450.527 171.498 450.527 171.633 450.527 171.835C450.527 171.969 450.595 172.104 450.662 172.239C450.729 172.373 450.864 172.508 450.931 172.575C451.066 172.642 451.2 172.71 451.335 172.777C451.47 172.844 451.604 172.844 451.806 172.777C451.941 172.777 452.076 172.71 452.21 172.642C452.345 172.575 452.479 172.441 452.547 172.306L459.884 163.084L468.298 152.516L473.212 156.42L470.856 159.314C470.654 159.516 470.587 159.853 470.587 160.122C470.654 160.391 470.789 160.661 470.991 160.863C471.193 161.065 471.529 161.132 471.798 161.132C472.068 161.132 472.337 160.93 472.539 160.728L475.568 156.959C475.77 156.757 475.837 156.42 475.837 156.151C475.837 156.083 475.703 155.814 475.501 155.612Z" fill="#A6A8AB"/>
<path d="M375.881 135.687L376.756 136.427L393.854 114.954C394.729 113.877 395.604 113.137 398.364 115.291L399.374 116.099L400.787 114.348L399.778 113.541C397.758 111.925 394.796 110.175 392.104 113.541L374.4 135.754C374.602 135.552 374.872 135.417 375.141 135.417C375.41 135.417 375.679 135.552 375.881 135.687Z" fill="#A6A8AB"/>
<path d="M390.477 520.854C390.477 520.854 391.554 536.673 391.217 537.75C390.88 538.827 317.644 540.308 317.644 540.308L337.03 528.595L353.522 518.633L390.477 520.854Z" fill="#364963"/>
<path d="M352.784 511.564L353.524 518.632L337.033 528.594L298.597 526.036L329.695 506.448L352.784 511.564Z" fill="#364963"/>
<path d="M317.72 540.307L390.553 520.853L353.598 518.632L317.72 540.307Z" fill="#28384C"/>
<path d="M298.672 526.036L352.859 511.564L329.838 506.381L298.672 526.036Z" fill="#28384C"/>
<path d="M150.373 533.441L118.938 513.112H85.2812L144.584 533.441H150.373Z" fill="#999999"/>
<path d="M201.199 514.729L164.176 494.063H136.443L193.862 514.729H201.199Z" fill="#999999"/>
<path d="M113.356 102.031C113.356 102.031 120.963 96.7137 122.78 89.3766C122.78 89.3766 116.386 87.4245 118.876 78.7411C121.434 70.0577 124.127 72.9521 124.8 74.2984C125.54 75.6447 125.742 78.8084 125.742 78.8084L129.04 78.0679L131.06 84.1935L134.964 80.8951C134.964 80.8951 132.204 68.6441 134.358 65.9515C143.446 64.0668 150.244 62.3839 156.975 57.8066C157.245 58.4125 158.591 61.7108 160.072 66.4227C162.697 74.8369 165.659 87.7611 163.168 98.06C160.408 109.369 152.062 113.811 144.994 112.061C140.686 118.86 143.042 123.976 143.042 123.976C137.051 123.101 120.02 108.83 114.837 104.051C114.299 103.512 113.76 102.772 113.356 102.031Z" fill="white"/>
<path d="M145.053 112.128C145.053 112.128 139.399 110.782 136.505 105.599C136.505 105.599 135.697 112.734 143.236 115.83C143.505 114.417 144.111 113.138 145.053 112.128Z" fill="#999999"/>
<path d="M332.532 97.52C342.428 101.491 370.901 93.9524 373.863 93.1446C379.517 92.9427 378.911 102.972 374.132 103.444C374.132 103.444 373.796 105.396 374.132 110.175C374.132 110.175 377.902 116.031 385.979 109.3C381.335 120.137 384.7 129.494 388.133 135.148C376.892 150.765 364.102 153.323 364.102 153.323C364.574 153.525 365.045 153.592 365.516 153.592C364.641 153.794 363.833 153.929 362.958 153.929C362.016 153.996 361.141 153.996 360.198 153.929C361.343 153.794 362.487 153.525 363.497 152.986C363.295 152.717 354.275 141.812 353.063 139.725L352.861 139.995C352.188 136.36 351.111 132.59 350.774 132.119L350.707 131.782C349.697 131.984 348.688 132.119 347.678 132.119C336.706 132.388 332.802 121.012 332.667 117.579C332.6 115.762 332.263 106.742 332.667 97.6546C332.532 97.5873 332.532 97.5873 332.532 97.52Z" fill="white"/>
<path d="M350.701 132.12C350.97 131.783 359.856 129.158 362.818 121.35C362.818 121.35 362.616 132.86 351.913 136.024L350.701 132.12Z" fill="#999999"/>
<path d="M394.998 84.5279C394.662 84.7972 394.325 85.0664 393.989 85.3357C388.604 88.9033 374.199 93.144 374.199 93.144C371.237 93.4133 368.41 93.6152 365.784 93.6825C363.63 71.7384 375.276 56.7275 375.276 56.7275C394.325 57.1314 394.998 84.5279 394.998 84.5279Z" fill="white"/>
<path d="M355.55 54.8426C358.646 53.1598 362.685 52.352 367.868 53.2271C367.868 53.2271 355.482 62.9875 355.886 77.7965L344.981 76.8541C344.981 76.8541 345.116 60.5643 355.55 54.8426Z" fill="white"/>
<path d="M367.864 53.2273C372.912 52.0829 375.201 56.7276 375.201 56.7276C375.201 56.7276 363.623 71.7384 365.71 93.6826C339.794 94.625 331.447 87.3551 331.447 87.3551C334.14 54.3043 355.142 54.9101 355.478 54.9101C344.977 60.6317 344.843 76.9216 344.843 76.9216L355.747 77.8639C355.478 62.9877 367.864 53.2273 367.864 53.2273Z" fill="white"/>
<path d="M373.926 93.1443C370.964 93.9521 342.491 101.424 332.596 97.5197C328.894 96.0388 327.749 92.9424 331.519 87.2881C331.519 87.2881 339.866 94.5579 365.781 93.6155C368.406 93.5482 371.234 93.3463 374.195 93.077L373.926 93.1443Z" fill="white"/>
<path d="M352.787 511.564L329.766 506.381L321.284 287.074L372.846 283.17L370.49 287.074L371.231 288.016L368 289.901L375.337 311.441L382.943 302.489L383.616 303.296C383.616 303.296 392.367 292.122 401.32 280.073L402.195 280.275L389.069 398.949L390.55 520.853L353.595 518.632L352.787 511.564Z" fill="black"/>
<path d="M394.05 138.042L395.598 142.081C394.655 141.609 393.578 141.206 392.569 140.936C390.886 139.186 389.338 137.167 388.126 135.08L394.05 138.042Z" fill="white"/>
<path d="M395.799 142.486C395.799 142.486 391.289 141.88 387.317 144.168L387.25 144.034C390.346 142.284 392.5 140.937 392.568 140.87C393.645 141.139 394.654 141.543 395.597 142.014L395.799 142.486Z" fill="white"/>
<path d="M386.173 144.978C382.336 147.872 370.758 153.796 365.508 153.594C372.172 152.18 381.461 147.401 387.25 144.103L387.317 144.237C386.913 144.439 386.51 144.641 386.173 144.978Z" fill="white"/>
<path d="M371.301 288.084L383.014 302.556L375.407 311.509L368.07 289.969L371.301 288.084Z" fill="white"/>
<path d="M374.196 103.444C378.975 103.04 379.648 93.0106 373.927 93.1452L374.196 93.0779C374.196 93.0779 388.601 88.8371 393.986 85.2695C394.457 93.1452 391.563 104.588 386.043 109.233C377.966 115.964 374.196 110.108 374.196 110.108C373.792 105.329 374.196 103.444 374.196 103.444Z" fill="black"/>
<path d="M364.099 153.256C364.099 153.256 376.888 150.698 388.129 135.081C389.408 137.235 390.889 139.187 392.572 140.937C392.438 141.005 390.351 142.284 387.254 144.101C381.465 147.332 372.176 152.179 365.512 153.592C365.041 153.525 364.57 153.458 364.099 153.256Z" fill="white"/>
<path d="M360.2 153.929C359.055 154.064 357.844 153.862 356.834 153.256C357.911 153.66 359.055 153.862 360.2 153.929Z" fill="white"/>
<path d="M352.99 139.726C354.269 141.88 363.222 152.717 363.423 152.986C362.346 153.457 361.269 153.794 360.125 153.929C358.981 153.861 357.836 153.659 356.759 153.256C353.798 151.505 353.394 147.197 353.394 147.197H353.124C353.124 146.659 353.192 146.188 353.192 145.649C353.326 144.303 353.057 142.149 352.653 139.928L352.99 139.726Z" fill="white"/>
<path d="M352.789 139.994C353.193 142.215 353.462 144.37 353.328 145.716C351.241 145.379 348.885 146.12 346.327 147.668L352.789 139.994Z" fill="white"/>
<path d="M346.331 147.667C348.889 146.119 351.245 145.378 353.332 145.715C353.264 146.186 353.264 146.724 353.264 147.263L346.264 147.801L346.331 147.667Z" fill="white"/>
<path d="M250.875 243.724C251.347 242.647 249.596 240.965 249.395 240.83L250.472 241.503C251.347 242.042 253.097 240.897 253.635 240.022C253.905 239.484 254.174 238.945 254.376 238.407C254.645 237.666 254.645 236.858 254.376 236.118C254.106 235.378 253.635 234.704 252.962 234.301L251.01 224.675C251.01 224.675 298.129 213.635 301.36 212.222C301.36 212.222 328.286 158.977 346.393 147.803L346.326 147.938L353.326 147.399C353.259 149.755 353.865 152.246 356.961 153.457C357.971 154.063 359.183 154.265 360.327 154.13C361.269 154.198 362.144 154.198 363.087 154.13C363.962 154.063 364.837 153.928 365.645 153.794C370.895 153.996 382.473 148.072 386.31 145.178C386.646 144.908 387.05 144.639 387.454 144.437C391.426 142.149 395.936 142.754 395.936 142.754L395.801 142.351C400.849 144.707 410.677 151.505 413.841 169.209C418.284 193.441 422.726 244.33 420.774 251.667C419.764 255.37 410.543 268.294 401.59 280.41C392.637 292.459 383.887 303.633 383.887 303.633L383.213 302.825L371.501 288.353L370.76 287.411L373.116 283.507L321.554 287.343L324.247 229.387C324.247 229.387 314.083 236.926 309.842 238.676C305.601 240.426 250.875 243.724 250.875 243.724Z" fill="#26276A"/>
<path d="M230.481 226.763C230.481 226.763 225.096 229.724 222.808 228.849C221.394 228.311 221.798 226.224 223.481 224.205C224.76 222.656 226.375 221.512 228.193 220.772C232.635 218.954 235.328 218.752 239.501 220.839C243.675 222.926 246.435 224.81 251.079 224.609L253.031 234.234C248.387 231.205 238.155 226.763 235.732 226.089C232.77 225.214 231.02 226.561 231.02 226.561L230.481 226.763Z" fill="white"/>
<path d="M222.807 247.158C216.547 246.889 219.98 241.234 219.98 241.234C220.25 241.975 220.788 242.917 222.134 243.658C223.884 244.735 230.01 247.831 234.453 250.12C229 255.505 227.654 250.12 227.654 250.12C223.279 251.399 222.807 247.158 222.807 247.158Z" fill="white"/>
<path d="M148.833 189.201C151.323 193.576 153.477 197.413 154.824 200.24C154.824 200.24 162.43 201.654 173.335 204.548C187.403 208.318 206.857 214.645 222.675 223.732L223.281 223.934L223.483 224.069C221.868 226.088 221.464 228.175 222.81 228.714C225.099 229.589 230.484 226.627 230.484 226.627L230.888 226.358C230.888 226.358 232.705 225.011 235.6 225.887C238.023 226.56 248.255 231.07 252.899 234.031C253.572 234.435 254.043 235.108 254.313 235.849C254.582 236.589 254.582 237.397 254.313 238.138C254.111 238.676 253.909 239.282 253.572 239.753C253.034 240.628 251.284 241.772 250.409 241.234L249.332 240.561C249.533 240.763 251.284 242.378 250.812 243.455C250.409 244.33 248.995 246.282 248.053 246.282C247.11 246.282 245.495 245.475 245.36 245.407C245.427 245.475 247.11 247.09 246.706 247.696C246.302 248.235 244.956 250.456 243.745 250.119C242.869 249.783 242.062 249.379 241.321 248.84C241.523 249.042 243.004 250.658 242.735 250.994C242.466 251.331 241.321 253.418 239.1 252.341C239.1 252.341 237.013 251.264 234.253 249.917C229.811 247.696 223.685 244.532 221.935 243.455C220.656 242.648 220.05 241.772 219.781 241.032C219.579 240.493 219.579 239.955 219.646 239.416C219.646 239.416 200.26 238.138 179.124 236.455C176.701 236.253 174.412 236.185 172.123 236.051C158.459 235.445 147.419 235.243 128.773 219.424C123.321 214.712 118.138 209.731 113.224 204.481L111.743 202.865C111.743 202.865 122.042 190.009 147.419 186.912C148.025 187.854 148.429 188.528 148.833 189.201Z" fill="white"/>
<path d="M208.198 518.633H136.51V514.729H201.198L208.198 518.633Z" fill="black"/>
<path d="M128.972 219.626C147.685 235.445 158.657 235.647 172.322 236.252L171.649 265.87C171.649 265.87 169.225 270.111 135.367 274.823C101.508 279.535 86.6992 270.784 86.6992 270.784C86.6992 270.784 118 270.851 128.972 219.626Z" fill="#F6861F"/>
<path d="M86.775 270.784C86.775 270.784 101.584 279.602 135.443 274.823C169.301 270.111 171.724 265.87 171.724 265.87C173.811 268.159 172.398 272.265 172.398 272.265C144.799 290.238 86.1692 284.179 85.3615 279.265C84.823 276.371 85.3615 273.409 86.775 270.784Z" fill="black"/>
<path d="M161.086 54.843C169.096 47.9771 176.5 51.3427 176.77 53.8333C176.77 54.0353 176.702 54.1699 176.702 54.3718C175.76 56.8624 168.154 66.0844 160.143 66.5556C158.662 61.8436 157.316 58.5453 157.047 57.9394C158.46 56.9297 159.807 55.9201 161.086 54.843Z" fill="#D17224"/>
<path d="M157.111 57.9397C150.447 62.4497 143.649 64.1999 134.494 66.0847C136.042 65.0076 137.456 63.796 138.802 62.517C142.774 58.8821 147.889 54.1029 154.284 50.9392C157.381 49.391 160.746 48.3813 164.179 47.9101C176.296 46.4292 176.902 52.0162 176.767 53.8336C176.498 51.343 169.093 47.9774 161.083 54.8433C159.804 55.9203 158.458 56.9974 157.111 57.9397Z" fill="#F6861F"/>
<path d="M150.373 533.441L157.037 537.749H85.2812V533.441H150.373Z" fill="black"/>
<path d="M148.83 189.201C149.167 189.336 163.706 195.596 172.12 189.336C172.794 194.384 173.197 199.5 173.332 204.549C162.427 201.587 154.821 200.241 154.821 200.241C153.475 197.413 151.321 193.577 148.83 189.201Z" fill="#F6861F"/>
<path d="M147.617 187.115C122.24 190.211 111.941 203.068 111.941 203.068C86.0251 175.469 79.0245 164.901 77.7456 152.987C77.4763 149.823 77.409 146.659 77.6782 143.496C78.1494 135.755 83.8711 127.61 90.6024 120.609C133.481 109.974 139.068 172.911 139.068 172.911C142.03 177.758 144.992 182.672 147.617 187.115Z" fill="white"/>
<path d="M96.13 115.29C96.7359 115.088 135.912 104.655 148.836 189.2C148.432 188.527 148.029 187.854 147.625 187.113C144.999 182.671 142.038 177.757 139.076 172.91C139.076 172.91 133.422 109.972 90.6104 120.608C92.4278 118.723 94.2453 116.973 96.13 115.29Z" fill="#F6861F"/>
<path d="M122.78 89.4427C120.963 96.7798 113.356 102.098 113.356 102.098C109.587 96.0394 108.442 84.3269 108.442 84.3269C111.539 80.4227 115.039 76.7878 118.943 73.6241C122.847 70.4603 127.492 67.5659 132.204 66.5562L134.56 66.085C132.406 68.7775 135.166 81.0285 135.166 81.0285L131.262 84.3269L129.242 78.2014L125.944 78.9418C125.944 78.9418 125.675 75.7781 125.001 74.4318C124.261 73.0855 121.568 70.1911 119.078 78.8745C116.318 87.4906 122.78 89.4427 122.78 89.4427Z" fill="black"/>
<path d="M114.979 49.8626C115.921 49.9299 116.931 49.6606 117.739 49.1221C118.412 48.7182 119.017 48.247 119.489 47.5739C119.758 47.5066 130.124 45.5545 138.808 62.3828C137.461 63.6618 135.98 64.8734 134.5 65.9504L132.144 66.4216C127.432 67.364 122.787 70.2585 118.883 73.4895C110.805 64.8061 114.306 52.0839 114.979 49.8626Z" fill="#F6861F"/>
<path d="M119.478 47.6411C119.814 47.1026 119.949 46.4968 119.747 46.0929V46.0256C121.362 42.1888 140.614 36.4671 154.279 50.9395C147.884 54.1032 142.768 58.8825 138.796 62.5174C130.046 45.6217 119.679 47.5738 119.478 47.6411Z" fill="#F6861F"/>
<path d="M119.755 46.0948C118.14 49.8643 115.043 49.5951 115.043 49.5951C114.908 49.6624 114.774 49.7297 114.639 49.8643C114.37 49.797 114.168 49.5951 114.033 49.3931C113.562 48.5854 114.437 47.1718 116.053 46.2967C117.601 45.287 119.284 45.2197 119.755 46.0948C119.755 46.0275 119.755 46.0948 119.755 46.0948Z" fill="#F6861F"/>
<path d="M85.2812 279.266C86.089 284.18 144.652 290.171 172.317 272.266L164.172 494.063H136.507L128.294 463.368L118.938 513.18H85.2812V279.266Z" fill="#F6861F"/>
<path d="M115.041 49.5257C115.041 49.5257 118.07 49.7949 119.753 46.0254C119.955 46.4293 119.82 47.0351 119.484 47.5736C119.012 48.1794 118.474 48.7179 117.733 49.1218C116.926 49.6603 115.916 49.9296 114.974 49.8622C115.041 49.6603 115.041 49.593 115.041 49.5257Z" fill="#F6861F"/>
<path d="M114.968 49.862C114.834 49.862 114.766 49.7946 114.632 49.7946C114.766 49.7273 114.901 49.66 115.036 49.5254C115.103 49.5927 115.036 49.66 114.968 49.862Z" fill="#F6861F"/>
<path d="M114.634 49.7949C114.769 49.8622 114.836 49.8622 114.971 49.8622C114.298 52.0163 110.797 64.8058 118.875 73.5565C115.038 76.7202 111.538 80.3552 108.374 84.2593C108.441 84.2593 95.1135 61.3055 114.634 49.7949Z" fill="#F6861F"/>
<path d="M114.971 104.116C120.087 108.895 137.184 123.233 143.175 124.041C143.175 124.041 166.398 145.177 172.187 189.402C163.773 195.595 149.233 189.335 148.897 189.267C136.04 104.722 96.8636 115.156 96.1904 115.357C101.575 110.511 107.297 106.136 113.355 102.164C113.759 102.837 114.298 103.51 114.971 104.116Z" fill="white"/>
<path d="M77.742 152.986C79.021 164.901 86.0215 175.469 111.937 203.067L113.418 204.683C118.332 209.933 123.515 214.915 128.967 219.627C117.995 270.785 86.762 270.785 86.762 270.785C72.2896 174.729 77.6074 153.39 77.742 152.986Z" fill="white"/>
<path d="M148.155 113.002C147.078 113.002 146.001 112.868 144.924 112.598C141.289 111.723 138.192 109.3 136.105 105.8L136.981 105.261C138.933 108.492 141.827 110.781 145.193 111.589C148.424 112.396 151.789 111.858 154.751 110.04C157.444 108.425 161.079 104.992 162.762 97.924C165.185 87.9617 162.425 75.3741 159.665 66.556C158.252 61.9787 156.905 58.7477 156.636 58.0073C156.569 57.8726 156.569 57.8053 156.569 57.6707H157.578C157.578 57.5361 157.511 57.4688 157.511 57.4688L157.578 57.5361C157.848 58.1419 159.194 61.5075 160.675 66.1522C163.435 75.0375 166.262 87.8271 163.771 98.0587C162.021 105.396 158.184 109.031 155.29 110.781C153.068 112.329 150.578 113.002 148.155 113.002Z" fill="black"/>
<path d="M153.942 51.2077C143.912 40.6396 131.594 41.8512 128.093 42.5243C123.718 43.3321 120.756 45.0149 120.285 46.2266L120.218 46.2939L119.275 45.89V45.8227C120.016 44.0725 123.516 42.3224 127.824 41.5819C131.459 40.9088 144.249 39.6299 154.615 50.6019L153.942 51.2077Z" fill="black"/>
<path d="M108.378 85.1349L107.974 84.4618C107.839 84.2598 94.6461 60.9694 114.436 49.3242L114.975 50.1993C107.032 54.8439 103.599 61.9791 104.743 71.2684C105.416 76.8554 107.638 81.6346 108.513 83.3848C111.542 79.6825 114.907 76.2495 118.61 73.2204C123.389 69.3163 127.899 66.9603 132.072 66.0852L134.428 65.614C143.314 63.7966 150.112 62.1137 156.844 57.6038C158.19 56.6614 159.536 55.6517 160.815 54.5747C166.065 50.0647 171.316 49.7954 174.412 51.0071C176.095 51.6802 177.172 52.7572 177.307 53.9015L176.297 54.0361C176.23 53.4303 175.489 52.5553 174.008 52.0168C171.114 50.8724 166.335 51.1417 161.421 55.3824C160.142 56.5267 158.728 57.5364 157.382 58.5461C150.516 63.1908 143.65 64.8736 134.63 66.7584L132.274 67.2296C128.235 68.0373 123.86 70.3933 119.215 74.1628C115.379 77.3266 111.878 80.8942 108.849 84.7983L108.378 85.1349Z" fill="black"/>
<path d="M177.166 54.5744L176.224 54.2378C176.291 54.1705 176.291 54.0359 176.291 53.9012L177.301 53.7666C177.301 54.0359 177.301 54.3051 177.166 54.5744Z" fill="black"/>
<path d="M160.204 67.0277L160.137 66.018C167.945 65.6142 175.417 56.3249 176.225 54.1709L177.167 54.5075C176.292 56.8634 168.618 66.5565 160.204 67.0277Z" fill="black"/>
<path d="M134.762 66.4896L134.156 65.6818C135.637 64.6048 137.118 63.3932 138.464 62.1142L139.339 61.3065C143.244 57.8062 148.023 53.4308 154.081 50.469C157.245 48.9208 160.61 47.8438 164.111 47.4399C169.63 46.7668 173.467 47.4399 175.554 49.4593C177.169 51.0075 177.304 52.9596 177.237 53.9693C177.237 54.1713 177.169 54.3732 177.169 54.5751L176.16 54.3732C176.16 54.2386 176.227 54.0366 176.227 53.902C176.294 53.0942 176.16 51.4787 174.813 50.1998C172.929 48.4496 169.294 47.8438 164.178 48.4496C160.812 48.9208 157.514 49.8632 154.485 51.4114C148.561 54.3059 143.782 58.6139 140.013 62.1142L139.137 62.922C137.791 64.1336 136.31 65.3453 134.762 66.4896Z" fill="black"/>
<path d="M138.39 62.7189C129.908 46.2944 120.013 48.0446 119.609 48.1792L119.407 47.1695C119.878 47.1022 130.447 45.1501 139.265 62.2477L138.39 62.7189Z" fill="black"/>
<path d="M118.537 73.895C110.325 65.0096 113.758 52.2201 114.498 49.7295L115.44 49.9987C114.7 52.3547 111.402 64.673 119.21 73.2218L118.537 73.895Z" fill="black"/>
<path d="M143.986 124.648L143.044 124.513C136.918 123.638 119.821 109.3 114.57 104.454C113.897 103.781 113.359 103.107 112.82 102.3C108.983 96.2415 107.906 84.7982 107.839 84.2597L108.849 84.1924C108.849 84.327 109.993 95.9049 113.695 101.761C114.099 102.502 114.638 103.107 115.243 103.713C120.898 108.964 136.043 121.484 142.303 123.369C141.832 121.551 141.226 117.243 144.592 111.858L145.467 112.397C141.361 118.859 143.515 123.773 143.582 123.84L143.986 124.648Z" fill="black"/>
<path d="M251.006 242.111C250.669 242.111 250.4 242.043 250.198 241.909L249.121 241.235L249.66 240.36L250.737 241.034C250.871 241.101 251.073 241.101 251.342 241.034C252.083 240.832 252.891 240.158 253.16 239.687C253.429 239.216 253.631 238.678 253.833 238.139C254.035 237.466 254.035 236.793 253.833 236.12C253.631 235.514 253.16 234.908 252.621 234.571C248.111 231.61 237.88 227.167 235.456 226.494C232.831 225.753 231.216 226.83 231.148 226.898L230.677 227.167C230.071 227.504 225.023 230.196 222.532 229.254C221.994 229.052 221.59 228.648 221.455 228.042C221.186 226.965 221.725 225.35 223.004 223.801C224.35 222.186 226.033 220.974 227.917 220.234C232.293 218.484 235.12 218.08 239.63 220.301C240.236 220.638 240.842 220.907 241.447 221.243C244.611 222.926 247.169 224.205 250.939 224.003C251.208 224.003 251.41 224.138 251.477 224.407L253.362 233.831C254.035 234.302 254.506 234.975 254.775 235.783C255.045 236.658 255.045 237.601 254.775 238.408C254.573 239.014 254.304 239.553 254.035 240.158C253.564 240.966 252.487 241.707 251.544 241.976C251.342 242.043 251.208 242.111 251.006 242.111ZM233.639 225.215C234.245 225.215 234.918 225.282 235.726 225.551C237.947 226.225 247.102 230.129 252.15 233.158L250.535 225.08C246.698 225.148 244.14 223.869 240.976 222.186C240.438 221.917 239.832 221.58 239.226 221.243C235.053 219.157 232.495 219.561 228.389 221.243C226.638 221.917 225.09 223.061 223.879 224.542C222.869 225.821 222.33 227.1 222.532 227.84C222.6 228.109 222.734 228.244 223.004 228.379C224.754 229.052 228.86 227.1 230.273 226.359L230.677 226.157C230.61 226.023 231.754 225.215 233.639 225.215Z" fill="black"/>
<path d="M248.986 241.099L249.727 240.426L248.986 241.099Z" fill="black"/>
<path d="M248.057 247.022C246.98 247.022 245.297 246.147 245.162 246.147L245.633 245.272C246.172 245.542 247.451 246.08 248.057 246.08C248.595 246.08 249.941 244.532 250.345 243.522C250.547 243.118 250.009 242.109 248.999 241.166L249.672 240.426C250.345 241.032 251.826 242.647 251.288 243.926C250.951 244.734 249.403 247.022 248.057 247.022C248.124 247.022 248.124 247.022 248.057 247.022Z" fill="black"/>
<path d="M244.143 250.928C244.009 250.928 243.874 250.928 243.739 250.861C242.797 250.524 241.922 250.053 241.114 249.514L241.72 248.706C242.461 249.245 243.201 249.649 244.076 249.918C244.345 249.985 245.018 249.716 246.297 247.831L246.365 247.697C246.297 247.428 245.759 246.62 245.086 246.081L245.759 245.341C246.567 246.081 247.778 247.428 247.172 248.235L247.038 248.437C246.567 249.245 245.422 250.928 244.143 250.928Z" fill="black"/>
<path d="M240.445 253.417C239.974 253.417 239.502 253.282 238.964 253.013C238.964 253.013 236.877 251.936 234.117 250.59C229.473 248.234 223.549 245.205 221.799 244.127C220.587 243.387 219.78 242.512 219.443 241.368C219.308 240.964 219.241 240.493 219.241 240.089C216.01 239.887 198.239 238.675 179.257 237.194C176.968 236.992 174.814 236.925 172.256 236.79H171.516C157.851 236.185 147.014 235.713 128.57 220.029C123.118 215.317 117.867 210.336 113.021 205.018L111.54 203.403C85.8934 176.074 78.4889 165.236 77.21 153.053L78.2197 152.918C79.4986 164.832 86.8358 175.535 112.28 202.73L113.761 204.345C118.608 209.596 123.858 214.577 129.243 219.289C147.485 234.704 158.121 235.175 171.583 235.781H172.324C174.882 235.915 177.036 235.983 179.324 236.185C200.191 237.8 219.645 239.146 219.847 239.146C219.981 239.146 220.116 239.214 220.183 239.348C220.251 239.483 220.318 239.618 220.251 239.752C220.183 240.223 220.183 240.695 220.318 241.098C220.587 241.973 221.26 242.714 222.203 243.252C223.953 244.262 229.809 247.291 234.454 249.647C237.214 251.061 239.3 252.07 239.3 252.07C240.781 252.811 241.589 251.869 242.195 251.061C242.128 250.859 241.791 250.32 240.916 249.445L241.656 248.772C243.272 250.522 243.407 251.128 243.07 251.599L243.003 251.734C242.397 252.811 241.454 253.417 240.445 253.417Z" fill="black"/>
<path d="M77.2084 153.054C76.9392 149.891 76.8719 146.66 77.1411 143.496C77.545 136.697 81.9204 128.889 90.1999 120.34C91.8827 118.59 93.7675 116.773 95.7869 114.955L96.4601 115.696C94.4407 117.513 92.6232 119.263 90.9404 121.013C82.8628 129.427 78.5547 137.034 78.1508 143.563C77.8816 146.727 77.9489 149.891 78.2181 152.987L77.2084 153.054Z" fill="black"/>
<path d="M96.5257 115.695L95.8525 114.954C101.238 110.108 107.027 105.665 113.085 101.693C113.152 101.626 120.22 96.6449 122.172 89.779C120.691 89.1058 116.181 86.346 118.402 78.6723C119.614 74.5662 120.96 72.4795 122.576 72.3448C123.788 72.2102 124.73 73.2199 125.268 74.1623C125.874 75.2393 126.144 77.326 126.278 78.3357L129.038 77.7299C129.307 77.6626 129.577 77.7972 129.644 78.0665L131.461 83.4515L134.558 80.8263C134.086 78.605 132 68.3733 134.086 65.8154L134.894 66.4213C133.279 68.4406 134.827 77.5953 135.567 80.8936C135.635 81.0956 135.567 81.2975 135.433 81.3648L131.529 84.6632C131.394 84.7978 131.259 84.7978 131.057 84.7978C130.923 84.7305 130.788 84.6632 130.721 84.4612L128.836 78.8069L125.942 79.48C125.807 79.48 125.672 79.48 125.538 79.4127C125.403 79.3454 125.336 79.2108 125.336 79.0762C125.268 78.2011 124.999 75.7778 124.393 74.7681C124.326 74.6335 123.586 73.3545 122.711 73.4891C122.037 73.5565 120.758 74.3642 119.412 79.1435C117.056 87.2884 122.711 89.1058 122.98 89.1731C123.249 89.2405 123.384 89.5097 123.316 89.779C121.432 97.1834 113.96 102.501 113.691 102.703C107.632 106.473 101.843 110.915 96.5257 115.695Z" fill="black"/>
<path d="M223.072 224.473L222.467 224.271C222.467 224.271 222.399 224.271 222.399 224.204C206.513 215.049 186.858 208.722 173.193 205.087C162.423 202.192 154.817 200.779 154.749 200.779C154.615 200.779 154.48 200.644 154.413 200.51C153.134 197.817 151.114 194.115 148.422 189.47L149.297 188.999C151.922 193.509 153.874 197.211 155.221 199.836C156.634 200.106 163.769 201.519 173.462 204.145C187.194 207.847 206.917 214.174 222.87 223.329L223.409 223.531L223.072 224.473Z" fill="black"/>
<path d="M148.422 189.471L147.21 187.384C144.854 183.345 141.96 178.498 138.662 173.181C129.238 157.901 119.41 142.688 119.275 142.553L120.15 142.015C120.218 142.149 130.113 157.362 139.537 172.642C142.835 178.027 145.73 182.807 148.085 186.845L149.297 188.932L148.422 189.471Z" fill="black"/>
<path d="M172.792 204.615C172.658 199.566 172.254 194.45 171.581 189.402C168.619 166.65 160.945 150.225 155.022 140.398C148.627 129.762 142.838 124.444 142.771 124.377L143.444 123.637C143.646 123.839 166.869 145.446 172.59 189.267C173.263 194.316 173.667 199.499 173.802 204.547L172.792 204.615Z" fill="black"/>
<path d="M116.32 276.776C96.1936 276.776 87.039 271.526 86.5678 271.189C86.4332 271.122 86.3659 270.987 86.2986 270.853C71.8935 175.402 77.0766 153.728 77.2786 152.853L78.2883 153.122C78.0863 153.997 72.9705 175.403 87.3083 270.449C88.1833 270.92 91.8856 272.738 98.6169 274.084C105.819 275.565 118.003 276.776 135.37 274.353C165.661 270.112 170.575 266.343 171.248 265.67L171.921 236.254H172.931L172.258 265.872C172.258 265.939 172.258 266.006 172.19 266.141C171.921 266.612 168.623 270.718 135.572 275.363C128.235 276.372 121.84 276.776 116.32 276.776Z" fill="black"/>
<path d="M117.402 284.854C103.333 284.854 91.4188 283.172 86.9088 281.152C85.6299 280.614 84.9567 280.008 84.8894 279.335C84.4182 276.306 84.9567 273.209 86.4376 270.517C86.5049 270.382 86.7069 270.247 86.9088 270.247C86.9761 270.247 94.7172 270.18 103.67 263.92C111.949 258.131 122.989 245.745 128.643 219.493L129.653 219.695C126.489 234.369 119.556 254.092 104.208 264.795C95.9288 270.584 88.7936 271.19 87.2454 271.257C85.9664 273.68 85.4952 276.44 85.9664 279.133C85.9664 279.2 86.1011 279.604 87.4473 280.142C97.7463 284.72 147.491 287.682 172.127 271.863C172.329 271.122 173.204 267.959 171.522 266.141L172.262 265.468C174.551 267.959 173.07 272.132 173.07 272.334C173.003 272.469 172.935 272.536 172.868 272.603C158.53 281.893 136.048 284.854 117.402 284.854Z" fill="black"/>
<path d="M119.013 513.651H85.3559C85.0866 513.651 84.8174 513.449 84.8174 513.112V279.266H85.8271V512.641H118.541L154.352 321.404L155.362 321.606L119.484 513.247C119.416 513.449 119.214 513.651 119.013 513.651Z" fill="black"/>
<path d="M164.179 494.534H136.514C136.312 494.534 136.11 494.4 136.042 494.198L127.83 463.435L128.772 463.166L136.917 493.524H163.708L171.853 272.266L172.863 272.333L164.718 494.13C164.718 494.332 164.449 494.534 164.179 494.534Z" fill="black"/>
<path d="M138.596 172.98C138.596 172.643 135.297 138.515 116.652 125.255C109.382 120.072 100.631 118.725 90.7361 121.149L90.4668 120.139C100.698 117.581 109.718 118.995 117.257 124.38C136.24 137.91 139.538 172.509 139.606 172.845L138.596 172.98Z" fill="black"/>
<path d="M162.423 192.633C155.893 192.633 149.633 190.075 148.623 189.671C148.489 189.604 148.354 189.469 148.287 189.267C144.585 164.698 136.036 132.791 116.717 120.271C105.812 113.203 96.6575 115.626 96.2536 115.761L95.9844 114.819C96.3883 114.684 106.014 112.193 117.255 119.463C128.093 126.464 142.431 144.235 149.229 188.863C151.316 189.671 164.24 194.518 171.779 188.998C171.846 188.931 171.914 188.931 171.914 188.863L171.981 188.796L172.587 189.604L172.52 189.671C172.452 189.738 172.385 189.738 172.318 189.806C169.49 191.96 165.923 192.633 162.423 192.633Z" fill="black"/>
<path d="M157.039 538.221H85.2826C85.0134 538.221 84.7441 538.019 84.7441 537.682V513.113H85.7538V537.211H155.288L118.67 513.517L119.209 512.642L157.241 537.211C157.443 537.346 157.51 537.548 157.442 537.749C157.442 538.086 157.241 538.221 157.039 538.221Z" fill="black"/>
<path d="M208.197 519.172H136.508C136.239 519.172 135.97 518.97 135.97 518.633V494.064H136.979V518.162H206.245L163.905 494.535L164.376 493.66L208.399 518.23C208.601 518.364 208.668 518.566 208.668 518.768C208.601 518.97 208.399 519.172 208.197 519.172Z" fill="black"/>
<path d="M150.373 532.97H85.2812V533.979H150.373V532.97Z" fill="black"/>
<path d="M201.198 514.189H136.51V515.199H201.198V514.189Z" fill="black"/>
<path d="M127.493 518.161H113.223V519.171H127.493V518.161Z" fill="black"/>
<path d="M133.348 521.931H119.347V522.94H133.348V521.931Z" fill="black"/>
<path d="M138.936 525.565H125.069V526.575H138.936V525.565Z" fill="black"/>
<path d="M172.995 498.438H158.59V499.447H172.995V498.438Z" fill="black"/>
<path d="M179.791 502.209H165.723V503.219H179.791V502.209Z" fill="black"/>
<path d="M186.323 505.911H172.322V506.921H186.323V505.911Z" fill="black"/>
<path d="M333.07 97.5205H332.061V97.6551H333.07V97.5205Z" fill="black"/>
<path d="M347.202 132.657C336.095 132.657 332.191 120.945 332.056 117.579C331.922 113.54 331.72 105.597 332.056 97.6543L333.066 97.7216C332.729 105.597 332.931 113.54 333.066 117.579C333.201 120.743 336.836 131.648 347.202 131.648C347.336 131.648 347.404 131.648 347.538 131.648C348.548 131.648 349.49 131.513 350.433 131.311C358.847 129.561 362.28 121.349 362.28 121.214L363.222 121.618C363.088 121.954 359.52 130.436 350.635 132.321C349.625 132.523 348.548 132.657 347.538 132.657C347.471 132.657 347.336 132.657 347.202 132.657Z" fill="black"/>
<path d="M387.662 135.352C384.094 129.428 380.796 120.004 385.508 109.1L386.45 109.503C381.94 120.072 385.104 129.092 388.537 134.881L387.662 135.352Z" fill="black"/>
<path d="M361.537 154.467C361.065 154.467 360.594 154.467 360.123 154.4L360.19 153.39C361.065 153.458 362.008 153.458 362.883 153.39C363.691 153.323 364.566 153.188 365.373 153.054L365.575 154.063C364.7 154.265 363.825 154.4 362.95 154.467C362.479 154.467 362.008 154.467 361.537 154.467Z" fill="black"/>
<path d="M356.622 153.727C353.93 152.717 352.584 150.563 352.651 147.197H353.661C353.593 150.159 354.603 151.842 356.959 152.784L356.622 153.727Z" fill="black"/>
<path d="M352.313 140.062C351.64 136.292 350.631 132.859 350.294 132.455L350.967 131.715L351.102 131.849C351.64 132.455 352.717 136.696 353.323 139.927L352.313 140.062Z" fill="black"/>
<path d="M378.908 113.002C378.571 113.002 378.235 113.002 377.898 112.934C375.138 112.531 373.859 110.511 373.792 110.444C373.725 110.376 373.725 110.309 373.725 110.242C373.388 105.463 373.725 103.511 373.725 103.443C373.792 103.241 373.927 103.039 374.196 103.039C376.485 102.837 377.696 100.078 377.562 97.6543C377.427 95.7695 376.485 93.8174 374.196 93.8174C374.129 93.8174 374.129 93.8174 374.061 93.8174V92.8077C376.687 92.7404 378.437 94.6252 378.639 97.587C378.841 100.414 377.427 103.511 374.802 103.982C374.734 104.722 374.6 106.607 374.869 110.04C375.138 110.376 376.283 111.723 378.235 111.992C380.456 112.329 383.014 111.319 385.841 108.963C391.226 104.52 394.053 93.2789 393.582 85.4033L394.592 85.3359C395.063 93.4135 392.034 105.059 386.447 109.703C383.687 111.857 381.129 113.002 378.908 113.002Z" fill="black"/>
<path d="M112.345 203.404L111.537 202.798C111.672 202.663 122.24 189.739 147.55 186.643L147.684 187.652C122.846 190.681 112.412 203.269 112.345 203.404Z" fill="black"/>
<path d="M230.143 253.014C229.873 253.014 229.604 252.947 229.402 252.879C228.123 252.543 227.518 251.331 227.248 250.725C226.037 250.994 224.96 250.86 224.152 250.321C223.008 249.581 222.604 248.302 222.402 247.629C220.652 247.494 219.44 246.888 218.901 245.811C217.824 243.792 219.44 241.032 219.507 240.897L220.382 241.436C220.382 241.436 218.969 243.859 219.776 245.34C220.18 246.148 221.257 246.552 222.806 246.619C223.075 246.619 223.277 246.821 223.277 247.09C223.277 247.09 223.479 248.706 224.623 249.446C225.296 249.917 226.239 249.985 227.383 249.581C227.517 249.514 227.652 249.581 227.787 249.648C227.921 249.716 227.989 249.85 228.056 249.985C228.056 249.985 228.46 251.6 229.672 251.937C230.749 252.206 232.229 251.466 234.047 249.783L234.787 250.523C232.97 252.139 231.489 253.014 230.143 253.014Z" fill="black"/>
<path d="M251.079 225.011L250.877 224.002C251.348 223.867 296.717 213.299 300.958 211.616C302.91 207.779 328.355 158.102 346.058 147.197L346.596 148.072C339.259 152.582 329.162 165.103 317.45 184.287C308.564 198.827 301.833 212.155 301.766 212.289C301.698 212.424 301.631 212.491 301.497 212.491C298.266 213.972 253.031 224.54 251.079 225.011Z" fill="black"/>
<path d="M250.877 244.195L250.81 243.185C269.657 241.974 306.074 239.416 309.372 238.002C313.478 236.252 323.575 228.848 323.643 228.78L324.248 229.588C323.845 229.925 314.017 237.127 309.776 238.945C305.535 240.762 253.166 244.06 250.877 244.195Z" fill="black"/>
<path d="M321.291 287.613C321.157 287.613 321.022 287.545 320.955 287.478C320.82 287.411 320.82 287.209 320.82 287.074L325.061 195.394L326.071 195.461L321.897 286.603L372.921 282.766L373.055 283.776L321.291 287.613C321.359 287.613 321.291 287.613 321.291 287.613Z" fill="black"/>
<path d="M383.687 303.835C383.553 303.835 383.418 303.768 383.283 303.633L370.09 287.411C369.955 287.276 369.955 287.007 370.023 286.805L399.439 238.676L383.149 170.757L384.159 170.488L400.516 238.676C400.516 238.811 400.516 238.945 400.448 239.08L371.1 287.074L383.62 302.556C385.437 300.268 393.111 290.373 400.92 279.872C415.728 260.014 419.498 253.35 420.037 251.331C421.921 244.263 417.681 194.317 413.103 169.074C410.007 151.775 400.65 145.043 395.333 142.553L395.736 141.61C401.189 144.168 410.882 151.169 414.113 168.872C418.354 192.23 423.066 243.859 420.979 251.533C420.171 254.629 413.642 264.39 401.727 280.41C392.842 292.325 384.091 303.499 384.024 303.633C383.957 303.768 383.822 303.835 383.687 303.835Z" fill="black"/>
<path d="M375.41 312.046H375.342C375.14 312.046 375.006 311.912 374.939 311.71L367.601 290.169C367.534 289.967 367.601 289.698 367.803 289.563L371.034 287.679L371.573 288.554L368.746 290.237L375.679 310.565L382.747 302.286L383.487 302.959L375.881 311.912C375.679 311.979 375.544 312.046 375.41 312.046Z" fill="black"/>
<path d="M390.481 521.325L353.526 519.104C353.257 519.104 353.055 518.902 353.055 518.633L331.447 311.51L332.457 311.375L353.997 518.094L390.01 520.248L388.529 398.882L401.79 280.209L402.799 280.344L389.539 398.95L391.02 520.787C391.02 520.921 390.952 521.056 390.885 521.191C390.75 521.325 390.616 521.325 390.481 521.325Z" fill="black"/>
<path d="M352.727 512.104L329.706 506.92C329.504 506.853 329.302 506.651 329.302 506.449L320.82 287.143L321.83 287.075L330.244 505.978L352.929 511.027L352.727 512.104Z" fill="black"/>
<path d="M317.715 540.778C317.513 540.778 317.311 540.644 317.244 540.442C317.177 540.24 317.244 539.971 317.446 539.836L353.324 518.161L353.862 519.036L319.6 539.701C347.333 539.163 387.317 538.086 390.817 537.278C390.952 535.595 390.414 526.441 390.01 520.786L391.019 520.719C391.221 523.344 392.096 536.672 391.76 537.817C391.558 538.355 391.423 538.826 354.401 539.836C336.226 540.442 317.85 540.778 317.715 540.778Z" fill="black"/>
<path d="M337.038 529.135L298.602 526.577C298.4 526.577 298.198 526.443 298.131 526.174C298.064 525.972 298.199 525.77 298.333 525.635L329.432 506.047L329.97 506.922L300.218 525.635L337.106 528.058L337.038 529.135Z" fill="black"/>
<path d="M340.601 99.1347C337.303 99.1347 334.409 98.7982 332.322 97.9904C330.437 97.25 329.226 96.1057 328.822 94.6921C328.216 92.74 328.956 90.1821 331.043 87.0183C331.11 86.8837 331.245 86.8164 331.38 86.8164C331.514 86.8164 331.649 86.8164 331.783 86.951C331.851 87.0184 340.332 94.0862 365.642 93.1439C368.267 93.0766 371.094 92.8746 374.056 92.6054C374.325 92.6054 374.527 92.74 374.595 93.0092C374.662 93.2785 374.46 93.5477 374.258 93.6151L373.989 93.6824C371.498 94.2882 353.122 99.1347 340.601 99.1347ZM331.649 88.028C329.966 90.6533 329.36 92.8073 329.831 94.3555C330.168 95.4998 331.178 96.3749 332.726 97.048C340.265 100.01 358.911 96.2403 368.402 94.0189C367.527 94.0863 366.652 94.0862 365.777 94.1536C342.89 94.9613 333.668 89.5089 331.649 88.028Z" fill="black"/>
<path d="M365.246 93.683C363.159 71.8061 374.737 56.526 374.804 56.3914C374.872 56.2568 375.006 56.1895 375.208 56.1895C394.594 56.6606 395.469 84.1918 395.469 84.461C395.469 84.5957 395.402 84.7303 395.267 84.8649C394.931 85.1342 394.527 85.4707 394.19 85.6727C388.805 89.2403 374.872 93.3464 374.266 93.5483L373.996 92.606C374.131 92.5386 388.402 88.3652 393.652 84.8649C393.921 84.663 394.19 84.461 394.46 84.2591C394.325 81.5666 392.71 57.8723 375.477 57.1992C374.131 59.0839 364.303 73.489 366.255 93.5483L365.246 93.683Z" fill="black"/>
<path d="M355.884 78.2672L344.912 77.3249C344.642 77.3249 344.44 77.0556 344.44 76.7864C344.44 76.5844 344.508 72.6129 345.854 67.7664C347.671 61.3716 350.903 56.727 355.345 54.3037L355.816 55.1788C346.662 60.16 345.585 73.6226 345.517 76.3152L355.412 77.1229C355.345 64.8046 363.961 55.9865 366.721 53.4286C362.548 52.8901 358.845 53.4959 355.816 55.1788L355.345 54.3037C358.845 52.4189 363.086 51.8131 367.933 52.6209C368.135 52.6209 368.269 52.8228 368.337 53.0248C368.404 53.2267 368.337 53.4286 368.135 53.5633C368 53.6306 355.951 63.3237 356.355 77.7287C356.355 77.8634 356.288 77.998 356.22 78.1326C356.153 78.2672 356.018 78.2672 355.884 78.2672Z" fill="black"/>
<path d="M374.8 56.9299C374.733 56.728 372.579 52.6892 368.002 53.6989L367.8 52.6892C373.185 51.4775 375.675 56.3914 375.743 56.4587L374.8 56.9299Z" fill="black"/>
<path d="M331.988 87.3557L330.979 87.2884C333.604 55.0454 353.327 54.3049 355.548 54.3722V55.3819C353.461 55.3146 334.546 55.9877 331.988 87.3557Z" fill="black"/>
<path d="M115.308 50.4008C115.174 50.4008 115.106 50.4008 114.972 50.4008C114.77 50.4008 114.635 50.3335 114.501 50.2662C114.164 50.1989 113.828 49.9297 113.626 49.5931C113.02 48.5161 113.962 46.8332 115.78 45.7562C116.991 45.0831 118.203 44.8138 119.145 45.0158C119.616 45.1504 119.953 45.4197 120.155 45.7562L120.222 45.8235C120.492 46.362 120.357 47.1025 119.886 47.8429C119.415 48.5161 118.741 49.1219 118.001 49.5258C117.193 50.1316 116.251 50.4008 115.308 50.4008ZM118.472 45.9582C117.866 45.9582 117.059 46.2274 116.318 46.6313C114.972 47.4391 114.231 48.5834 114.501 49.0546C114.568 49.1892 114.703 49.2565 114.837 49.2565C114.972 49.3238 115.039 49.3238 115.106 49.3238C115.914 49.3911 116.789 49.1892 117.53 48.718C118.136 48.3814 118.674 47.9103 119.078 47.3044C119.347 46.9006 119.415 46.4967 119.347 46.2274C119.28 46.0928 119.145 46.0255 118.943 45.9582C118.809 46.0255 118.607 45.9582 118.472 45.9582Z" fill="black"/>
<path d="M365.846 154.065C365.712 154.065 365.644 154.065 365.51 154.065C364.971 154.065 364.433 153.93 363.894 153.728C363.692 153.661 363.558 153.459 363.558 153.19C363.558 152.988 363.76 152.786 363.962 152.718C364.096 152.718 376.684 149.958 387.656 134.746C387.79 134.544 388.06 134.476 388.262 134.611L394.185 137.573C394.32 137.64 394.387 137.707 394.454 137.842L396.205 142.285C396.272 142.419 396.272 142.621 396.137 142.756C396.003 142.891 395.868 142.958 395.666 142.958C395.599 142.958 391.291 142.419 387.521 144.573C387.117 144.775 386.781 145.045 386.444 145.314C382.877 148.074 371.501 154.065 365.846 154.065ZM388.262 135.688C382.473 143.631 376.28 148.074 372.106 150.43C369.885 151.641 368 152.449 366.654 152.988C372.039 152.449 382.136 147.333 385.838 144.506C386.242 144.237 386.646 143.968 387.05 143.766C390.146 141.948 393.445 141.881 394.993 141.948L393.647 138.448L388.262 135.688Z" fill="black"/>
<path d="M359.523 154.465C358.513 154.465 357.504 154.196 356.629 153.725C354.071 152.244 353.263 149.013 353.061 147.734L345.118 148.34L345.993 147.33L353.128 138.849L353.465 139.454C354.205 140.666 357.908 145.378 363.629 152.379L363.764 152.311L363.966 152.715L364.235 153.052L364.168 153.119L364.235 153.254L363.831 153.456L363.495 153.725L363.427 153.658C362.418 154.061 361.408 154.331 360.331 154.465C359.994 154.465 359.725 154.465 359.523 154.465ZM353.936 146.657L354.004 147.128C354.004 147.195 354.407 151.234 357.1 152.782C358.042 153.321 359.119 153.523 360.129 153.388C361.004 153.321 361.879 153.119 362.687 152.782C359.591 148.946 354.609 142.887 352.994 140.531L347.407 147.128L353.936 146.657Z" fill="black"/>
</svg>
