<svg width="38" height="38" viewBox="0 0 38 38" fill="none" xmlns="http://www.w3.org/2000/svg">
<path d="M19 38C29.4934 38 38 29.4934 38 19C38 8.50659 29.4934 0 19 0C8.50659 0 0 8.50659 0 19C0 29.4934 8.50659 38 19 38Z" fill="#010973"/>
<path d="M25.2999 20.2V15.7C25.2999 12.8 23.2999 10.4 20.5999 9.6C20.5999 9.5 20.5999 9.5 20.5999 9.4C20.5999 8.5 19.8999 7.8 18.9999 7.8C18.0999 7.8 17.3999 8.5 17.3999 9.4C17.3999 9.5 17.3999 9.5 17.3999 9.6C14.6999 10.3 12.6999 12.8 12.6999 15.7V20.2L10.8999 23.5V24.8H27.0999V23.5L25.2999 20.2Z" stroke="white" stroke-miterlimit="10" stroke-linecap="round" stroke-linejoin="round"/>
<path d="M16.3999 24.8C16.3999 26.2 17.5999 27.4 18.9999 27.4C20.3999 27.4 21.5999 26.2 21.5999 24.8H16.3999Z" fill="white" stroke="white" stroke-miterlimit="10" stroke-linecap="round" stroke-linejoin="round"/>
</svg>
