<svg width="38" height="38" viewBox="0 0 38 38" fill="none" xmlns="http://www.w3.org/2000/svg">
<path d="M19 38C29.4934 38 38 29.4934 38 19C38 8.50659 29.4934 0 19 0C8.50659 0 0 8.50659 0 19C0 29.4934 8.50659 38 19 38Z" fill="#ECECEC"/>
<path d="M25.3004 20.2V15.7C25.3004 12.8 23.3004 10.4 20.6004 9.60005C20.6004 9.50005 20.6004 9.50005 20.6004 9.40005C20.6004 8.50005 19.9004 7.80005 19.0004 7.80005C18.1004 7.80005 17.4004 8.50005 17.4004 9.40005C17.4004 9.50005 17.4004 9.50005 17.4004 9.60005C14.7004 10.3 12.7004 12.8 12.7004 15.7V20.2L10.9004 23.5V24.8H27.1004V23.5L25.3004 20.2Z" stroke="#9D9D9D" stroke-miterlimit="10" stroke-linecap="round" stroke-linejoin="round"/>
<path d="M16.4004 24.8C16.4004 26.2 17.6004 27.4 19.0004 27.4C20.4004 27.4 21.6004 26.2 21.6004 24.8H16.4004Z" fill="#9D9D9D" stroke="#9D9D9D" stroke-miterlimit="10" stroke-linecap="round" stroke-linejoin="round"/>
</svg>
