<svg width="23" height="14" viewBox="0 0 23 14" fill="none" xmlns="http://www.w3.org/2000/svg">
<path d="M21.6835 7.02597C21.6835 7.02597 16.5654 12.7922 11.5 12.7922C6.43471 12.7922 1.36938 7.02597 1.36938 7.02597C1.36938 7.02597 6.48747 1.25974 11.5528 1.25974C16.6181 1.25974 21.6835 7.02597 21.6835 7.02597Z" fill="white" stroke="#010973" stroke-miterlimit="10"/>
<path d="M13.3468 7.44155C12.0804 7.44155 11.0251 6.40259 11.0251 5.15584C11.0251 4.48051 11.289 3.90908 11.7638 3.4935C11.6583 3.4935 11.6055 3.4935 11.5 3.4935C9.54776 3.4935 7.96484 5.05194 7.96484 6.97402C7.96484 8.8961 9.54776 10.4545 11.5 10.4545C13.4523 10.4545 15.0352 8.8961 15.0352 6.97402C15.0352 6.87012 15.0352 6.81817 15.0352 6.71428C14.6131 7.18181 14.0327 7.44155 13.3468 7.44155Z" fill="#FF8600"/>
</svg>
