<svg width="19" height="18" viewBox="0 0 19 18" fill="none" xmlns="http://www.w3.org/2000/svg">
<path d="M11.9161 16.6217L11.2828 12.1887L14.8671 14.9516L15.3197 15.3004L15.6054 14.8056L17.5523 11.4342L17.8383 10.9389L17.3092 10.7217L13.105 8.99491L17.3127 7.22915L17.8393 7.00817L17.5507 6.5154L15.6038 3.19148L15.3188 2.70475L14.8697 3.04618L11.2828 5.77375L11.916 1.37867L11.9983 0.807373H11.4211H7.47989H6.90339L6.98492 1.37808L7.6182 5.81111L4.03386 3.04818L3.58414 2.70152L3.29717 3.19148L1.3503 6.5154L1.06167 7.00817L1.58826 7.22915L5.79603 8.99491L1.59178 10.7217L1.06275 10.9389L1.34875 11.4342L3.29562 14.8056L3.58134 15.3004L4.03386 14.9516L7.6182 12.1886L6.98492 16.6217L6.90339 17.1924H7.47989H11.4211H11.9976L11.9161 16.6217Z" stroke="#C4C4C4"/>
</svg>
