<svg width="20" height="21" viewBox="0 0 20 21" fill="none" xmlns="http://www.w3.org/2000/svg">
<path d="M15.4728 13.1237C15.0666 12.7175 14.5979 12.4675 14.0666 12.4675C13.5666 12.4675 13.0667 12.6862 12.6604 13.0925L11.348 14.4049C11.2542 14.3424 11.1292 14.2799 11.0355 14.2487C10.8792 14.1862 10.7542 14.0924 10.6292 14.03C9.41051 13.2487 8.28554 12.2487 7.22307 10.9363C6.69183 10.2801 6.34809 9.71757 6.0981 9.18633C6.44184 8.87384 6.75433 8.56135 7.06682 8.24886C7.19182 8.12386 7.28557 7.99886 7.41056 7.90512C8.28554 7.03014 8.28554 5.90517 7.41056 5.03019L6.2856 3.90523C6.1606 3.78023 6.0356 3.65523 5.91061 3.49899C5.66061 3.24899 5.41062 2.96775 5.12938 2.71776C4.72314 2.31152 4.2544 2.12402 3.75441 2.12402C3.25443 2.12402 2.75444 2.34277 2.3482 2.71776L0.941991 4.12397C0.410755 4.65521 0.0982639 5.31144 0.0357656 6.06142C-0.0579818 7.28013 0.285759 8.4051 0.567001 9.12383C1.22323 10.9363 2.25446 12.6237 3.72317 14.4049C5.53562 16.5611 7.72306 18.2798 10.223 19.4986C11.1605 19.936 12.4417 20.4985 13.8791 20.561C13.9729 20.561 14.0666 20.561 14.1291 20.561C15.0979 20.561 15.8791 20.2173 16.5041 19.5298C16.5041 19.5298 16.5041 19.5298 16.5353 19.4986C16.7541 19.2486 17.0041 18.9986 17.254 18.7486C17.4415 18.5923 17.629 18.4048 17.7853 18.2173C18.1915 17.7798 18.4103 17.2799 18.4103 16.7799C18.4103 16.2799 18.1915 15.7799 17.7853 15.3737L15.4728 13.1237ZM16.9416 17.4986C16.7853 17.6861 16.6291 17.8423 16.4416 17.9986C16.1603 18.2486 15.9103 18.5298 15.6291 18.8423C15.2229 19.2798 14.7229 19.4986 14.0666 19.4986C14.0041 19.4986 13.9416 19.4986 13.8791 19.4986C12.6604 19.4048 11.5042 18.9361 10.6605 18.5298C8.31679 17.4049 6.25435 15.7799 4.53564 13.7487C3.12943 12.0613 2.19196 10.4675 1.56697 8.78009C1.19198 7.74887 1.03574 6.93639 1.09824 6.18641C1.12949 5.68643 1.31698 5.31144 1.66072 4.9677L3.09818 3.53024C3.28568 3.34274 3.50442 3.24899 3.72317 3.24899C3.97316 3.24899 4.1919 3.40524 4.3169 3.53024C4.56689 3.78023 4.81689 3.99897 5.06688 4.28022C5.19188 4.40521 5.31687 4.53021 5.47312 4.68645L6.59809 5.81142C7.03558 6.24891 7.03558 6.65515 6.59809 7.09264C6.47309 7.21764 6.34809 7.34263 6.25435 7.43638C5.91061 7.78012 5.56687 8.12386 5.22312 8.43635C5.22312 8.43635 5.19188 8.43635 5.19188 8.4676C4.84814 8.81134 4.91063 9.18633 4.97313 9.40508V9.43633C5.25437 10.1551 5.69186 10.8113 6.31684 11.6238C7.47306 13.03 8.66053 14.1237 10.0042 14.9674C10.1605 15.0612 10.348 15.1549 10.5042 15.2487C10.6605 15.3112 10.7855 15.4049 10.9105 15.4674C10.9417 15.4674 10.9417 15.4987 10.973 15.4987C11.1292 15.5612 11.2542 15.5924 11.3792 15.5924C11.7229 15.5924 11.9417 15.3737 12.0042 15.3112L13.4104 13.905C13.5666 13.7487 13.7854 13.5925 14.0354 13.5925C14.2854 13.5925 14.5041 13.7487 14.6291 13.905L16.9103 16.1861C17.379 16.6236 17.379 17.0299 16.9416 17.4986Z" fill="#C4C4C4"/>
<path d="M10.5667 5.6237C11.6604 5.81119 12.6292 6.31118 13.4104 7.09241C14.1916 7.87363 14.6916 8.87361 14.8791 9.93608C14.9104 10.2173 15.1603 10.4048 15.4416 10.4048C15.4728 10.4048 15.5041 10.4048 15.5353 10.4048C15.8478 10.3423 16.0353 10.0611 16.0041 9.74858C15.7853 8.43612 15.1603 7.24865 14.2229 6.27993C13.2854 5.34245 12.0667 4.71747 10.7542 4.49873C10.4417 4.43623 10.1605 4.65497 10.098 4.96746C10.0667 5.27995 10.2542 5.59245 10.5667 5.6237Z" fill="#C4C4C4"/>
<path d="M19.5665 9.62374C19.1915 7.46755 18.1915 5.49885 16.629 3.93639C15.0666 2.37393 13.0979 1.34271 10.9417 0.99897C10.6292 0.936472 10.348 1.15522 10.2855 1.46771C10.223 1.7802 10.4417 2.06144 10.7542 2.12394C12.6917 2.43643 14.4416 3.37391 15.8478 4.74887C17.254 6.15508 18.1603 7.90503 18.4727 9.84248C18.504 10.1237 18.754 10.3112 19.0352 10.3112C19.0665 10.3112 19.0977 10.3112 19.129 10.3112C19.4102 10.2175 19.5977 9.93623 19.5665 9.62374Z" fill="#C4C4C4"/>
</svg>
