<svg width="38" height="38" viewBox="0 0 38 38" fill="none" xmlns="http://www.w3.org/2000/svg">
<circle cx="19" cy="19" r="19" fill="#010973"/>
<path d="M21.008 11.7603L21.0083 17.7123L27.0273 17.7125C27.9228 17.7126 28.6482 18.4299 28.6483 19.3154C28.6483 19.7577 28.467 20.1584 28.1739 20.4482C27.8803 20.7385 27.4753 20.918 27.028 20.9176L21.008 20.9178L21.008 26.8703C21.0081 27.3126 20.8267 27.7133 20.5334 28.0034C20.2401 28.2934 19.8353 28.4727 19.3876 28.4727C18.4924 28.4727 17.767 27.7554 17.7666 26.8698L17.7664 20.918L11.7471 20.9178C10.8518 20.9178 10.1263 20.2003 10.1263 19.3151C10.1265 18.4302 10.8517 17.7132 11.7467 17.7127L17.7664 17.7125L17.7665 11.7602C17.767 10.875 18.4922 10.1579 19.387 10.1578C20.2824 10.1576 21.008 10.875 21.008 11.7603Z" fill="#F9F9FA"/>
</svg>
