<svg width="13" height="13" viewBox="0 0 13 13" fill="none" xmlns="http://www.w3.org/2000/svg">
<path d="M7.65419 1.92993L7.65439 5.7571L11.5247 5.75721C12.1005 5.75732 12.5669 6.21854 12.567 6.7879C12.567 7.07232 12.4504 7.32993 12.2619 7.51628C12.0732 7.70295 11.8127 7.81836 11.5251 7.81815L7.65419 7.81824L7.65422 11.6458C7.65424 11.9302 7.53763 12.1878 7.34901 12.3743C7.16044 12.5608 6.90014 12.6761 6.61229 12.6761C6.03664 12.6761 5.57019 12.2149 5.56997 11.6454L5.5698 7.81838L1.69939 7.81826C1.12372 7.81826 0.657173 7.35692 0.657173 6.78768C0.657338 6.21871 1.12361 5.75765 1.69911 5.75737L5.56985 5.75721L5.56987 1.92982C5.5702 1.36069 6.03653 0.899575 6.61186 0.899466C7.18764 0.899357 7.65419 1.36069 7.65419 1.92993Z" fill="#F9F9FA"/>
</svg>
