<svg width="300" height="292" viewBox="0 0 300 292" fill="none" xmlns="http://www.w3.org/2000/svg">
<path d="M190.332 207.898C190.332 207.382 200.502 196.735 201.754 191.353C201.955 190.531 202.108 189.748 202.232 188.992L202.633 189.059C204.851 189.308 212.306 190.608 214.495 191.086C231.317 194.909 289.144 212.477 296.8 254.972C308.566 320.273 307.696 446.02 301.923 456.802C293.646 472.267 276.116 469.552 262.372 467.211L258.931 466.628C226.07 461.227 173.605 456.075 162.135 454.938C160.616 454.795 159.096 454.709 157.576 454.689C150.8 454.623 128.634 454.441 85.5462 454.689C67.5501 454.871 49.5921 452.998 32.0206 449.108C9.91267 444.099 -3.69811 437.083 -5.94428 434.216C-9.64327 429.437 -2.49379 299.36 7.27462 249.82C17.2151 199.449 82.2964 188.648 101.403 186.555C99.0901 196.563 106.832 199.87 111.669 204.362C111.669 204.362 116.371 195.263 121.284 199.583C123.597 201.619 120.261 198.455 127.898 204.362C133.73 208.57 140.595 211.117 147.76 211.731C149.633 211.927 151.516 212.023 153.399 212.018C154.671 212.018 155.894 212.018 157.089 211.903C173.06 210.948 173.108 208.902 180.984 203.693C184.091 200.825 184.091 200.825 185.18 199.87C189.338 196.438 190.294 207.478 190.332 207.898ZM59.3091 378.616C59.3091 378.616 101.843 427.153 131.951 438.116C122.393 430.689 114.804 423.635 114.804 423.635V392.342C114.804 392.342 96.4329 361.823 59.2709 378.607L59.3091 378.616Z" fill="#010973"/>
<path d="M205.004 91.8531C205.357 91.5282 214.829 82.8685 214.084 96.5175C213.338 110.425 207.164 118.874 202.107 115.634C203.47 107.758 204.427 99.8176 204.975 91.8436L205.004 91.8531Z" fill="white"/>
<path d="M184.912 16.7837C219.761 25.9499 213.061 72.0775 213.061 72.0775C205.921 73.1193 198.427 73.8266 190.838 74.2759C191.125 72.154 195.78 35.4125 184.912 16.7837Z" fill="white"/>
<path d="M190.809 74.2759C198.398 73.8267 205.892 73.1194 213.031 72.0776C213.031 72.0776 211.12 75.2795 205.586 79.1219C197.423 84.7994 181.404 91.8629 152.232 91.8629C119.734 91.8629 105.12 82.4195 98.9933 76.1111C97.3432 74.5149 95.9903 72.6377 94.998 70.5674C94.998 70.5674 103.925 71.7335 117.718 72.8613C136.519 74.4002 164.323 75.8913 190.809 74.2759Z" fill="white"/>
<path d="M102.874 115.883C101.622 107.749 100.713 98.8213 100.102 91.4806C99.3562 82.6298 99.0312 76.092 99.0312 76.092C99.5283 76.7898 115.796 99.1367 154.048 99.1367C192.911 99.1367 205.662 79.0646 205.662 79.0646C205.662 79.0646 205.595 84.226 205.05 91.7961C204.503 99.77 203.545 107.711 202.183 115.586C200.596 124.428 198.292 133.269 194.966 140.046C193.155 143.734 190.698 147.068 187.712 149.89C186.622 150.917 185.47 151.875 184.261 152.758C183.094 153.629 181.878 154.433 180.619 155.166C180.266 155.377 179.912 155.587 179.549 155.778C177.528 156.885 175.429 157.844 173.269 158.646C172.485 158.932 171.711 159.21 170.956 159.449C168.763 160.161 166.529 160.739 164.266 161.179L163.033 161.398L161.905 161.58C159.897 161.867 158.693 161.924 158.693 161.924C152.606 162.337 146.492 161.884 140.533 160.576C139.93 160.433 139.328 160.28 138.736 160.108L137.78 159.831L136.413 159.382C135.993 159.238 135.562 159.085 135.142 158.923C134.301 158.598 133.479 158.254 132.647 157.881L131.424 157.298C126.127 154.575 121.32 150.99 117.201 146.688C114.322 143.753 111.622 140.647 109.115 137.388C106.353 134.177 104.355 125.603 102.874 115.883Z" fill="white"/>
<path d="M152.261 91.8627C181.433 91.8627 197.452 84.7993 205.615 79.1218C205.615 79.1218 192.903 99.1938 154.001 99.1938C115.768 99.1938 99.5196 76.8469 98.9844 76.1492C105.149 82.4193 119.745 91.8627 152.261 91.8627Z" fill="#E6E6E6"/>
<path d="M187.425 170.22C187.97 170.402 205.451 169.962 202.23 188.993C202.106 189.748 201.953 190.531 201.753 191.353C200.5 196.735 190.331 207.382 190.331 207.899C190.331 207.478 189.375 196.429 185.064 199.956C183.974 200.845 183.974 200.845 180.868 203.779C173.03 208.988 172.983 211.053 156.973 211.99C158.445 203.053 162.708 193.055 173.766 188.744C184.682 184.491 188.161 179.941 188.859 176.424C189.079 175.347 189.065 174.236 188.818 173.166C188.571 172.095 188.095 171.091 187.425 170.22Z" fill="white"/>
<path d="M184.91 16.7837C195.778 35.4125 191.123 72.154 190.836 74.2759C164.322 75.8912 136.517 74.4001 117.736 72.8517C116.942 66.7632 113.215 33.6634 123.241 16.2485C127.724 8.42035 135.045 3.79421 146.639 6.27933C145.751 9.75849 144.986 16.7933 145.951 30.9202H162.745C163.701 17.3094 163.003 10.2842 162.143 6.68077C173.297 4.50152 180.427 9.10854 184.91 16.7837Z" fill="white"/>
<path d="M187.425 170.22C188.098 171.084 188.578 172.082 188.831 173.147C189.085 174.213 189.108 175.32 188.896 176.395C188.24 174.38 187.751 172.315 187.434 170.22C187.434 170.22 187.415 170.201 187.425 170.22Z" fill="white"/>
<path d="M188.896 176.385C188.199 179.903 184.719 184.452 173.804 188.706C162.726 193.016 158.511 203.043 157.01 211.951C155.816 212.027 154.592 212.066 153.321 212.066C151.437 212.07 149.555 211.975 147.682 211.779C146.229 202.804 141.995 192.739 130.878 188.409C120.202 184.252 116.646 179.807 115.834 176.337C116.501 174.236 116.981 172.081 117.268 169.895C117.985 163.902 118.071 157.851 117.526 151.84C118.109 152.442 133.258 167.898 153.044 167.898C177.121 167.898 187.023 154.994 187.023 154.994C187.185 153.082 187.396 151.41 187.606 149.976C186.558 156.678 186.481 163.496 187.377 170.22C187.712 172.314 188.221 174.376 188.896 176.385Z" fill="white"/>
<path d="M187.607 149.967C186.518 150.993 185.365 151.951 184.156 152.834C185.365 151.951 186.517 150.993 187.607 149.967Z" fill="#E6E6E6"/>
<path d="M187.607 150.034C187.397 151.467 187.186 153.169 187.024 155.052C187.024 155.052 177.122 167.955 153.045 167.955C133.259 167.955 118.11 152.499 117.527 151.897C117.393 150.053 117.221 148.361 117.049 146.898C121.163 151.2 125.971 154.78 131.271 157.489L132.495 158.072C133.326 158.454 134.148 158.798 134.989 159.114C135.41 159.276 135.84 159.429 136.261 159.573L137.627 160.022L138.583 160.299C139.176 160.471 139.778 160.624 140.38 160.767C146.337 162.09 152.453 162.547 158.541 162.125C158.541 162.125 159.764 162.067 161.781 161.771L162.909 161.589C163.301 161.532 163.712 161.455 164.142 161.369C166.405 160.93 168.64 160.352 170.832 159.639C171.588 159.4 172.362 159.123 173.146 158.837C175.306 158.035 177.404 157.076 179.425 155.969C179.788 155.778 180.142 155.568 180.496 155.357C181.749 154.608 182.958 153.788 184.118 152.901C185.34 152.019 186.505 151.062 187.607 150.034Z" fill="#E6E6E6"/>
<path d="M162.898 161.503L164.131 161.283C163.701 161.408 163.29 161.503 162.898 161.503Z" fill="white"/>
<path d="M162.136 6.66142C162.996 10.2648 163.675 17.2901 162.738 30.9008H145.954C144.998 16.7739 145.753 9.73914 146.642 6.25998C147.397 3.39254 148.238 2.92419 148.238 2.92419C150.005 1.61434 152.146 0.907227 154.346 0.907227C156.545 0.907227 158.687 1.61434 160.453 2.92419C160.453 2.92419 161.371 3.4021 162.136 6.66142Z" fill="white"/>
<path d="M158.558 162.067C158.558 162.067 159.763 162.01 161.77 161.723C159.753 162.019 158.53 162.077 158.53 162.077C152.442 162.5 146.326 162.042 140.369 160.719C146.338 162.029 152.462 162.483 158.558 162.067Z" fill="white"/>
<path d="M130.879 188.419C141.996 192.749 146.23 202.814 147.683 211.789C140.517 211.175 133.653 208.628 127.821 204.419C120.174 198.532 123.52 201.695 121.207 199.64C116.294 195.301 111.591 204.419 111.591 204.419C106.755 199.927 99.0126 196.62 101.326 186.613C102.67 182.881 104.777 179.47 107.512 176.597C110.247 173.723 113.55 171.451 117.211 169.924C116.512 170.822 116.023 171.865 115.778 172.976C115.533 174.087 115.54 175.239 115.797 176.347C116.647 179.836 120.203 184.261 130.879 188.419Z" fill="white"/>
<path d="M132.504 158.024C133.335 158.397 134.157 158.741 134.999 159.066C134.148 158.751 133.326 158.406 132.504 158.024Z" fill="white"/>
<path d="M117.049 146.832C121.168 151.133 125.975 154.719 131.271 157.441C125.971 154.733 121.163 151.153 117.049 146.851V146.832Z" fill="white"/>
<path d="M117.527 151.849C117.383 150.005 117.211 148.323 117.039 146.86C117.211 148.313 117.393 150.033 117.527 151.849Z" fill="#E6E6E6"/>
<path d="M123.243 16.2197C113.217 33.5869 116.945 66.7345 117.738 72.823C103.945 71.6951 95.0181 70.529 95.0181 70.529C95.0181 70.529 88.3944 25.3955 123.243 16.2197Z" fill="white"/>
<path d="M100.081 91.4804C100.693 98.821 101.601 107.729 102.853 115.882C97.8065 119.027 92.1768 110.386 91.3834 96.5175C90.7717 84.3882 98.1793 89.8746 100.081 91.4804Z" fill="white"/>
<path d="M98.3236 76.7514C96.5871 75.0653 95.1632 73.0848 94.118 70.9018L93.5254 69.3916L95.1312 69.6019C95.2267 69.6019 104.202 70.7775 117.813 71.8863L117.65 73.7979C107.595 72.9759 100.054 72.1252 96.7369 71.7238C97.595 73.0703 98.5843 74.3286 99.6904 75.4801L98.3236 76.7514Z" fill="black"/>
<path d="M152.261 92.8185C137.924 92.8185 111.887 90.7348 98.334 76.78L99.7008 75.4418C105.311 81.2245 119.601 90.9069 152.271 90.9069C180.945 90.9069 196.831 84.0728 205.07 78.3379C207.164 76.9007 209.088 75.2301 210.805 73.3582C204.659 74.1802 197.958 74.811 190.857 75.2698C164.276 76.8947 136.375 75.3845 117.622 73.8456L117.785 71.934C136.452 73.4729 164.266 74.9735 190.742 73.3582C198.713 72.8898 206.169 72.1538 212.888 71.1693L214.895 70.873L213.873 72.6126C213.787 72.7464 211.76 76.0344 206.159 79.9437C197.691 85.7933 181.461 92.8185 152.261 92.8185Z" fill="black"/>
<path d="M94.0711 70.7011C93.9946 70.2328 87.7245 24.5927 122.994 15.3213L123.481 17.1756C89.8751 26.0073 95.8967 69.9747 95.9541 70.4239L94.0711 70.7011Z" fill="black"/>
<path d="M116.78 72.9663C115.939 66.4954 112.249 33.3574 122.41 15.7608C127.724 6.52768 135.953 3.01984 146.84 5.34247L146.448 7.2541C136.47 5.12263 128.938 8.32461 124.073 16.7549C114.228 33.8162 117.86 66.3998 118.692 72.756V72.8802H117.736L116.78 72.9663Z" fill="black"/>
<path d="M213.995 72.2112L212.084 71.9436C212.141 71.4848 218.249 26.552 184.633 17.7107L185.12 15.8564C220.438 25.1374 214.072 71.7429 213.995 72.2112Z" fill="black"/>
<path d="M191.763 74.4H189.851C189.843 74.3238 189.843 74.2468 189.851 74.1706C190.757 66.7381 191.162 59.2532 191.065 51.7663C190.865 36.7314 188.437 24.8124 184.05 17.2902C179.242 8.9937 171.93 5.7057 162.324 7.61732L161.951 5.7057C172.465 3.66026 180.437 7.20632 185.732 16.2674C196.896 35.4315 191.992 72.8229 191.763 74.4Z" fill="black"/>
<path d="M163.636 31.8759H145.055L144.997 30.987C144.041 16.5447 144.835 9.45255 145.714 6.0403C146.421 3.29711 147.272 2.42732 147.693 2.15014C149.622 0.752507 151.944 0 154.326 0C156.708 0 159.03 0.752507 160.959 2.15014C161.399 2.41776 162.326 3.33534 163.072 6.47041C164.247 11.3929 164.458 19.8518 163.693 30.9966L163.636 31.8759ZM146.842 29.9643H161.848C162.708 16.7454 161.982 10.1312 161.208 6.90053C160.644 4.50144 160.032 3.84193 159.937 3.7559C158.338 2.55916 156.395 1.91237 154.398 1.91237C152.401 1.91237 150.457 2.55916 148.859 3.7559L148.754 3.79414C148.149 4.60893 147.746 5.55563 147.578 6.55644C146.746 9.72018 145.963 16.3822 146.842 29.9643Z" fill="black"/>
<path d="M116.744 176.644L114.918 176.051C115.572 174.004 116.039 171.902 116.313 169.771C117.038 163.849 117.124 157.867 116.572 151.926C116.457 150.32 116.294 148.648 116.094 146.966V146.851H118.005C118.196 148.476 118.359 150.168 118.474 151.802C119.04 157.879 118.954 163.999 118.216 170.058C117.915 172.291 117.422 174.495 116.744 176.644Z" fill="black"/>
<path d="M31.7231 450.102C9.73939 445.103 -4.28239 438.058 -6.77707 434.866C-11.212 429.179 -2.82956 295.757 6.25067 249.696C16.2676 198.952 81.4732 187.855 101.211 185.657L101.431 187.568C82.0084 189.729 17.8925 200.606 8.13362 250.069C-2.01712 301.501 -8.41151 428.577 -5.25732 433.7C-3.22144 436.261 9.78718 443.172 32.1437 448.247L31.7231 450.102Z" fill="black"/>
<path d="M278.849 470.011C273.26 469.854 267.694 469.234 262.208 468.157L261.253 467.995L258.758 467.574C225.734 462.145 172.352 456.917 161.991 455.932C160.472 455.789 158.961 455.703 157.509 455.684C147.511 455.588 124.848 455.454 85.4975 455.684C67.4334 455.901 49.4038 454.047 31.7617 450.159L32.1918 448.247C49.6891 452.135 67.5747 454.001 85.4975 453.81C124.858 453.562 147.53 453.686 157.537 453.81C159.047 453.81 160.605 453.915 162.182 454.068C172.563 455.024 225.993 460.281 259.083 465.72L261.587 466.15L262.543 466.312C275.408 468.492 293.014 471.493 301.091 456.391C303.844 451.249 305.526 416.859 305 376.38C304.369 328.054 301.043 283.876 295.872 255.183C287.7 209.829 221.787 193.743 214.303 192.099C212.066 191.612 204.659 190.321 202.537 190.082L202.757 188.171C204.965 188.419 212.382 189.7 214.714 190.207C222.36 191.927 289.363 208.3 297.755 254.858C309.464 319.853 308.756 446.145 302.783 457.309C297.344 467.364 288.216 470.011 278.849 470.011Z" fill="black"/>
<path d="M187.942 176.682C187.264 174.619 186.762 172.502 186.441 170.354L188.353 170.067C188.668 172.109 189.144 174.123 189.777 176.089L187.942 176.682Z" fill="black"/>
<path d="M186.459 170.345C185.534 163.53 185.611 156.616 186.688 149.823L188.6 150.1C187.582 156.709 187.505 163.428 188.37 170.058L186.459 170.345Z" fill="black"/>
<path d="M162.565 455.97C155.683 455.311 145.188 449.557 131.395 438.871C121.837 431.501 114.258 424.409 114.191 424.333L113.895 424.056V390.774L115.29 391.491C125.689 396.882 234.442 397.083 246.992 397.083C239.068 357.512 239.234 316.747 247.479 277.243L249.391 277.625C241.113 317.262 241.019 358.172 249.113 397.847L249.352 398.994H248.158C243.312 398.994 133.116 399.08 115.797 393.737V423.214C117.297 424.6 124.198 430.861 132.571 437.361C145.886 447.674 156.314 453.447 162.746 454.068L162.565 455.97Z" fill="black"/>
<path d="M114.115 424.266C102.645 410.999 79.3425 385.326 73.3209 382.831L52.4746 378.052L52.5606 377.211C52.6275 376.599 58.7734 315.313 53.6025 269.51L55.5141 269.3C60.3696 312.369 55.2751 369.02 54.5583 376.561L73.9709 381.054C81.799 384.15 114.191 421.456 115.568 423.042L114.115 424.266Z" fill="black"/>
<path d="M205.949 91.9202L204.037 91.7864C204.572 84.331 204.639 79.1601 204.639 79.1123H206.551C206.56 79.1888 206.494 84.4075 205.949 91.9202Z" fill="black"/>
<path d="M154.144 163.138C149.437 163.192 144.74 162.691 140.151 161.647C139.539 161.503 138.918 161.35 138.316 161.169L137.876 161.044L137.341 160.872L136.939 160.748L136.691 160.672L135.945 160.423C135.515 160.27 135.075 160.117 134.636 159.945C133.794 159.62 132.963 159.276 132.103 158.884L130.851 158.292C125.456 155.522 120.562 151.872 116.37 147.491C113.458 144.534 110.732 141.399 108.207 138.105C105.78 134.989 103.715 127.763 101.909 116.016C100.57 107.347 99.6529 97.9225 99.1272 91.5473C98.3912 82.7825 98.0566 76.1969 98.0566 76.13L99.9683 76.0344C99.9683 76.1013 100.303 82.6582 101.039 91.3943C101.564 97.7314 102.473 107.108 103.801 115.729C105.971 129.751 108.217 134.999 109.718 136.939C112.204 140.165 114.879 143.242 117.727 146.153C121.776 150.376 126.498 153.897 131.701 156.571C132.103 156.772 132.495 156.963 132.906 157.145C133.718 157.518 134.521 157.852 135.343 158.167C135.744 158.32 136.165 158.473 136.576 158.607L137.379 158.884V158.837L137.971 159.075L138.803 159.324C139.396 159.496 139.979 159.639 140.571 159.783C146.446 161.066 152.474 161.51 158.474 161.102C158.474 161.102 159.659 161.044 161.59 160.767L162.87 160.557L163.903 160.375C166.14 159.945 168.349 159.377 170.517 158.674C171.262 158.435 172.027 158.167 172.792 157.881C174.907 157.076 176.961 156.117 178.938 155.013C179.301 154.822 179.635 154.621 179.96 154.421C181.198 153.701 182.395 152.913 183.545 152.06C184.722 151.189 185.846 150.248 186.909 149.24C189.82 146.501 192.219 143.265 193.992 139.682C196.859 133.737 199.306 125.593 201.122 115.471C202.487 107.631 203.445 99.7256 203.989 91.7862L205.901 91.92C205.361 99.9296 204.404 107.906 203.034 115.815C201.189 126.109 198.732 134.425 195.731 140.523C193.869 144.314 191.344 147.742 188.276 150.645C187.149 151.714 185.958 152.713 184.711 153.637C183.512 154.524 182.268 155.347 180.983 156.103C180.61 156.323 180.247 156.533 179.874 156.734C177.816 157.861 175.683 158.844 173.489 159.678C172.677 159.964 171.893 160.251 171.129 160.49C168.893 161.221 166.614 161.808 164.304 162.249C163.931 162.325 163.568 162.383 163.224 162.44L161.915 162.66C159.86 162.947 158.646 163.013 158.588 163.013C157.069 163.099 155.587 163.138 154.144 163.138Z" fill="black"/>
<path d="M204.323 117.297C203.35 117.29 202.399 116.998 201.59 116.456L202.613 114.85C203.095 115.175 203.659 115.358 204.24 115.379C204.821 115.399 205.397 115.256 205.901 114.965C208.988 113.378 212.591 106.917 213.127 96.4699C213.318 92.8378 212.773 90.5247 211.578 89.9608C210.068 89.2535 207.2 91.1269 205.642 92.5606L204.314 91.1843C205.145 90.4196 209.322 86.7971 212.391 88.2404C214.417 89.1962 215.258 91.9298 215.019 96.5846C214.503 106.334 211.196 114.411 206.77 116.657C206.017 117.062 205.178 117.282 204.323 117.297Z" fill="black"/>
<path d="M100.733 117.536C99.9208 117.528 99.1235 117.321 98.4099 116.934C94.1374 114.707 91.0215 106.735 90.4767 96.6132C90.2186 92.0157 91.0693 89.3012 93.0478 88.3072C95.6189 87.0264 98.9452 89.3203 100.694 90.8018L100.771 90.8687L99.4231 92.226C97.76 90.821 95.2653 89.3586 93.9176 90.0372C92.7419 90.6298 92.2067 92.9046 92.3978 96.5367C92.9809 107.223 96.3836 113.741 99.3179 115.261C99.7801 115.525 100.307 115.654 100.838 115.636C101.37 115.617 101.886 115.451 102.329 115.156L102.788 115.854L103.524 116.628L103.332 116.781C102.553 117.271 101.653 117.532 100.733 117.536Z" fill="black"/>
<path d="M153.313 213.031C151.397 213.037 149.483 212.938 147.578 212.735C140.245 212.097 133.22 209.488 127.248 205.184L128.385 203.655C134.092 207.754 140.798 210.237 147.798 210.842C150.844 211.146 153.91 211.2 156.964 211.005C170.078 210.24 172.114 208.787 177.036 205.27C177.992 204.582 179.082 203.808 180.363 202.957L181.424 204.544C180.162 205.385 179.091 206.149 178.145 206.828C173.07 210.46 170.747 212.114 157.117 212.917C155.846 212.993 154.613 213.031 153.313 213.031Z" fill="black"/>
<path d="M111.859 205.977L110.903 205.117C110.005 204.286 108.992 203.492 107.95 202.661C103.458 199.105 98.3918 195.072 100.361 186.412V186.307C101.769 182.443 103.963 178.914 106.804 175.941C109.645 172.968 113.072 170.617 116.868 169.035L117.174 169.905L117.881 170.593L117.709 170.765L117.508 170.832C113.989 172.309 110.814 174.498 108.182 177.261C105.55 180.025 103.519 183.303 102.215 186.89C100.514 194.345 104.7 197.662 109.135 201.17C109.862 201.743 110.607 202.336 111.324 202.938C112.366 201.265 114.669 198.159 117.527 197.624C118.295 197.489 119.084 197.539 119.829 197.77C120.574 198.001 121.253 198.406 121.809 198.952C122.258 199.354 122.536 199.583 122.612 199.631C122.975 199.745 123.52 199.927 128.347 203.674L127.171 205.184C123.348 202.259 122.23 201.523 121.943 201.428C121.656 201.332 121.417 201.179 120.509 200.386C120.169 200.037 119.751 199.774 119.289 199.619C118.826 199.465 118.334 199.423 117.852 199.497C115.405 199.956 113.073 203.53 112.375 204.869L111.859 205.977Z" fill="black"/>
<path d="M146.735 211.942C144.824 200.386 139.414 192.768 130.487 189.308C121.253 185.714 115.987 181.422 114.859 176.567C114.569 175.316 114.563 174.016 114.841 172.762C115.118 171.509 115.673 170.333 116.465 169.322L117.946 170.526C117.34 171.311 116.916 172.22 116.704 173.189C116.493 174.158 116.499 175.161 116.723 176.127C117.392 178.995 120.451 183.353 131.184 187.53C140.609 191.2 146.621 199.535 148.58 211.636L146.735 211.942Z" fill="black"/>
<path d="M189.375 207.908C189.069 204.63 188.085 200.787 186.861 200.261C186.565 200.128 186.164 200.261 185.667 200.682C184.596 201.552 184.596 201.552 181.518 204.438L180.209 203.043C183.344 200.118 183.344 200.118 184.453 199.22C184.85 198.807 185.36 198.52 185.918 198.392C186.477 198.265 187.06 198.303 187.597 198.503C190.264 199.621 191.057 205.375 191.277 207.803V207.898L189.375 207.908Z" fill="black"/>
<path d="M191.191 208.281C191.26 208.166 191.293 208.033 191.286 207.899H189.375C189.375 207.411 189.528 207.229 191.401 205.031C194.183 201.743 199.956 194.899 200.816 191.172C200.998 190.436 201.15 189.681 201.284 188.878C202.192 183.477 201.466 179.234 199.124 176.261C196.782 173.289 192.988 171.616 187.788 171.253L186.488 172.553V170.249H187.444L186.775 169.57L187.119 169.226L187.826 169.341H187.941C193.676 169.742 197.977 171.664 200.644 175.076C203.311 178.488 204.19 183.248 203.186 189.193C203.043 190.044 202.89 190.837 202.699 191.621C201.743 195.779 196.008 202.603 192.883 206.264C192.108 207.134 191.325 208.061 191.191 208.281Z" fill="black"/>
<path d="M157.947 212.161L156.035 211.856C158.014 199.822 164.026 191.525 173.421 187.874C184.346 183.611 187.338 179.205 187.921 176.261C188.099 175.324 188.078 174.359 187.859 173.431C187.64 172.502 187.228 171.63 186.65 170.87L188.131 169.666C188.891 170.641 189.434 171.767 189.722 172.969C190.011 174.171 190.039 175.42 189.804 176.634C188.848 181.604 183.534 185.982 174.119 189.652C165.287 193.045 159.839 200.625 157.947 212.161Z" fill="black"/>
</svg>
