<svg width="18" height="21" viewBox="0 0 18 21" fill="none" xmlns="http://www.w3.org/2000/svg">
<path d="M16.9076 17.6825C16.9076 18.7812 16.6814 19.3252 16.4018 19.6045C16.1271 19.8789 15.6916 20.007 14.9848 19.9942C14.3726 19.9832 13.6553 19.8706 12.8153 19.7389C12.6842 19.7183 12.5501 19.6973 12.413 19.6761C11.4162 19.5221 10.292 19.3667 9.10481 19.3667C7.91762 19.3667 6.79347 19.5221 5.79664 19.6761C5.65949 19.6973 5.52539 19.7183 5.39428 19.7389C4.55438 19.8706 3.83698 19.9832 3.22481 19.9942C2.51801 20.007 2.08251 19.8789 1.80785 19.6045C1.52825 19.3252 1.302 18.7812 1.302 17.6825C1.302 13.3731 4.79544 9.87964 9.10481 9.87964C13.4142 9.87964 16.9076 13.3731 16.9076 17.6825Z" stroke="#C4C4C4"/>
<circle cx="9.10482" cy="4.59481" r="3.45516" stroke="#C4C4C4"/>
</svg>
