<svg width="300" height="270" viewBox="0 0 300 270" fill="none" xmlns="http://www.w3.org/2000/svg">
<path d="M108.051 437.553C111.881 439.575 127.838 440.532 148.051 440.958H149.753C195.71 441.915 262.306 440 262.306 440C238.051 322.021 276.987 256.17 284.966 244.787C297.519 254.894 307.519 267.872 310.498 284.575C323.583 357.234 322.625 497.234 316.242 509.255C306.987 526.489 287.519 523.404 272.2 520.851L268.37 520.213C232.306 514.255 174.859 508.617 161.136 507.341C143.476 505.532 108.051 472.447 108.051 472.447V437.553Z" fill="white"/>
<path d="M89.2208 208.723C89.2208 208.723 98.7953 260.319 154.859 260.319C210.391 260.319 219.859 216.596 220.072 215.638C226.88 217.234 233.583 219.149 240.072 221.383C188.051 409.149 168.051 418.298 149.646 441.064H147.944C99.9655 382.234 65.2847 213.191 65.2847 213.191C73.2634 211.17 81.2421 209.681 89.2208 208.723Z" fill="#ECECEC"/>
<path d="M216.987 215L220.072 215.745C219.859 216.702 210.285 260.426 154.859 260.426C98.7952 260.426 89.2207 208.83 89.2207 208.83C93.9016 208.298 96.6675 208.191 96.6675 208.191C111.668 208.191 112.199 184.681 111.029 170C111.029 170 128.157 187.872 150.604 187.872C177.412 187.872 188.476 173.511 188.476 173.511C187.199 188.085 188.689 212.553 211.774 214.255C213.476 214.362 215.285 214.574 216.987 215Z" fill="white"/>
<path d="M218.476 108.298C217.625 123.83 210.817 132.979 205.178 129.468C206.668 120.745 207.731 111.915 208.37 103.085C208.37 103.085 219.327 92.8723 218.476 108.298Z" fill="white"/>
<path d="M186.029 19.5745C224.859 29.7872 217.306 81.1702 217.306 81.1702C209.327 82.3404 201.029 83.0851 192.625 83.617C192.731 82.6596 198.37 40.6383 186.029 19.5745Z" fill="#FF8600"/>
<path d="M186.029 19.5747C198.369 40.6385 192.731 82.6598 192.625 83.6173C163.05 85.4258 132.093 83.7236 111.242 82.0215C110.391 75.1066 106.135 37.3407 117.837 18.2981C122.944 10.1066 130.923 5.31939 143.369 7.97896C142.412 11.8087 141.561 19.6811 142.625 35.4258H161.348C162.412 20.3194 161.667 12.447 160.71 8.40449C173.157 5.8513 181.029 11.0641 186.029 19.5747Z" fill="#FF8600"/>
<path d="M145.179 4.14884C147.093 2.65948 149.54 1.91479 151.987 1.91479C154.434 1.91479 156.774 2.65948 158.796 4.14884C158.796 4.14884 159.859 4.68075 160.711 8.29777C161.668 12.3403 162.413 20.1063 161.349 35.3191H142.625C141.562 19.5744 142.413 11.8084 143.37 7.87224C144.328 4.68075 145.179 4.14884 145.179 4.14884Z" fill="#FF8600"/>
<path d="M240.178 221.489C254.114 226.276 271.135 233.723 285.072 244.894C276.987 256.276 238.157 322.128 262.412 440.106C262.412 440.106 195.816 442.021 149.859 441.064C168.157 418.298 188.157 409.255 240.178 221.489Z" fill="#FF8600"/>
<path d="M8.05078 242.447C24.3274 226.383 46.987 217.66 65.3912 213.085C65.3912 213.085 99.9657 382.128 148.051 440.958C127.838 440.532 111.881 439.468 108.051 437.553C108.051 437.553 87.6253 403.617 46.2423 422.234L31.455 418.936C31.455 418.936 49.5401 258.404 8.05078 242.447Z" fill="#FF8600"/>
<path d="M158.157 507.021C158.157 507.021 152.093 506.915 138.476 506.915C125.178 506.915 104.646 506.915 75.3908 507.021C55.3908 507.234 35.3908 505.106 15.8164 500.851C-8.86448 495.213 -23.9709 487.447 -26.524 484.255C-30.673 478.936 -22.6943 334.149 -11.8432 279.043C-9.07724 265.106 -2.16235 252.34 7.94404 242.553C49.4334 258.511 31.3483 418.936 31.3483 418.936L46.0291 422.34L61.9866 426.064C70.4972 429.468 107.838 472.553 107.838 472.553C107.838 472.553 143.37 505.638 160.923 507.447L158.157 507.021Z" fill="white"/>
<path d="M117.838 18.1915C106.136 37.3404 110.391 75.1064 111.243 81.9149C95.9234 80.6383 85.9234 79.3617 85.9234 79.3617C85.9234 79.3617 78.5829 28.0851 117.306 17.8723L117.838 18.1915Z" fill="#FF8600"/>
<path d="M111.029 169.893C110.816 167.872 110.71 165.957 110.497 164.362C124.22 178.191 137.625 182.234 156.667 181.276C156.667 181.276 175.71 180.425 189.008 167.766C188.795 169.362 188.582 171.276 188.369 173.404C188.369 173.404 177.306 187.766 150.497 187.766C128.157 187.766 111.029 169.893 111.029 169.893Z" fill="#E6E6E6"/>
<path d="M91.5615 102.766C92.3062 110.957 93.2636 120.851 94.6466 129.894C89.0083 133.404 82.7317 123.723 81.8806 108.298C81.2423 94.7871 89.5402 100.957 91.5615 102.766Z" fill="white"/>
<path d="M90.3911 85.6382C97.1996 92.6595 113.476 103.191 149.646 103.191C182.093 103.191 199.966 95.319 209.008 89.0424C208.583 89.6807 195.71 110.425 149.753 110.957C103.795 111.489 90.8166 86.3829 90.3911 85.6382Z" fill="#E6E6E6"/>
<path d="M209.008 88.9361C209.008 89.2552 208.902 94.8935 208.37 103.085C207.732 111.915 206.668 120.745 205.178 129.468C203.37 139.362 200.817 149.255 197.093 156.808C195.072 160.957 192.306 164.574 189.008 167.766C175.71 180.425 156.668 181.276 156.668 181.276C137.625 182.234 124.221 178.191 110.497 164.255C107.306 160.957 104.221 157.553 101.455 153.936C98.5826 150.213 96.3486 140.638 94.6464 129.894C93.2635 120.851 92.1996 110.957 91.5613 102.766C90.7103 92.8722 90.3911 85.6382 90.3911 85.6382C90.8166 86.3829 103.689 111.489 149.753 110.957C195.71 110.319 208.689 89.5744 209.008 88.9361Z" fill="white"/>
<path d="M192.625 83.5107C201.03 82.9788 209.434 82.2342 217.306 81.0639C217.306 81.0639 215.179 84.5746 209.008 88.9363C199.966 95.2129 182.094 103.085 149.647 103.085C113.477 103.085 97.1999 92.5533 90.3914 85.532C88.5829 83.7235 87.0936 81.7022 85.9233 79.3618C85.9233 79.3618 95.817 80.6384 111.242 81.915C132.2 83.7235 163.157 85.3193 192.625 83.5107Z" fill="#FF8600"/>
<path d="M89.6466 86.3828C87.7317 84.4679 86.136 82.3402 84.9658 79.8934L84.8594 79.5743L86.0296 78.4041C86.136 78.4041 96.136 79.6806 111.242 80.9572L111.03 83.0849C99.8594 82.1275 91.4551 81.17 87.7317 80.7445C88.6892 82.2338 89.753 83.6168 91.0296 84.8934L89.6466 86.3828Z" fill="black"/>
<path d="M149.646 104.149C133.689 104.149 104.753 101.809 89.6465 86.2767L91.1358 84.7873C97.4124 91.1703 113.264 102.021 149.646 102.021C181.561 102.021 199.221 94.4681 208.37 88.0852C211.455 85.9575 213.583 83.9362 214.753 82.5533C207.838 83.5107 200.391 84.149 192.625 84.6809C163.051 86.4894 131.881 84.7873 111.029 83.0852L111.242 80.9575C131.987 82.6596 163.051 84.3618 192.519 82.5533C201.242 82.0213 209.54 81.1703 217.093 80.1064L218.264 81.2767L218.157 81.7022C218.051 81.8086 215.817 85.532 209.54 89.8937C200.285 96.383 182.2 104.149 149.646 104.149Z" fill="black"/>
<path d="M84.9657 79.5746C84.8593 79.0427 77.9444 27.2342 117.2 16.915L117.732 18.9363C80.2848 28.7235 86.9869 78.7235 87.0933 79.2555L84.9657 79.5746Z" fill="black"/>
<path d="M110.179 82.1277C109.221 74.7873 105.072 37.0214 116.881 17.6597C122.838 7.97881 131.774 4.36179 143.583 6.8086L143.157 8.93626C132.413 6.59583 124.221 9.8937 118.796 18.7235C107.306 37.4469 111.455 74.5746 112.306 81.8086L110.179 82.1277Z" fill="black"/>
<path d="M218.37 81.2765L216.242 80.9574C216.349 80.4255 223.157 30.4255 185.71 20.6382L186.242 18.6169C225.498 28.8297 218.476 80.7446 218.37 81.2765Z" fill="black"/>
<path d="M193.689 83.7235L191.561 83.4043C191.667 82.9788 197.199 40.8511 185.072 20.1064C179.752 10.8511 171.667 7.2341 160.923 9.36176L160.497 7.2341C172.199 5.00006 181.029 8.93623 186.88 19.0426C199.54 40.7447 193.689 83.2979 193.689 83.7235Z" fill="black"/>
<path d="M162.306 36.383H141.668L141.561 35.4255C140.497 19.2553 141.348 11.383 142.412 7.65958C143.157 4.57448 144.114 3.61703 144.646 3.29788C146.774 1.70214 149.433 0.851074 151.987 0.851074C154.646 0.851074 157.199 1.70214 159.327 3.29788C159.859 3.61703 160.923 4.68086 161.668 8.08512C162.944 13.617 163.157 22.9787 162.306 35.3192V36.383ZM151.987 34.2553H160.285C161.242 19.5745 160.391 12.2341 159.54 8.61703C159.008 6.06384 158.263 5.21278 158.157 5.10639L158.051 5.00001C156.242 3.72341 154.114 2.97873 151.88 2.97873C149.646 2.97873 147.519 3.72341 145.71 5.00001V5.10639C145.604 5.21278 144.965 5.95746 144.433 8.1915C143.476 11.7021 142.625 19.0426 143.582 34.2553H151.987Z" fill="black"/>
<path d="M290.604 524.043C284.221 524.043 277.732 522.979 272.093 522.021L268.263 521.383C233.051 515.638 177.306 510 161.136 508.511L158.051 508.191C158.157 508.191 151.987 508.085 138.476 508.085C124.966 508.085 104.646 508.085 75.3911 508.191C55.2847 508.298 35.1783 506.17 15.6038 501.809C-8.86427 496.277 -24.5026 488.404 -27.3749 484.894C-32.2685 478.511 -23.0132 330 -12.9068 278.83C-10.1409 264.681 -3.22597 251.808 7.19957 241.702C24.2208 224.894 48.0506 216.383 65.0719 212.128C72.9442 210.213 81.0294 208.723 89.0081 207.66C93.6889 207.128 96.4549 206.915 96.5613 206.915C99.7527 206.915 102.306 205.851 104.327 203.617C110.923 196.489 110.604 179.468 109.859 169.894C109.753 168.085 109.54 166.17 109.327 164.362L111.455 164.149C111.668 165.957 111.88 167.872 111.987 169.787C112.944 181.915 112.625 197.766 105.817 205.106C103.37 207.766 100.285 209.149 96.5613 209.149C96.5613 209.149 93.7953 209.255 89.2208 209.787C81.2421 210.745 73.2634 212.234 65.4974 214.149C48.7953 218.298 25.2847 226.809 8.58255 243.191C-1.52384 252.979 -8.22597 265.426 -10.8855 279.149C-22.0558 336.489 -29.1834 477.872 -25.6728 483.617C-23.4387 486.489 -8.86426 494.149 16.0294 499.787C35.4974 504.149 55.3911 506.17 75.3911 505.957C104.54 505.851 124.966 505.851 138.476 505.851C151.88 505.851 158.051 505.957 158.157 505.957L161.242 506.277C177.519 507.872 233.263 513.404 268.583 519.255L272.412 519.894C286.668 522.34 306.348 525.638 315.285 508.83C318.37 503.085 320.178 464.787 319.646 419.787C318.902 365.957 315.285 316.809 309.54 284.894C306.88 270.213 298.476 257.021 284.434 245.745C270.072 234.255 252.306 226.702 239.859 222.553C233.37 220.319 226.668 218.404 219.859 216.808L216.774 216.064C215.072 215.745 213.37 215.426 211.561 215.319C204.327 214.787 198.689 212.021 194.54 207.234C186.88 198.298 186.349 183.936 187.306 173.404C187.519 171.489 187.731 169.574 187.944 167.766L190.072 168.085C189.859 169.894 189.54 171.808 189.434 173.617C188.583 183.723 189.008 197.447 196.242 205.851C199.966 210.213 205.178 212.66 211.774 213.191C213.583 213.298 215.391 213.617 217.2 214.043L220.285 214.787C227.093 216.383 233.902 218.298 240.497 220.638C253.051 224.894 271.029 232.553 285.71 244.255C300.178 255.851 308.902 269.468 311.668 284.681C324.646 357.021 323.902 497.553 317.306 510C311.136 521.064 301.029 524.043 290.604 524.043Z" fill="black"/>
<path d="M161.242 508.404H161.029C143.263 506.596 108.795 474.574 107.306 473.191L106.987 472.872V435.851L108.583 436.702C110.817 437.872 119.434 439.362 148.051 440H149.753C191.668 440.851 251.561 439.362 261.029 439.149C236.242 316.596 279.114 251.383 284.114 244.362L285.817 245.638C280.817 252.659 238.051 317.659 263.263 440L263.476 441.276H262.2C261.561 441.276 195.072 443.085 149.646 442.234H147.944C126.88 441.808 114.114 440.851 109.008 439.255V472.021C112.625 475.425 145.072 504.681 161.136 506.383L161.029 507.128L161.242 508.404Z" fill="black"/>
<path d="M107.199 473.085C94.4335 458.298 68.4761 429.787 61.7739 427.021L30.2846 419.787L30.391 418.83C30.6037 417.234 47.9441 258.936 7.625 243.511L8.36968 241.489C26.0293 248.298 35.391 280.319 36.3484 336.596C36.9867 374.787 33.2633 411.702 32.625 417.979L62.5186 424.894C71.242 428.298 107.306 469.894 108.795 471.596L107.199 473.085Z" fill="black"/>
<path d="M150.604 441.702L148.902 440.319C150.71 438.085 152.519 435.958 154.434 433.83C171.349 414.362 192.306 390.213 239.115 221.17L241.136 221.702C194.221 391.17 173.051 415.638 156.03 435.213C154.221 437.447 152.413 439.468 150.604 441.702Z" fill="black"/>
<path d="M147.199 441.702C99.5399 383.404 64.7527 215.106 64.3271 213.404L66.4548 212.979C66.774 214.681 101.561 382.447 148.902 440.425L147.199 441.702Z" fill="black"/>
<path d="M154.859 261.383C125.497 261.383 108.901 247.128 100.178 235.213C90.7099 222.234 88.2631 209.575 88.1567 209.043L90.2844 208.617C90.2844 208.724 92.7312 221.49 101.987 234.043C114.221 250.851 132.093 259.362 154.859 259.362C209.54 259.362 219.008 215.958 219.008 215.532L221.135 215.958C221.029 216.277 211.242 261.383 154.859 261.383Z" fill="black"/>
<path d="M151.774 182.447C134.114 182.447 121.987 177.34 109.753 165C106.561 161.702 103.476 158.192 100.604 154.575C97.9442 151.064 95.6037 143.085 93.5825 130C92.4123 122.447 91.3484 113.298 90.4974 102.766C89.6463 92.9788 89.3271 85.6384 89.3271 85.6384L91.4548 85.532C91.4548 85.6384 91.774 92.8724 92.625 102.66C93.4761 113.192 94.5399 122.234 95.7101 129.787C98.1569 145.426 100.604 151.277 102.306 153.404C105.072 157.021 108.051 160.426 111.242 163.617C124.114 176.596 136.88 181.277 156.668 180.319C156.88 180.319 175.497 179.362 188.37 167.128C191.561 164.043 194.221 160.426 196.242 156.489C199.54 149.894 202.199 140.745 204.221 129.362C205.71 120.745 206.774 111.915 207.412 103.192C208.051 94.6809 208.051 89.149 208.051 89.149H210.178C210.178 89.149 210.072 94.8937 209.54 103.404C208.902 112.234 207.838 121.064 206.348 129.787C204.327 141.383 201.561 150.638 198.157 157.447C196.029 161.702 193.263 165.426 189.859 168.723C176.455 181.489 157.625 182.447 156.774 182.447C155.072 182.447 153.37 182.447 151.774 182.447Z" fill="black"/>
<path d="M207.731 131.277C206.667 131.277 205.603 130.958 204.646 130.319L205.816 128.511C206.986 129.255 208.263 129.255 209.54 128.617C212.944 126.915 216.88 119.681 217.518 108.192C217.731 104.149 217.093 101.596 215.816 100.958C213.901 100.106 210.284 102.872 209.22 103.83L207.731 102.234C208.263 101.702 213.157 97.3405 216.667 98.9363C218.901 100 219.859 102.979 219.646 108.192C219.114 118.936 215.391 127.872 210.497 130.426C209.54 131.064 208.582 131.277 207.731 131.277Z" fill="black"/>
<path d="M92.4125 131.702C91.5614 131.702 90.7104 131.489 89.7529 131.064C84.9657 128.617 81.5614 119.681 80.9231 108.404C80.604 103.298 81.5614 100.213 83.7955 99.1488C86.6678 97.7658 90.3912 100.319 92.3061 101.915L90.9231 103.51C88.9018 101.808 86.2423 100.319 84.7529 101.064C83.4763 101.702 82.838 104.255 83.0508 108.298C83.6891 120.213 87.5189 127.447 90.7104 129.149C91.8806 129.787 93.0508 129.681 94.1146 129.042L95.2848 130.851C94.3274 131.383 93.3699 131.702 92.4125 131.702Z" fill="black"/>
</svg>
