<svg width="472" height="556" viewBox="0 0 472 556" fill="none" xmlns="http://www.w3.org/2000/svg">
<ellipse cx="236.01" cy="534.416" rx="148.329" ry="21.5834" fill="#ECECEC"/>
<path opacity="0.08" d="M245.817 174.539H100.747C98.5669 174.595 96.4948 175.501 94.9726 177.063C93.4504 178.625 92.5985 180.719 92.5985 182.9C92.5985 185.081 93.4504 187.176 94.9726 188.738C96.4948 190.3 98.5669 191.205 100.747 191.261H121.094C121.798 191.239 122.498 191.357 123.155 191.611C123.811 191.864 124.41 192.247 124.916 192.736C125.421 193.226 125.823 193.812 126.098 194.46C126.372 195.107 126.514 195.804 126.514 196.508C126.514 197.211 126.372 197.908 126.098 198.556C125.823 199.204 125.421 199.79 124.916 200.279C124.41 200.768 123.811 201.151 123.155 201.405C122.498 201.658 121.798 201.777 121.094 201.754H9.09279C6.876 201.754 4.75001 202.634 3.1825 204.202C1.61499 205.769 0.734375 207.895 0.734375 210.112H0.734375C0.734375 212.329 1.61499 214.455 3.1825 216.023C4.75001 217.59 6.876 218.471 9.09279 218.471H90.6262C92.0183 218.471 93.3534 219.024 94.3377 220.008C95.3221 220.992 95.8751 222.327 95.8751 223.72C95.8751 225.112 95.3221 226.447 94.3377 227.431C93.3534 228.416 92.0183 228.969 90.6262 228.969H72.7897C70.5729 228.969 68.4469 229.849 66.8794 231.417C65.3119 232.984 64.4313 235.11 64.4313 237.327C64.4313 239.544 65.3119 241.67 66.8794 243.237C68.4469 244.805 70.5729 245.685 72.7897 245.685H217.854C220.07 245.685 222.196 244.805 223.764 243.237C225.331 241.67 226.212 239.544 226.212 237.327C226.212 235.11 225.331 232.984 223.764 231.417C222.196 229.849 220.07 228.969 217.854 228.969H122.674C121.283 228.967 119.949 228.413 118.966 227.429C117.983 226.445 117.431 225.111 117.431 223.72C117.431 222.328 117.983 220.994 118.966 220.01C119.949 219.026 121.283 218.472 122.674 218.471H154.146C155.245 218.473 156.333 218.258 157.349 217.839C158.365 217.42 159.289 216.805 160.067 216.028C160.845 215.252 161.462 214.33 161.883 213.315C162.304 212.3 162.521 211.211 162.521 210.112C162.521 207.895 161.64 205.769 160.073 204.202C158.505 202.634 156.379 201.754 154.162 201.754H142.783C142.08 201.777 141.379 201.658 140.723 201.405C140.066 201.151 139.467 200.768 138.962 200.279C138.456 199.79 138.054 199.204 137.78 198.556C137.505 197.908 137.364 197.211 137.364 196.508C137.364 195.804 137.505 195.107 137.78 194.46C138.054 193.812 138.456 193.226 138.962 192.736C139.467 192.247 140.066 191.864 140.723 191.611C141.379 191.357 142.08 191.239 142.783 191.261H245.817C247.997 191.205 250.069 190.3 251.591 188.738C253.113 187.176 253.965 185.081 253.965 182.9C253.965 180.719 253.113 178.625 251.591 177.063C250.069 175.501 247.997 174.595 245.817 174.539Z" fill="#0D91FF"/>
<path opacity="0.08" d="M226.185 440.961H371.254C373.471 440.961 375.597 440.08 377.164 438.513C378.732 436.945 379.613 434.819 379.613 432.602C379.613 430.386 378.732 428.26 377.164 426.692C375.597 425.125 373.471 424.244 371.254 424.244H350.907C349.515 424.244 348.18 423.691 347.195 422.707C346.211 421.722 345.658 420.387 345.658 418.995C345.658 417.603 346.211 416.268 347.195 415.283C348.18 414.299 349.515 413.746 350.907 413.746H462.908C465.125 413.746 467.251 412.865 468.819 411.298C470.386 409.73 471.267 407.604 471.267 405.388C471.267 404.29 471.051 403.203 470.631 402.189C470.211 401.175 469.595 400.253 468.819 399.477C468.043 398.701 467.121 398.085 466.107 397.665C465.093 397.245 464.006 397.029 462.908 397.029H381.375C380.686 397.029 380.004 396.893 379.367 396.63C378.731 396.366 378.152 395.979 377.666 395.491C377.179 395.004 376.792 394.425 376.529 393.788C376.266 393.152 376.131 392.469 376.132 391.78C376.131 391.091 376.266 390.409 376.529 389.772C376.792 389.135 377.179 388.557 377.666 388.069C378.152 387.582 378.731 387.195 379.367 386.931C380.004 386.667 380.686 386.531 381.375 386.531H399.223C401.439 386.531 403.565 385.651 405.133 384.083C406.7 382.516 407.581 380.39 407.581 378.173C407.581 375.956 406.7 373.83 405.133 372.263C403.565 370.695 401.439 369.814 399.223 369.814H254.153C251.936 369.814 249.81 370.695 248.243 372.263C246.675 373.83 245.795 375.956 245.795 378.173C245.795 380.39 246.675 382.516 248.243 384.083C249.81 385.651 251.936 386.531 254.153 386.531H349.311C350 386.531 350.682 386.667 351.319 386.931C351.956 387.195 352.535 387.581 353.022 388.069C353.509 388.556 353.896 389.135 354.16 389.772C354.424 390.408 354.559 391.091 354.559 391.78C354.559 392.47 354.424 393.152 354.16 393.789C353.896 394.426 353.509 395.004 353.022 395.492C352.535 395.979 351.956 396.366 351.319 396.63C350.682 396.893 350 397.029 349.311 397.029H317.839C316.74 397.027 315.651 397.242 314.635 397.661C313.619 398.08 312.696 398.695 311.918 399.471C311.14 400.248 310.523 401.17 310.102 402.185C309.681 403.2 309.464 404.289 309.464 405.388C309.464 407.604 310.345 409.73 311.912 411.298C313.48 412.865 315.606 413.746 317.822 413.746H329.202C330.594 413.746 331.929 414.299 332.913 415.283C333.897 416.268 334.45 417.603 334.45 418.995C334.45 420.387 333.897 421.722 332.913 422.707C331.929 423.691 330.594 424.244 329.202 424.244H226.185C223.968 424.244 221.842 425.125 220.274 426.692C218.707 428.26 217.826 430.386 217.826 432.602C217.826 434.819 218.707 436.945 220.274 438.513C221.842 440.08 223.968 440.961 226.185 440.961Z" fill="#0D91FF"/>
<path opacity="0.08" d="M119.832 402.023H231.833C234.048 402.018 236.17 401.136 237.735 399.569C239.3 398.002 240.179 395.879 240.181 393.664C240.179 391.447 239.298 389.321 237.729 387.754C236.161 386.186 234.034 385.306 231.817 385.306H150.306C148.914 385.306 147.578 384.753 146.594 383.768C145.61 382.784 145.057 381.449 145.057 380.057C145.057 378.665 145.61 377.33 146.594 376.345C147.578 375.361 148.914 374.808 150.306 374.808H168.126C169.248 374.849 170.367 374.663 171.416 374.262C172.465 373.86 173.423 373.252 174.232 372.472C175.04 371.692 175.683 370.758 176.123 369.724C176.562 368.69 176.788 367.578 176.788 366.455C176.788 365.332 176.562 364.22 176.123 363.186C175.683 362.153 175.04 361.218 174.232 360.438C173.423 359.658 172.465 359.05 171.416 358.648C170.367 358.247 169.248 358.061 168.126 358.102H23.0781C20.8614 358.102 18.7354 358.983 17.1679 360.55C15.6003 362.118 14.7197 364.244 14.7197 366.461C14.7197 368.677 15.6003 370.803 17.1679 372.371C18.7354 373.938 20.8614 374.819 23.0781 374.819H118.241C119.633 374.819 120.968 375.372 121.953 376.356C122.937 377.341 123.49 378.676 123.49 380.068C123.49 381.46 122.937 382.795 121.953 383.78C120.968 384.764 119.633 385.317 118.241 385.317H86.764C85.6663 385.317 84.5794 385.533 83.5653 385.953C82.5512 386.373 81.6298 386.989 80.8537 387.765C80.0775 388.541 79.4618 389.463 79.0418 390.477C78.6217 391.491 78.4055 392.578 78.4055 393.675C78.4055 395.892 79.2862 398.018 80.8537 399.586C82.4212 401.153 84.5472 402.034 86.764 402.034H119.832V402.023Z" fill="#0D91FF"/>
<path opacity="0.08" d="M409.189 239.882H303.367C300.606 239.882 297.959 240.979 296.007 242.931C294.054 244.883 292.958 247.53 292.958 250.291C292.958 253.052 294.054 255.699 296.007 257.651C297.959 259.604 300.606 260.7 303.367 260.7H314.508C315.263 260.7 316.011 260.848 316.709 261.136C317.407 261.425 318.041 261.848 318.576 262.382C319.11 262.916 319.534 263.549 319.823 264.247C320.112 264.945 320.261 265.693 320.261 266.448C320.258 267.972 319.651 269.433 318.572 270.509C317.493 271.586 316.032 272.19 314.508 272.19H279.905C277.145 272.19 274.499 273.286 272.548 275.238C270.597 277.189 269.501 279.835 269.501 282.594C269.5 283.961 269.769 285.314 270.291 286.577C270.814 287.84 271.58 288.987 272.546 289.954C273.512 290.921 274.659 291.688 275.922 292.211C277.185 292.734 278.538 293.003 279.905 293.003H370.606C371.972 293.003 373.326 292.734 374.588 292.211C375.851 291.688 376.998 290.921 377.964 289.954C378.93 288.987 379.697 287.84 380.219 286.577C380.742 285.314 381.01 283.961 381.009 282.594C381.009 279.835 379.913 277.189 377.962 275.238C376.011 273.286 373.365 272.19 370.606 272.19H360.767C359.241 272.19 357.778 271.584 356.699 270.505C355.62 269.426 355.014 267.963 355.014 266.437C355.014 265.682 355.163 264.934 355.452 264.236C355.741 263.538 356.165 262.905 356.699 262.371C357.234 261.837 357.868 261.414 358.566 261.125C359.264 260.837 360.012 260.688 360.767 260.689H409.189C410.555 260.689 411.909 260.42 413.171 259.897C414.434 259.374 415.581 258.607 416.547 257.64C417.513 256.673 418.279 255.526 418.802 254.263C419.324 253 419.593 251.647 419.592 250.28C419.591 247.522 418.494 244.877 416.543 242.927C414.592 240.977 411.947 239.882 409.189 239.882Z" fill="#0D91FF"/>
<path opacity="0.08" d="M255.223 142.741H361.089C363.849 142.741 366.497 141.644 368.449 139.692C370.401 137.74 371.498 135.092 371.498 132.332C371.498 129.571 370.401 126.923 368.449 124.971C366.497 123.019 363.849 121.922 361.089 121.922H349.926C348.401 121.922 346.939 121.317 345.861 120.239C344.783 119.161 344.178 117.699 344.178 116.175C344.178 114.65 344.783 113.188 345.861 112.11C346.939 111.032 348.401 110.427 349.926 110.427H384.529C387.289 110.427 389.937 109.33 391.889 107.378C393.841 105.426 394.938 102.778 394.938 100.018C394.938 97.2569 393.841 94.6093 391.889 92.6572C389.937 90.7051 387.289 89.6084 384.529 89.6084H293.806C291.048 89.6128 288.404 90.7114 286.456 92.6631C284.507 94.6147 283.413 97.2598 283.413 100.018C283.413 102.778 284.51 105.426 286.462 107.378C288.414 109.33 291.062 110.427 293.822 110.427H303.644C305.168 110.427 306.63 111.032 307.708 112.11C308.786 113.188 309.392 114.65 309.392 116.175C309.392 117.699 308.786 119.161 307.708 120.239C306.63 121.317 305.168 121.922 303.644 121.922H255.223C252.462 121.922 249.814 123.019 247.862 124.971C245.91 126.923 244.813 129.571 244.813 132.332C244.813 135.092 245.91 137.74 247.862 139.692C249.814 141.644 252.462 142.741 255.223 142.741Z" fill="#0D91FF"/>
<path d="M312.08 539.105L312.723 543.9H226.278L232.935 539.05L232.974 539.105H312.08Z" fill="black"/>
<path d="M263.681 516.703L272.427 510.351H308.244L312.08 539.106H232.974L232.936 539.051L248.261 527.915L256.481 521.94L263.681 516.703Z" fill="#FF8600"/>
<path d="M189.924 176.938C190.75 161.11 192.839 145.375 196.17 129.88C201.159 128.871 203.049 129.88 203.049 129.88C203.049 129.88 196.448 178.002 200.749 196.393C200.749 196.393 247.795 198.97 253.826 196.393V166.068C256.082 168.79 259.507 172.165 264.507 173.207V195.888C264.507 195.888 288.074 194.076 292.492 187.574C288.867 219.55 288.196 260.095 288.667 274.767C289.36 296.117 308.244 510.332 308.244 510.332H272.427L246.631 385.383L234.537 495.683H195.904C195.904 495.683 189.281 220.442 189.563 188.616C189.602 184.614 189.741 180.734 189.924 176.938Z" fill="#010973"/>
<path d="M290.253 108.941C292.423 108.438 294.644 108.183 296.871 108.182C315.833 108.27 314.774 134.005 299.205 153.188C298.377 154.201 297.512 155.199 296.611 156.182C285.985 129.521 268.293 131.605 268.293 131.605C268.293 131.605 273.032 112.937 290.253 108.941Z" fill="white"/>
<path d="M296.61 156.182C297.516 155.202 298.38 154.205 299.204 153.188C296.283 160.998 294.105 173.453 292.492 187.553C288.058 194.06 264.507 195.867 264.507 195.867V173.214C265.983 173.532 267.496 173.638 269.002 173.53C274.728 173.126 282.892 168.209 291.051 161.475C293.017 159.833 294.874 158.065 296.61 156.182Z" fill="white"/>
<path d="M273.724 108.463C279.237 108.111 284.77 108.27 290.253 108.94C273.032 112.936 268.293 131.604 268.293 131.604C267.967 132.463 267.713 133.347 267.533 134.248C265.421 131.566 262.988 128.644 260.405 125.64C260.405 125.64 264.185 112.149 273.708 108.458L273.724 108.463Z" fill="#010973"/>
<path d="M257.157 113.298C255.56 114.352 254.074 115.567 252.723 116.923C247.18 110.732 241.71 104.845 237.874 100.611C239.315 98.1 240.59 90.7116 241.577 83.3397C243.239 83.2344 245.395 82.2977 247.23 80.3467C247.23 80.3522 241.726 107.018 257.157 113.298Z" fill="white"/>
<path d="M253.825 166.069V196.371C247.795 198.948 200.748 196.371 200.748 196.371C196.447 178.008 203.043 129.886 203.043 129.886C203.043 129.886 224.294 150.527 236.676 135.146C242.829 150.361 246.021 156.762 251.303 162.859C251.902 163.552 252.722 164.744 253.825 166.069Z" fill="white"/>
<path d="M250.949 68.856C251.099 74.3156 249.391 78.0458 247.23 80.3516C245.395 82.3026 243.222 83.2393 241.576 83.3446C242.768 74.3156 243.505 65.2698 243.505 65.2698C243.505 65.2698 249.391 59.3779 250.711 66.2842C250.857 67.1339 250.937 67.9938 250.949 68.856Z" fill="white"/>
<path d="M213.536 34.6298C217.3 31.1933 222.36 29.5194 229.144 31.7199C227.626 32.9892 221.551 37.2626 221.329 46.1975L227.426 46.8903C227.426 46.8903 226.872 35.0622 237.641 31.282C237.641 31.282 257.118 32.5458 250.711 66.2954C249.397 59.3891 243.506 65.2811 243.506 65.2811C241.538 65.3531 239.57 65.3753 237.641 65.3531C232.254 65.3088 227.171 64.954 223.064 64.5605L222.737 64.3277C219.411 61.9887 216.579 62.9587 216.579 62.9587C212.854 60.0931 210.277 62.9587 210.277 62.9587C208.575 60.0875 205.394 59.8991 203.071 60.2372C202.105 60.3748 201.155 60.6145 200.239 60.9522L195.639 61.1406C195.744 57.0224 197.063 31.5425 213.519 34.5855L213.536 34.6298Z" fill="#FF8600"/>
<path d="M237.636 65.3411C237.636 65.3411 235.591 91.7577 231.916 92.8108C231.284 90.3997 232.587 88.3101 232.354 81.0159C232.066 72.1476 230.752 71.2552 225.298 66.3776C224.592 65.7277 223.852 65.1153 223.081 64.543C227.166 64.942 232.249 65.2968 237.636 65.3411Z" fill="white"/>
<path d="M236.593 523.127L236.948 527.916H152.909L159.305 523.127H236.593Z" fill="black"/>
<path d="M187.647 501.898L195.905 495.712H234.538L236.594 523.126H159.307L172.687 513.099H172.692L180.652 507.135L187.641 501.898H187.647Z" fill="#FF8600"/>
<path d="M231.909 123.158C233.694 127.691 235.263 131.649 236.682 135.146C224.299 150.527 203.043 129.886 203.043 129.886C203.043 129.886 214.949 121.8 213.364 114.273H213.524C221.484 114.611 228.174 114.273 228.174 114.273L228.301 114.223C229.205 116.379 230.363 119.25 231.909 123.158Z" fill="white"/>
<path d="M229.156 31.709C232.481 28.9376 237.636 31.2711 237.636 31.2711C226.844 35.0513 227.432 46.8794 227.432 46.8794L221.335 46.1866C221.562 37.2296 227.637 32.9783 229.156 31.709Z" fill="#FF8600"/>
<path d="M218.884 96.4023L218.734 96.5298C218.734 96.5298 207.948 98.5639 203.658 89.8785C202.903 88.2891 202.401 86.5907 202.173 84.8457L204.795 85.0286L206.94 85.1062C209.694 89.9395 215.026 91.8517 218.884 96.4023Z" fill="white"/>
<path d="M196.171 129.869C192.839 145.364 190.75 161.1 189.924 176.927C184.732 178.67 179.441 180.101 174.078 181.211C177.337 155.931 170.508 145.633 168.751 143.46C182.247 134.276 190.922 130.944 196.171 129.869Z" fill="white"/>
<path d="M164.139 146.709C165.739 145.553 167.276 144.474 168.751 143.472C170.508 145.645 177.336 155.944 174.077 181.224C166.656 182.781 157.638 184.067 149.29 183.574C121.577 181.911 125.24 169.717 133.277 154.563C143.121 136.006 162.404 114.223 166.134 105.909C169.194 99.0863 167.243 87.3302 166.423 83.3395L180.684 82.1533C180.859 82.3185 181.044 82.4721 181.238 82.6134C181.842 83.0523 182.531 83.3584 183.261 83.5113C183.571 83.5781 183.887 83.6115 184.204 83.6111H184.631L192.529 84.1653C192.446 84.9358 192.368 85.7228 192.296 86.521C191.912 90.466 191.791 94.4324 191.936 98.3935C188.128 102.606 184.797 111.569 182.458 114.24C179.664 117.438 171.367 133.623 164.139 146.709Z" fill="white"/>
<path d="M234.538 495.711L246.632 385.383L232.127 315.068L229.217 495.706L234.538 495.711Z" fill="#000642"/>
<path d="M213.369 114.273C213.369 114.273 214.528 118.076 222.354 118.076C226.98 118.101 231.513 116.78 235.401 114.273H213.369Z" fill="#CCCCCC"/>
<path d="M166.423 83.3109L167.033 87.2961L192.723 86.6476L193.593 81.6592L166.423 83.3109Z" fill="#CCCCCC"/>
<path d="M228.308 114.223L228.181 114.272C228.181 114.272 221.491 114.622 213.531 114.272H213.37C208.362 114.119 203.374 113.563 198.455 112.61C195.019 111.872 193.234 108.131 192.436 103.187C192.185 101.596 192.028 99.9911 191.964 98.3815C191.82 94.4204 191.94 90.454 192.325 86.509C192.397 85.7108 192.474 84.9238 192.558 84.1533L198.222 84.569L202.174 84.8572C202.402 86.6042 202.903 88.3044 203.66 89.8956C207.95 98.5866 218.736 96.5468 218.736 96.5468L218.885 96.4194C219.857 97.5518 220.68 98.8034 221.335 100.144C225.215 108.192 224.661 105.404 228.308 114.223Z" fill="black"/>
<path d="M206.924 85.0959L204.779 85.0183L202.174 84.8465L198.222 84.5582L192.558 84.1425L184.659 83.5883C188.462 83.2446 191.466 78.3227 191.466 72.2922C191.466 66.0511 188.229 60.9851 184.232 60.9851L195.623 61.1513L200.223 60.9629C200.392 61.0288 200.552 61.1144 200.7 61.2179C201.958 62.0382 205.339 65.3028 205.101 76.7375C205.029 80.3569 205.744 83.0007 206.924 85.0959Z" fill="black"/>
<path d="M191.465 72.2713C191.465 78.3018 188.461 83.2237 184.659 83.5674H184.232C183.915 83.5679 183.599 83.5344 183.29 83.4676C182.56 83.3147 181.87 83.0087 181.267 82.5697C181.072 82.4285 180.887 82.2748 180.712 82.1097C180.654 82.0629 180.599 82.0129 180.546 81.96C178.407 79.9979 176.993 76.3896 176.993 72.2713C176.986 70.4413 177.282 68.6226 177.869 66.8894C178.392 65.29 179.278 63.8332 180.458 62.6325C181.451 61.6075 182.805 61.0109 184.232 60.9697C188.228 60.9642 191.465 66.0302 191.465 72.2713Z" fill="#FF8600"/>
<path d="M180.684 82.1245L166.422 83.3106L163.097 83.5379C164.244 83.3558 165.307 82.8234 166.14 82.0136C168.263 80.0515 169.698 76.4266 169.698 72.2806C169.698 67.4252 167.741 63.2848 164.998 61.6885L180.44 62.6307C179.261 63.8314 178.375 65.2882 177.851 66.8875C177.27 68.6217 176.979 70.4404 176.992 72.2695C176.992 76.3878 178.406 79.9961 180.517 81.9748C180.57 82.0277 180.626 82.0777 180.684 82.1245Z" fill="black"/>
<path d="M169.715 72.2824C169.715 76.4284 168.28 80.0422 166.157 82.0154C165.33 82.8211 164.276 83.3533 163.136 83.5397L162.499 83.584C158.508 83.584 155.266 78.5235 155.266 72.2824C155.266 66.0413 158.508 60.9697 162.499 60.9697C163.394 60.9777 164.271 61.2266 165.037 61.6903C167.759 63.2866 169.715 67.427 169.715 72.2824Z" fill="#FF8600"/>
<path d="M299.204 153.188C299.204 153.188 288.801 178.524 264.507 173.209C264.507 173.209 287.969 165.455 299.204 153.188Z" fill="#CCCCCC"/>
<path d="M231.916 92.8184C232.077 93.4133 232.321 93.9825 232.642 94.509C233.085 95.2794 235.036 97.4909 237.874 100.606C241.71 104.841 247.18 110.727 252.723 116.918C255.317 119.806 257.933 122.755 260.405 125.631C262.988 128.635 265.421 131.556 267.533 134.239C267.713 133.338 267.967 132.454 268.292 131.595C268.292 131.595 285.985 129.511 296.61 156.172C294.865 158.049 292.998 159.81 291.023 161.443C282.859 168.188 274.7 173.105 269.002 173.531C267.506 173.642 266.002 173.541 264.534 173.232C259.546 172.174 256.11 168.798 253.854 166.093C252.745 164.768 251.93 163.593 251.337 162.901C246.055 156.804 242.862 150.385 236.71 135.187C235.291 131.69 233.723 127.732 231.938 123.198C230.391 119.29 229.233 116.419 228.335 114.252C224.66 105.406 225.214 108.194 221.335 100.146C220.679 98.7991 219.854 97.5418 218.879 96.4046C214.999 91.854 209.711 89.9418 206.935 85.0974C205.737 83.0023 205.022 80.3584 205.094 76.7168C205.333 65.2822 201.952 62.0176 200.693 61.1972C200.545 61.0938 200.385 61.0082 200.217 60.9423C201.131 60.6049 202.079 60.3653 203.044 60.2273C205.377 59.8891 208.586 60.0776 210.249 62.9487C210.249 62.9487 212.826 60.0831 216.551 62.9487C216.551 62.9487 219.356 61.9788 222.709 64.3178L223.036 64.5506C223.807 65.1229 224.547 65.7353 225.253 66.3852C230.707 71.2628 232.021 72.133 232.309 81.0235C232.586 88.3177 231.311 90.3907 231.916 92.8184Z" fill="white"/>
<path d="M232.975 539.107L294.216 510.356H272.428L232.975 539.107Z" fill="#C16000"/>
<path d="M159.307 523.126L195.905 495.712H222.848L159.307 523.126Z" fill="#C16000"/>
<path d="M161.429 151.553C161.429 151.553 179.664 137.968 194.951 135.734L196.126 130.064C196.126 130.064 191.891 128.024 164.289 146.432L161.429 151.553Z" fill="#CCCCCC"/>
<path d="M247.23 80.3516C247.23 80.3516 244.403 96.2647 237.874 100.616L241.577 83.3446C241.577 83.3446 245.379 82.9345 247.23 80.3516Z" fill="#CCCCCC"/>
<path d="M241.577 83.3434C240.59 90.7152 239.316 98.1036 237.874 100.614C235.037 97.4884 233.086 95.2768 232.642 94.5175C232.322 93.991 232.077 93.4218 231.916 92.8269C235.591 91.7738 237.636 65.3572 237.636 65.3572C239.565 65.3572 241.516 65.3572 243.5 65.2852C243.506 65.2686 242.769 74.3143 241.577 83.3434Z" fill="black"/>
<path d="M174.155 181.577L174.005 180.873C179.348 179.762 184.621 178.335 189.796 176.6H189.924V176.965L190.051 177.298C184.843 179.042 179.534 180.471 174.155 181.577Z" fill="black"/>
<path d="M153.053 184.061C151.751 184.061 150.493 184.022 149.268 183.95C137.75 183.268 130.894 180.702 128.311 176.102C125.384 170.891 128.05 163.658 132.961 154.407C138.476 144.009 147.073 132.425 153.979 123.119C159.45 115.747 164.178 109.378 165.807 105.748C168.878 98.9026 166.783 86.9026 166.068 83.3941L166.777 83.25C167.503 86.8195 169.621 99.0024 166.461 106.042C164.798 109.75 160.054 116.14 154.561 123.546C147.666 132.835 139.086 144.397 133.598 154.745C128.798 163.791 126.171 170.819 128.943 175.752C131.392 180.115 138.055 182.564 149.312 183.23C156.318 183.645 164.627 182.858 174.005 180.891L174.155 181.594C167.223 183.134 160.153 183.961 153.053 184.061Z" fill="black"/>
<path d="M237.253 197.879C221.983 197.879 201.991 196.798 200.727 196.732H200.455L200.394 196.471C196.298 178.979 202.124 134.099 202.65 130.131C202.029 129.92 200.073 129.46 196.237 130.241C191.41 131.228 182.752 134.382 168.956 143.788C167.531 144.752 165.985 145.839 164.35 147.019L163.929 146.432C165.592 145.251 167.121 144.159 168.551 143.189C182.441 133.722 191.199 130.535 196.093 129.532C201.148 128.507 203.138 129.532 203.215 129.582L203.437 129.704L203.404 129.948C203.337 130.43 196.925 177.759 201.037 196.045C204.84 196.244 247.009 198.422 253.466 196.144V166.07H254.186V196.61L253.97 196.704C251.897 197.586 245.218 197.879 237.253 197.879Z" fill="black"/>
<path d="M155.537 161.834L154.949 161.413C156.917 158.681 159.733 153.953 163.818 146.531C165.824 142.895 167.914 139.015 169.915 135.257C175.164 125.524 180.119 116.334 182.186 113.967C183.173 112.859 184.403 110.442 185.7 107.909C187.474 104.451 189.48 100.537 191.664 98.1152L192.218 98.5974C190.096 100.948 188.111 104.822 186.36 108.236C184.98 110.924 183.788 113.225 182.746 114.444C180.734 116.744 175.795 125.906 170.552 135.601C168.529 139.359 166.434 143.244 164.427 146.88C160.364 154.324 157.515 159.08 155.537 161.834Z" fill="black"/>
<path d="M290.336 109.308H290.252C284.778 108.644 279.255 108.484 273.752 108.831L273.696 108.116C279.233 107.764 284.789 107.922 290.297 108.587C290.356 108.581 290.415 108.581 290.474 108.587L290.336 109.308Z" fill="black"/>
<path d="M252.984 117.183L252.479 116.662C253.843 115.291 255.344 114.063 256.958 112.998C261.226 110.227 266.697 108.642 273.686 108.115L273.741 108.83C266.874 109.351 261.509 110.914 257.352 113.603C255.775 114.641 254.311 115.841 252.984 117.183Z" fill="black"/>
<path d="M220.652 114.778C218.518 114.778 216.08 114.745 213.513 114.634H213.369C208.334 114.493 203.32 113.937 198.376 112.971C195.123 112.273 193.005 109.003 192.08 103.238C191.828 101.632 191.669 100.013 191.603 98.3884C191.458 94.4124 191.58 90.4312 191.969 86.4715C192.035 85.6734 192.119 84.8863 192.202 84.1104L192.917 84.1879C192.834 84.9584 192.756 85.7399 192.684 86.5381C192.3 90.4664 192.179 94.4162 192.324 98.3607C192.386 99.9573 192.541 101.549 192.789 103.127C193.665 108.565 195.594 111.641 198.526 112.267C203.425 113.227 208.395 113.783 213.386 113.93H213.53C221.395 114.263 228.096 113.93 228.163 113.93L228.202 114.651C228.157 114.623 225.076 114.778 220.652 114.778Z" fill="black"/>
<path d="M241.599 83.7044L241.571 82.9838C243.345 82.873 245.368 81.7921 246.964 80.1016C248.704 78.2448 250.744 74.7861 250.583 68.8665C250.57 68.0225 250.488 67.181 250.34 66.3501C250.018 64.6541 249.392 63.6508 248.483 63.3737C246.537 62.7695 243.777 65.4965 243.749 65.5243L243.65 65.624H243.505C241.649 65.6905 239.67 65.7183 237.625 65.6961C233.03 65.6573 228.113 65.3912 223.02 64.9035L223.092 64.1885C228.163 64.6707 233.068 64.9367 237.63 64.9755C239.614 64.9755 241.51 64.9755 243.339 64.909C243.893 64.3547 246.548 62.0157 248.693 62.6919C249.88 63.0522 250.672 64.2439 251.049 66.2226C251.205 67.092 251.29 67.9724 251.304 68.8554C251.47 75.0189 249.32 78.6439 247.485 80.6004C245.778 82.4185 243.577 83.5824 241.599 83.7044Z" fill="black"/>
<path d="M195.982 61.1355H195.262C195.339 58.0925 196.126 42.6117 203.67 36.5036C206.403 34.2865 209.734 33.5272 213.569 34.2367L213.436 34.9461C209.822 34.2755 206.685 34.9905 204.125 37.0634C196.825 42.9609 196.06 58.1535 195.982 61.1355Z" fill="black"/>
<path d="M206.053 48.1488L205.344 48.0268C205.416 47.6111 207.145 37.7673 213.314 34.3363H213.342C217.732 30.3622 223.08 29.3756 229.266 31.3821L229.039 32.0638C223.097 30.1183 217.965 31.0828 213.791 34.8851L213.708 34.946C207.805 38.1774 206.07 48.049 206.053 48.1488Z" fill="black"/>
<path d="M174.438 181.289L173.717 181.245C174.299 176.733 176.749 153.942 168.474 143.715L169.028 143.261C171.118 145.816 177.669 156.175 174.438 181.289Z" fill="black"/>
<path d="M234.859 496.072H195.55V495.717C195.483 492.946 188.898 220.111 189.209 188.651C189.248 184.859 189.37 180.891 189.575 176.95C190.412 161.106 192.501 145.352 195.821 129.837L196.525 130.003C193.211 145.467 191.128 161.168 190.295 176.961C190.096 180.919 189.974 184.848 189.935 188.629C189.658 219.59 195.993 484.055 196.265 495.351H234.227L246.277 385.345L246.992 385.423L234.859 496.072Z" fill="black"/>
<path d="M267.783 173.907C266.656 173.909 265.531 173.792 264.429 173.558C260.461 172.721 256.902 170.348 253.549 166.297C252.961 165.593 252.44 164.933 252.013 164.357C251.587 163.78 251.31 163.431 251.032 163.115C245.966 157.245 242.813 151.265 236.35 135.28C234.881 131.66 233.251 127.52 231.577 123.291C230.114 119.61 228.939 116.684 227.975 114.35L227.947 114.278C225.863 109.29 225.176 108.065 224.211 106.408C223.518 105.205 222.659 103.703 221.013 100.311C220.374 98.9914 219.567 97.76 218.613 96.647C216.971 94.8325 215.132 93.2059 213.131 91.7971C210.609 89.8904 208.232 88.089 206.624 85.2899C205.288 82.9454 204.673 80.1407 204.74 76.7209C204.972 65.3251 201.553 62.199 200.499 61.5117C200.377 61.425 200.245 61.3525 200.106 61.2955L199.208 60.974L200.089 60.6193C201.032 60.2695 202.009 60.0224 203.005 59.8821C205.366 59.5385 208.503 59.7158 210.343 62.4096C211.197 61.7167 213.569 60.2978 216.645 62.5648C217.36 62.3819 219.932 61.9385 222.936 64.0336L223.02 64.0946L223.219 64.2331L223.274 64.2719C224.061 64.8504 224.816 65.4702 225.536 66.1288L226.09 66.6054C231.079 71.0784 232.448 72.2756 232.741 81.0165C232.84 83.7077 232.704 86.4023 232.337 89.0701C232.137 90.6276 232.01 91.653 232.292 92.7338C232.444 93.2934 232.674 93.8288 232.974 94.3246C233.44 95.1282 235.746 97.7112 238.162 100.377C239.537 101.89 241.117 103.614 242.835 105.488C245.939 108.874 249.453 112.693 253.017 116.689C256.06 120.076 258.498 122.842 260.699 125.403C263.52 128.689 265.859 131.5 267.838 134.027C270.107 136.803 272.157 139.751 273.968 142.845L273.336 143.189C271.542 140.132 269.515 137.217 267.273 134.47C265.299 131.96 262.971 129.149 260.156 125.874C257.939 123.319 255.516 120.553 252.479 117.172C248.921 113.192 245.407 109.356 242.303 105.975C240.584 104.102 238.977 102.373 237.63 100.859C234.798 97.7444 232.819 95.4996 232.353 94.6848C232.016 94.1309 231.758 93.5319 231.589 92.9056C231.273 91.6973 231.417 90.5555 231.616 88.9758C231.981 86.345 232.114 83.6873 232.015 81.0331C231.722 72.5971 230.541 71.544 225.597 67.1098L225.043 66.6276C224.311 65.968 223.602 65.3805 222.931 64.8872L222.831 64.8151C222.753 64.756 222.676 64.7006 222.598 64.6488L222.515 64.5879C219.372 62.3708 216.795 63.2299 216.684 63.2687L216.501 63.3297L216.346 63.2299C212.937 60.6082 210.62 63.0803 210.526 63.1856L210.194 63.5458L209.95 63.1246C208.353 60.4308 205.344 60.2535 203.099 60.5749C202.417 60.6765 201.742 60.8266 201.081 61.0239C202.611 62.1325 205.676 65.7629 205.449 76.7153C205.383 80.0022 205.97 82.6849 207.239 84.913C208.775 87.5846 211.119 89.3472 213.558 91.2095C215.601 92.6481 217.477 94.3102 219.151 96.1647C220.146 97.3242 220.986 98.6079 221.65 99.9837C223.313 103.365 224.139 104.85 224.826 106.042C225.802 107.705 226.489 108.952 228.629 114.062L228.656 114.134C229.615 116.462 230.785 119.367 232.237 123.003C233.9 127.254 235.535 131.367 237.004 134.986C243.433 150.882 246.565 156.824 251.57 162.622C251.858 162.954 252.191 163.392 252.579 163.897C252.967 164.401 253.51 165.122 254.092 165.815C256.159 168.314 259.502 171.762 264.568 172.832C266.004 173.134 267.477 173.233 268.941 173.125C274.112 172.76 281.867 168.508 290.779 161.153C292.687 159.58 294.491 157.884 296.178 156.076C293.163 148.577 287.631 138.783 278.341 134.221C272.743 131.45 268.364 131.937 268.32 131.943L267.799 132.004L267.932 131.494C267.977 131.306 272.921 112.566 290.164 108.564C292.36 108.059 294.606 107.802 296.86 107.799C302.89 107.827 307.297 110.415 309.608 115.276C314.042 124.66 309.791 140.689 299.481 153.393C298.678 154.38 297.818 155.394 296.876 156.403C295.119 158.292 293.24 160.064 291.25 161.707C282.221 169.179 274.323 173.491 269.002 173.863C268.592 173.896 268.187 173.907 267.783 173.907ZM269.235 131.228C272.503 131.301 275.712 132.11 278.624 133.595C288.013 138.184 293.628 147.945 296.732 155.538C297.503 154.679 298.24 153.82 298.949 152.983C309.087 140.484 313.31 124.776 308.982 115.631C306.803 111.036 302.624 108.592 296.893 108.564C294.693 108.565 292.501 108.816 290.358 109.312C275.093 112.854 269.695 128.296 268.802 131.234L269.235 131.228Z" fill="black"/>
<path d="M227.802 47.2836L220.968 46.5076V46.1751C221.178 37.6725 226.51 33.3603 228.539 31.764L228.91 31.4592C232.358 28.5548 237.552 30.8661 237.779 30.9659L238.594 31.3372L237.751 31.6365C227.336 35.2892 227.774 46.7737 227.774 46.8845L227.802 47.2836ZM221.705 45.8647L227.054 46.4744C227.087 44.3848 227.719 34.9622 236.609 31.2707C235.041 30.7663 231.698 30.0347 229.404 31.9802L229.021 32.2961C227.087 33.8536 222.043 37.9164 221.71 45.8647H221.705Z" fill="black"/>
<path d="M251.061 66.3499L250.351 66.2169C252.845 53.0641 251.742 43.3255 247.064 37.2729C245.937 35.7571 244.521 34.4789 242.898 33.5116C241.276 32.5442 239.478 31.9068 237.608 31.6359L237.658 30.9209C237.891 30.9209 243.378 31.3477 247.635 36.8294C252.441 43.0373 253.599 52.9698 251.061 66.3499Z" fill="black"/>
<path d="M238.184 100.798L237.558 100.438C238.744 98.3818 239.974 92.6118 241.221 83.3C242.391 74.3596 243.128 65.3306 243.139 65.2363L243.854 65.2973C243.854 65.386 243.111 74.4317 241.931 83.3943C240.673 92.8003 239.414 98.6589 238.184 100.798Z" fill="black"/>
<path d="M231.965 93.1611H231.915V92.7953L231.815 92.4572C234.315 91.7366 236.493 75.4189 237.275 65.2979L237.996 65.3533C237.779 68.0803 235.817 92.047 232.015 93.1445L231.965 93.1611Z" fill="black"/>
<path d="M257.019 113.635C241.499 107.306 246.82 80.5453 246.876 80.2793L247.585 80.4234C247.53 80.6839 242.319 106.868 257.29 112.965L257.019 113.635Z" fill="black"/>
<path d="M225.259 141.205C219.683 141.205 214.057 138.367 210.233 135.912C207.588 134.211 205.099 132.28 202.794 130.142L202.479 129.837L202.844 129.587C202.961 129.504 214.534 121.551 213.015 114.345L213.725 114.195C214.406 117.443 212.838 121.124 209.063 125.148C207.394 126.901 205.571 128.5 203.615 129.926C205.577 131.721 216.274 141.055 226.185 140.457C230.209 140.207 233.645 138.345 236.405 134.914L236.96 135.363C234.066 138.955 230.458 140.906 226.224 141.166C225.908 141.194 225.581 141.205 225.259 141.205Z" fill="black"/>
<path d="M162.477 83.9435C158.293 83.9435 154.884 78.7112 154.884 72.3038C154.884 65.8964 158.293 60.6309 162.477 60.6309C163.437 60.6375 164.378 60.9037 165.199 61.4013C168.114 63.1029 170.076 67.4983 170.076 72.3038C170.076 76.3057 168.713 80.0636 166.518 82.192L166.402 82.3029C165.517 83.1658 164.386 83.7316 163.165 83.9214C162.936 83.9429 162.707 83.9503 162.477 83.9435ZM162.477 61.3292C158.686 61.3292 155.604 66.2401 155.604 72.2817C155.604 78.3232 158.686 83.223 162.477 83.223C162.674 83.224 162.87 83.2111 163.065 83.1842C164.104 83.024 165.07 82.5525 165.836 81.8317L165.919 81.7486C168.048 79.7865 169.367 76.1616 169.367 72.2817C169.367 67.7089 167.549 63.574 164.844 61.9999C164.131 61.5659 163.312 61.3341 162.477 61.3292Z" fill="black"/>
<path d="M184.232 83.9429C183.891 83.9439 183.551 83.9086 183.218 83.8376C182.439 83.6737 181.704 83.3469 181.061 82.8787C180.846 82.7288 180.639 82.5679 180.441 82.3965L180.263 82.2302C177.996 80.1018 176.633 76.3771 176.633 72.2533C176.633 70.3863 176.942 68.5322 177.547 66.766L178.229 67.0044C177.654 68.7001 177.364 70.4794 177.37 72.27C177.37 76.1499 178.678 79.7415 180.784 81.6926C180.829 81.74 180.878 81.7844 180.928 81.8256C181.105 81.983 181.29 82.131 181.483 82.269C182.048 82.6773 182.691 82.9642 183.373 83.1115C183.792 83.1939 184.221 83.2181 184.648 83.1836C188.273 82.8566 191.116 78.051 191.116 72.2478C191.116 66.2118 188.034 61.3009 184.243 61.3009C182.91 61.3419 181.646 61.9006 180.718 62.8584C179.578 64.0168 178.724 65.425 178.224 66.9711L177.547 66.755C178.087 65.1022 179.004 63.5975 180.224 62.3596C181.287 61.2739 182.73 60.6438 184.249 60.6025C188.433 60.6025 191.842 65.8349 191.842 72.27C191.842 78.4445 188.71 83.5605 184.709 83.9097L184.232 83.9429Z" fill="black"/>
<path d="M165.048 61.3238L165.004 62.043L180.45 62.985L180.494 62.2658L165.048 61.3238Z" fill="black"/>
<path d="M162.504 83.942L162.448 83.2269L166.4 82.9498L180.656 81.7637L180.711 82.4842L166.45 83.6704L162.504 83.942Z" fill="black"/>
<path d="M195.633 61.4891L184.226 61.3228L184.237 60.6022L195.627 60.7685L200.211 60.5801L200.239 61.3006L195.633 61.4891Z" fill="black"/>
<path d="M206.924 85.4564L204.779 85.3788L184.637 83.9266L184.687 83.2061L204.818 84.6582L206.952 84.7358L206.924 85.4564Z" fill="black"/>
<path d="M308.637 510.71H272.133L231.771 315.141L232.474 314.991L246.985 385.306L272.72 509.973H307.85C306.935 499.619 288.977 295.47 288.306 274.762C287.835 260.235 288.478 219.728 292.136 187.52C293.927 171.795 296.188 160.2 298.865 153.044L299.541 153.299C296.886 160.394 294.636 171.939 292.851 187.603C289.199 219.751 288.561 260.212 289.027 274.74C289.709 295.835 308.426 508.155 308.598 510.305L308.637 510.71Z" fill="black"/>
<path d="M264.147 196.283V173.214H264.868V195.501C267.939 195.23 288.231 193.212 292.199 187.376L292.792 187.78C288.358 194.354 265.505 196.177 264.524 196.255L264.147 196.283Z" fill="black"/>
<path d="M237.337 528.276H151.829L172.47 512.812L172.903 513.388L153.991 527.555H236.561L236.234 523.154L234.177 495.74L234.898 495.685L237.337 528.276Z" fill="black"/>
<path d="M187.41 501.639L172.457 512.842L172.889 513.418L187.843 502.216L187.41 501.639Z" fill="black"/>
<path d="M195.673 495.454L187.413 501.642L187.845 502.218L196.105 496.03L195.673 495.454Z" fill="black"/>
<path d="M313.133 544.261H225.17L272.216 510.057L272.638 510.639L227.381 543.54H312.313L307.884 510.395L308.599 510.301L313.133 544.261Z" fill="black"/>
<path d="M236.666 522.766H159.307V523.486H236.666V522.766Z" fill="black"/>
<path d="M312.723 538.744H232.975V539.465H312.723V538.744Z" fill="black"/>
<path d="M260.755 125.735L260.057 125.541C260.838 123.011 261.882 120.57 263.172 118.258C265.139 114.727 268.531 110.116 273.52 108.159L273.57 108.109H273.725V108.47L273.974 108.73L273.836 108.786C264.596 112.377 260.788 125.602 260.755 125.735Z" fill="black"/>
<path d="M216.08 97.0861C212.511 97.0861 206.347 96.1272 203.332 90.0302C202.558 88.4058 202.044 86.6702 201.808 84.8866L202.523 84.7812C202.746 86.4914 203.236 88.1559 203.975 89.7143C208.093 98.0283 218.558 96.1993 218.663 96.1771L218.796 96.8865C217.898 97.0265 216.989 97.0933 216.08 97.0861Z" fill="black"/>
<path d="M206.292 502.258H187.646L187.641 501.537H206.292V502.258Z" fill="black"/>
<path d="M199.219 506.775H180.651V507.496H199.219V506.775Z" fill="black"/>
<path d="M191.499 513.459H172.692L172.687 512.738H191.499V513.459Z" fill="black"/>
<path d="M282.682 517.061H263.681L263.676 516.341H282.682V517.061Z" fill="black"/>
<path d="M274.96 521.579H256.48V522.3H274.96V521.579Z" fill="black"/>
<path d="M267.233 527.556H248.261V528.276H267.233V527.556Z" fill="black"/>
<path d="M267.894 134.31L267.185 134.188C267.368 133.265 267.628 132.358 267.961 131.478L268.631 131.732C268.318 132.571 268.072 133.433 267.894 134.31Z" fill="black"/>
<path d="M359.789 197L356.842 188.158L348 184.789L356.842 181.842L359.789 173L363.158 181.842L372 184.789L363.158 188.158L359.789 197Z" fill="#FF8600"/>
<path d="M281.842 18L279.632 11.3684L273 8.84211L279.632 6.63158L281.842 0L284.368 6.63158L291 8.84211L284.368 11.3684L281.842 18Z" fill="#FF8600"/>
<path d="M77.8772 290L76.1579 284.842L71 282.877L76.1579 281.158L77.8772 276L79.8421 281.158L85 282.877L79.8421 284.842L77.8772 290Z" fill="#010973"/>
<path d="M341.3 62.3H335.7V56.7C335.7 56.35 335.35 56 335 56C334.65 56 334.3 56.35 334.3 56.7V62.3H328.7C328.35 62.3 328 62.65 328 63C328 63.35 328.35 63.7 328.7 63.7H334.3V69.3C334.3 69.65 334.65 70 335 70C335.35 70 335.7 69.65 335.7 69.3V63.7H341.3C341.65 63.7 342 63.35 342 63C342 62.65 341.65 62.3 341.3 62.3Z" fill="#010973"/>
<path d="M443 302H435V294C435 293.5 434.5 293 434 293C433.5 293 433 293.5 433 294V302H425C424.5 302 424 302.5 424 303C424 303.5 424.5 304 425 304H433V312C433 312.5 433.5 313 434 313C434.5 313 435 312.5 435 312V304H443C443.5 304 444 303.5 444 303C444 302.5 443.5 302 443 302Z" fill="#010973"/>
<path d="M123.846 130.3C121.775 130.3 120.049 128.574 120.049 126.502C120.049 124.431 121.775 122.705 123.846 122.705C125.917 122.705 127.643 124.431 127.643 126.502C127.643 128.574 125.917 130.3 123.846 130.3ZM123.846 124.086C122.465 124.086 121.257 125.294 121.257 126.675C121.257 128.056 122.465 129.264 123.846 129.264C125.227 129.264 126.435 127.883 126.435 126.502C126.435 125.122 125.227 124.086 123.846 124.086Z" fill="#FF8600"/>
<path d="M349.735 347.471C345.516 347.471 342 343.955 342 339.735C342 335.516 345.516 332 349.735 332C353.955 332 357.471 335.516 357.471 339.735C357.471 343.955 353.955 347.471 349.735 347.471ZM349.735 334.813C346.922 334.813 344.461 337.274 344.461 340.087C344.461 342.9 346.922 345.361 349.735 345.361C352.548 345.361 355.009 342.548 355.009 339.735C355.009 336.922 352.548 334.813 349.735 334.813Z" fill="#FF8600"/>
<path d="M79 50C74.0909 50 70 45.9091 70 41C70 36.0909 74.0909 32 79 32C83.9091 32 88 36.0909 88 41C88 45.9091 83.9091 50 79 50ZM79 35.2727C75.7273 35.2727 72.8636 38.1364 72.8636 41.4091C72.8636 44.6818 75.7273 47.5455 79 47.5455C82.2727 47.5455 85.1364 44.2727 85.1364 41C85.1364 37.7273 82.2727 35.2727 79 35.2727Z" fill="#010973"/>
</svg>
