<svg width="39" height="39" viewBox="0 0 39 39" fill="none" xmlns="http://www.w3.org/2000/svg">
<path fill-rule="evenodd" clip-rule="evenodd" d="M22.0322 22.2344C25.9375 18.3291 25.8887 11.9487 21.9233 7.9834C17.958 4.01831 11.5776 3.96948 7.67285 7.87476C3.76758 11.78 3.81592 18.1604 7.78125 22.1257C11.7466 26.0911 18.127 26.1396 22.0322 22.2344ZM19.6392 19.8413C22.2427 17.2378 22.2104 12.9841 19.5669 10.3406C16.9233 7.69702 12.6694 7.66455 10.0659 10.2681C7.4624 12.8716 7.49512 17.1252 10.1387 19.7688C12.7822 22.4124 17.0356 22.4448 19.6392 19.8413Z" fill="#5B5B5B"/>
<rect x="18.4609" y="21.0198" width="3.33333" height="16.0769" rx="1.66667" transform="rotate(-45 18.4609 21.0198)" fill="#5B5B5B"/>
</svg>
