<svg width="38" height="20" viewBox="0 0 38 20" fill="none" xmlns="http://www.w3.org/2000/svg">
<path d="M29.767 11.829V1H1V19.0155H29.767H37.0314L29.767 11.829Z" stroke="#010973" stroke-miterlimit="10" stroke-linecap="round" stroke-linejoin="round"/>
<path d="M16.482 10.0571C16.482 10.7673 15.9177 11.3291 15.2386 11.3291C14.5595 11.3291 13.9951 10.7673 13.9951 10.0571C13.9951 9.34685 14.5595 8.78503 15.2386 8.78503C15.9177 8.78503 16.482 9.34685 16.482 10.0571Z" fill="#FF8600" stroke="#FF8600"/>
<path d="M9.70175 10.0571C9.70175 10.7673 9.13741 11.3291 8.4583 11.3291C7.77919 11.3291 7.21484 10.7673 7.21484 10.0571C7.21484 9.34685 7.77919 8.78503 8.4583 8.78503C9.13741 8.78503 9.70175 9.34685 9.70175 10.0571Z" fill="#FF8600" stroke="#FF8600"/>
<path d="M23.2613 10.0571C23.2613 10.7673 22.697 11.3291 22.0179 11.3291C21.3388 11.3291 20.7744 10.7673 20.7744 10.0571C20.7744 9.34685 21.3388 8.78503 22.0179 8.78503C22.697 8.78503 23.2613 9.34684 23.2613 10.0571Z" fill="#FF8600" stroke="#FF8600"/>
</svg>
