<svg width="20" height="21" viewBox="0 0 20 21" fill="none" xmlns="http://www.w3.org/2000/svg">
<path d="M9.9857 15.7827C7.13926 15.7827 4.80518 13.4486 4.80518 10.6022C4.80518 7.75571 7.13926 5.42163 9.9857 5.42163C12.8321 5.42163 15.1662 7.75571 15.1662 10.6022C15.1662 13.4486 12.8321 15.7827 9.9857 15.7827ZM9.9857 12.2246C8.87559 12.2246 7.8224 12.8224 7.28158 13.7902L7.22465 13.904L7.33851 13.9894C8.10705 14.5872 9.01791 14.9287 10.0142 14.9287C10.982 14.9287 11.9213 14.6156 12.6898 13.9894L12.8037 13.904L12.7467 13.7902C12.149 12.8224 11.0958 12.2246 9.9857 12.2246ZM9.9857 7.78418C11.2097 7.78418 12.2059 8.78043 12.2059 10.0044C12.2059 10.5452 12.0067 11.0576 11.6366 11.4845L11.4943 11.6553L11.6936 11.7407C12.3198 12.0254 12.8606 12.5093 13.2591 13.0786L13.4014 13.2778L13.5437 13.0786C14.0561 12.3669 14.3123 11.513 14.3123 10.6306C14.3123 8.26807 12.3767 6.33249 10.0142 6.33249C7.65162 6.33249 5.71604 8.26807 5.71604 10.6306C5.71604 11.513 5.97222 12.3669 6.48458 13.0786L6.6269 13.2778L6.76922 13.0786C7.16772 12.5093 7.70855 12.0538 8.33476 11.7407L8.53401 11.6553L8.39169 11.4845C8.02165 11.086 7.8224 10.5452 7.8224 10.0044C7.76547 8.78043 8.76173 7.78418 9.9857 7.78418ZM9.9857 8.66657C9.24562 8.66657 8.64787 9.26433 8.64787 10.0044C8.64787 10.7445 9.24562 11.3422 9.9857 11.3422C10.7258 11.3422 11.3235 10.7445 11.3235 10.0044C11.3235 9.26433 10.7258 8.66657 9.9857 8.66657Z" fill="#C4C4C4"/>
<path d="M8.79023 20.5647C8.56252 20.5647 8.39173 20.4224 8.36326 20.1947L8.07862 18.5153L7.99323 18.4868C7.22469 18.2876 6.48461 17.9745 5.80147 17.576L5.71607 17.5475L4.34978 18.5153C4.29285 18.5438 4.20746 18.5722 4.12207 18.5722C4.00821 18.5722 3.89435 18.5153 3.80896 18.4584L2.12956 16.779C1.98724 16.6366 1.95877 16.3805 2.07263 16.2097L3.04042 14.8434L2.98349 14.758C2.58499 14.0748 2.27188 13.3348 2.07263 12.5662L2.04417 12.4524L0.364766 12.1677C0.165515 12.1962 0.0231934 11.9969 0.0231934 11.7977V9.43515C0.0231934 9.20743 0.165515 9.03665 0.393231 9.00818L2.07263 8.72354L2.1011 8.60968C2.30035 7.84114 2.61345 7.10107 3.01196 6.41792L3.06888 6.33253L2.1011 4.96624C1.98724 4.79545 1.98724 4.56774 2.15802 4.39695L3.83742 2.71755C3.89435 2.66062 4.00821 2.63216 4.12207 2.63216C4.20746 2.63216 4.29285 2.66062 4.37825 2.71755L5.74454 3.68534L5.82993 3.62841C6.51308 3.22991 7.25315 2.9168 8.02169 2.71755L8.13555 2.68909L8.42019 1.00969C8.39173 0.78197 8.59098 0.639648 8.79023 0.639648H11.1528C11.3805 0.639648 11.5513 0.78197 11.5797 1.00969L11.8644 2.68909L11.9782 2.71755C12.7468 2.9168 13.4869 3.22991 14.17 3.62841L14.2554 3.68534L15.6217 2.71755C15.6786 2.66062 15.764 2.63216 15.8494 2.63216C15.9633 2.63216 16.0771 2.68909 16.1625 2.74601L17.8419 4.42541C17.9842 4.56774 18.0127 4.82392 17.8988 4.9947L16.9311 6.33253L16.988 6.41792C17.3865 7.10107 17.6996 7.84114 17.8988 8.60968L17.9273 8.72354L19.6067 9.00818C19.806 9.03665 19.9767 9.2359 19.9767 9.43515V11.7977C19.9767 12.0254 19.8344 12.1962 19.6067 12.2247L17.9273 12.5093L17.8704 12.5947C17.6711 13.3632 17.358 14.1033 16.9595 14.7865L16.9311 14.8719L17.8988 16.2381C18.0127 16.4089 18.0127 16.6366 17.8419 16.8074L16.1625 18.4868C16.0771 18.5438 15.9633 18.5722 15.8494 18.5722C15.764 18.5722 15.6786 18.5438 15.5932 18.4868L14.2554 17.5475L14.17 17.6044C13.4869 18.0029 12.7468 18.316 11.9782 18.5153L11.8644 18.5438L11.5797 20.2232C11.5513 20.4224 11.352 20.5932 11.1528 20.5932H8.79023V20.5647ZM5.71607 16.5797C5.80147 16.5797 5.88686 16.6082 5.94379 16.6651C6.74079 17.2059 7.62319 17.576 8.56252 17.7468C8.7333 17.7752 8.87562 17.9175 8.90409 18.1168L9.16027 19.7108H10.7827L11.0389 18.1168C11.0674 17.946 11.2097 17.8037 11.3805 17.7468C12.3198 17.5475 13.2022 17.2059 13.9992 16.6651C14.0846 16.6082 14.1415 16.5797 14.2269 16.5797C14.3123 16.5797 14.3977 16.6082 14.4831 16.6651L15.764 17.576L16.9311 16.4089L16.0202 15.128C15.9063 14.9857 15.9063 14.7865 16.0202 14.6441C16.561 13.8471 16.9311 12.9647 17.1018 12.0254C17.1303 11.8546 17.2726 11.7123 17.4719 11.6838L19.0659 11.4277V9.80519L17.4719 9.54901C17.3011 9.52054 17.1588 9.37822 17.1018 9.20743C16.9026 8.26811 16.561 7.38571 16.0202 6.58871C15.9063 6.44639 15.9348 6.24714 16.0202 6.10481L16.9311 4.82392L15.764 3.65688L14.4831 4.56774C14.4546 4.5962 14.3408 4.62467 14.2554 4.62467C14.17 4.62467 14.0846 4.5962 14.0277 4.53927C13.2307 3.99845 12.3483 3.62841 11.409 3.45762C11.2382 3.42916 11.0958 3.28684 11.0674 3.08759L10.8112 1.49358H9.18873L8.93255 3.08759C8.90409 3.25837 8.76177 3.4007 8.59098 3.45762C7.65165 3.65688 6.76926 3.99845 5.97225 4.53927C5.88686 4.5962 5.80147 4.62467 5.71607 4.62467C5.63068 4.62467 5.54529 4.5962 5.4599 4.53927L4.179 3.62841L3.01196 4.79545L3.92282 6.07635C4.03667 6.21867 4.03667 6.41792 3.92282 6.56025C3.38199 7.35725 3.01196 8.23965 2.84117 9.17897C2.81271 9.34976 2.67038 9.49208 2.47113 9.52054L0.877126 9.77672V11.3992L2.47113 11.6554C2.64192 11.6838 2.78424 11.8262 2.84117 11.9969C3.04042 12.9363 3.38199 13.8187 3.92282 14.6157C4.03667 14.758 4.00821 14.9572 3.92282 15.0996L3.01196 16.3805L4.179 17.5475L5.4599 16.6366C5.51682 16.6082 5.63068 16.5797 5.71607 16.5797Z" fill="#C4C4C4"/>
</svg>
