<svg width="21" height="18" viewBox="0 0 21 18" fill="none" xmlns="http://www.w3.org/2000/svg">
<path d="M20.074 2.69254C19.2898 3.00575 18.5057 3.31897 17.7215 3.31897C18.5057 2.84915 19.2898 2.0661 19.6035 0.969841C18.8193 1.43967 17.8784 1.75288 16.9374 1.90949C16.1533 1.28306 15.0555 0.813232 13.9577 0.813232C11.6053 0.813232 9.72332 2.69254 9.72332 4.88506C9.72332 5.19828 9.72333 5.51149 9.88015 5.82471C6.42994 5.6681 3.45021 4.10202 1.41145 1.59628C1.09779 2.22271 0.784139 2.84915 0.784139 3.63219C0.784139 5.04167 1.56828 6.29454 2.66607 7.07758C2.03876 7.07758 1.41145 6.92097 0.784139 6.60775C0.784139 8.64367 2.19559 10.2098 4.07752 10.6796C3.76387 10.6796 3.45021 10.8362 2.97973 10.8362C2.66607 10.8362 2.50925 10.8362 2.19559 10.8362C2.66607 12.4023 4.23435 13.6551 6.11629 13.6551C4.70483 14.5948 2.97973 15.3778 0.940967 15.3778C0.627311 15.3778 0.313656 15.3778 0 15.3778C1.88193 16.4741 3.9207 17.2571 6.27311 17.2571C13.8008 17.2571 18.0352 10.9928 18.0352 5.51149V5.04167C18.8193 4.25862 19.4467 3.63219 20.074 2.69254Z" fill="#ffffff"/>
</svg>
