<svg width="23" height="22" viewBox="0 0 23 22" fill="none" xmlns="http://www.w3.org/2000/svg">
<path d="M19.0414 14.1738C17.8656 12.9979 16.4284 12.1269 14.9041 11.5608C16.5591 10.4284 17.6478 8.51221 17.6478 6.37823C17.6478 2.93773 14.817 0.106934 11.333 0.106934C7.84892 0.106934 5.01813 2.93773 5.01813 6.42178C5.01813 8.55576 6.1069 10.472 7.76182 11.6043C6.23755 12.1269 4.80038 12.9979 3.62451 14.2173C1.57763 16.2207 0.445312 18.9644 0.445312 21.8823H2.14379C2.14379 16.8304 6.2811 12.6931 11.333 12.6931C16.3848 12.6931 20.5222 16.8304 20.5222 21.8823H22.2206C22.2206 18.9644 21.0883 16.2207 19.0414 14.1738ZM6.76016 6.42178C6.76016 3.89584 8.80704 1.84896 11.333 1.84896C13.8589 1.84896 15.9058 3.89584 15.9058 6.42178C15.9058 8.94771 13.8589 10.9946 11.333 10.9946C8.80704 10.9946 6.76016 8.94771 6.76016 6.42178Z" fill="#E76800"/>
</svg>
