<svg width="208" height="60" viewBox="0 0 208 60" fill="none" xmlns="http://www.w3.org/2000/svg">
<path d="M100.946 20.13C99.6108 18.7917 98.0527 17.788 96.2719 17.0073C94.4912 16.2267 92.4878 15.8921 90.3732 15.8921C88.2585 15.8921 86.2552 16.2267 84.4744 17.0073C82.6937 17.788 81.1355 18.7917 79.8 20.13C78.4644 21.4683 77.4627 23.0296 76.6836 24.7025C75.9046 26.4869 75.5707 28.2713 75.5707 30.2787V30.3902C75.5707 32.3977 75.9046 34.2936 76.6836 35.9664C77.4627 37.7508 78.4644 39.2006 79.8 40.5389C81.1355 41.8772 82.6937 42.8809 84.4744 43.6616C86.2552 44.4423 88.2585 44.7769 90.3732 44.7769C92.4878 44.7769 94.4912 44.4423 96.2719 43.6616C98.0527 42.8809 99.6108 41.8772 100.946 40.5389C102.282 39.2006 103.284 37.7508 104.063 35.9664C104.842 34.1821 105.176 32.3977 105.176 30.3902V30.2787C105.176 28.2713 104.842 26.3754 104.063 24.7025C103.284 22.9181 102.282 21.3568 100.946 20.13ZM98.7205 30.3902C98.7205 31.617 98.4979 32.7322 98.0527 33.736C97.6075 34.7397 97.051 35.7434 96.3832 36.5241C95.6041 37.3047 94.8251 37.9739 93.7121 38.42C92.7104 38.8661 91.5974 39.0891 90.3732 39.0891C89.1489 39.0891 88.0359 38.8661 86.923 38.42C85.9213 37.9739 85.0309 37.3047 84.2518 36.5241C83.4728 35.7434 82.9163 34.8512 82.4711 33.736C82.0259 32.6207 81.8033 31.5055 81.8033 30.3902V30.2787C81.8033 29.0519 82.0259 27.9367 82.4711 26.933C82.9163 25.9293 83.4728 24.9255 84.1405 24.1449C84.9196 23.3642 85.6987 22.6951 86.8117 22.249C87.8134 21.8029 88.9263 21.5798 90.2619 21.5798C91.4862 21.5798 92.5991 21.8029 93.6008 22.249C94.6025 22.6951 95.4928 23.3642 96.2719 24.1449C97.051 24.9255 97.6075 25.8177 98.0527 26.933C98.4979 28.0482 98.7205 29.1635 98.7205 30.3902Z" fill="black"/>
<path d="M120.646 22.4722C119.867 22.4722 119.199 22.5837 118.531 22.8067C117.975 23.0298 117.418 23.2528 116.862 23.5874C116.305 23.922 115.86 24.2566 115.526 24.7027C115.081 25.1487 114.747 25.5948 114.413 26.0409V23.0298H108.403V44.4424H114.413V32.3978C114.413 30.948 114.747 29.8328 115.415 29.1636C116.083 28.3829 116.973 28.0484 118.197 28.0484C119.31 28.0484 120.312 28.3829 120.869 29.1636C121.536 29.9443 121.87 30.948 121.87 32.3978V44.3309H127.88V30.3904C127.88 27.9369 127.213 25.9294 125.988 24.5911C124.764 23.2528 122.983 22.4722 120.646 22.4722Z" fill="black"/>
<path d="M143.907 22.4722C143.128 22.4722 142.46 22.5837 141.792 22.8068C141.236 23.0298 140.679 23.2529 140.123 23.5875C139.566 23.922 139.121 24.2566 138.787 24.7027C138.342 25.1488 138.008 25.5949 137.674 26.041V15.2231H131.664V44.331H137.674V32.3979C137.674 30.9481 138.008 29.8328 138.676 29.1637C139.344 28.383 140.234 28.0484 141.458 28.0484C142.571 28.0484 143.573 28.383 144.13 29.1637C144.797 29.9443 145.131 30.9481 145.131 32.3979V44.331H151.141V30.3904C151.141 27.9369 150.474 25.9295 149.249 24.5912C147.914 23.2529 146.133 22.4722 143.907 22.4722Z" fill="black"/>
<path d="M161.269 15.2231H154.925V20.5763H161.269V15.2231Z" fill="black"/>
<path d="M161.047 22.9182H155.037V44.3309H161.047V22.9182Z" fill="black"/>
<path d="M174.402 37.1933L169.617 22.9182H163.273L171.62 44.4424H177.185L185.532 22.9182H179.3L174.402 37.1933Z" fill="black"/>
<path d="M206.679 29.7212C206.233 28.2714 205.677 27.0447 204.787 26.0409C203.896 24.9257 202.894 24.145 201.559 23.4759C200.223 22.8067 198.776 22.4722 196.996 22.4722C195.438 22.4722 193.991 22.8067 192.766 23.3644C191.431 23.922 190.318 24.7027 189.428 25.7064C188.537 26.7101 187.758 27.9368 187.313 29.2751C186.756 30.6134 186.534 32.0632 186.534 33.6246V33.7361C186.534 35.409 186.756 36.8588 187.313 38.1971C187.869 39.5354 188.648 40.6506 189.65 41.6543C190.652 42.658 191.876 43.4387 193.212 43.8848C194.547 44.4424 196.105 44.6655 197.664 44.6655C199.556 44.6655 201.336 44.3309 202.672 43.6618C204.119 42.9926 205.343 41.9889 206.345 40.7621L202.894 37.6394C202.004 38.4201 201.225 38.9777 200.446 39.3123C199.667 39.6469 198.776 39.8699 197.775 39.8699C196.439 39.8699 195.326 39.5354 194.325 38.8662C193.434 38.1971 192.766 37.0818 192.544 35.7435H207.346C207.346 35.409 207.346 35.1859 207.458 34.9629C207.458 34.7398 207.458 34.5168 207.458 34.1822V34.0707C207.346 32.6209 207.124 31.1711 206.679 29.7212ZM192.321 31.9517C192.544 30.6134 193.1 29.4982 193.879 28.606C194.658 27.8253 195.66 27.3792 196.996 27.3792C198.22 27.3792 199.333 27.8253 200.112 28.606C200.891 29.4982 201.336 30.5019 201.559 31.8402H192.321V31.9517Z" fill="black"/>
<path d="M48.7481 9.98141L34.6134 1.84015C30.3841 -0.613383 25.1531 -0.613383 20.9238 1.84015L6.90041 9.98141C2.55983 12.4349 0 16.8959 0 21.803V38.0855C0 42.9926 2.55983 47.5651 6.90041 50.0186L21.0351 58.1599C25.2644 60.6134 30.4954 60.6134 34.7247 58.1599L48.8594 50.0186C53.0887 47.5651 55.7598 42.9926 55.7598 38.0855V21.803C55.5372 16.8959 52.9774 12.4349 48.7481 9.98141ZM46.856 29.9442C46.856 30.8364 46.4109 31.6171 45.6318 32.0632L24.2627 44.4424L27.713 46.4498L43.1832 37.5279C44.2962 36.8587 45.7431 37.3048 46.4109 38.4201C47.0786 39.5353 46.6334 40.9851 45.5205 41.6543L29.0485 51.2454C28.7146 51.4684 28.2694 51.5799 27.8243 51.5799C27.3791 51.5799 27.0452 51.4684 26.6 51.2454L18.2527 46.4498C17.4736 46.0037 17.0284 45.223 17.0284 44.3309C17.0284 43.4387 17.4736 42.658 18.2527 42.2119L41.959 28.4944V24.4796L12.354 41.6543C11.5749 42.1004 10.6845 42.1004 9.90543 41.6543C9.12635 41.2082 8.68117 40.4275 8.68117 39.5353V30.0558C8.68117 29.1636 9.12635 28.3829 9.90543 27.9368L31.3858 15.5576L27.8243 13.5502L12.354 22.4721C11.241 23.1413 9.79414 22.6952 9.12636 21.5799C8.45857 20.4647 8.90376 19.0149 10.0167 18.3457L26.6 8.75465C27.3791 8.30855 28.2694 8.30855 29.0485 8.75465L37.5071 13.6617C38.2862 14.1078 38.7314 14.8885 38.7314 15.7807C38.7314 16.6729 38.2862 17.4535 37.5071 17.8996L13.5782 31.5056V35.4089L43.1832 18.2342C43.9623 17.7881 44.8527 17.7881 45.6318 18.2342C46.4109 18.6803 46.856 19.461 46.856 20.3532V29.9442Z" fill="#FF8600"/>
</svg>
