<svg width="200" height="58" viewBox="0 0 200 58" fill="none" xmlns="http://www.w3.org/2000/svg">
<path d="M97.3176 19.4591C96.0301 18.1654 94.528 17.1952 92.8112 16.4405C91.0945 15.6859 89.1631 15.3625 87.1245 15.3625C85.0859 15.3625 83.1546 15.6859 81.4378 16.4405C79.7211 17.1952 78.2189 18.1654 76.9314 19.4591C75.6438 20.7528 74.6782 22.2621 73.9271 23.8792C73.176 25.6041 72.8541 27.329 72.8541 29.2695V29.3773C72.8541 31.3178 73.176 33.1506 73.9271 34.7677C74.6782 36.4926 75.6438 37.8941 76.9314 39.1877C78.2189 40.4814 79.7211 41.4517 81.4378 42.2063C83.1546 42.961 85.0859 43.2844 87.1245 43.2844C89.1631 43.2844 91.0945 42.961 92.8112 42.2063C94.528 41.4517 96.0301 40.4814 97.3176 39.1877C98.6052 37.8941 99.5709 36.4926 100.322 34.7677C101.073 33.0428 101.395 31.3178 101.395 29.3773V29.2695C101.395 27.329 101.073 25.4963 100.322 23.8792C99.5709 22.1543 98.6052 20.645 97.3176 19.4591ZM95.1717 29.3773C95.1717 30.5632 94.9571 31.6413 94.5279 32.6115C94.0988 33.5818 93.5623 34.5521 92.9185 35.3067C92.1674 36.0613 91.4164 36.7082 90.3434 37.1394C89.3777 37.5706 88.3048 37.7863 87.1245 37.7863C85.9443 37.7863 84.8713 37.5706 83.7983 37.1394C82.8327 36.7082 81.9743 36.0613 81.2232 35.3067C80.4721 34.5521 79.9357 33.6896 79.5065 32.6115C79.0773 31.5335 78.8627 30.4554 78.8627 29.3773V29.2695C78.8627 28.0836 79.0773 27.0056 79.5065 26.0353C79.9357 25.0651 80.4722 24.0948 81.1159 23.3402C81.867 22.5855 82.6181 21.9387 83.691 21.5074C84.6567 21.0762 85.7297 20.8606 87.0172 20.8606C88.1975 20.8606 89.2704 21.0762 90.2361 21.5074C91.2018 21.9387 92.0601 22.5855 92.8112 23.3402C93.5623 24.0948 94.0988 24.9573 94.5279 26.0353C94.9571 27.1134 95.1717 28.1915 95.1717 29.3773Z" fill="white"/>
<path d="M116.309 21.7231C115.558 21.7231 114.914 21.8309 114.27 22.0465C113.734 22.2621 113.197 22.4777 112.661 22.8012C112.125 23.1246 111.695 23.448 111.373 23.8792C110.944 24.3104 110.622 24.7417 110.3 25.1729V22.2621H104.506V42.961H110.3V31.3179C110.3 29.9164 110.622 28.8383 111.266 28.1915C111.91 27.4368 112.768 27.1134 113.949 27.1134C115.022 27.1134 115.987 27.4368 116.524 28.1915C117.167 28.9461 117.489 29.9164 117.489 31.3179V42.8532H123.283V29.3774C123.283 27.0056 122.64 25.0651 121.459 23.7714C120.279 22.4777 118.562 21.7231 116.309 21.7231Z" fill="white"/>
<path d="M138.734 21.7231C137.983 21.7231 137.339 21.8309 136.695 22.0465C136.159 22.2621 135.622 22.4777 135.086 22.8011C134.549 23.1246 134.12 23.448 133.798 23.8792C133.369 24.3104 133.047 24.7417 132.725 25.1729V14.7156H126.931V42.8532H132.725V31.3179C132.725 29.9164 133.047 28.8383 133.691 28.1915C134.335 27.4368 135.193 27.1134 136.373 27.1134C137.446 27.1134 138.412 27.4368 138.948 28.1915C139.592 28.9461 139.914 29.9164 139.914 31.3179V42.8532H145.708V29.3773C145.708 27.0056 145.064 25.0651 143.884 23.7714C142.597 22.4777 140.88 21.7231 138.734 21.7231Z" fill="white"/>
<path d="M155.472 14.7156H149.356V19.8904H155.472V14.7156Z" fill="white"/>
<path d="M155.257 22.1543H149.464V42.8532H155.257V22.1543Z" fill="white"/>
<path d="M168.133 35.9535L163.519 22.1543H157.403L165.451 42.961H170.815L178.863 22.1543H172.854L168.133 35.9535Z" fill="white"/>
<path d="M199.249 28.7305C198.82 27.329 198.283 26.1432 197.425 25.1729C196.567 24.0948 195.601 23.3402 194.313 22.6933C193.026 22.0465 191.631 21.7231 189.914 21.7231C188.412 21.7231 187.017 22.0465 185.837 22.5855C184.549 23.1246 183.476 23.8792 182.618 24.8495C181.76 25.8197 181.009 27.0056 180.579 28.2993C180.043 29.593 179.828 30.9945 179.828 32.5037V32.6116C179.828 34.2287 180.043 35.6301 180.579 36.9238C181.116 38.2175 181.867 39.2956 182.833 40.2658C183.798 41.2361 184.979 41.9907 186.266 42.422C187.554 42.961 189.056 43.1766 190.558 43.1766C192.382 43.1766 194.099 42.8532 195.386 42.2063C196.781 41.5595 197.961 40.5892 198.927 39.4034L195.601 36.3848C194.743 37.1394 193.991 37.6785 193.24 38.0019C192.489 38.3253 191.631 38.5409 190.665 38.5409C189.378 38.5409 188.305 38.2175 187.339 37.5707C186.481 36.9238 185.837 35.8458 185.622 34.5521H199.893C199.893 34.2287 199.893 34.013 200 33.7974C200 33.5818 200 33.3662 200 33.0428V32.935C199.893 31.5335 199.678 30.132 199.249 28.7305ZM185.408 30.8866C185.622 29.593 186.159 28.5149 186.91 27.6524C187.661 26.8978 188.627 26.4666 189.914 26.4666C191.094 26.4666 192.167 26.8978 192.918 27.6524C193.67 28.5149 194.099 29.4852 194.313 30.7788H185.408V30.8866Z" fill="white"/>
<path d="M46.9957 9.6487L33.3691 1.77881C29.2918 -0.592937 24.2489 -0.592937 20.1717 1.77881L6.65236 9.6487C2.46781 12.0204 0 16.3327 0 21.0762V36.816C0 41.5595 2.46781 45.9796 6.65236 48.3513L20.279 56.2212C24.3562 58.5929 29.3991 58.5929 33.4764 56.2212L47.103 48.3513C51.1803 45.9796 53.7554 41.5595 53.7554 36.816V21.0762C53.5408 16.3327 51.073 12.0204 46.9957 9.6487ZM45.1717 28.9461C45.1717 29.8086 44.7425 30.5632 43.9914 30.9944L23.3906 42.961L26.7167 44.9015L41.6309 36.277C42.7039 35.6301 44.0987 36.0613 44.7425 37.1394C45.3863 38.2175 44.9571 39.619 43.8841 40.2658L28.0043 49.5372C27.6824 49.7528 27.2532 49.8606 26.824 49.8606C26.3949 49.8606 26.073 49.7528 25.6438 49.5372L17.5966 44.9015C16.8455 44.4703 16.4163 43.7156 16.4163 42.8532C16.4163 41.9907 16.8455 41.2361 17.5966 40.8048L40.4506 27.5446V23.6636L11.9099 40.2658C11.1588 40.697 10.3004 40.697 9.54936 40.2658C8.79828 39.8346 8.3691 39.0799 8.3691 38.2175V29.0539C8.3691 28.1915 8.79828 27.4368 9.54936 27.0056L30.2575 15.039L26.824 13.0985L11.9099 21.7231C10.8369 22.3699 9.44206 21.9387 8.79828 20.8606C8.15451 19.7825 8.58369 18.381 9.65665 17.7342L25.6438 8.46283C26.3949 8.0316 27.2532 8.0316 28.0043 8.46283L36.1588 13.2063C36.9099 13.6375 37.3391 14.3922 37.3391 15.2546C37.3391 16.1171 36.9099 16.8717 36.1588 17.303L13.0901 30.4554V34.2286L41.6309 17.6264C42.382 17.1952 43.2403 17.1952 43.9914 17.6264C44.7425 18.0576 45.1717 18.8123 45.1717 19.6747V28.9461Z" fill="white"/>
</svg>
