<svg width="56" height="60" viewBox="0 0 56 60" fill="none" xmlns="http://www.w3.org/2000/svg">
<path d="M48.8419 9.98141L34.68 1.84015C30.4426 -0.613383 25.2015 -0.613383 20.9641 1.84015L6.9137 9.98141C2.56476 12.4349 0 16.8959 0 21.803V38.0855C0 42.9926 2.56476 47.5651 6.9137 50.0186L21.0756 58.1599C25.313 60.6134 30.5541 60.6134 34.7915 58.1599L48.9534 50.0186C53.1909 47.5651 55.8671 42.9926 55.8671 38.0855V21.803C55.6441 16.8959 53.0793 12.4349 48.8419 9.98141ZM46.9462 29.9442C46.9462 30.8364 46.5002 31.6171 45.7196 32.0632L24.3094 44.4424L27.7663 46.4498L43.2664 37.5279C44.3815 36.8587 45.8311 37.3048 46.5002 38.4201C47.1693 39.5353 46.7232 40.9851 45.6081 41.6543L29.1044 51.2454C28.7699 51.4684 28.3239 51.5799 27.8778 51.5799C27.4318 51.5799 27.0972 51.4684 26.6512 51.2454L18.2878 46.4498C17.5073 46.0037 17.0612 45.223 17.0612 44.3309C17.0612 43.4387 17.5073 42.658 18.2878 42.2119L42.0397 28.4944V24.4796L12.3777 41.6543C11.5972 42.1004 10.7051 42.1004 9.9245 41.6543C9.14392 41.2082 8.69788 40.4275 8.69788 39.5353V30.0558C8.69788 29.1636 9.14392 28.3829 9.9245 27.9368L31.4462 15.5576L27.8778 13.5502L12.3777 22.4721C11.2626 23.1413 9.81299 22.6952 9.14392 21.5799C8.47485 20.4647 8.9209 19.0149 10.036 18.3457L26.6512 8.75465C27.4318 8.30855 28.3239 8.30855 29.1044 8.75465L37.5793 13.6617C38.3599 14.1078 38.8059 14.8885 38.8059 15.7807C38.8059 16.6729 38.3599 17.4535 37.5793 17.8996L13.6044 31.5056V35.4089L43.2664 18.2342C44.0469 17.7881 44.939 17.7881 45.7196 18.2342C46.5002 18.6803 46.9462 19.461 46.9462 20.3532V29.9442Z" fill="white"/>
</svg>
