<svg width="79" height="513" viewBox="0 0 79 513" fill="none" xmlns="http://www.w3.org/2000/svg">
<path d="M77 459.9L77.2541 460.868L78 460.672L78 459.9L77 459.9ZM63.6211 463.416L63.3669 462.449L62.6211 462.645L62.6211 463.416L63.6211 463.416ZM63.6211 486.609L62.6211 486.609L62.6211 487.375L63.3604 487.575L63.6211 486.609ZM77 490.223L78 490.223L78 489.457L77.2607 489.257L77 490.223ZM77 511.414L76.691 512.365L78 512.79L78 511.414L77 511.414ZM5.32031 488.123L4.32031 488.123L4.32031 488.85L5.01128 489.074L5.32031 488.123ZM5.32031 462.391L5.00777 461.441L4.32031 461.667L4.32031 462.391L5.32031 462.391ZM77 438.807L78 438.807L78 437.425L76.6875 437.857L77 438.807ZM47.8008 467.42L48.8008 467.42L48.8008 466.124L47.5469 466.453L47.8008 467.42ZM36.082 470.496L35.8281 469.529L35.8169 469.532L36.082 470.496ZM25.9746 473.133L26.2117 474.104L26.2189 474.102L25.9746 473.133ZM17.0879 475.135L16.909 474.151L16.9141 476.12L17.0879 475.135ZM25.291 476.893L25.0661 477.867L25.0741 477.869L25.291 476.893ZM47.8008 482.605L47.545 483.572L48.8008 483.904L48.8008 482.605L47.8008 482.605ZM76.7458 458.933L63.3669 462.449L63.8752 464.383L77.2541 460.868L76.7458 458.933ZM62.6211 463.416L62.6211 486.609L64.6211 486.609L64.6211 463.416L62.6211 463.416ZM63.3604 487.575L76.7393 491.188L77.2607 489.257L63.8818 485.644L63.3604 487.575ZM76 490.223L76 511.414L78 511.414L78 490.223L76 490.223ZM77.309 510.463L5.62934 487.172L5.01128 489.074L76.691 512.365L77.309 510.463ZM6.32031 488.123L6.32031 462.391L4.32031 462.391L4.32031 488.123L6.32031 488.123ZM5.63285 463.341L77.3125 439.757L76.6875 437.857L5.00777 461.441L5.63285 463.341ZM76 438.807L76 459.9L78 459.9L78 438.807L76 438.807ZM47.5469 466.453L35.8281 469.529L36.3359 471.463L48.0547 468.387L47.5469 466.453ZM35.8169 469.532C33.2224 470.245 29.8609 471.122 25.7303 472.163L26.2189 474.102C30.3565 473.06 33.7333 472.179 36.3472 471.46L35.8169 469.532ZM25.7375 472.161C21.6041 473.17 18.6673 473.831 16.909 474.151L17.2668 476.119C19.0892 475.787 22.0769 475.114 26.2117 474.104L25.7375 472.161ZM16.9141 476.12C18.5462 476.408 21.2584 476.988 25.0662 477.867L25.5159 475.918C21.7065 475.039 18.9498 474.448 17.2617 474.15L16.9141 476.12ZM25.0741 477.869C28.86 478.71 36.3441 480.609 47.545 483.572L48.0565 481.639C36.8617 478.677 29.3392 476.768 25.5079 475.916L25.0741 477.869ZM48.8008 482.605L48.8008 467.42L46.8008 467.42L46.8008 482.605L48.8008 482.605ZM28.2695 386.57L28.8412 387.391L28.8448 387.388L28.2695 386.57ZM70.3594 386.619L69.7856 387.438L69.7866 387.439L70.3594 386.619ZM77.293 406.932L76.3314 406.657L76.3288 406.666L76.3264 406.675L77.293 406.932ZM75.4863 411.229L76.3319 411.763L76.338 411.753L75.4863 411.229ZM71.5801 415.574L70.9067 414.835L70.5801 415.132L70.5801 415.574L71.5801 415.574ZM71.5801 416.746L70.5801 416.746L70.5801 417.333L71.0924 417.619L71.5801 416.746ZM77 419.773L78 419.773L78 419.187L77.4876 418.9L77 419.773ZM77 434.666L77 435.666L78 435.666L78 434.666L77 434.666ZM1.02343 434.666L0.0234326 434.666L0.0234326 435.666L1.02343 435.666L1.02343 434.666ZM1.02343 415.574L1.02343 414.574L0.0234317 414.574L0.0234318 415.574L1.02343 415.574ZM28.8066 416.258L28.7161 417.254L29.8066 417.353L29.8066 416.258L28.8066 416.258ZM28.8066 415.574L29.8066 415.574L29.8066 415.03L29.3503 414.735L28.8066 415.574ZM22.6055 409.178L21.7182 409.639L21.7208 409.644L22.6055 409.178ZM59.666 413.719L60.1948 414.568L60.2011 414.564L59.666 413.719ZM59.1777 402.488L59.645 401.604L59.6399 401.601L59.1777 402.488ZM21.7012 400.877C21.7012 395.19 24.0572 390.724 28.8412 387.391L27.6978 385.75C22.3907 389.448 19.7012 394.52 19.7012 400.877L21.7012 400.877ZM28.8448 387.388C33.662 384.001 40.4155 382.248 49.2168 382.248L49.2168 380.248C40.1795 380.248 32.9682 382.044 27.6943 385.752L28.8448 387.388ZM49.2168 382.248C58.0824 382.248 64.9022 384.017 69.7856 387.438L70.9332 385.8C65.5952 382.06 58.32 380.248 49.2168 380.248L49.2168 382.248ZM69.7866 387.439C74.5892 390.795 76.9766 395.432 76.9766 401.463L78.9766 401.463C78.9766 394.798 76.2858 389.54 70.9321 385.799L69.7866 387.439ZM76.9766 401.463C76.9766 403.442 76.7565 405.169 76.3314 406.657L78.2545 407.206C78.7409 405.504 78.9766 403.586 78.9766 401.463L76.9766 401.463ZM76.3264 406.675C75.9256 408.186 75.3596 409.526 74.6347 410.704L76.338 411.753C77.1755 410.392 77.814 408.867 78.2595 407.188L76.3264 406.675ZM74.6408 410.695C73.9291 411.821 72.702 413.2 70.9067 414.835L72.2534 416.314C74.104 414.628 75.481 413.11 76.3318 411.763L74.6408 410.695ZM70.5801 415.574L70.5801 416.746L72.5801 416.746L72.5801 415.574L70.5801 415.574ZM71.0924 417.619L76.5124 420.646L77.4876 418.9L72.0677 415.873L71.0924 417.619ZM76 419.773L76 434.666L78 434.666L78 419.773L76 419.773ZM77 433.666L1.02343 433.666L1.02343 435.666L77 435.666L77 433.666ZM2.02343 434.666L2.02343 415.574L0.0234318 415.574L0.0234326 434.666L2.02343 434.666ZM1.02343 416.574L18.2109 416.574L18.2109 414.574L1.02343 414.574L1.02343 416.574ZM18.2109 416.574C20.2114 416.574 23.7025 416.798 28.7161 417.254L28.8972 415.262C23.8848 414.806 20.3121 414.574 18.2109 414.574L18.2109 416.574ZM29.8066 416.258L29.8066 415.574L27.8066 415.574L27.8066 416.258L29.8066 416.258ZM29.3503 414.735C26.5936 412.949 24.662 410.935 23.4901 408.711L21.7208 409.644C23.088 412.238 25.2905 414.488 28.263 416.414L29.3503 414.735ZM23.4927 408.716C22.306 406.434 21.7012 403.829 21.7012 400.877L19.7012 400.877C19.7012 404.11 20.3659 407.038 21.7182 409.639L23.4927 408.716ZM34.6914 407.859C34.6914 410.787 35.7286 413.09 37.9199 414.551L39.0293 412.887C37.5096 411.874 36.6914 410.27 36.6914 407.859L34.6914 407.859ZM37.9199 414.551C40.0241 415.954 43.1806 416.574 47.2148 416.574L47.2148 414.574C43.3064 414.574 40.6361 413.958 39.0293 412.887L37.9199 414.551ZM47.2148 416.574L49.9004 416.574L49.9004 414.574L47.2148 414.574L47.2148 416.574ZM49.9004 416.574C54.4663 416.574 57.9606 415.959 60.1948 414.568L59.1373 412.87C57.4 413.952 54.3839 414.574 49.9004 414.574L49.9004 416.574ZM60.2011 414.564C62.5079 413.103 63.5957 410.723 63.5957 407.664L61.5957 407.664C61.5957 410.204 60.7304 411.861 59.131 412.874L60.2011 414.564ZM63.5957 407.664C63.5957 406.363 63.2627 405.175 62.5757 404.134C61.8934 403.101 60.8967 402.266 59.645 401.604L58.7104 403.372C59.7374 403.915 60.4497 404.545 60.9067 405.237C61.3591 405.922 61.5957 406.719 61.5957 407.664L63.5957 407.664ZM59.6399 401.601C57.1182 400.287 53.5425 399.682 49.0215 399.682L49.0215 401.682C53.4197 401.682 56.6149 402.28 58.7156 403.375L59.6399 401.601ZM49.0215 399.682C44.5211 399.682 40.9896 400.282 38.5498 401.596C37.315 402.261 36.3384 403.12 35.6743 404.193C35.0084 405.268 34.6914 406.503 34.6914 407.859L36.6914 407.859C36.6914 406.824 36.9298 405.964 37.3748 405.245C37.8215 404.524 38.5112 403.888 39.498 403.357C41.5016 402.278 44.6352 401.682 49.0215 401.682L49.0215 399.682ZM70.4082 327.303L69.7151 328.024L69.7152 328.024L70.4082 327.303ZM70.2129 367.781L70.9039 368.504L70.9063 368.502L70.2129 367.781ZM28.2207 367.928L27.523 368.644L27.523 368.644L28.2207 367.928ZM24.168 333.016L23.2935 332.531L24.168 333.016ZM34.1289 323.396L34.5894 324.284L34.5974 324.28L34.1289 323.396ZM60.1055 353.914L60.5573 354.806L60.562 354.804L60.1055 353.914ZM60.1055 341.268L59.6629 342.164L59.6677 342.167L60.1055 341.268ZM38.5234 353.914L38.9947 353.032L38.9897 353.029L38.5234 353.914ZM49.2168 320.979C58.0843 320.979 64.8719 323.367 69.7151 328.024L71.1013 326.582C65.7882 321.473 58.4482 318.979 49.2168 318.979L49.2168 320.979ZM69.7152 328.024C74.5178 332.64 76.9766 339.156 76.9766 347.713L78.9766 347.713C78.9766 338.757 76.3897 331.666 71.1012 326.582L69.7152 328.024ZM76.9766 347.713C76.9766 355.889 74.4661 362.301 69.5195 367.061L70.9063 368.502C76.3113 363.301 78.9766 356.333 78.9766 347.713L76.9766 347.713ZM69.5219 367.058C64.5732 371.789 57.8439 374.203 49.2168 374.203L49.2168 376.203C58.2329 376.203 65.501 373.669 70.9039 368.504L69.5219 367.058ZM49.2168 374.203C40.3801 374.203 33.6615 371.83 28.9184 367.211L27.523 368.644C32.7408 373.726 40.0197 376.203 49.2168 376.203L49.2168 374.203ZM28.9184 367.211C24.1454 362.562 21.7012 356.012 21.7012 347.42L19.7012 347.42C19.7012 356.406 22.2699 363.527 27.523 368.644L28.9184 367.211ZM21.7012 347.42C21.7012 342.129 22.8246 337.499 25.0424 333.501L23.2935 332.531C20.889 336.865 19.7012 341.838 19.7012 347.42L21.7012 347.42ZM25.0424 333.501C27.2559 329.51 30.4302 326.442 34.5894 324.284L33.6684 322.509C29.1688 324.843 25.7024 328.188 23.2935 332.531L25.0424 333.501ZM34.5974 324.28C38.7255 322.091 43.5883 320.979 49.2168 320.979L49.2168 318.979C43.3218 318.979 38.126 320.145 33.6604 322.513L34.5974 324.28ZM49.2168 356.818C54.0317 356.818 57.8455 356.18 60.5573 354.806L59.6536 353.022C57.3524 354.187 53.9071 354.818 49.2168 354.818L49.2168 356.818ZM60.562 354.804C61.947 354.093 63.027 353.117 63.7536 351.865C64.4778 350.616 64.8164 349.153 64.8164 347.518L62.8164 347.518C62.8164 348.877 62.5365 349.977 62.0237 350.861C61.5133 351.741 60.7379 352.466 59.6489 353.024L60.562 354.804ZM64.8164 347.518C64.8164 345.897 64.4772 344.45 63.7485 343.223C63.0172 341.991 61.9313 341.044 60.5432 340.368L59.6677 342.167C60.7536 342.695 61.5231 343.392 62.0288 344.244C62.5371 345.1 62.8164 346.176 62.8164 347.518L64.8164 347.518ZM60.548 340.371C57.8393 339.034 54.0295 338.412 49.2168 338.412L49.2168 340.412C53.9093 340.412 57.3586 341.027 59.6629 342.164L60.548 340.371ZM49.2168 338.412C44.4396 338.412 40.6858 339.033 38.0666 340.378L38.9802 342.157C41.1788 341.028 44.5538 340.412 49.2168 340.412L49.2168 338.412ZM38.0666 340.378C36.7094 341.075 35.6533 342.042 34.9444 343.288C34.2387 344.527 33.9101 345.984 33.9101 347.615L35.9101 347.615C35.9101 346.252 36.1838 345.153 36.6825 344.277C37.178 343.406 37.9286 342.697 38.9802 342.157L38.0666 340.378ZM33.9101 347.615C33.9101 349.218 34.2404 350.655 34.9461 351.885C35.654 353.119 36.7066 354.087 38.0572 354.799L38.9897 353.029C37.9314 352.472 37.1773 351.755 36.6809 350.89C36.1821 350.02 35.9101 348.942 35.9101 347.615L33.9101 347.615ZM38.0522 354.796C40.6457 356.182 44.4078 356.818 49.2168 356.818L49.2168 354.818C44.5206 354.818 41.1538 354.186 38.9946 353.032L38.0522 354.796ZM77 272.137L77.3283 273.081L78 272.848L78 272.137L77 272.137ZM70.1152 274.529L69.787 273.585L69.1152 273.818L69.1152 274.529L70.1152 274.529ZM70.1152 275.652L69.1152 275.652L69.1152 276.205L69.5833 276.499L70.1152 275.652ZM75.9746 282.342L76.8792 281.915L76.8771 281.911L75.9746 282.342ZM72.7031 306.561L73.3934 307.284L73.3968 307.281L72.7031 306.561ZM21.6777 311.639L20.6777 311.639L20.6777 312.639L21.6777 312.639L21.6777 311.639ZM21.6777 292.547L21.6777 291.547L20.6777 291.547L20.6777 292.547L21.6777 292.547ZM60.1055 291.033L60.5833 291.912L60.595 291.905L60.1055 291.033ZM59.0312 278.924L59.5093 278.045L59.5047 278.043L59.0312 278.924ZM21.6777 276.824L20.6777 276.824L20.6777 277.824L21.6777 277.824L21.6777 276.824ZM21.6777 257.732L21.6777 256.732L20.6777 256.732L20.6777 257.732L21.6777 257.732ZM77 257.732L78 257.732L78 256.732L77 256.732L77 257.732ZM76.6717 271.192L69.787 273.585L70.4435 275.474L77.3283 273.081L76.6717 271.192ZM69.1152 274.529L69.1152 275.652L71.1152 275.652L71.1152 274.529L69.1152 274.529ZM69.5833 276.499C71.9524 277.987 73.7815 280.068 75.0721 282.773L76.8771 281.911C75.4333 278.886 73.3562 276.507 70.6472 274.806L69.5833 276.499ZM75.07 282.768C76.3292 285.44 76.9766 288.625 76.9766 292.352L78.9766 292.352C78.9766 288.396 78.2892 284.908 76.8792 281.915L75.07 282.768ZM76.9766 292.352C76.9766 298.238 75.2832 302.688 72.0095 305.84L73.3968 307.281C77.1542 303.663 78.9766 298.639 78.9766 292.352L76.9766 292.352ZM72.0128 305.837C68.7032 308.995 63.9844 310.639 57.7129 310.639L57.7129 312.639C64.332 312.639 69.6066 310.897 73.3934 307.284L72.0128 305.837ZM57.7129 310.639L21.6777 310.639L21.6777 312.639L57.7129 312.639L57.7129 310.639ZM22.6777 311.639L22.6777 292.547L20.6777 292.547L20.6777 311.639L22.6777 311.639ZM21.6777 293.547L51.9023 293.547L51.9023 291.547L21.6777 291.547L21.6777 293.547ZM51.9023 293.547C55.579 293.547 58.5112 293.039 60.5832 291.912L59.6277 290.155C57.9887 291.046 55.4522 291.547 51.9023 291.547L51.9023 293.547ZM60.595 291.905C62.8029 290.666 63.8887 288.616 63.8887 285.955L61.8887 285.955C61.8887 287.982 61.119 289.317 59.6159 290.161L60.595 291.905ZM63.8887 285.955C63.8887 282.356 62.4481 279.645 59.5093 278.045L58.5532 279.802C60.7576 281.002 61.8887 282.979 61.8887 285.955L63.8887 285.955ZM59.5047 278.043C56.6671 276.518 52.0719 275.824 45.8965 275.824L45.8965 277.824C52.0257 277.824 56.1871 278.53 58.5578 279.805L59.5047 278.043ZM45.8965 275.824L21.6777 275.824L21.6777 277.824L45.8965 277.824L45.8965 275.824ZM22.6777 276.824L22.6777 257.732L20.6777 257.732L20.6777 276.824L22.6777 276.824ZM21.6777 258.732L77 258.732L77 256.732L21.6777 256.732L21.6777 258.732ZM76 257.732L76 272.137L78 272.137L78 257.732L76 257.732ZM60.9844 210.721L60.9844 209.721L59.5688 209.721L60.0418 211.055L60.9844 210.721ZM74.9004 210.721L75.8189 210.325L75.5587 209.721L74.9004 209.721L74.9004 210.721ZM77.2441 218.094L76.2625 218.285L76.2641 218.293L76.2657 218.3L77.2441 218.094ZM73.289 240.115L73.9567 240.86L73.9606 240.856L73.289 240.115ZM35.9844 244.363L35.9844 243.363L34.9844 243.363L34.9844 244.363L35.9844 244.363ZM35.9844 251.053L35.9844 252.053L36.9844 252.053L36.9844 251.053L35.9844 251.053ZM28.2207 251.053L27.4041 251.63L27.703 252.053L28.2207 252.053L28.2207 251.053ZM22.2148 242.557L23.0314 241.979L22.8673 241.747L22.6055 241.636L22.2148 242.557ZM10.5937 237.625L9.59374 237.625L9.59374 238.287L10.2031 238.546L10.5937 237.625ZM10.5937 225.125L10.5937 224.125L9.59374 224.125L9.59374 225.125L10.5937 225.125ZM21.6777 225.125L21.6777 226.125L22.6777 226.125L22.6777 225.125L21.6777 225.125ZM21.6777 211.551L21.6777 210.551L20.6777 210.551L20.6777 211.551L21.6777 211.551ZM35.9844 211.551L36.9844 211.551L36.9844 210.551L35.9844 210.551L35.9844 211.551ZM35.9844 225.125L34.9844 225.125L34.9844 226.125L35.9844 226.125L35.9844 225.125ZM63.8887 219.949C63.8887 217.223 63.218 214.028 61.9269 210.387L60.0418 211.055C61.2897 214.575 61.8887 217.532 61.8887 219.949L63.8887 219.949ZM60.9844 211.721L74.9004 211.721L74.9004 209.721L60.9844 209.721L60.9844 211.721ZM73.9818 211.116C75.065 213.633 75.8225 216.022 76.2625 218.285L78.2257 217.903C77.7543 215.478 76.9492 212.952 75.8189 210.325L73.9818 211.116ZM76.2657 218.3C76.7359 220.526 76.9765 223.172 76.9765 226.248L78.9765 226.248C78.9765 223.074 78.7289 220.284 78.2225 217.887L76.2657 218.3ZM76.9765 226.248C76.9765 232.525 75.445 236.812 72.6175 239.374L73.9606 240.856C77.3831 237.755 78.9765 232.796 78.9765 226.248L76.9765 226.248ZM72.6214 239.371C69.7238 241.97 65.1781 243.363 58.7871 243.363L58.7871 245.363C65.4169 245.363 70.5392 243.925 73.9567 240.86L72.6214 239.371ZM58.7871 243.363L35.9844 243.363L35.9844 245.363L58.7871 245.363L58.7871 243.363ZM34.9844 244.363L34.9844 251.053L36.9844 251.053L36.9844 244.363L34.9844 244.363ZM35.9844 250.053L28.2207 250.053L28.2207 252.053L35.9844 252.053L35.9844 250.053ZM29.0373 250.475L23.0314 241.979L21.3983 243.134L27.4041 251.63L29.0373 250.475ZM22.6055 241.636L10.9844 236.704L10.2031 238.546L21.8242 243.477L22.6055 241.636ZM11.5937 237.625L11.5937 225.125L9.59374 225.125L9.59374 237.625L11.5937 237.625ZM10.5937 226.125L21.6777 226.125L21.6777 224.125L10.5937 224.125L10.5937 226.125ZM22.6777 225.125L22.6777 211.551L20.6777 211.551L20.6777 225.125L22.6777 225.125ZM21.6777 212.551L35.9844 212.551L35.9844 210.551L21.6777 210.551L21.6777 212.551ZM34.9844 211.551L34.9844 225.125L36.9844 225.125L36.9844 211.551L34.9844 211.551ZM35.9844 226.125L57.5176 226.125L57.5176 224.125L35.9844 224.125L35.9844 226.125ZM57.5176 226.125C59.453 226.125 61.0899 225.659 62.2398 224.551C63.3966 223.436 63.8887 221.838 63.8887 219.949L61.8887 219.949C61.8887 221.511 61.4855 222.5 60.852 223.111C60.2115 223.728 59.1629 224.125 57.5176 224.125L57.5176 226.125ZM32.0781 153.465L32.497 154.373L34.4578 153.468L32.4997 152.558L32.0781 153.465ZM5.61326 141.16L4.61326 141.16L4.61326 141.798L5.19166 142.067L5.61326 141.16ZM5.61326 120.262L6.08831 119.382L4.61326 118.585L4.61326 120.262L5.61326 120.262ZM49.1191 143.748L48.6441 144.628L48.8664 144.748L49.1191 144.748L49.1191 143.748ZM77 143.748L78 143.748L78 142.748L77 142.748L77 143.748ZM77 163.182L77 164.182L78 164.182L78 163.182L77 163.182ZM49.7051 163.182L49.7051 162.182L49.4553 162.182L49.2349 162.299L49.7051 163.182ZM5.61327 186.668L4.61327 186.668L4.61327 188.334L6.0834 187.551L5.61327 186.668ZM5.61326 165.672L5.19442 164.764L4.61326 165.032L4.61326 165.672L5.61326 165.672ZM32.4997 152.558L6.03486 140.253L5.19166 142.067L31.6565 154.372L32.4997 152.558ZM6.61326 141.16L6.61326 120.262L4.61326 120.262L4.61326 141.16L6.61326 141.16ZM5.13822 121.142L48.6441 144.628L49.5942 142.868L6.08831 119.382L5.13822 121.142ZM49.1191 144.748L77 144.748L77 142.748L49.1191 142.748L49.1191 144.748ZM76 143.748L76 163.182L78 163.182L78 143.748L76 143.748ZM77 162.182L49.7051 162.182L49.7051 164.182L77 164.182L77 162.182ZM49.2349 162.299L5.14313 185.785L6.0834 187.551L50.1752 164.064L49.2349 162.299ZM6.61327 186.668L6.61326 165.672L4.61326 165.672L4.61327 186.668L6.61327 186.668ZM6.03211 166.58L32.497 154.373L31.6593 152.557L5.19442 164.764L6.03211 166.58ZM70.4082 70.6621L69.7151 71.3829L69.7152 71.383L70.4082 70.6621ZM70.2129 111.141L70.9039 111.863L70.9062 111.861L70.2129 111.141ZM28.2207 111.287L27.5229 112.003L27.523 112.004L28.2207 111.287ZM24.1679 76.375L23.2935 75.8899L24.1679 76.375ZM34.1289 66.7559L34.5894 67.6436L34.5974 67.6393L34.1289 66.7559ZM60.1054 97.2734L60.5573 98.1656L60.562 98.1631L60.1054 97.2734ZM60.1054 84.6269L59.6629 85.5237L59.6677 85.5261L60.1054 84.6269ZM38.5234 97.2734L38.9946 96.3914L38.9897 96.3888L38.5234 97.2734ZM49.2168 64.3379C58.0843 64.3379 64.8719 66.7261 69.7151 71.3829L71.1013 69.9413C65.7882 64.8325 58.4482 62.3379 49.2168 62.3379L49.2168 64.3379ZM69.7152 71.383C74.5178 75.9998 76.9765 82.5152 76.9765 91.0723L78.9765 91.0723C78.9765 82.1163 76.3897 75.025 71.1012 69.9412L69.7152 71.383ZM76.9765 91.0723C76.9765 99.2488 74.4661 105.66 69.5195 110.42L70.9062 111.861C76.3112 106.66 78.9765 99.6926 78.9765 91.0723L76.9765 91.0723ZM69.5219 110.418C64.5732 115.149 57.8439 117.562 49.2168 117.562L49.2168 119.562C58.2329 119.562 65.501 117.028 70.9039 111.863L69.5219 110.418ZM49.2168 117.562C40.3801 117.562 33.6615 115.19 28.9184 110.571L27.523 112.004C32.7408 117.085 40.0196 119.562 49.2168 119.562L49.2168 117.562ZM28.9184 110.571C24.1454 105.922 21.7012 99.3717 21.7012 90.7793L19.7012 90.7793C19.7012 99.765 22.2699 106.887 27.5229 112.003L28.9184 110.571ZM21.7012 90.7793C21.7012 85.4886 22.8246 80.8585 25.0424 76.8601L23.2935 75.8899C20.8889 80.2249 19.7012 85.1976 19.7012 90.7793L21.7012 90.7793ZM25.0424 76.8601C27.2559 72.8697 30.4302 69.8013 34.5894 67.6435L33.6684 65.8682C29.1687 68.2026 25.7024 71.547 23.2935 75.8899L25.0424 76.8601ZM34.5974 67.6393C38.7255 65.4502 43.5883 64.3379 49.2168 64.3379L49.2168 62.3379C43.3218 62.3379 38.126 63.5043 33.6604 65.8724L34.5974 67.6393ZM49.2168 100.178C54.0317 100.178 57.8454 99.5391 60.5573 98.1655L59.6536 96.3813C57.3524 97.5469 53.9071 98.1777 49.2168 98.1777L49.2168 100.178ZM60.562 98.1631C61.947 97.4524 63.027 96.4764 63.7536 95.224C64.4778 93.9758 64.8164 92.5128 64.8164 90.8769L62.8164 90.8769C62.8164 92.2359 62.5365 93.3364 62.0237 94.2203C61.5133 95.1001 60.7379 95.8249 59.6489 96.3837L60.562 98.1631ZM64.8164 90.8769C64.8164 89.256 64.4772 87.8094 63.7485 86.5822C63.0172 85.3506 61.9312 84.4036 60.5432 83.7278L59.6677 85.5261C60.7536 86.0547 61.5231 86.7516 62.0288 87.6033C62.5371 88.4594 62.8164 89.5356 62.8164 90.8769L64.8164 90.8769ZM60.548 83.7302C57.8393 82.3935 54.0295 81.7715 49.2168 81.7715L49.2168 83.7715C53.9093 83.7715 57.3586 84.3865 59.6629 85.5237L60.548 83.7302ZM49.2168 81.7715C44.4396 81.7715 40.6858 82.3924 38.0666 83.7374L38.9802 85.5165C41.1788 84.3875 44.5538 83.7715 49.2168 83.7715L49.2168 81.7715ZM38.0666 83.7374C36.7094 84.4343 35.6533 85.4015 34.9444 86.6469C34.2387 87.8866 33.9101 89.3433 33.9101 90.9746L35.9101 90.9746C35.9101 89.6111 36.1838 88.5124 36.6825 87.6363C37.178 86.7659 37.9286 86.0565 38.9802 85.5165L38.0666 83.7374ZM33.9101 90.9746C33.9101 92.5774 34.2404 94.014 34.946 95.2442C35.654 96.4784 36.7066 97.4463 38.0572 98.1581L38.9897 96.3888C37.9314 95.831 37.1773 95.1144 36.6809 94.249C36.1821 93.3795 35.9101 92.3015 35.9101 90.9746L33.9101 90.9746ZM38.0522 98.1555C40.6456 99.541 44.4078 100.178 49.2168 100.178L49.2168 98.1777C44.5205 98.1777 41.1538 97.5449 38.9946 96.3914L38.0522 98.1555ZM77 15.4961L77.3282 16.4407L78 16.2072L78 15.4961L77 15.4961ZM70.1152 17.8887L69.7869 16.9441L69.1152 17.1775L69.1152 17.8887L70.1152 17.8887ZM70.1152 19.0117L69.1152 19.0117L69.1152 19.5644L69.5833 19.8585L70.1152 19.0117ZM75.9746 25.7012L76.8792 25.2748L76.8771 25.2704L75.9746 25.7012ZM72.7031 49.9199L73.3934 50.6434L73.3968 50.6402L72.7031 49.9199ZM21.6777 54.998L20.6777 54.998L20.6777 55.998L21.6777 55.998L21.6777 54.998ZM21.6777 35.9062L21.6777 34.9062L20.6777 34.9062L20.6777 35.9062L21.6777 35.9062ZM60.1054 34.3926L60.5833 35.2711L60.595 35.2646L60.1054 34.3926ZM59.0312 22.2832L59.5093 21.4048L59.5047 21.4024L59.0312 22.2832ZM21.6777 20.1836L20.6777 20.1836L20.6777 21.1836L21.6777 21.1836L21.6777 20.1836ZM21.6777 1.09179L21.6777 0.0917934L20.6777 0.0917934L20.6777 1.09179L21.6777 1.09179ZM77 1.09179L78 1.09179L78 0.0917909L77 0.091791L77 1.09179ZM76.6717 14.5515L69.7869 16.9441L70.4435 18.8332L77.3282 16.4407L76.6717 14.5515ZM69.1152 17.8887L69.1152 19.0117L71.1152 19.0117L71.1152 17.8887L69.1152 17.8887ZM69.5833 19.8585C71.9523 21.3467 73.7815 23.4278 75.0721 26.1319L76.8771 25.2704C75.4333 22.2454 73.3562 19.8668 70.6472 18.1649L69.5833 19.8585ZM75.07 26.1274C76.3292 28.7994 76.9765 31.9844 76.9765 35.7109L78.9765 35.7109C78.9765 31.7551 78.2892 28.267 76.8792 25.2749L75.07 26.1274ZM76.9765 35.7109C76.9765 41.5979 75.2832 46.0471 72.0095 49.1996L73.3968 50.6402C77.1542 47.0219 78.9765 41.9985 78.9765 35.7109L76.9765 35.7109ZM72.0128 49.1964C68.7032 52.3542 63.9844 53.998 57.7129 53.998L57.7129 55.998C64.332 55.998 69.6066 54.2565 73.3934 50.6434L72.0128 49.1964ZM57.7129 53.998L21.6777 53.998L21.6777 55.998L57.7129 55.998L57.7129 53.998ZM22.6777 54.998L22.6777 35.9062L20.6777 35.9062L20.6777 54.998L22.6777 54.998ZM21.6777 36.9062L51.9023 36.9062L51.9023 34.9062L21.6777 34.9062L21.6777 36.9062ZM51.9023 36.9062C55.579 36.9062 58.5112 36.3979 60.5832 35.2711L59.6277 33.5141C57.9887 34.4055 55.4522 34.9062 51.9023 34.9062L51.9023 36.9062ZM60.595 35.2646C62.8029 34.025 63.8886 31.9751 63.8886 29.3144L61.8886 29.3144C61.8886 31.3413 61.119 32.6768 59.6159 33.5206L60.595 35.2646ZM63.8886 29.3144C63.8886 25.7153 62.4481 23.0045 59.5093 21.4049L58.5532 23.1615C60.7576 24.3614 61.8886 26.3381 61.8886 29.3144L63.8886 29.3144ZM59.5047 21.4024C56.6671 19.8772 52.0719 19.1836 45.8965 19.1836L45.8965 21.1836C52.0257 21.1836 56.187 21.8898 58.5578 23.164L59.5047 21.4024ZM45.8965 19.1836L21.6777 19.1836L21.6777 21.1836L45.8965 21.1836L45.8965 19.1836ZM22.6777 20.1836L22.6777 1.09179L20.6777 1.09179L20.6777 20.1836L22.6777 20.1836ZM21.6777 2.09179L77 2.09179L77 0.091791L21.6777 0.0917934L21.6777 2.09179ZM76 1.09179L76 15.4961L78 15.4961L78 1.09179L76 1.09179Z" fill="#010973"/>
</svg>
