<svg width="112" height="670" viewBox="0 0 112 670" fill="none" xmlns="http://www.w3.org/2000/svg">
<path d="M94.0781 599.277L93.7799 598.322L93.0781 598.542L93.0781 599.277L94.0781 599.277ZM94.0781 634.506L93.0781 634.506L93.0781 635.244L93.783 635.462L94.0781 634.506ZM114 640.659L115 640.659L115 639.921L114.295 639.703L114 640.659ZM114 668.124L113.656 669.063L115 669.556L115 668.124L114 668.124ZM7.35937 629.013L6.35937 629.013L6.35937 629.711L7.01504 629.952L7.35937 629.013ZM7.35937 604.843L7.01277 603.905L6.35937 604.147L6.35937 604.843L7.35937 604.843ZM114 565.439L115 565.439L115 564.003L113.653 564.501L114 565.439ZM114 593.051L114.298 594.006L115 593.786L115 593.051L114 593.051ZM74.2295 628.354L73.9343 629.309L75.2295 629.709L75.2295 628.354L74.2295 628.354ZM74.2295 605.429L75.2295 605.429L75.2295 604.071L73.9326 604.474L74.2295 605.429ZM37.2422 616.928L36.9453 615.973L33.8639 616.931L36.947 617.884L37.2422 616.928ZM93.0781 599.277L93.0781 634.506L95.0781 634.506L95.0781 599.277L93.0781 599.277ZM93.783 635.462L113.705 641.614L114.295 639.703L94.3732 633.551L93.783 635.462ZM113 640.659L113 668.124L115 668.124L115 640.659L113 640.659ZM114.344 667.186L7.7037 628.074L7.01504 629.952L113.656 669.063L114.344 667.186ZM8.35937 629.013L8.35937 604.843L6.35937 604.843L6.35937 629.013L8.35937 629.013ZM7.70597 605.781L114.347 566.377L113.653 564.501L7.01277 603.905L7.70597 605.781ZM113 565.439L113 593.051L115 593.051L115 565.439L113 565.439ZM113.702 592.097L93.7799 598.322L94.3764 600.231L114.298 594.006L113.702 592.097ZM75.2295 628.354L75.2295 605.429L73.2295 605.429L73.2295 628.354L75.2295 628.354ZM73.9326 604.474L36.9453 615.973L37.5391 617.883L74.5264 606.384L73.9326 604.474ZM36.947 617.884L73.9343 629.309L74.5246 627.398L37.5373 615.973L36.947 617.884ZM105.87 539.16L105.26 538.368L103.339 539.848L105.745 540.152L105.87 539.16ZM114 540.185L115 540.185L115 539.303L114.125 539.193L114 540.185ZM114 562.304L114 563.304L115 563.304L115 562.304L114 562.304ZM1.49999 562.304L0.499995 562.304L0.499995 563.304L1.49999 563.304L1.49999 562.304ZM1.49999 537.622L1.49999 536.622L0.499994 536.622L0.499994 537.622L1.49999 537.622ZM41.124 537.622L41.124 538.622L43.7775 538.622L41.784 536.87L41.124 537.622ZM57.2373 516.747L57.7593 517.6L57.7668 517.596L57.7742 517.591L57.2373 516.747ZM58.7021 537.622L58.2508 538.514L58.4637 538.622L58.7021 538.622L58.7021 537.622ZM90.1963 537.622L90.1963 538.622L90.4324 538.622L90.6435 538.516L90.1963 537.622ZM87.999 514.843L87.7288 515.806L87.7331 515.807L87.999 514.843ZM75.0351 489.915C87.9033 489.915 97.6396 492.579 104.381 497.765L105.601 496.179C98.378 490.623 88.1436 487.915 75.0351 487.915L75.0351 489.915ZM104.381 497.765C111.089 502.924 114.465 510.183 114.465 519.677L116.465 519.677C116.465 509.64 112.859 501.762 105.601 496.179L104.381 497.765ZM114.465 519.677C114.465 527.423 111.411 533.625 105.26 538.368L106.481 539.952C113.122 534.831 116.465 528.045 116.465 519.677L114.465 519.677ZM105.745 540.152L113.875 541.177L114.125 539.193L105.995 538.167L105.745 540.152ZM113 540.185L113 562.304L115 562.304L115 540.185L113 540.185ZM114 561.304L1.49999 561.304L1.49999 563.304L114 563.304L114 561.304ZM2.49999 562.304L2.49999 537.622L0.499994 537.622L0.499995 562.304L2.49999 562.304ZM1.49999 538.622L41.124 538.622L41.124 536.622L1.49999 536.622L1.49999 538.622ZM41.784 536.87C36.7866 532.48 34.2871 526.826 34.2871 519.824L32.2871 519.824C32.2871 527.372 35.0122 533.583 40.464 538.373L41.784 536.87ZM34.2871 519.824C34.2871 510.234 37.7106 502.928 44.5116 497.769L43.3028 496.175C35.9437 501.758 32.2871 509.687 32.2871 519.824L34.2871 519.824ZM44.5116 497.769C51.3555 492.577 61.0727 489.915 73.79 489.915L73.79 487.915C60.8238 487.915 50.6191 490.625 43.3028 496.175L44.5116 497.769ZM73.79 489.915L75.0351 489.915L75.0351 487.915L73.79 487.915L73.79 489.915ZM73.4971 512.671C65.8455 512.671 60.1776 513.691 56.7004 515.904L57.7742 517.591C60.7423 515.702 65.9143 514.671 73.4971 514.671L73.4971 512.671ZM56.7153 515.895C53.1146 518.098 51.3301 521.542 51.3301 526.049L53.3301 526.049C53.3301 522.159 54.8171 519.401 57.7593 517.6L56.7153 515.895ZM51.3301 526.049C51.3301 528.957 51.885 531.489 53.0471 533.599C54.2141 535.719 55.9625 537.357 58.2508 538.514L59.1535 536.729C57.1937 535.738 55.7561 534.373 54.7991 532.635C53.8372 530.888 53.3301 528.707 53.3301 526.049L51.3301 526.049ZM58.7021 538.622L90.1963 538.622L90.1963 536.622L58.7021 536.622L58.7021 538.622ZM90.6435 538.516C92.9161 537.38 94.6479 535.736 95.8012 533.591C96.9486 531.456 97.4951 528.878 97.4951 525.903L95.4951 525.903C95.4951 528.64 94.9918 530.872 94.0396 532.644C93.0933 534.404 91.6756 535.764 89.7491 536.727L90.6435 538.516ZM97.4951 525.903C97.4951 522.833 96.7449 520.229 95.1641 518.171C93.5841 516.114 91.2506 514.703 88.2649 513.879L87.7331 515.807C90.4115 516.546 92.326 517.759 93.5781 519.389C94.8293 521.018 95.4951 523.162 95.4951 525.903L97.4951 525.903ZM88.2693 513.88C85.3402 513.058 80.3822 512.671 73.4971 512.671L73.4971 514.671C80.3815 514.671 85.0914 515.066 87.7288 515.806L88.2693 513.88ZM73.6435 484.829L73.6435 485.829L73.6523 485.829L73.6611 485.828L73.6435 484.829ZM52.5498 480.214L52.997 479.32L52.9942 479.318L52.5498 480.214ZM44.3467 418.618L45.0266 419.351L45.029 419.349L44.3467 418.618ZM104.625 418.691L103.938 419.417L103.938 419.417L104.625 418.691ZM105.357 473.696L106.067 474.4L106.07 474.398L105.357 473.696ZM77.8184 484.755L77.8359 485.755L77.8503 485.755L77.8647 485.754L77.8184 484.755ZM75.1816 460.146L75.1652 461.146L75.1734 461.146L75.1816 461.146L75.1816 460.146ZM76.1338 433.046L76.1482 432.046L76.141 432.046L76.1338 432.046L76.1338 433.046ZM70.7139 460.073L70.6582 461.071L70.6778 461.072L70.6975 461.073L70.7139 460.073ZM73.6435 483.829C65.8653 483.829 58.991 482.317 52.997 479.32L52.1026 481.109C58.4133 484.264 65.6015 485.829 73.6435 485.829L73.6435 483.829ZM52.9942 479.318C46.9621 476.326 42.3516 472.042 39.134 466.458L37.4011 467.457C40.8241 473.397 45.7352 477.95 52.1054 481.11L52.9942 479.318ZM39.134 466.458C35.9149 460.872 34.2871 454.287 34.2871 446.669L32.2871 446.669C32.2871 454.579 33.9796 461.519 37.4011 467.457L39.134 466.458ZM34.2871 446.669C34.2871 435.028 37.8945 425.963 45.0266 419.351L43.6668 417.884C36.0528 424.944 32.2871 434.58 32.2871 446.669L34.2871 446.669ZM45.029 419.349C52.123 412.728 61.8403 409.364 74.3027 409.364L74.3027 407.364C61.4722 407.364 51.2188 410.836 43.6643 417.887L45.029 419.349ZM74.3027 409.364L75.1816 409.364L75.1816 407.364L74.3027 407.364L74.3027 409.364ZM75.1816 409.364C87.3422 409.364 96.889 412.747 103.938 419.417L105.312 417.965C97.8102 410.865 87.7281 407.364 75.1816 407.364L75.1816 409.364ZM103.938 419.417C110.929 426.031 114.465 435.026 114.465 446.523L116.465 446.523C116.465 434.582 112.774 425.023 105.312 417.964L103.938 419.417ZM114.465 446.523C114.465 457.589 111.167 466.377 104.645 472.994L106.07 474.398C113.024 467.342 116.465 458.015 116.465 446.523L114.465 446.523ZM104.648 472.991C98.0715 479.615 89.1476 483.228 77.772 483.756L77.8647 485.754C89.6336 485.208 99.0691 481.449 106.067 474.4L104.648 472.991ZM77.8008 483.755L73.626 483.829L73.6611 485.828L77.8359 485.755L77.8008 483.755ZM75.1816 461.146C82.5692 461.146 88.1849 459.996 91.8523 457.534L90.7375 455.873C87.569 458.001 82.4425 459.146 75.1816 459.146L75.1816 461.146ZM91.8523 457.534C95.5754 455.034 97.4219 451.312 97.4219 446.523L95.4219 446.523C95.4219 450.718 93.8503 453.783 90.7375 455.873L91.8523 457.534ZM97.4219 446.523C97.4219 441.826 95.5898 438.178 91.9032 435.729C88.2877 433.327 82.9883 432.145 76.1482 432.046L76.1193 434.046C82.8046 434.143 87.6493 435.304 90.7965 437.395C93.8726 439.438 95.4219 442.431 95.4219 446.523L97.4219 446.523ZM76.1338 432.046L73.6435 432.046L73.6435 434.046L76.1338 434.046L76.1338 432.046ZM73.6435 432.046C66.4647 432.046 60.9089 433.188 57.1199 435.609C53.2546 438.08 51.3301 441.819 51.3301 446.669L53.3301 446.669C53.3301 442.438 54.9578 439.365 58.197 437.295C61.5125 435.176 66.6134 434.046 73.6435 434.046L73.6435 432.046ZM51.3301 446.669C51.3301 451.082 52.9894 454.577 56.3369 457.017C59.6255 459.415 64.4458 460.725 70.6582 461.071L70.7695 459.074C64.7261 458.737 60.3544 457.471 57.5151 455.401C54.7347 453.374 53.3301 450.509 53.3301 446.669L51.3301 446.669ZM70.6975 461.073L75.1652 461.146L75.198 459.146L70.7302 459.073L70.6975 461.073ZM105.431 354.033L105.345 353.036L102.808 353.253L104.815 354.821L105.431 354.033ZM107.921 394.975L108.579 395.728L108.587 395.721L107.921 394.975ZM34.7519 401.64L33.7519 401.64L33.7519 402.64L34.7519 402.64L34.7519 401.64ZM34.7519 376.957L34.7519 375.957L33.7519 375.957L33.7519 376.957L34.7519 376.957ZM90.3428 354.985L90.8511 354.124L90.6159 353.985L90.3428 353.985L90.3428 354.985ZM34.7519 354.985L33.7519 354.985L33.7519 355.985L34.7519 355.985L34.7519 354.985ZM34.7519 330.156L34.7519 329.156L33.7519 329.156L33.7519 330.156L34.7519 330.156ZM114 330.156L115 330.156L115 329.156L114 329.156L114 330.156ZM114 353.3L114.085 354.297L115 354.218L115 353.3L114 353.3ZM104.815 354.821C111.249 359.846 114.465 366.604 114.465 375.2L116.465 375.2C116.465 366.022 112.991 358.669 106.046 353.245L104.815 354.821ZM114.465 375.2C114.465 383.694 112.014 389.978 107.255 394.229L108.587 395.721C113.886 390.988 116.465 384.088 116.465 375.2L114.465 375.2ZM107.262 394.222C102.428 398.452 95.4224 400.64 86.0947 400.64L86.0947 402.64C95.7123 402.64 103.257 400.385 108.579 395.728L107.262 394.222ZM86.0947 400.64L34.7519 400.64L34.7519 402.64L86.0947 402.64L86.0947 400.64ZM35.7519 401.64L35.7519 376.957L33.7519 376.957L33.7519 401.64L35.7519 401.64ZM34.7519 377.957L86.2412 377.957L86.2412 375.957L34.7519 375.957L34.7519 377.957ZM86.2412 377.957C89.7817 377.957 92.6221 377.098 94.5734 375.203C96.5302 373.302 97.4219 370.527 97.4219 367.07L95.4219 367.07C95.4219 370.204 94.6168 372.373 93.18 373.768C91.7378 375.169 89.4878 375.957 86.2412 375.957L86.2412 377.957ZM97.4219 367.07C97.4219 361.136 95.2749 356.735 90.8511 354.124L89.8344 355.846C93.516 358.019 95.4219 361.675 95.4219 367.07L97.4219 367.07ZM90.3428 353.985L34.7519 353.985L34.7519 355.985L90.3428 355.985L90.3428 353.985ZM35.7519 354.985L35.7519 330.156L33.7519 330.156L33.7519 354.985L35.7519 354.985ZM34.7519 331.156L114 331.156L114 329.156L34.7519 329.156L34.7519 331.156ZM113 330.156L113 353.3L115 353.3L115 330.156L113 330.156ZM113.915 352.304L105.345 353.036L105.516 355.029L114.085 354.297L113.915 352.304ZM15.0498 291.572L15.0498 290.572L14.0498 290.572L14.0498 291.572L15.0498 291.572ZM34.7519 291.572L34.7519 292.572L35.7519 292.572L35.7519 291.572L34.7519 291.572ZM34.7519 278.535L34.7519 277.535L33.7519 277.535L33.7519 278.535L34.7519 278.535ZM51.8906 278.535L52.8906 278.535L52.8906 277.535L51.8906 277.535L51.8906 278.535ZM51.8906 291.572L50.8906 291.572L50.8906 292.572L51.8906 292.572L51.8906 291.572ZM95.6894 277.436L95.6894 276.436L94.4975 276.436L94.7046 277.61L95.6894 277.436ZM113.341 277.436L114.294 277.132L114.072 276.436L113.341 276.436L113.341 277.436ZM51.8906 316.254L51.8906 315.254L50.8906 315.254L50.8906 316.254L51.8906 316.254ZM51.8906 326.362L51.8906 327.362L52.8906 327.362L52.8906 326.362L51.8906 326.362ZM34.7519 326.362L33.7519 326.362L33.7519 327.362L34.7519 327.362L34.7519 326.362ZM34.7519 316.254L35.7519 316.254L35.7519 315.254L34.7519 315.254L34.7519 316.254ZM15.0498 316.254L14.0498 316.254L14.0498 317.254L15.0498 317.254L15.0498 316.254ZM15.0498 292.572L34.7519 292.572L34.7519 290.572L15.0498 290.572L15.0498 292.572ZM35.7519 291.572L35.7519 278.535L33.7519 278.535L33.7519 291.572L35.7519 291.572ZM34.7519 279.535L51.8906 279.535L51.8906 277.535L34.7519 277.535L34.7519 279.535ZM50.8906 278.535L50.8906 291.572L52.8906 291.572L52.8906 278.535L50.8906 278.535ZM51.8906 292.572L88.1455 292.572L88.1455 290.572L51.8906 290.572L51.8906 292.572ZM88.1455 292.572C91.1807 292.572 93.5854 292.037 95.0468 290.698L93.6953 289.223C92.813 290.032 91.0673 290.572 88.1455 290.572L88.1455 292.572ZM95.0468 290.698C96.555 289.315 97.1289 286.797 97.1289 283.588L95.1289 283.588C95.1289 286.728 94.5309 288.457 93.6953 289.223L95.0468 290.698ZM97.1289 283.588C97.1289 281.112 96.9807 278.999 96.6742 277.262L94.7046 277.61C94.9841 279.193 95.1289 281.182 95.1289 283.588L97.1289 283.588ZM95.6894 278.436L113.341 278.436L113.341 276.436L95.6894 276.436L95.6894 278.436ZM112.388 277.74C113.772 282.081 114.465 286.617 114.465 291.352L116.465 291.352C116.465 286.419 115.742 281.677 114.294 277.132L112.388 277.74ZM114.465 291.352C114.465 299.713 112.493 305.681 108.748 309.472L110.17 310.878C114.433 306.564 116.465 299.983 116.465 291.352L114.465 291.352ZM108.748 309.472C105 313.266 99.2249 315.254 91.2217 315.254L91.2217 317.254C99.527 317.254 105.91 315.19 110.17 310.878L108.748 309.472ZM91.2217 315.254L51.8906 315.254L51.8906 317.254L91.2217 317.254L91.2217 315.254ZM50.8906 316.254L50.8906 326.362L52.8906 326.362L52.8906 316.254L50.8906 316.254ZM51.8906 325.362L34.7519 325.362L34.7519 327.362L51.8906 327.362L51.8906 325.362ZM35.7519 326.362L35.7519 316.254L33.7519 316.254L33.7519 326.362L35.7519 326.362ZM34.7519 315.254L15.0498 315.254L15.0498 317.254L34.7519 317.254L34.7519 315.254ZM16.0498 316.254L16.0498 291.572L14.0498 291.572L14.0498 316.254L16.0498 316.254ZM53.6484 198.73L54.04 199.65L56.2059 198.728L54.0388 197.809L53.6484 198.73ZM7.35935 179.101L6.35935 179.101L6.35935 179.763L6.96895 180.022L7.35935 179.101ZM7.35935 151.342L7.80848 150.449L6.35935 149.72L6.35935 151.342L7.35935 151.342ZM75.6943 185.693L75.2452 186.586L75.4571 186.693L75.6943 186.693L75.6943 185.693ZM114 185.693L115 185.693L115 184.693L114 184.693L114 185.693ZM114 211.767L114 212.767L115 212.767L115 211.767L114 211.767ZM75.6943 211.767L75.6943 210.767L75.4576 210.767L75.246 210.873L75.6943 211.767ZM7.35936 246.044L6.35936 246.044L6.35936 247.665L7.80772 246.938L7.35936 246.044ZM7.35935 218.432L6.96772 217.512L6.35935 217.771L6.35935 218.432L7.35935 218.432ZM54.0388 197.809L7.74975 178.18L6.96895 180.022L53.258 199.651L54.0388 197.809ZM8.35935 179.101L8.35935 151.342L6.35935 151.342L6.35935 179.101L8.35935 179.101ZM6.91022 152.236L75.2452 186.586L76.1434 184.799L7.80848 150.449L6.91022 152.236ZM75.6943 186.693L114 186.693L114 184.693L75.6943 184.693L75.6943 186.693ZM113 185.693L113 211.767L115 211.767L115 185.693L113 185.693ZM114 210.767L75.6943 210.767L75.6943 212.767L114 212.767L114 210.767ZM75.246 210.873L6.91099 245.151L7.80772 246.938L76.1427 212.661L75.246 210.873ZM8.35936 246.044L8.35935 218.432L6.35935 218.432L6.35936 246.044L8.35936 246.044ZM7.75099 219.352L54.04 199.65L53.2568 197.81L6.96772 217.512L7.75099 219.352ZM73.6435 156.411L73.6435 157.411L73.6523 157.411L73.6611 157.41L73.6435 156.411ZM52.5498 151.796L52.997 150.902L52.9942 150.901L52.5498 151.796ZM44.3467 90.1996L45.0265 90.933L45.029 90.9307L44.3467 90.1996ZM104.625 90.2729L103.938 90.9992L103.938 90.9993L104.625 90.2729ZM105.357 145.278L106.067 145.982L106.07 145.98L105.357 145.278ZM77.8183 156.337L77.8359 157.337L77.8503 157.337L77.8647 157.336L77.8183 156.337ZM75.1816 131.728L75.1652 132.728L75.1734 132.728L75.1816 132.728L75.1816 131.728ZM76.1338 104.628L76.1482 103.628L76.141 103.628L76.1338 103.628L76.1338 104.628ZM70.7138 131.655L70.6582 132.653L70.6778 132.654L70.6975 132.655L70.7138 131.655ZM73.6435 155.411C65.8653 155.411 58.991 153.899 52.997 150.902L52.1026 152.691C58.4132 155.846 65.6015 157.411 73.6435 157.411L73.6435 155.411ZM52.9942 150.901C46.9621 147.908 42.3516 143.624 39.134 138.04L37.4011 139.039C40.8241 144.979 45.7352 149.532 52.1054 152.692L52.9942 150.901ZM39.134 138.04C35.9149 132.454 34.2871 125.869 34.2871 118.251L32.2871 118.251C32.2871 126.161 33.9796 133.101 37.4011 139.039L39.134 138.04ZM34.2871 118.251C34.2871 106.61 37.8945 97.5455 45.0265 90.933L43.6668 89.4663C36.0527 96.5257 32.2871 106.162 32.2871 118.251L34.2871 118.251ZM45.029 90.9307C52.123 84.3096 61.8403 80.9457 74.3027 80.9457L74.3027 78.9457C61.4721 78.9457 51.2188 82.4178 43.6643 89.4686L45.029 90.9307ZM74.3027 80.9457L75.1816 80.9457L75.1816 78.9457L74.3027 78.9457L74.3027 80.9457ZM75.1816 80.9457C87.3422 80.9457 96.889 84.329 103.938 90.9992L105.312 89.5466C97.8102 82.4472 87.728 78.9457 75.1816 78.9457L75.1816 80.9457ZM103.938 90.9993C110.929 97.6127 114.465 106.608 114.465 118.105L116.465 118.105C116.465 106.164 112.774 96.6049 105.312 89.5464L103.938 90.9993ZM114.465 118.105C114.465 129.171 111.167 137.959 104.645 144.576L106.07 145.98C113.024 138.924 116.465 129.597 116.465 118.105L114.465 118.105ZM104.648 144.573C98.0715 151.197 89.1476 154.81 77.772 155.338L77.8647 157.336C89.6336 156.79 99.0691 153.031 106.067 145.982L104.648 144.573ZM77.8008 155.338L73.626 155.411L73.6611 157.41L77.8359 157.337L77.8008 155.338ZM75.1816 132.728C82.5692 132.728 88.1849 131.578 91.8523 129.116L90.7375 127.455C87.569 129.583 82.4425 130.728 75.1816 130.728L75.1816 132.728ZM91.8523 129.116C95.5754 126.616 97.4219 122.894 97.4219 118.105L95.4219 118.105C95.4219 122.3 93.8503 125.365 90.7375 127.455L91.8523 129.116ZM97.4219 118.105C97.4219 113.408 95.5897 109.76 91.9031 107.311C88.2877 104.909 82.9883 103.727 76.1482 103.628L76.1193 105.628C82.8046 105.725 87.6493 106.886 90.7965 108.977C93.8726 111.02 95.4219 114.013 95.4219 118.105L97.4219 118.105ZM76.1338 103.628L73.6435 103.628L73.6435 105.628L76.1338 105.628L76.1338 103.628ZM73.6435 103.628C66.4647 103.628 60.9089 104.77 57.1199 107.192C53.2546 109.662 51.3301 113.401 51.3301 118.251L53.3301 118.251C53.3301 114.02 54.9578 110.947 58.197 108.877C61.5124 106.758 66.6134 105.628 73.6435 105.628L73.6435 103.628ZM51.3301 118.251C51.3301 122.664 52.9893 126.159 56.3369 128.599C59.6255 130.997 64.4458 132.307 70.6582 132.653L70.7695 130.656C64.7261 130.319 60.3544 129.053 57.5151 126.983C54.7347 124.956 53.3301 122.091 53.3301 118.251L51.3301 118.251ZM70.6975 132.655L75.1652 132.728L75.198 130.728L70.7302 130.655L70.6975 132.655ZM105.431 25.6147L105.345 24.6183L102.808 24.8352L104.815 26.4028L105.431 25.6147ZM107.921 66.5571L108.579 67.3097L108.587 67.3029L107.921 66.5571ZM34.7519 73.2221L33.7519 73.2221L33.7519 74.2221L34.7519 74.2221L34.7519 73.2221ZM34.7519 48.5395L34.7519 47.5395L33.7519 47.5395L33.7519 48.5395L34.7519 48.5395ZM90.3427 26.5668L90.8511 25.7057L90.6159 25.5668L90.3427 25.5668L90.3427 26.5668ZM34.7519 26.5668L33.7519 26.5668L33.7519 27.5668L34.7519 27.5668L34.7519 26.5668ZM34.7519 1.73773L34.7519 0.737729L33.7519 0.737729L33.7519 1.73773L34.7519 1.73773ZM114 1.73773L115 1.73773L115 0.737725L114 0.737726L114 1.73773ZM114 24.8823L114.085 25.8786L115 25.8004L115 24.8823L114 24.8823ZM104.815 26.4028C111.249 31.4278 114.465 38.186 114.465 46.7817L116.465 46.7817C116.465 37.6039 112.991 30.2508 106.046 24.8266L104.815 26.4028ZM114.465 46.7817C114.465 55.2759 112.014 61.5602 107.255 65.8113L108.587 67.3029C113.886 62.5695 116.465 55.6703 116.465 46.7817L114.465 46.7817ZM107.262 65.8045C102.428 70.0342 95.4224 72.2221 86.0947 72.2221L86.0947 74.2221C95.7123 74.2221 103.257 71.9666 108.579 67.3096L107.262 65.8045ZM86.0947 72.2221L34.7519 72.2221L34.7519 74.2221L86.0947 74.2221L86.0947 72.2221ZM35.7519 73.2221L35.7519 48.5395L33.7519 48.5395L33.7519 73.2221L35.7519 73.2221ZM34.7519 49.5395L86.2412 49.5395L86.2412 47.5395L34.7519 47.5395L34.7519 49.5395ZM86.2412 49.5395C89.7817 49.5395 92.6221 48.6801 94.5734 46.7849C96.5301 44.8845 97.4218 42.1094 97.4218 38.6518L95.4218 38.6518C95.4218 41.786 94.6168 43.9548 93.18 45.3502C91.7377 46.7509 89.4878 47.5395 86.2412 47.5395L86.2412 49.5395ZM97.4218 38.6518C97.4218 32.7185 95.2749 28.3173 90.8511 25.7057L89.8344 27.428C93.516 29.6015 95.4218 33.257 95.4218 38.6518L97.4218 38.6518ZM90.3427 25.5668L34.7519 25.5668L34.7519 27.5668L90.3427 27.5668L90.3427 25.5668ZM35.7519 26.5668L35.7519 1.73773L33.7519 1.73773L33.7519 26.5668L35.7519 26.5668ZM34.7519 2.73773L114 2.73773L114 0.737726L34.7519 0.737729L34.7519 2.73773ZM113 1.73773L113 24.8823L115 24.8823L115 1.73773L113 1.73773ZM113.915 23.8859L105.345 24.6183L105.516 26.611L114.085 25.8786L113.915 23.8859Z" fill="#E76800" fill-opacity="0.4"/>
</svg>
