<svg width="79" height="526" viewBox="0 0 79 526" fill="none" xmlns="http://www.w3.org/2000/svg">
<path d="M67.332 473.865L66.6179 474.565L66.6196 474.567L67.332 473.865ZM77 524.598L77 525.598L78 525.598L78 524.598L77 524.598ZM5.61328 524.598L4.61328 524.598L4.61328 525.598L5.61328 525.598L5.61328 524.598ZM14.4023 473.377L15.1301 474.063L15.1319 474.061L14.4023 473.377ZM25.9258 487.928L26.5573 488.703L26.562 488.699L25.9258 487.928ZM21.1894 505.311L20.1894 505.311L20.1894 506.311L21.1894 506.311L21.1894 505.311ZM61.1797 505.311L61.1797 506.311L62.1797 506.311L62.1797 505.311L61.1797 505.311ZM56.1016 488.123L56.7299 487.345L56.7263 487.342L56.1016 488.123ZM39.793 465.002C51.521 465.002 60.4116 468.234 66.6179 474.565L68.0462 473.165C61.3618 466.346 51.893 463.002 39.793 463.002L39.793 465.002ZM66.6196 474.567C72.831 480.873 76 489.803 76 501.502L78 501.502C78 489.438 74.7236 479.944 68.0444 473.163L66.6196 474.567ZM76 501.502L76 524.598L78 524.598L78 501.502L76 501.502ZM77 523.598L5.61328 523.598L5.61328 525.598L77 525.598L77 523.598ZM6.61328 524.598L6.61328 499.891L4.61328 499.891L4.61328 524.598L6.61328 524.598ZM6.61328 499.891C6.61327 488.598 9.49826 480.039 15.1301 474.063L13.6746 472.691C7.58766 479.15 4.61327 488.266 4.61328 499.891L6.61328 499.891ZM15.1319 474.061C20.7509 468.067 28.9165 465.002 39.793 465.002L39.793 463.002C28.534 463.002 19.7725 466.187 13.6728 472.693L15.1319 474.061ZM40.4766 483.021C33.8317 483.021 28.7059 484.339 25.2895 487.156L26.562 488.699C29.4607 486.309 34.0355 485.021 40.4766 485.021L40.4766 483.021ZM25.2943 487.152C21.8382 489.967 20.1894 494.217 20.1894 499.695L22.1894 499.695C22.1894 494.627 23.6982 491.032 26.5573 488.703L25.2943 487.152ZM20.1894 499.695L20.1894 505.311L22.1894 505.311L22.1894 499.695L20.1894 499.695ZM21.1894 506.311L61.1797 506.311L61.1797 504.311L21.1894 504.311L21.1894 506.311ZM62.1797 505.311L62.1797 501.014L60.1797 501.014L60.1797 505.311L62.1797 505.311ZM62.1797 501.014C62.1797 494.964 60.4253 490.33 56.7299 487.345L55.4732 488.901C58.5487 491.385 60.1797 495.345 60.1797 501.014L62.1797 501.014ZM56.7263 487.342C53.0523 484.403 47.5754 483.021 40.4766 483.021L40.4766 485.021C47.3751 485.021 52.3149 486.374 55.4769 488.904L56.7263 487.342ZM77 418.699L77.4472 419.594L78 419.317L78 418.699L77 418.699ZM69.6758 422.361L69.2286 421.467L68.6758 421.743L68.6758 422.361L69.6758 422.361ZM69.6758 422.752L68.6758 422.752L68.6758 423.23L69.0482 423.53L69.6758 422.752ZM73.2891 453.27L73.981 453.992L73.2891 453.27ZM46.9707 451.609L47.7905 451.037L47.7875 451.032L46.9707 451.609ZM42.0879 433.787L41.0884 433.819L41.0886 433.826L41.0889 433.833L42.0879 433.787ZM41.7949 424.559L42.7944 424.527L42.7637 423.559L41.7949 423.559L41.7949 424.559ZM38.2793 446.678L38.6805 447.594L39.5979 447.192L39.1947 446.275L38.2793 446.678ZM25.6816 452.195L24.7927 452.653L25.2227 453.488L26.0828 453.111L25.6816 452.195ZM25.9746 411.326L26.7151 411.998L26.7179 411.995L25.9746 411.326ZM77 405.467L78 405.467L78 404.467L77 404.467L77 405.467ZM62.3027 426.951L61.5528 427.613L61.5594 427.62L62.3027 426.951ZM52.293 424.461L52.293 423.461L51.2475 423.461L51.2939 424.505L52.293 424.461ZM52.4883 428.855L53.4876 428.819L53.4873 428.811L52.4883 428.855ZM76.5528 417.805L69.2286 421.467L70.123 423.256L77.4472 419.594L76.5528 417.805ZM68.6758 422.361L68.6758 422.752L70.6758 422.752L70.6758 422.361L68.6758 422.361ZM69.0482 423.53C72.1611 426.04 74.2164 428.54 75.3031 431.015L77.1344 430.211C75.8773 427.348 73.5707 424.607 70.3034 421.973L69.0482 423.53ZM75.3031 431.015C76.4001 433.514 76.9766 436.814 76.9766 440.965L78.9766 440.965C78.9766 436.652 78.3811 433.051 77.1344 430.211L75.3031 431.015ZM76.9766 440.965C76.9766 445.96 75.4861 449.779 72.5971 452.548L73.981 453.992C77.342 450.77 78.9766 446.386 78.9766 440.965L76.9766 440.965ZM72.5971 452.548C69.7102 455.314 65.5939 456.762 60.1055 456.762L60.1055 458.762C65.9452 458.762 70.6179 457.214 73.981 453.992L72.5971 452.548ZM60.1055 456.762C54.4737 456.762 50.433 454.82 47.7905 451.037L46.1509 452.182C49.2376 456.602 53.9534 458.762 60.1055 458.762L60.1055 456.762ZM47.7875 451.032C45.0456 447.151 43.4406 441.427 43.0868 433.741L41.0889 433.833C41.4513 441.707 43.1015 447.865 46.1539 452.186L47.7875 451.032ZM43.0874 433.755L42.7944 424.527L40.7954 424.59L41.0884 433.819L43.0874 433.755ZM41.7949 423.559L41.0137 423.559L41.0137 425.559L41.7949 425.559L41.7949 423.559ZM41.0137 423.559C38.5845 423.559 36.5782 424.157 35.1847 425.531C33.7886 426.907 33.1777 428.893 33.1777 431.297L35.1777 431.297C35.1777 429.209 35.7062 427.825 36.5887 426.955C37.4739 426.083 38.8856 425.559 41.0137 425.559L41.0137 423.559ZM33.1777 431.297C33.1777 435.535 34.6067 440.811 37.3639 447.08L39.1947 446.275C36.4831 440.109 35.1777 435.131 35.1777 431.297L33.1777 431.297ZM37.8781 445.762L25.2804 451.279L26.0828 453.111L38.6805 447.594L37.8781 445.762ZM26.5706 451.737C23.3445 445.475 21.7012 437.507 21.7012 427.781L19.7012 427.781C19.7012 437.717 21.3781 446.025 24.7927 452.653L26.5706 451.737ZM21.7012 427.781C21.7012 420.844 23.4183 415.631 26.7151 411.998L25.2341 410.654C21.4997 414.769 19.7012 420.526 19.7012 427.781L21.7012 427.781ZM26.7179 411.995C30.0059 408.342 34.6269 406.467 40.7207 406.467L40.7207 404.467C34.1843 404.467 28.9745 406.498 25.2313 410.657L26.7179 411.995ZM40.7207 406.467L77 406.467L77 404.467L40.7207 404.467L40.7207 406.467ZM76 405.467L76 418.699L78 418.699L78 405.467L76 405.467ZM65.5 432.859C65.5 430.316 64.6859 428.104 63.046 426.282L61.5594 427.62C62.8492 429.053 63.5 430.78 63.5 432.859L65.5 432.859ZM63.0526 426.29C61.3856 424.4 59.2014 423.461 56.5898 423.461L56.5898 425.461C58.6657 425.461 60.2901 426.182 61.5529 427.613L63.0526 426.29ZM56.5898 423.461L52.293 423.461L52.293 425.461L56.5898 425.461L56.5898 423.461ZM51.2939 424.505L51.4893 428.9L53.4873 428.811L53.292 424.417L51.2939 424.505ZM51.4889 428.892C51.6061 432.122 52.2599 434.712 53.5871 436.516C54.957 438.378 56.953 439.279 59.4219 439.279L59.4219 437.279C57.4962 437.279 56.1393 436.61 55.198 435.331C54.2141 433.993 53.5983 431.872 53.4876 428.819L51.4889 428.892ZM59.4219 439.279C61.286 439.279 62.8633 438.779 63.9602 437.608C65.0456 436.45 65.5 434.805 65.5 432.859L63.5 432.859C63.5 434.527 63.108 435.592 62.5007 436.241C61.9049 436.876 60.9432 437.279 59.4219 437.279L59.4219 439.279ZM77.293 386.385L76.3041 386.236L76.3026 386.246L77.293 386.385ZM74.9004 395.662L74.9004 396.662L75.5959 396.662L75.8379 396.01L74.9004 395.662ZM59.6172 395.662L58.7017 395.26L58.0853 396.662L59.6172 396.662L59.6172 395.662ZM62.8398 385.945L63.8121 386.179L63.8125 386.177L62.8398 385.945ZM58.6894 372.029L59.5142 372.595L59.5234 372.581L59.5321 372.568L58.6894 372.029ZM54.1973 382.088L55.1225 382.467L55.1265 382.457L54.1973 382.088ZM47.1172 392.732L47.7203 393.53L47.725 393.526L47.1172 392.732ZM24.998 389.803L25.8091 389.218L24.998 389.803ZM21.9219 362.703L22.8909 362.95L22.8937 362.939L21.9219 362.703ZM25.3887 352.693L25.7764 351.772L24.8721 351.391L24.4745 352.288L25.3887 352.693ZM37.6933 357.869L38.6057 358.279L39.0249 357.344L38.0811 356.947L37.6933 357.869ZM34.8125 365.926L35.7736 366.202L35.7765 366.192L34.8125 365.926ZM38.3281 375.936L39.1718 376.472L39.1812 376.458L39.19 376.443L38.3281 375.936ZM42.3808 366.463L41.4562 366.082L41.4532 366.089L41.4504 366.097L42.3808 366.463ZM47.0683 357.82L47.8453 358.45L47.8505 358.443L47.0683 357.82ZM52.4883 353.621L52.877 354.542L52.8857 354.539L52.8944 354.535L52.4883 353.621ZM60.0078 353.254C65.6796 353.254 69.8314 355.17 72.6355 358.909L74.2355 357.709C70.985 353.375 66.185 351.254 60.0078 351.254L60.0078 353.254ZM72.6355 358.909C75.4828 362.705 76.9766 368.253 76.9766 375.691L78.9766 375.691C78.9766 368.025 77.443 361.985 74.2355 357.709L72.6355 358.909ZM76.9766 375.691C76.9766 379.759 76.7504 383.271 76.3041 386.236L78.2818 386.534C78.747 383.444 78.9766 379.827 78.9766 375.691L76.9766 375.691ZM76.3026 386.246C75.8904 389.195 75.1121 392.218 73.9629 395.314L75.8379 396.01C77.0324 392.792 77.8492 389.629 78.2833 386.523L76.3026 386.246ZM74.9004 394.662L59.6172 394.662L59.6172 396.662L74.9004 396.662L74.9004 394.662ZM60.5326 396.065C61.8612 393.042 62.9534 389.746 63.8121 386.179L61.8676 385.711C61.0336 389.176 59.9773 392.358 58.7017 395.26L60.5326 396.065ZM63.8125 386.177C64.6717 382.576 65.1094 379.338 65.1094 376.473L63.1094 376.473C63.1094 379.141 62.7007 382.219 61.8671 385.713L63.8125 386.177ZM65.1094 376.473C65.1094 374.361 64.8731 372.637 64.311 371.406C64.0243 370.779 63.6336 370.237 63.1059 369.851C62.5673 369.458 61.944 369.271 61.2773 369.271L61.2773 371.271C61.5547 371.271 61.7574 371.343 61.9268 371.467C62.1071 371.598 62.3064 371.831 62.4917 372.237C62.8736 373.073 63.1094 374.45 63.1094 376.473L65.1094 376.473ZM61.2773 369.271C59.8272 369.271 58.6943 370.164 57.8467 371.491L59.5321 372.568C60.182 371.551 60.7744 371.271 61.2773 371.271L61.2773 369.271ZM57.8647 371.464C57.4159 372.118 56.8132 373.321 56.0674 374.991C55.3107 376.685 54.3772 378.929 53.268 381.718L55.1265 382.457C56.2309 379.68 57.1529 377.465 57.8935 375.806C58.6451 374.123 59.1818 373.08 59.5142 372.595L57.8647 371.464ZM53.2721 381.708C51.2169 386.718 48.9416 390.077 46.5094 391.938L47.725 393.526C50.5662 391.352 53.011 387.614 55.1224 382.467L53.2721 381.708ZM46.5141 391.935C44.0533 393.795 40.9093 394.76 37.0098 394.76L37.0098 396.76C41.2483 396.76 44.8425 395.706 47.7203 393.53L46.5141 391.935ZM37.0098 394.76C32.1688 394.76 28.4748 392.913 25.8091 389.218L24.187 390.388C27.2504 394.635 31.5643 396.76 37.0098 396.76L37.0098 394.76ZM25.8091 389.218C23.1137 385.481 21.7012 380.102 21.7012 372.957L19.7012 372.957C19.7012 380.33 21.1532 386.182 24.187 390.388L25.8091 389.218ZM21.7012 372.957C21.7012 369.386 22.0997 366.052 22.8908 362.95L20.9529 362.456C20.1164 365.735 19.7012 369.237 19.7012 372.957L21.7012 372.957ZM22.8937 362.939C23.6591 359.782 24.7939 356.502 26.3028 353.099L24.4745 352.288C22.9235 355.786 21.7471 359.179 20.95 362.468L22.8937 362.939ZM25.0009 353.615L37.3056 358.791L38.0811 356.947L25.7764 351.772L25.0009 353.615ZM36.781 357.46C35.6197 360.048 34.6425 362.781 33.8485 365.66L35.7765 366.192C36.5449 363.406 37.4883 360.769 38.6057 358.279L36.781 357.46ZM33.8514 365.65C33.0261 368.522 32.5918 370.935 32.5918 372.859L34.5918 372.859C34.5918 371.203 34.9713 368.994 35.7736 366.202L33.8514 365.65ZM32.5918 372.859C32.5918 374.471 32.7839 375.827 33.2674 376.815C33.5159 377.322 33.8575 377.766 34.3199 378.081C34.7895 378.4 35.3249 378.547 35.8867 378.547L35.8867 376.547C35.6836 376.547 35.5496 376.498 35.4455 376.427C35.3341 376.351 35.1976 376.209 35.0637 375.935C34.7822 375.36 34.5918 374.372 34.5918 372.859L32.5918 372.859ZM35.8867 378.547C37.287 378.547 38.3759 377.723 39.1718 376.472L37.4845 375.399C36.9132 376.296 36.3744 376.547 35.8867 376.547L35.8867 378.547ZM39.19 376.443C39.8905 375.252 41.273 372.006 43.3113 366.829L41.4504 366.097C39.3871 371.337 38.0679 374.406 37.4662 375.429L39.19 376.443ZM43.3055 366.844C44.8862 363.005 46.405 360.227 47.8453 358.45L46.2914 357.191C44.6718 359.189 43.0656 362.174 41.4562 366.082L43.3055 366.844ZM47.8505 358.443C49.2855 356.642 50.9607 355.351 52.877 354.542L52.0996 352.7C49.8492 353.649 47.9111 355.157 46.2862 357.197L47.8505 358.443ZM52.8944 354.535C54.7834 353.695 57.1429 353.254 60.0078 353.254L60.0078 351.254C56.9483 351.254 54.2947 351.724 52.0821 352.707L52.8944 354.535ZM77 309.344L77 310.344L78 310.344L78 309.344L77 309.344ZM39.6465 322.869L39.1526 323.739L39.1562 323.741L39.6465 322.869ZM77 325.066L78 325.066L78 324.066L77 324.066L77 325.066ZM77 344.158L77 345.158L78 345.158L78 344.158L77 344.158ZM1.02342 344.158L0.0234248 344.158L0.0234248 345.158L1.02342 345.158L1.02342 344.158ZM1.02342 325.066L1.02342 324.066L0.0234239 324.066L0.023424 325.066L1.02342 325.066ZM28.5137 325.848L28.4306 326.844L29.5137 326.934L29.5137 325.848L28.5137 325.848ZM28.5137 324.969L29.5137 324.969L29.5137 324.42L29.0505 324.125L28.5137 324.969ZM22.459 318.475L21.5531 318.898L22.459 318.475ZM26.0723 295.33L26.7628 296.053L26.7694 296.047L26.0723 295.33ZM77 290.154L78 290.154L78 289.154L77 289.154L77 290.154ZM77 308.344L46.8242 308.344L46.8242 310.344L77 310.344L77 308.344ZM46.8242 308.344C43.0473 308.344 40.0495 308.897 37.9651 310.131C35.7985 311.414 34.6914 313.393 34.6914 315.936L36.6914 315.936C36.6914 314.083 37.4397 312.767 38.9841 311.852C40.6106 310.889 43.1793 310.344 46.8242 310.344L46.8242 308.344ZM34.6914 315.936C34.6914 319.407 36.1914 322.057 39.1526 323.739L40.1403 322C37.8281 320.686 36.6914 318.714 36.6914 315.936L34.6914 315.936ZM39.1562 323.741C41.9989 325.34 46.5684 326.066 52.6836 326.066L52.6836 324.066C46.6243 324.066 42.5024 323.328 40.1367 321.998L39.1562 323.741ZM52.6836 326.066L77 326.066L77 324.066L52.6836 324.066L52.6836 326.066ZM76 325.066L76 344.158L78 344.158L78 325.066L76 325.066ZM77 343.158L1.02342 343.158L1.02342 345.158L77 345.158L77 343.158ZM2.02342 344.158L2.02342 325.066L0.023424 325.066L0.0234248 344.158L2.02342 344.158ZM1.02342 326.066L11.8144 326.066L11.8144 324.066L1.02342 324.066L1.02342 326.066ZM11.8144 326.066C16.6631 326.066 22.2009 326.325 28.4306 326.844L28.5967 324.851C22.3264 324.329 16.7314 324.066 11.8144 324.066L11.8144 326.066ZM29.5137 325.848L29.5137 324.969L27.5137 324.969L27.5137 325.848L29.5137 325.848ZM29.0505 324.125C26.3098 322.381 24.4396 320.35 23.3649 318.051L21.5531 318.898C22.8221 321.612 24.9883 323.911 27.9768 325.812L29.0505 324.125ZM23.3649 318.051C22.2661 315.701 21.7012 312.937 21.7012 309.734L19.7012 309.734C19.7012 313.172 20.3081 316.235 21.5531 318.898L23.3649 318.051ZM21.7012 309.734C21.7012 303.75 23.4266 299.238 26.7627 296.053L25.3818 294.607C21.5564 298.258 19.7012 303.349 19.7012 309.734L21.7012 309.734ZM26.7694 296.047C30.0805 292.827 34.7813 291.154 41.0137 291.154L41.0137 289.154C34.4205 289.154 29.1603 290.932 25.3751 294.613L26.7694 296.047ZM41.0137 291.154L77 291.154L77 289.154L41.0137 289.154L41.0137 291.154ZM76 290.154L76 309.344L78 309.344L78 290.154L76 290.154ZM28.2695 231.57L28.8412 232.391L28.8447 232.388L28.2695 231.57ZM70.3594 231.619L69.7855 232.438L69.7866 232.439L70.3594 231.619ZM77.293 251.932L76.3314 251.657L76.3288 251.666L76.3264 251.675L77.293 251.932ZM75.4863 256.229L76.3319 256.763L76.338 256.753L75.4863 256.229ZM71.5801 260.574L70.9067 259.835L70.5801 260.132L70.5801 260.574L71.5801 260.574ZM71.5801 261.746L70.5801 261.746L70.5801 262.333L71.0924 262.619L71.5801 261.746ZM77 264.773L78 264.773L78 264.187L77.4876 263.9L77 264.773ZM77 279.666L77 280.666L78 280.666L78 279.666L77 279.666ZM1.02342 279.666L0.023422 279.666L0.023422 280.666L1.02342 280.666L1.02342 279.666ZM1.02342 260.574L1.02342 259.574L0.0234211 259.574L0.0234211 260.574L1.02342 260.574ZM28.8066 261.258L28.7161 262.254L29.8066 262.353L29.8066 261.258L28.8066 261.258ZM28.8066 260.574L29.8066 260.574L29.8066 260.03L29.3503 259.735L28.8066 260.574ZM22.6055 254.178L21.7182 254.639L21.7208 254.644L22.6055 254.178ZM59.666 258.719L60.1948 259.568L60.201 259.564L59.666 258.719ZM59.1777 247.488L59.645 246.604L59.6399 246.601L59.1777 247.488ZM21.7012 245.877C21.7012 240.19 24.0572 235.724 28.8412 232.391L27.6978 230.75C22.3907 234.448 19.7012 239.52 19.7012 245.877L21.7012 245.877ZM28.8447 232.388C33.662 229.001 40.4155 227.248 49.2168 227.248L49.2168 225.248C40.1795 225.248 32.9682 227.044 27.6943 230.752L28.8447 232.388ZM49.2168 227.248C58.0823 227.248 64.9022 229.017 69.7855 232.438L70.9332 230.8C65.5952 227.06 58.32 225.248 49.2168 225.248L49.2168 227.248ZM69.7866 232.439C74.5892 235.795 76.9765 240.432 76.9765 246.463L78.9765 246.463C78.9765 239.798 76.2857 234.54 70.9321 230.799L69.7866 232.439ZM76.9765 246.463C76.9765 248.442 76.7565 250.169 76.3314 251.657L78.2545 252.206C78.7409 250.504 78.9765 248.586 78.9765 246.463L76.9765 246.463ZM76.3264 251.675C75.9256 253.186 75.3596 254.526 74.6347 255.704L76.338 256.753C77.1755 255.392 77.8139 253.867 78.2595 252.188L76.3264 251.675ZM74.6408 255.695C73.9291 256.821 72.702 258.2 70.9067 259.835L72.2534 261.314C74.104 259.628 75.481 258.11 76.3318 256.763L74.6408 255.695ZM70.5801 260.574L70.5801 261.746L72.5801 261.746L72.5801 260.574L70.5801 260.574ZM71.0924 262.619L76.5123 265.646L77.4876 263.9L72.0677 260.873L71.0924 262.619ZM76 264.773L76 279.666L78 279.666L78 264.773L76 264.773ZM77 278.666L1.02342 278.666L1.02342 280.666L77 280.666L77 278.666ZM2.02342 279.666L2.02342 260.574L0.0234211 260.574L0.023422 279.666L2.02342 279.666ZM1.02342 261.574L18.2109 261.574L18.2109 259.574L1.02342 259.574L1.02342 261.574ZM18.2109 261.574C20.2114 261.574 23.7024 261.798 28.7161 262.254L28.8972 260.262C23.8848 259.806 20.312 259.574 18.2109 259.574L18.2109 261.574ZM29.8066 261.258L29.8066 260.574L27.8066 260.574L27.8066 261.258L29.8066 261.258ZM29.3503 259.735C26.5936 257.949 24.662 255.935 23.4901 253.711L21.7208 254.644C23.088 257.238 25.2905 259.488 28.263 261.414L29.3503 259.735ZM23.4927 253.716C22.306 251.434 21.7012 248.829 21.7012 245.877L19.7012 245.877C19.7012 249.11 20.3658 252.038 21.7182 254.639L23.4927 253.716ZM34.6914 252.859C34.6914 255.787 35.7286 258.09 37.9199 259.551L39.0293 257.887C37.5096 256.874 36.6914 255.27 36.6914 252.859L34.6914 252.859ZM37.9199 259.551C40.0241 260.954 43.1806 261.574 47.2148 261.574L47.2148 259.574C43.3063 259.574 40.6361 258.958 39.0293 257.887L37.9199 259.551ZM47.2148 261.574L49.9004 261.574L49.9004 259.574L47.2148 259.574L47.2148 261.574ZM49.9004 261.574C54.4663 261.574 57.9606 260.959 60.1947 259.568L59.1373 257.87C57.4 258.952 54.3839 259.574 49.9004 259.574L49.9004 261.574ZM60.201 259.564C62.5079 258.103 63.5957 255.723 63.5957 252.664L61.5957 252.664C61.5957 255.204 60.7304 256.861 59.1309 257.874L60.201 259.564ZM63.5957 252.664C63.5957 251.363 63.2626 250.175 62.5757 249.134C61.8934 248.101 60.8967 247.266 59.645 246.604L58.7104 248.372C59.7374 248.915 60.4497 249.545 60.9067 250.237C61.3591 250.922 61.5957 251.719 61.5957 252.664L63.5957 252.664ZM59.6399 246.601C57.1181 245.287 53.5425 244.682 49.0215 244.682L49.0215 246.682C53.4197 246.682 56.6149 247.28 58.7156 248.375L59.6399 246.601ZM49.0215 244.682C44.5211 244.682 40.9896 245.282 38.5498 246.596C37.315 247.261 36.3384 248.12 35.6743 249.193C35.0084 250.268 34.6914 251.503 34.6914 252.859L36.6914 252.859C36.6914 251.824 36.9298 250.964 37.3748 250.245C37.8215 249.524 38.5112 248.888 39.498 248.357C41.5016 247.278 44.6352 246.682 49.0215 246.682L49.0215 244.682ZM70.4082 172.303L69.7151 173.024L69.7152 173.024L70.4082 172.303ZM70.2129 212.781L70.9039 213.504L70.9062 213.502L70.2129 212.781ZM28.2207 212.928L27.5229 213.644L27.523 213.644L28.2207 212.928ZM24.1679 178.016L23.2935 177.531L24.1679 178.016ZM34.1289 168.396L34.5894 169.284L34.5974 169.28L34.1289 168.396ZM60.1054 198.914L60.5573 199.806L60.562 199.804L60.1054 198.914ZM60.1054 186.268L59.6629 187.164L59.6677 187.167L60.1054 186.268ZM38.5234 198.914L38.9946 198.032L38.9897 198.029L38.5234 198.914ZM49.2168 165.979C58.0843 165.979 64.8719 168.367 69.7151 173.024L71.1013 171.582C65.7882 166.473 58.4482 163.979 49.2168 163.979L49.2168 165.979ZM69.7152 173.024C74.5178 177.64 76.9765 184.156 76.9765 192.713L78.9765 192.713C78.9765 183.757 76.3897 176.666 71.1012 171.582L69.7152 173.024ZM76.9765 192.713C76.9765 200.889 74.4661 207.301 69.5195 212.061L70.9062 213.502C76.3112 208.301 78.9765 201.333 78.9765 192.713L76.9765 192.713ZM69.5219 212.058C64.5732 216.789 57.8439 219.203 49.2168 219.203L49.2168 221.203C58.2329 221.203 65.501 218.669 70.9039 213.504L69.5219 212.058ZM49.2168 219.203C40.3801 219.203 33.6615 216.83 28.9184 212.211L27.523 213.644C32.7408 218.726 40.0197 221.203 49.2168 221.203L49.2168 219.203ZM28.9184 212.211C24.1454 207.562 21.7012 201.012 21.7012 192.42L19.7012 192.42C19.7012 201.406 22.2699 208.527 27.5229 213.644L28.9184 212.211ZM21.7012 192.42C21.7012 187.129 22.8246 182.499 25.0424 178.501L23.2935 177.531C20.8889 181.865 19.7012 186.838 19.7012 192.42L21.7012 192.42ZM25.0424 178.501C27.2559 174.51 30.4302 171.442 34.5894 169.284L33.6684 167.509C29.1687 169.843 25.7024 173.188 23.2935 177.531L25.0424 178.501ZM34.5974 169.28C38.7255 167.091 43.5883 165.979 49.2168 165.979L49.2168 163.979C43.3218 163.979 38.126 165.145 33.6604 167.513L34.5974 169.28ZM49.2168 201.818C54.0317 201.818 57.8454 201.18 60.5573 199.806L59.6536 198.022C57.3524 199.187 53.9071 199.818 49.2168 199.818L49.2168 201.818ZM60.562 199.804C61.947 199.093 63.027 198.117 63.7536 196.865C64.4778 195.616 64.8164 194.153 64.8164 192.518L62.8164 192.518C62.8164 193.877 62.5365 194.977 62.0237 195.861C61.5133 196.741 60.7379 197.466 59.6489 198.024L60.562 199.804ZM64.8164 192.518C64.8164 190.897 64.4772 189.45 63.7485 188.223C63.0172 186.991 61.9312 186.044 60.5432 185.368L59.6677 187.167C60.7536 187.695 61.5231 188.392 62.0288 189.244C62.5371 190.1 62.8164 191.176 62.8164 192.518L64.8164 192.518ZM60.548 185.371C57.8393 184.034 54.0295 183.412 49.2168 183.412L49.2168 185.412C53.9093 185.412 57.3586 186.027 59.6629 187.164L60.548 185.371ZM49.2168 183.412C44.4396 183.412 40.6858 184.033 38.0666 185.378L38.9802 187.157C41.1788 186.028 44.5538 185.412 49.2168 185.412L49.2168 183.412ZM38.0666 185.378C36.7094 186.075 35.6533 187.042 34.9444 188.288C34.2387 189.527 33.9101 190.984 33.9101 192.615L35.9101 192.615C35.9101 191.252 36.1838 190.153 36.6825 189.277C37.178 188.406 37.9286 187.697 38.9802 187.157L38.0666 185.378ZM33.9101 192.615C33.9101 194.218 34.2404 195.655 34.946 196.885C35.654 198.119 36.7066 199.087 38.0572 199.799L38.9897 198.029C37.9314 197.472 37.1773 196.755 36.6809 195.89C36.1821 195.02 35.9101 193.942 35.9101 192.615L33.9101 192.615ZM38.0522 199.796C40.6456 201.182 44.4078 201.818 49.2168 201.818L49.2168 199.818C44.5205 199.818 41.1538 199.186 38.9946 198.032L38.0522 199.796ZM77 120.457L77.4472 121.351L78 121.075L78 120.457L77 120.457ZM69.6758 124.119L69.2285 123.225L68.6758 123.501L68.6758 124.119L69.6758 124.119ZM69.6758 124.51L68.6758 124.51L68.6758 124.988L69.0482 125.288L69.6758 124.51ZM73.289 155.027L73.981 155.749L73.289 155.027ZM46.9707 153.367L47.7905 152.795L47.7875 152.79L46.9707 153.367ZM42.0879 135.545L41.0884 135.577L41.0886 135.584L41.0889 135.591L42.0879 135.545ZM41.7949 126.316L42.7944 126.285L42.7637 125.316L41.7949 125.316L41.7949 126.316ZM38.2793 148.436L38.6805 149.352L39.5978 148.95L39.1947 148.033L38.2793 148.436ZM25.6816 153.953L24.7926 154.411L25.2227 155.246L26.0828 154.869L25.6816 153.953ZM25.9746 113.084L26.7151 113.756L26.7179 113.753L25.9746 113.084ZM77 107.225L78 107.225L78 106.225L77 106.225L77 107.225ZM62.3027 128.709L61.5528 129.371L61.5594 129.378L62.3027 128.709ZM52.2929 126.219L52.2929 125.219L51.2475 125.219L51.2939 126.263L52.2929 126.219ZM52.4883 130.613L53.4876 130.577L53.4873 130.569L52.4883 130.613ZM76.5528 119.563L69.2285 123.225L70.123 125.014L77.4472 121.351L76.5528 119.563ZM68.6758 124.119L68.6758 124.51L70.6758 124.51L70.6758 124.119L68.6758 124.119ZM69.0482 125.288C72.1611 127.798 74.2164 130.298 75.3031 132.773L77.1344 131.969C75.8773 129.106 73.5707 126.365 70.3034 123.731L69.0482 125.288ZM75.3031 132.773C76.4001 135.272 76.9765 138.572 76.9765 142.723L78.9765 142.723C78.9765 138.41 78.3811 134.809 77.1344 131.969L75.3031 132.773ZM76.9765 142.723C76.9765 147.718 75.486 151.537 72.5971 154.305L73.981 155.749C77.342 152.528 78.9765 148.144 78.9765 142.723L76.9765 142.723ZM72.5971 154.305C69.7102 157.072 65.5939 158.52 60.1054 158.52L60.1054 160.52C65.9451 160.52 70.6179 158.972 73.981 155.749L72.5971 154.305ZM60.1054 158.52C54.4737 158.52 50.4329 156.578 47.7905 152.795L46.1508 153.94C49.2376 158.359 53.9533 160.52 60.1054 160.52L60.1054 158.52ZM47.7875 152.79C45.0456 148.908 43.4406 143.185 43.0868 135.499L41.0889 135.591C41.4513 143.465 43.1015 149.623 46.1539 153.944L47.7875 152.79ZM43.0874 135.513L42.7944 126.285L40.7954 126.348L41.0884 135.577L43.0874 135.513ZM41.7949 125.316L41.0136 125.316L41.0136 127.316L41.7949 127.316L41.7949 125.316ZM41.0136 125.316C38.5845 125.316 36.5782 125.915 35.1847 127.289C33.7886 128.665 33.1777 130.651 33.1777 133.055L35.1777 133.055C35.1777 130.966 35.7062 129.583 36.5887 128.713C37.4739 127.841 38.8856 127.316 41.0136 127.316L41.0136 125.316ZM33.1777 133.055C33.1777 137.293 34.6067 142.569 37.3639 148.838L39.1947 148.033C36.4831 141.867 35.1777 136.889 35.1777 133.055L33.1777 133.055ZM37.8781 147.52L25.2804 153.037L26.0828 154.869L38.6805 149.352L37.8781 147.52ZM26.5706 153.495C23.3445 147.233 21.7012 139.264 21.7011 129.539L19.7011 129.539C19.7012 139.475 21.3781 147.783 24.7926 154.411L26.5706 153.495ZM21.7011 129.539C21.7011 122.601 23.4182 117.389 26.7151 113.756L25.2341 112.412C21.4997 116.527 19.7011 122.284 19.7011 129.539L21.7011 129.539ZM26.7179 113.753C30.0059 110.1 34.6268 108.225 40.7207 108.225L40.7207 106.225C34.1843 106.225 28.9745 108.256 25.2313 112.415L26.7179 113.753ZM40.7207 108.225L77 108.225L77 106.225L40.7207 106.225L40.7207 108.225ZM76 107.225L76 120.457L78 120.457L78 107.225L76 107.225ZM65.5 134.617C65.5 132.074 64.6859 129.862 63.046 128.04L61.5594 129.378C62.8492 130.811 63.5 132.538 63.5 134.617L65.5 134.617ZM63.0526 128.047C61.3856 126.158 59.2014 125.219 56.5898 125.219L56.5898 127.219C58.6657 127.219 60.2901 127.939 61.5529 129.371L63.0526 128.047ZM56.5898 125.219L52.2929 125.219L52.2929 127.219L56.5898 127.219L56.5898 125.219ZM51.2939 126.263L51.4892 130.658L53.4873 130.569L53.292 126.174L51.2939 126.263ZM51.4889 130.65C51.6061 133.879 52.2599 136.47 53.5871 138.274C54.957 140.136 56.953 141.037 59.4219 141.037L59.4219 139.037C57.4962 139.037 56.1393 138.368 55.198 137.089C54.2141 135.751 53.5983 133.63 53.4876 130.577L51.4889 130.65ZM59.4219 141.037C61.286 141.037 62.8633 140.537 63.9602 139.366C65.0456 138.207 65.5 136.562 65.5 134.617L63.5 134.617C63.5 136.285 63.108 137.35 62.5007 137.998C61.9049 138.634 60.9431 139.037 59.4219 139.037L59.4219 141.037ZM21.0918 58.6016L20.1079 58.4227L20.1066 58.4302L21.0918 58.6016ZM21.2871 57.5273L21.3815 56.5318L20.4675 56.4451L20.3032 57.3484L21.2871 57.5273ZM39.3047 59.2363L40.2748 59.4789L40.5569 58.3506L39.3991 58.2408L39.3047 59.2363ZM41.5996 74.8125L42.3067 74.1053L42.3006 74.0994L41.5996 74.8125ZM77 77.6445L78 77.6445L78 76.6445L77 76.6445L77 77.6445ZM77 96.7363L77 97.7363L78 97.7363L78 96.7363L77 96.7363ZM21.6777 96.7363L20.6777 96.7363L20.6777 97.7363L21.6777 97.7363L21.6777 96.7363ZM21.6777 82.5273L21.3583 81.5797L20.6777 81.8091L20.6777 82.5273L21.6777 82.5273ZM30.5156 79.5488L30.835 80.4965L31.5156 80.2671L31.5156 79.5488L30.5156 79.5488ZM30.5156 78.6211L31.5156 78.6211L31.5156 78.0269L30.9938 77.7428L30.5156 78.6211ZM23.4355 71.9805L24.2808 71.4461L24.2792 71.4436L23.4355 71.9805ZM21.7011 63.3379C21.7011 61.73 21.8273 60.2088 22.077 58.7729L20.1066 58.4302C19.8354 59.9891 19.7011 61.6255 19.7011 63.3379L21.7011 63.3379ZM22.0756 58.7805L22.271 57.7062L20.3032 57.3484L20.1079 58.4227L22.0756 58.7805ZM21.1927 58.5229L39.2102 60.2319L39.3991 58.2408L21.3815 56.5318L21.1927 58.5229ZM38.3345 58.9938C37.9149 60.6724 37.7187 62.9312 37.7187 65.7305L39.7187 65.7305C39.7187 62.9958 39.9132 60.9253 40.2748 59.4789L38.3345 58.9938ZM37.7187 65.7305C37.7187 70.0217 38.7042 73.3685 40.8986 75.5256L42.3006 74.0994C40.6539 72.4805 39.7187 69.7725 39.7187 65.7305L37.7187 65.7305ZM40.8925 75.5196C43.025 77.6522 46.05 78.6445 49.8027 78.6445L49.8027 76.6445C46.3939 76.6445 43.9502 75.7489 42.3067 74.1054L40.8925 75.5196ZM49.8027 78.6445L77 78.6445L77 76.6445L49.8027 76.6445L49.8027 78.6445ZM76 77.6445L76 96.7363L78 96.7363L78 77.6445L76 77.6445ZM77 95.7363L21.6777 95.7363L21.6777 97.7363L77 97.7363L77 95.7363ZM22.6777 96.7363L22.6777 82.5273L20.6777 82.5273L20.6777 96.7363L22.6777 96.7363ZM21.9971 83.475L30.835 80.4965L30.1962 78.6012L21.3583 81.5797L21.9971 83.475ZM31.5156 79.5488L31.5156 78.6211L29.5156 78.6211L29.5156 79.5488L31.5156 79.5488ZM30.9938 77.7428C28.2144 76.2296 25.9805 74.1348 24.2808 71.4461L22.5903 72.5148C24.4713 75.4902 26.9574 77.8224 30.0374 79.4994L30.9938 77.7428ZM24.2792 71.4436C22.5405 68.7114 21.7011 66.0141 21.7011 63.3379L19.7011 63.3379C19.7011 66.4559 20.6847 69.5204 22.5919 72.5173L24.2792 71.4436ZM74.6074 45.4277L75.401 46.0362L75.4042 46.0319L74.6074 45.4277ZM64.6953 52.2637L65.0387 53.2029L65.0449 53.2006L64.6953 52.2637ZM22.5566 26.2383L23.4383 26.7101L23.441 26.705L22.5566 26.2383ZM28.8066 19.8418L29.3549 20.6781L29.8066 20.382L29.8066 19.8418L28.8066 19.8418ZM28.8066 19.4512L29.8066 19.4512L29.8066 18.2982L28.6652 18.4612L28.8066 19.4512ZM1.02341 20.3789L0.0234106 20.3789L0.0234107 21.3789L1.02341 21.3789L1.02341 20.3789ZM1.02341 1.14062L1.02341 0.140622L0.0234097 0.140622L0.0234098 1.14062L1.02341 1.14062ZM77 1.14062L78 1.14062L78 0.140619L77 0.140619L77 1.14062ZM77 15.5449L77.5065 16.4072L78 16.1172L78 15.5449L77 15.5449ZM70.0176 19.6465L69.5111 18.7842L69.0176 19.0742L69.0176 19.6465L70.0176 19.6465ZM70.0176 20.3789L69.0176 20.3789L69.0176 20.9357L69.4908 21.2289L70.0176 20.3789ZM60.0078 20.8184L59.4563 21.6526L59.4663 21.6591L60.0078 20.8184ZM51.1211 18.7676L51.1455 17.7679L51.1333 17.7676L51.1211 17.7676L51.1211 18.7676ZM39.207 20.8672L39.7647 21.6973L39.7707 21.6931L39.207 20.8672ZM39.6465 33.3184L39.1389 34.18L39.1426 34.1821L39.6465 33.3184ZM59.5195 33.2695L58.9906 32.4208L59.5195 33.2695ZM76.9765 35.0762C76.9765 38.8107 75.9167 42.0459 73.8106 44.8235L75.4042 46.0319C77.7903 42.8851 78.9765 39.2193 78.9765 35.0762L76.9765 35.0762ZM73.8138 44.8193C71.7083 47.5655 68.5774 49.7478 64.3457 51.3268L65.0449 53.2006C69.5372 51.5243 73.0143 49.1493 75.401 46.0362L73.8138 44.8193ZM64.3519 51.3245C60.1239 52.8705 55.1503 53.6562 49.4121 53.6562L49.4121 55.6562C55.3275 55.6562 60.5427 54.8469 65.0387 53.2028L64.3519 51.3245ZM49.4121 53.6562C40.5475 53.6562 33.7471 51.8718 28.8981 48.4215L27.7386 50.0511C33.0459 53.8274 40.3079 55.6562 49.4121 55.6562L49.4121 53.6562ZM28.8981 48.4215C24.0878 44.9988 21.7011 40.3404 21.7011 34.3437L19.7011 34.3437C19.7011 40.9774 22.3927 46.2473 27.7386 50.0511L28.8981 48.4215ZM21.7011 34.3437C21.7011 31.3863 22.2918 28.8522 23.4383 26.7101L21.6749 25.7664C20.3474 28.2468 19.7011 31.1163 19.7011 34.3437L21.7011 34.3437ZM23.441 26.705C24.5776 24.5514 26.5227 22.5348 29.3549 20.6781L28.2584 19.0055C25.2312 20.99 23.0096 23.2376 21.6722 25.7715L23.441 26.705ZM29.8066 19.8418L29.8066 19.4512L27.8066 19.4512L27.8066 19.8418L29.8066 19.8418ZM28.6652 18.4612C24.3821 19.0731 20.1 19.3789 15.8183 19.3789L15.8183 21.3789C20.1956 21.3789 24.5722 21.0662 28.948 20.4411L28.6652 18.4612ZM15.8183 19.3789L1.02341 19.3789L1.02341 21.3789L15.8183 21.3789L15.8183 19.3789ZM2.02341 20.3789L2.02341 1.14062L0.0234098 1.14062L0.0234106 20.3789L2.02341 20.3789ZM1.02341 2.14062L77 2.14062L77 0.140619L1.02341 0.140622L1.02341 2.14062ZM76 1.14062L76 15.5449L78 15.5449L78 1.14062L76 1.14062ZM76.4935 14.6827L69.5111 18.7842L70.5241 20.5087L77.5065 16.4072L76.4935 14.6827ZM69.0176 19.6465L69.0176 20.3789L71.0176 20.3789L71.0176 19.6465L69.0176 19.6465ZM69.4908 21.2289C74.4875 24.3251 76.9765 28.8939 76.9765 35.0762L78.9765 35.0762C78.9765 28.2377 76.1595 23.0083 70.5443 19.5289L69.4908 21.2289ZM63.8886 27.2637C63.8886 23.9923 62.8491 21.4589 60.5493 19.9777L59.4663 21.6591C61.0076 22.6518 61.8886 24.4152 61.8886 27.2637L63.8886 27.2637ZM60.5592 19.9841C58.4045 18.5599 55.2153 17.8671 51.1455 17.7679L51.0967 19.7673C55.0346 19.8633 57.7699 20.5378 59.4564 21.6526L60.5592 19.9841ZM51.1211 17.7676L49.6074 17.7676L49.6074 19.7676L51.1211 19.7676L51.1211 17.7676ZM49.6074 17.7676C44.6858 17.7676 40.9568 18.4622 38.6433 20.0413L39.7707 21.6931C41.5588 20.4727 44.7634 19.7676 49.6074 19.7676L49.6074 17.7676ZM38.6493 20.0371C36.2333 21.6604 35.082 24.2051 35.082 27.459L37.082 27.459C37.082 24.7233 38.014 22.8735 39.7647 21.6973L38.6493 20.0371ZM35.082 27.459C35.082 30.3605 36.4944 32.6222 39.1389 34.18L40.154 32.4567C38.0459 31.215 37.082 29.5704 37.082 27.459L35.082 27.459ZM39.1426 34.1821C41.7055 35.6772 45.263 36.3691 49.7051 36.3691L49.7051 34.3691C45.4232 34.3691 42.2749 33.6939 40.1503 32.4546L39.1426 34.1821ZM49.7051 36.3691C54.0837 36.3691 57.5732 35.6607 60.0484 34.1182L58.9906 32.4208C56.9736 33.6779 53.9202 34.3691 49.7051 34.3691L49.7051 36.3691ZM60.0484 34.1182C62.5817 32.5395 63.8886 30.2199 63.8886 27.2637L61.8886 27.2637C61.8886 29.5158 60.9495 31.2001 58.9906 32.4208L60.0484 34.1182Z" fill="#010973"/>
</svg>
