<svg width="112" height="477" viewBox="0 0 112 477" fill="none" xmlns="http://www.w3.org/2000/svg">
<path d="M68.8096 409.679L69.8096 409.679L69.8096 408.679L68.8096 408.679L68.8096 409.679ZM68.8096 450.109L67.8096 450.109L67.8096 451.109L68.8096 451.109L68.8096 450.109ZM94.2246 450.109L94.2246 451.109L95.2246 451.109L95.2246 450.109L94.2246 450.109ZM94.2246 402.355L94.2246 401.355L93.2246 401.355L93.2246 402.355L94.2246 402.355ZM114 402.355L115 402.355L115 401.355L114 401.355L114 402.355ZM114 475.817L114 476.817L115 476.817L115 475.817L114 475.817ZM7.35937 475.817L6.35937 475.817L6.35937 476.817L7.35937 476.817L7.35937 475.817ZM7.35937 402.208L7.35937 401.208L6.35937 401.208L6.35937 402.208L7.35937 402.208ZM27.208 402.208L28.208 402.208L28.208 401.208L27.208 401.208L27.208 402.208ZM27.208 450.109L26.208 450.109L26.208 451.109L27.208 451.109L27.208 450.109ZM49.6934 450.109L49.6934 451.109L50.6934 451.109L50.6934 450.109L49.6934 450.109ZM49.6934 409.679L49.6934 408.679L48.6934 408.679L48.6934 409.679L49.6934 409.679ZM67.8096 409.679L67.8096 450.109L69.8096 450.109L69.8096 409.679L67.8096 409.679ZM68.8096 451.109L94.2246 451.109L94.2246 449.109L68.8096 449.109L68.8096 451.109ZM95.2246 450.109L95.2246 402.355L93.2246 402.355L93.2246 450.109L95.2246 450.109ZM94.2246 403.355L114 403.355L114 401.355L94.2246 401.355L94.2246 403.355ZM113 402.355L113 475.817L115 475.817L115 402.355L113 402.355ZM114 474.817L7.35937 474.817L7.35937 476.817L114 476.817L114 474.817ZM8.35937 475.817L8.35937 402.208L6.35937 402.208L6.35937 475.817L8.35937 475.817ZM7.35937 403.208L27.208 403.208L27.208 401.208L7.35937 401.208L7.35937 403.208ZM26.208 402.208L26.208 450.109L28.208 450.109L28.208 402.208L26.208 402.208ZM27.208 451.109L49.6934 451.109L49.6934 449.109L27.208 449.109L27.208 451.109ZM50.6934 450.109L50.6934 409.679L48.6934 409.679L48.6934 450.109L50.6934 450.109ZM49.6934 410.679L68.8096 410.679L68.8096 408.679L49.6934 408.679L49.6934 410.679ZM56.5781 364.65L57.0325 365.541L58.7508 364.664L57.0442 363.765L56.5781 364.65ZM34.7519 353.151L33.7519 353.151L33.7519 353.754L34.2858 354.036L34.7519 353.151ZM34.7519 327.516L35.2276 326.636L33.7519 325.838L33.7519 327.516L34.7519 327.516ZM73.3506 348.39L72.8749 349.27L73.3497 349.526L73.8249 349.27L73.3506 348.39ZM114 326.491L115 326.491L115 324.816L113.526 325.61L114 326.491ZM114 352.272L114.469 353.155L115 352.873L115 352.272L114 352.272ZM90.5625 364.723L90.0933 363.84L88.4162 364.731L90.0998 365.61L90.5625 364.723ZM114 376.955L115 376.955L115 376.348L114.463 376.068L114 376.955ZM114 402.882L113.524 403.762L115 404.56L115 402.882L114 402.882ZM73.3506 380.91L73.8261 380.03L73.3513 379.773L72.8762 380.029L73.3506 380.91ZM34.7519 401.71L33.7519 401.71L33.7519 403.385L35.2263 402.591L34.7519 401.71ZM34.7519 375.783L34.2976 374.892L33.7519 375.17L33.7519 375.783L34.7519 375.783ZM57.0442 363.765L35.2181 352.266L34.2858 354.036L56.112 365.535L57.0442 363.765ZM35.7519 353.151L35.7519 327.516L33.7519 327.516L33.7519 353.151L35.7519 353.151ZM34.2763 328.396L72.8749 349.27L73.8263 347.51L35.2276 326.636L34.2763 328.396ZM73.8249 349.27L114.474 327.371L113.526 325.61L72.8763 347.51L73.8249 349.27ZM113 326.491L113 352.272L115 352.272L115 326.491L113 326.491ZM113.531 351.389L90.0933 363.84L91.0316 365.606L114.469 353.155L113.531 351.389ZM90.0998 365.61L113.537 377.841L114.463 376.068L91.0252 363.837L90.0998 365.61ZM113 376.955L113 402.882L115 402.882L115 376.955L113 376.955ZM114.476 402.003L73.8261 380.03L72.8751 381.789L113.524 403.762L114.476 402.003ZM72.8762 380.029L34.2775 400.83L35.2263 402.591L73.825 381.79L72.8762 380.029ZM35.7519 401.71L35.7519 375.783L33.7519 375.783L33.7519 401.71L35.7519 401.71ZM35.2063 376.673L57.0325 365.541L56.1237 363.759L34.2976 374.892L35.2063 376.673ZM104.479 258.097L103.876 258.895L103.877 258.896L104.479 258.097ZM107.481 298.454L106.82 297.703L104.833 299.454L107.481 299.454L107.481 298.454ZM144.469 298.454L145.469 298.454L145.469 297.454L144.469 297.454L144.469 298.454ZM144.469 323.136L144.469 324.136L145.469 324.136L145.469 323.136L144.469 323.136ZM34.7519 323.136L33.7519 323.136L33.7519 324.136L34.7519 324.136L34.7519 323.136ZM34.7519 300.065L34.6524 299.07L33.7519 299.16L33.7519 300.065L34.7519 300.065ZM42.0762 299.332L42.1757 300.327L44.5982 300.085L42.7048 298.555L42.0762 299.332ZM44.1269 257.877L44.7269 258.677L44.7295 258.675L44.1269 257.877ZM58.6289 298.454L58.2072 299.36L58.4077 299.454L58.6289 299.454L58.6289 298.454ZM89.8301 298.454L89.8301 299.454L90.0614 299.454L90.2693 299.352L89.8301 298.454ZM76.0605 274.43L76.0785 273.43L76.0695 273.43L76.0605 273.43L76.0605 274.43ZM74.9619 250.747C87.1209 250.747 96.7261 253.497 103.876 258.895L105.081 257.299C97.4848 251.564 87.4123 248.747 74.9619 248.747L74.9619 250.747ZM103.877 258.896C110.942 264.218 114.465 271.389 114.465 280.509L116.465 280.509C116.465 270.782 112.663 263.011 105.08 257.298L103.877 258.896ZM114.465 280.509C114.465 287.506 111.921 293.211 106.82 297.703L108.142 299.204C113.686 294.321 116.465 288.063 116.465 280.509L114.465 280.509ZM107.481 299.454L144.469 299.454L144.469 297.454L107.481 297.454L107.481 299.454ZM143.469 298.454L143.469 323.136L145.469 323.136L145.469 298.454L143.469 298.454ZM144.469 322.136L34.7519 322.136L34.7519 324.136L144.469 324.136L144.469 322.136ZM35.7519 323.136L35.7519 300.065L33.7519 300.065L33.7519 323.136L35.7519 323.136ZM34.8514 301.06L42.1757 300.327L41.9767 298.337L34.6524 299.07L34.8514 301.06ZM42.7048 298.555C37.0868 294.014 34.2871 288.077 34.2871 280.656L32.2871 280.656C32.2871 288.664 35.3468 295.179 41.4475 300.11L42.7048 298.555ZM34.2871 280.656C34.2871 271.175 37.775 263.891 44.7269 258.677L43.5269 257.077C36.0258 262.703 32.2871 270.605 32.2871 280.656L34.2871 280.656ZM44.7295 258.675C51.6763 253.43 61.3248 250.747 73.79 250.747L73.79 248.747C61.06 248.747 50.9331 251.485 43.5243 257.079L44.7295 258.675ZM73.79 250.747L74.9619 250.747L74.9619 248.747L73.79 248.747L73.79 250.747ZM73.4238 273.43C66.3281 273.43 60.8426 274.459 57.0996 276.643C53.2739 278.874 51.3301 282.281 51.3301 286.735L53.3301 286.735C53.3301 282.985 54.9019 280.24 58.1074 278.37C61.3957 276.452 66.457 275.43 73.4238 275.43L73.4238 273.43ZM51.3301 286.735C51.3301 289.779 51.8748 292.395 53.0239 294.532C54.1807 296.685 55.921 298.297 58.2072 299.36L59.0506 297.547C57.1375 296.657 55.7284 295.34 54.7856 293.586C53.8351 291.817 53.3301 289.55 53.3301 286.735L51.3301 286.735ZM58.6289 299.454L89.8301 299.454L89.8301 297.454L58.6289 297.454L58.6289 299.454ZM90.2693 299.352C92.6346 298.196 94.4419 296.533 95.6481 294.362C96.8488 292.2 97.4219 289.594 97.4219 286.588L95.4219 286.588C95.4219 289.345 94.8963 291.597 93.8998 293.39C92.9086 295.174 91.42 296.563 89.3909 297.555L90.2693 299.352ZM97.4219 286.588C97.4219 282.303 95.5379 279 91.8442 276.794C88.2288 274.635 82.9306 273.554 76.0785 273.43L76.0426 275.43C82.7647 275.551 87.6472 276.617 90.8189 278.511C93.9122 280.358 95.4219 283.012 95.4219 286.588L97.4219 286.588ZM76.0605 273.43L73.4238 273.43L73.4238 275.43L76.0605 275.43L76.0605 273.43ZM114 216.51L115 216.51L115 215.51L114 215.51L114 216.51ZM114 241.266L114 242.266L115 242.266L115 241.266L114 241.266ZM1.49999 241.266L0.499986 241.266L0.499986 242.266L1.49999 242.266L1.49999 241.266ZM1.49999 216.51L1.49999 215.51L0.499985 215.51L0.499985 216.51L1.49999 216.51ZM113 216.51L113 241.266L115 241.266L115 216.51L113 216.51ZM114 240.266L1.49999 240.266L1.49999 242.266L114 242.266L114 240.266ZM2.49999 241.266L2.49999 216.51L0.499985 216.51L0.499986 241.266L2.49999 241.266ZM1.49999 217.51L114 217.51L114 215.51L1.49999 215.51L1.49999 217.51ZM73.6435 208.102L73.6435 209.102L73.6523 209.102L73.6611 209.102L73.6435 208.102ZM52.5498 203.488L52.997 202.593L52.9942 202.592L52.5498 203.488ZM44.3467 141.891L45.0266 142.624L45.029 142.622L44.3467 141.891ZM104.625 141.964L103.938 142.691L103.938 142.691L104.625 141.964ZM105.357 196.969L106.067 197.674L106.07 197.671L105.357 196.969ZM77.8183 208.029L77.8359 209.029L77.8503 209.028L77.8647 209.028L77.8183 208.029ZM75.1816 183.419L75.1652 184.419L75.1734 184.419L75.1816 184.419L75.1816 183.419ZM76.1338 156.32L76.1482 155.32L76.141 155.32L76.1338 155.32L76.1338 156.32ZM70.7139 183.346L70.6582 184.345L70.6778 184.346L70.6975 184.346L70.7139 183.346ZM73.6435 207.102C65.8653 207.102 58.991 205.59 52.997 202.593L52.1026 204.382C58.4132 207.537 65.6015 209.102 73.6435 209.102L73.6435 207.102ZM52.9942 202.592C46.9621 199.6 42.3516 195.315 39.134 189.732L37.4011 190.73C40.8241 196.67 45.7352 201.224 52.1054 204.384L52.9942 202.592ZM39.134 189.732C35.9149 184.145 34.2871 177.561 34.2871 169.943L32.2871 169.943C32.2871 177.852 33.9796 184.793 37.4011 190.73L39.134 189.732ZM34.2871 169.943C34.2871 158.301 37.8945 149.237 45.0266 142.624L43.6668 141.158C36.0528 148.217 32.2871 157.854 32.2871 169.943L34.2871 169.943ZM45.029 142.622C52.123 136.001 61.8403 132.637 74.3027 132.637L74.3027 130.637C61.4722 130.637 51.2188 134.109 43.6643 141.16L45.029 142.622ZM74.3027 132.637L75.1816 132.637L75.1816 130.637L74.3027 130.637L74.3027 132.637ZM75.1816 132.637C87.3422 132.637 96.889 136.02 103.938 142.691L105.312 141.238C97.8102 134.139 87.7281 130.637 75.1816 130.637L75.1816 132.637ZM103.938 142.691C110.929 149.304 114.465 158.299 114.465 169.796L116.465 169.796C116.465 157.856 112.774 148.296 105.312 141.238L103.938 142.691ZM114.465 169.796C114.465 180.862 111.167 189.651 104.645 196.267L106.07 197.671C113.024 190.616 116.465 181.289 116.465 169.796L114.465 169.796ZM104.648 196.265C98.0715 202.888 89.1476 206.502 77.772 207.03L77.8647 209.028C89.6336 208.481 99.0691 204.722 106.067 197.674L104.648 196.265ZM77.8008 207.029L73.626 207.102L73.6611 209.102L77.8359 209.029L77.8008 207.029ZM75.1816 184.419C82.5692 184.419 88.1849 183.27 91.8523 180.807L90.7375 179.147C87.569 181.274 82.4425 182.419 75.1816 182.419L75.1816 184.419ZM91.8523 180.807C95.5754 178.307 97.4219 174.586 97.4219 169.796L95.4219 169.796C95.4219 173.991 93.8503 177.057 90.7375 179.147L91.8523 180.807ZM97.4219 169.796C97.4219 165.1 95.5898 161.451 91.9031 159.002C88.2877 156.601 82.9883 155.419 76.1482 155.32L76.1193 157.32C82.8046 157.416 87.6493 158.578 90.7965 160.668C93.8726 162.712 95.4219 165.704 95.4219 169.796L97.4219 169.796ZM76.1338 155.32L73.6435 155.32L73.6435 157.32L76.1338 157.32L76.1338 155.32ZM73.6435 155.32C66.4647 155.32 60.9089 156.461 57.1199 158.883C53.2546 161.354 51.3301 165.092 51.3301 169.943L53.3301 169.943C53.3301 165.712 54.9578 162.639 58.197 160.568C61.5125 158.449 66.6134 157.32 73.6435 157.32L73.6435 155.32ZM51.3301 169.943C51.3301 174.356 52.9893 177.85 56.3369 180.291C59.6255 182.688 64.4458 183.998 70.6582 184.345L70.7695 182.348C64.7261 182.011 60.3544 180.745 57.5151 178.675C54.7347 176.647 53.3301 173.782 53.3301 169.943L51.3301 169.943ZM70.6975 184.346L75.1652 184.419L75.198 182.42L70.7302 182.346L70.6975 184.346ZM57.0908 76.5737L58.0882 76.6456L58.164 75.5941L57.11 75.5738L57.0908 76.5737ZM56.5049 84.7035L55.5074 84.6317L55.5049 84.6676L55.5049 84.7035L56.5049 84.7035ZM63.8291 99.645L63.4187 100.557L63.6144 100.645L63.8291 100.645L63.8291 99.645ZM114 99.645L115 99.645L115 98.645L114 98.645L114 99.645ZM114 124.328L114 125.328L115 125.328L115 124.328L114 124.328ZM34.7519 124.328L33.7519 124.328L33.7519 125.328L34.7519 125.328L34.7519 124.328ZM34.7519 101.183L34.673 100.186L33.7519 100.259L33.7519 101.183L34.7519 101.183ZM44.9326 100.377L45.0115 101.374L48.4147 101.105L45.404 99.4955L44.9326 100.377ZM34.166 76.1342L34.1852 75.1344L33.4263 75.1198L33.2082 75.8469L34.166 76.1342ZM56.0934 76.5018L55.5074 84.6317L57.5023 84.7754L58.0882 76.6456L56.0934 76.5018ZM55.5049 84.7035C55.5049 92.6564 58.0219 98.1283 63.4187 100.557L64.2394 98.733C59.8706 96.7671 57.5049 92.2781 57.5049 84.7035L55.5049 84.7035ZM63.8291 100.645L114 100.645L114 98.645L63.8291 98.645L63.8291 100.645ZM113 99.645L113 124.328L115 124.328L115 99.645L113 99.645ZM114 123.328L34.7519 123.328L34.7519 125.328L114 125.328L114 123.328ZM35.7519 124.328L35.7519 101.183L33.7519 101.183L33.7519 124.328L35.7519 124.328ZM34.8308 102.18L45.0115 101.374L44.8537 99.3805L34.673 100.186L34.8308 102.18ZM45.404 99.4955C37.8929 95.4801 34.2871 89.996 34.2871 83.019L32.2871 83.019C32.2871 90.8857 36.4449 96.9739 44.4611 101.259L45.404 99.4955ZM34.2871 83.019C34.2871 80.4527 34.5726 78.2588 35.1238 76.4216L33.2082 75.8469C32.5875 77.9159 32.2871 80.3118 32.2871 83.019L34.2871 83.019ZM34.1468 77.134L57.0716 77.5735L57.11 75.5738L34.1852 75.1344L34.1468 77.134ZM104.625 64.0639L105.344 64.7592L105.346 64.7568L104.625 64.0639ZM52.7695 70.8754L52.3308 71.7741L52.3365 71.7768L52.7695 70.8754ZM38.414 57.6918L39.2773 57.187L39.2741 57.1816L38.414 57.6918ZM43.6875 10.8168L44.3683 11.5493L44.3709 11.5469L43.6875 10.8168ZM82.1396 1.14886L83.1396 1.14886L83.1396 0.14886L82.1396 0.14886L82.1396 1.14886ZM82.1396 50.2211L81.1396 50.2211L81.1396 51.4383L82.3337 51.2021L82.1396 50.2211ZM88.2187 14.5522L87.5728 13.7888L86.6471 14.5721L87.5923 15.3317L88.2187 14.5522ZM101.549 3.27288L102.135 2.46294L101.501 2.0035L100.903 2.5095L101.549 3.27288ZM111.729 16.3832L112.644 15.9778L112.642 15.9742L111.729 16.3832ZM66.6855 50.2211L66.5441 51.2111L67.6855 51.3741L67.6855 50.2211L66.6855 50.2211ZM66.6855 25.3188L67.6855 25.3188L67.6855 24.3188L66.6855 24.3188L66.6855 25.3188ZM64.7812 25.3188L64.7565 26.3185L64.7689 26.3188L64.7812 26.3188L64.7812 25.3188ZM55.626 28.3217L56.3169 29.0447L56.3249 29.0369L55.626 28.3217ZM114.465 34.5473C114.465 46.4931 110.922 56.0684 103.904 63.371L105.346 64.7568C112.781 57.0203 116.465 46.9179 116.465 34.5473L114.465 34.5473ZM103.906 63.3686C96.8411 70.6708 87.6634 74.3432 76.2803 74.3432L76.2803 76.3432C88.1393 76.3432 97.8581 72.496 105.344 64.7592L103.906 63.3686ZM76.2803 74.3432L74.2295 74.3432L74.2295 76.3432L76.2803 76.3432L76.2803 74.3432ZM74.2295 74.3432C66.2474 74.3432 59.2465 72.8771 53.2025 69.974L52.3365 71.7768C58.6949 74.8308 66.0006 76.3432 74.2295 76.3432L74.2295 74.3432ZM53.2082 69.9768C47.1779 67.0329 42.5433 62.7725 39.2773 57.187L37.5508 58.1966C41.023 64.1346 45.9587 68.6633 52.3308 71.7741L53.2082 69.9768ZM39.2741 57.1816C35.9631 51.6002 34.2871 44.9474 34.2871 37.184L32.2871 37.184C32.2871 45.241 34.029 52.26 37.554 58.202L39.2741 57.1816ZM34.2871 37.184C34.2871 26.2758 37.6743 17.7719 44.3683 11.5493L43.0066 10.0844C35.8335 16.7524 32.2871 25.8266 32.2871 37.184L34.2871 37.184ZM44.3709 11.5469C51.0187 5.32338 60.3642 2.14886 72.5449 2.14886L72.5449 0.14886C60.0185 0.148861 50.1258 3.41966 43.0041 10.0868L44.3709 11.5469ZM72.5449 2.14886L82.1396 2.14886L82.1396 0.14886L72.5449 0.14886L72.5449 2.14886ZM81.1396 1.14886L81.1396 50.2211L83.1396 50.2211L83.1396 1.14886L81.1396 1.14886ZM82.3337 51.2021C86.9617 50.2867 90.6667 48.26 93.3743 45.0837L91.8522 43.7863C89.4817 46.5671 86.2043 48.3977 81.9456 49.2401L82.3337 51.2021ZM93.3743 45.0837C96.0983 41.8882 97.4219 37.7847 97.4219 32.8627L95.4219 32.8627C95.4219 37.4134 94.2063 41.0247 91.8522 43.7863L93.3743 45.0837ZM97.4219 32.8627C97.4219 24.7863 94.579 18.3802 88.8451 13.7727L87.5923 15.3317C92.796 19.5132 95.4219 25.3142 95.4219 32.8627L97.4219 32.8627ZM88.8647 15.3156L102.195 4.03627L100.903 2.5095L87.5728 13.7888L88.8647 15.3156ZM100.962 4.08282C105.044 7.03881 108.336 11.2586 110.817 16.7923L112.642 15.9742C110.044 10.1797 106.549 5.6593 102.135 2.46294L100.962 4.08282ZM110.815 16.7886C113.246 22.269 114.465 28.1847 114.465 34.5473L116.465 34.5473C116.465 27.9216 115.194 21.728 112.644 15.9778L110.815 16.7886ZM51.3301 37.3305C51.3301 41.1887 52.6196 44.3544 55.2508 46.7171C57.8476 49.0489 61.6554 50.5127 66.5441 51.2111L66.8269 49.2312C62.1453 48.5624 58.7754 47.1941 56.587 45.229C54.4331 43.2949 53.3301 40.6989 53.3301 37.3305L51.3301 37.3305ZM67.6855 50.2211L67.6855 25.3188L65.6855 25.3188L65.6855 50.2211L67.6855 50.2211ZM66.6855 24.3188L64.7812 24.3188L64.7812 26.3188L66.6855 26.3188L66.6855 24.3188ZM64.8059 24.3191C60.6702 24.217 57.324 25.264 54.927 27.6065L56.3249 29.0369C58.2248 27.1802 60.9821 26.2253 64.7565 26.3185L64.8059 24.3191ZM54.9351 27.5987C52.488 29.9371 51.3301 33.2333 51.3301 37.3305L53.3301 37.3305C53.3301 33.6152 54.3694 30.9056 56.3168 29.0447L54.9351 27.5987Z" fill="#E76800" fill-opacity="0.4"/>
</svg>
