<svg width="106" height="381" viewBox="0 0 106 381" fill="none" xmlns="http://www.w3.org/2000/svg">
<path d="M108 290.265L109 290.265L109 289.265L108 289.265L108 290.265ZM108 315.827L108 316.827L109 316.827L109 315.827L108 315.827ZM63.4687 315.827L63.4687 314.827L62.4687 314.827L62.4687 315.827L63.4687 315.827ZM63.4687 353.693L62.4687 353.693L62.4687 354.693L63.4687 354.693L63.4687 353.693ZM108 353.693L109 353.693L109 352.693L108 352.693L108 353.693ZM108 379.401L108 380.401L109 380.401L109 379.401L108 379.401ZM1.35937 379.401L0.359367 379.401L0.359367 380.401L1.35937 380.401L1.35937 379.401ZM1.35937 353.693L1.35937 352.693L0.359366 352.693L0.359366 353.693L1.35937 353.693ZM43.6934 353.693L43.6934 354.693L44.6934 354.693L44.6934 353.693L43.6934 353.693ZM43.6933 315.827L44.6933 315.827L44.6933 314.827L43.6933 314.827L43.6933 315.827ZM1.35936 315.827L0.359365 315.827L0.359365 316.827L1.35936 316.827L1.35936 315.827ZM1.35936 290.265L1.35936 289.265L0.359363 289.265L0.359363 290.265L1.35936 290.265ZM107 290.265L107 315.827L109 315.827L109 290.265L107 290.265ZM108 314.827L63.4687 314.827L63.4687 316.827L108 316.827L108 314.827ZM62.4687 315.827L62.4687 353.693L64.4687 353.693L64.4687 315.827L62.4687 315.827ZM63.4687 354.693L108 354.693L108 352.693L63.4687 352.693L63.4687 354.693ZM107 353.693L107 379.401L109 379.401L109 353.693L107 353.693ZM108 378.401L1.35937 378.401L1.35937 380.401L108 380.401L108 378.401ZM2.35937 379.401L2.35937 353.693L0.359366 353.693L0.359367 379.401L2.35937 379.401ZM1.35937 354.693L43.6934 354.693L43.6934 352.693L1.35937 352.693L1.35937 354.693ZM44.6934 353.693L44.6933 315.827L42.6933 315.827L42.6934 353.693L44.6934 353.693ZM43.6933 314.827L1.35936 314.827L1.35936 316.827L43.6933 316.827L43.6933 314.827ZM2.35936 315.827L2.35936 290.265L0.359363 290.265L0.359365 315.827L2.35936 315.827ZM1.35936 291.265L108 291.265L108 289.265L1.35936 289.265L1.35936 291.265ZM67.6435 281.93L67.6435 282.93L67.6523 282.93L67.6611 282.93L67.6435 281.93ZM46.5498 277.316L46.997 276.421L46.9942 276.42L46.5498 277.316ZM38.3467 215.719L39.0266 216.452L39.029 216.45L38.3467 215.719ZM98.625 215.792L97.9376 216.519L97.9378 216.519L98.625 215.792ZM99.3574 270.797L100.067 271.502L100.07 271.499L99.3574 270.797ZM71.8183 281.857L71.8359 282.857L71.8503 282.856L71.8647 282.856L71.8183 281.857ZM69.1816 257.247L69.1652 258.247L69.1734 258.247L69.1816 258.247L69.1816 257.247ZM70.1338 230.148L70.1482 229.148L70.141 229.148L70.1338 229.148L70.1338 230.148ZM64.7139 257.174L64.6582 258.173L64.6778 258.174L64.6975 258.174L64.7139 257.174ZM67.6435 280.93C59.8653 280.93 52.991 279.418 46.997 276.421L46.1026 278.21C52.4133 281.366 59.6015 282.93 67.6435 282.93L67.6435 280.93ZM46.9942 276.42C40.9621 273.428 36.3516 269.143 33.134 263.56L31.4011 264.558C34.8241 270.498 39.7352 275.052 46.1054 278.212L46.9942 276.42ZM33.134 263.56C29.9149 257.974 28.2871 251.389 28.2871 243.771L26.2871 243.771C26.2871 251.68 27.9796 258.621 31.4011 264.558L33.134 263.56ZM28.2871 243.771C28.2871 232.129 31.8945 223.065 39.0266 216.452L37.6668 214.986C30.0528 222.045 26.2871 231.682 26.2871 243.771L28.2871 243.771ZM39.029 216.45C46.123 209.829 55.8403 206.465 68.3027 206.465L68.3027 204.465C55.4722 204.465 45.2188 207.937 37.6643 214.988L39.029 216.45ZM68.3027 206.465L69.1816 206.465L69.1816 204.465L68.3027 204.465L68.3027 206.465ZM69.1816 206.465C81.3422 206.465 90.889 209.849 97.9376 216.519L99.3123 215.066C91.8102 207.967 81.7281 204.465 69.1816 204.465L69.1816 206.465ZM97.9378 216.519C104.929 223.132 108.465 232.127 108.465 243.624L110.465 243.624C110.465 231.684 106.774 222.124 99.3122 215.066L97.9378 216.519ZM108.465 243.624C108.465 254.69 105.167 263.479 98.6452 270.095L100.07 271.499C107.024 264.444 110.465 255.117 110.465 243.624L108.465 243.624ZM98.6478 270.093C92.0715 276.716 83.1476 280.33 71.772 280.858L71.8647 282.856C83.6336 282.31 93.0691 278.55 100.067 271.502L98.6478 270.093ZM71.8008 280.857L67.626 280.93L67.6611 282.93L71.8359 282.857L71.8008 280.857ZM69.1816 258.247C76.5692 258.247 82.1849 257.098 85.8523 254.635L84.7375 252.975C81.569 255.102 76.4425 256.247 69.1816 256.247L69.1816 258.247ZM85.8523 254.635C89.5754 252.136 91.4219 248.414 91.4219 243.624L89.4219 243.624C89.4219 247.819 87.8503 250.885 84.7375 252.975L85.8523 254.635ZM91.4219 243.624C91.4219 238.928 89.5898 235.279 85.9032 232.831C82.2877 230.429 76.9883 229.247 70.1482 229.148L70.1193 231.148C76.8046 231.244 81.6493 232.406 84.7965 234.496C87.8726 236.54 89.4219 239.532 89.4219 243.624L91.4219 243.624ZM70.1338 229.148L67.6435 229.148L67.6435 231.148L70.1338 231.148L70.1338 229.148ZM67.6435 229.148C60.4647 229.148 54.9089 230.289 51.1199 232.711C47.2546 235.182 45.3301 238.92 45.3301 243.771L47.3301 243.771C47.3301 239.54 48.9578 236.467 52.197 234.396C55.5125 232.277 60.6134 231.148 67.6435 231.148L67.6435 229.148ZM45.3301 243.771C45.3301 248.184 46.9894 251.678 50.3369 254.119C53.6255 256.516 58.4458 257.826 64.6582 258.173L64.7695 256.176C58.7261 255.839 54.3544 254.573 51.5151 252.503C48.7347 250.476 47.3301 247.61 47.3301 243.771L45.3301 243.771ZM64.6975 258.174L69.1652 258.247L69.198 256.248L64.7302 256.174L64.6975 258.174ZM28.7519 175.011L28.6656 174.015L27.7519 174.094L27.7519 175.011L28.7519 175.011ZM38.0537 174.206L38.14 175.202L40.67 174.983L38.6699 173.418L38.0537 174.206ZM39.2256 131.286L39.6296 132.2L41.2851 131.469L39.785 130.457L39.2256 131.286ZM56.4375 83.2387L56.4375 82.2387L56.4262 82.2387L56.4149 82.239L56.4375 83.2387ZM108 83.2387L109 83.2387L109 82.2387L108 82.2387L108 83.2387ZM108 107.995L108 108.995L109 108.995L109 107.995L108 107.995ZM52.8486 128.429L52.3663 129.305L52.6251 129.448L52.9199 129.427L52.8486 128.429ZM53.874 128.356L53.874 127.356L53.8383 127.356L53.8028 127.358L53.874 128.356ZM108 128.356L109 128.356L109 127.356L108 127.356L108 128.356ZM108 153.112L108 154.112L109 154.112L109 153.112L108 153.112ZM52.8486 173.473L52.3514 174.341L52.5824 174.473L52.8486 174.473L52.8486 173.473ZM108 173.473L109 173.473L109 172.473L108 172.473L108 173.473ZM108 198.156L108 199.156L109 199.156L109 198.156L108 198.156ZM28.7519 198.156L27.7519 198.156L27.7519 199.156L28.7519 199.156L28.7519 198.156ZM28.8382 176.007L38.14 175.202L37.9674 173.209L28.6656 174.015L28.8382 176.007ZM38.6699 173.418C31.7453 168.001 28.2871 160.753 28.2871 151.574L26.2871 151.574C26.2871 161.34 30.0066 169.18 37.4375 174.993L38.6699 173.418ZM28.2871 151.574C28.2871 146.699 29.256 142.692 31.1336 139.501C33.0056 136.32 35.8198 133.883 39.6296 132.2L38.8215 130.371C34.6724 132.204 31.5173 134.906 29.4099 138.487C27.3079 142.059 26.2871 146.439 26.2871 151.574L28.2871 151.574ZM39.785 130.457C32.1199 125.284 28.2871 117.841 28.2871 107.995L26.2871 107.995C26.2871 118.46 30.4133 126.545 38.6662 132.114L39.785 130.457ZM28.2871 107.995C28.2871 100.173 30.6435 94.4078 35.222 90.5195C39.8345 86.6023 46.8579 84.4556 56.4601 84.2384L56.4149 82.239C46.5835 82.4613 39.0316 84.6603 33.9274 88.995C28.7891 93.3587 26.2871 99.7514 26.2871 107.995L28.2871 107.995ZM56.4375 84.2387L108 84.2387L108 82.2387L56.4375 82.2387L56.4375 84.2387ZM107 83.2387L107 107.995L109 107.995L109 83.2387L107 83.2387ZM108 106.995L57.9756 106.995L57.9756 108.995L108 108.995L108 106.995ZM57.9756 106.995C53.853 106.995 50.6351 107.682 48.5201 109.24L49.7065 110.85C51.3023 109.674 53.9927 108.995 57.9756 108.995L57.9756 106.995ZM48.5201 109.24C46.29 110.884 45.3301 113.769 45.3301 117.516L47.3301 117.516C47.3301 114.036 48.2256 111.942 49.7065 110.85L48.5201 109.24ZM45.3301 117.516C45.3301 120.11 45.9088 122.423 47.1012 124.419C48.2931 126.415 50.0649 128.038 52.3663 129.305L53.3309 127.553C51.2867 126.428 49.7992 125.036 48.8182 123.394C47.8377 121.752 47.3301 119.805 47.3301 117.516L45.3301 117.516ZM52.9199 129.427L53.9453 129.353L53.8028 127.358L52.7774 127.432L52.9199 129.427ZM53.874 129.356L108 129.356L108 127.356L53.874 127.356L53.874 129.356ZM107 128.356L107 153.112L109 153.112L109 128.356L107 128.356ZM108 152.112L58.1221 152.112L58.1221 154.112L108 154.112L108 152.112ZM58.1221 152.112C53.9126 152.112 50.6491 152.771 48.5341 154.274L49.6925 155.904C51.2884 154.771 54.0307 154.112 58.1221 154.112L58.1221 152.112ZM48.5341 154.274C46.2824 155.874 45.3301 158.805 45.3301 162.633L47.3301 162.633C47.3301 159.04 48.2332 156.941 49.6925 155.904L48.5341 154.274ZM45.3301 162.633C45.3301 167.753 47.7167 171.685 52.3514 174.341L53.3458 172.605C49.2891 170.281 47.3301 166.987 47.3301 162.633L45.3301 162.633ZM52.8486 174.473L108 174.473L108 172.473L52.8486 172.473L52.8486 174.473ZM107 173.473L107 198.156L109 198.156L109 173.473L107 173.473ZM108 197.156L28.7519 197.156L28.7519 199.156L108 199.156L108 197.156ZM29.7519 198.156L29.7519 175.011L27.7519 175.011L27.7519 198.156L29.7519 198.156ZM98.625 64.0639L99.3437 64.7592L99.346 64.7568L98.625 64.0639ZM46.7695 70.8754L46.3308 71.7741L46.3365 71.7768L46.7695 70.8754ZM32.414 57.6918L33.2773 57.187L33.2741 57.1816L32.414 57.6918ZM37.6875 10.8168L38.3683 11.5493L38.3709 11.5469L37.6875 10.8168ZM76.1396 1.14886L77.1396 1.14886L77.1396 0.14886L76.1396 0.14886L76.1396 1.14886ZM76.1396 50.2211L75.1396 50.2211L75.1396 51.4383L76.3337 51.2021L76.1396 50.2211ZM82.2187 14.5522L81.5728 13.7888L80.6471 14.5721L81.5923 15.3317L82.2187 14.5522ZM95.5488 3.27288L96.1353 2.46294L95.5009 2.0035L94.9029 2.5095L95.5488 3.27288ZM105.729 16.3832L106.644 15.9778L106.642 15.9742L105.729 16.3832ZM60.6855 50.2211L60.5441 51.2111L61.6855 51.3741L61.6855 50.2211L60.6855 50.2211ZM60.6855 25.3188L61.6855 25.3188L61.6855 24.3188L60.6855 24.3188L60.6855 25.3188ZM58.7812 25.3188L58.7565 26.3185L58.7689 26.3188L58.7812 26.3188L58.7812 25.3188ZM49.626 28.3217L50.3169 29.0447L50.3249 29.0369L49.626 28.3217ZM108.465 34.5473C108.465 46.4931 104.922 56.0684 97.904 63.371L99.346 64.7568C106.781 57.0203 110.465 46.9179 110.465 34.5473L108.465 34.5473ZM97.9063 63.3686C90.8411 70.6708 81.6634 74.3432 70.2803 74.3432L70.2803 76.3432C82.1393 76.3432 91.8581 72.496 99.3437 64.7592L97.9063 63.3686ZM70.2803 74.3432L68.2295 74.3432L68.2295 76.3432L70.2803 76.3432L70.2803 74.3432ZM68.2295 74.3432C60.2474 74.3432 53.2465 72.8771 47.2025 69.974L46.3365 71.7768C52.6949 74.8308 60.0006 76.3432 68.2295 76.3432L68.2295 74.3432ZM47.2082 69.9768C41.1779 67.0329 36.5433 62.7725 33.2773 57.187L31.5508 58.1966C35.023 64.1346 39.9587 68.6633 46.3308 71.7741L47.2082 69.9768ZM33.2741 57.1816C29.9631 51.6002 28.2871 44.9474 28.2871 37.184L26.2871 37.184C26.2871 45.241 28.029 52.26 31.554 58.202L33.2741 57.1816ZM28.2871 37.184C28.2871 26.2758 31.6743 17.7719 38.3683 11.5493L37.0066 10.0844C29.8335 16.7524 26.2871 25.8266 26.2871 37.184L28.2871 37.184ZM38.3709 11.5469C45.0187 5.32338 54.3642 2.14886 66.5449 2.14886L66.5449 0.14886C54.0185 0.148861 44.1258 3.41966 37.0041 10.0868L38.3709 11.5469ZM66.5449 2.14886L76.1396 2.14886L76.1396 0.14886L66.5449 0.14886L66.5449 2.14886ZM75.1396 1.14886L75.1396 50.2211L77.1396 50.2211L77.1396 1.14886L75.1396 1.14886ZM76.3337 51.2021C80.9617 50.2867 84.6667 48.26 87.3743 45.0837L85.8522 43.7863C83.4817 46.5671 80.2043 48.3977 75.9456 49.2401L76.3337 51.2021ZM87.3743 45.0837C90.0983 41.8882 91.4219 37.7847 91.4219 32.8627L89.4219 32.8627C89.4219 37.4134 88.2063 41.0247 85.8522 43.7863L87.3743 45.0837ZM91.4219 32.8627C91.4219 24.7863 88.579 18.3802 82.8451 13.7727L81.5923 15.3317C86.796 19.5132 89.4219 25.3142 89.4219 32.8627L91.4219 32.8627ZM82.8647 15.3156L96.1947 4.03627L94.9029 2.5095L81.5728 13.7888L82.8647 15.3156ZM94.9623 4.08282C99.0444 7.03881 102.336 11.2586 104.817 16.7923L106.642 15.9742C104.044 10.1797 100.549 5.6593 96.1353 2.46294L94.9623 4.08282ZM104.815 16.7886C107.246 22.269 108.465 28.1847 108.465 34.5473L110.465 34.5473C110.465 27.9216 109.194 21.728 106.644 15.9778L104.815 16.7886ZM45.3301 37.3305C45.3301 41.1887 46.6196 44.3544 49.2508 46.7171C51.8476 49.0489 55.6554 50.5127 60.5441 51.2111L60.8269 49.2312C56.1453 48.5624 52.7754 47.1941 50.587 45.229C48.4331 43.2949 47.3301 40.6989 47.3301 37.3305L45.3301 37.3305ZM61.6855 50.2211L61.6855 25.3188L59.6855 25.3188L59.6855 50.2211L61.6855 50.2211ZM60.6855 24.3188L58.7812 24.3188L58.7812 26.3188L60.6855 26.3188L60.6855 24.3188ZM58.8059 24.3191C54.6702 24.217 51.324 25.264 48.927 27.6065L50.3249 29.0369C52.2248 27.1802 54.9821 26.2253 58.7565 26.3185L58.8059 24.3191ZM48.9351 27.5987C46.488 29.9371 45.3301 33.2333 45.3301 37.3305L47.3301 37.3305C47.3301 33.6152 48.3694 30.9056 50.3168 29.0447L48.9351 27.5987Z" fill="#E76800" fill-opacity="0.4"/>
</svg>
