<svg width="112" height="697" viewBox="0 0 112 697" fill="none" xmlns="http://www.w3.org/2000/svg">
<path d="M53.6484 647.937L54.0401 648.857L56.2059 647.935L54.0388 647.016L53.6484 647.937ZM7.35937 628.308L6.35937 628.308L6.35937 628.97L6.96897 629.229L7.35937 628.308ZM7.35937 600.549L7.8085 599.656L6.35937 598.927L6.35937 600.549L7.35937 600.549ZM75.6943 634.9L75.2452 635.793L75.4571 635.9L75.6943 635.9L75.6943 634.9ZM114 634.9L115 634.9L115 633.9L114 633.9L114 634.9ZM114 660.974L114 661.974L115 661.974L115 660.974L114 660.974ZM75.6943 660.974L75.6943 659.974L75.4576 659.974L75.246 660.08L75.6943 660.974ZM7.35937 695.251L6.35937 695.251L6.35937 696.872L7.80774 696.145L7.35937 695.251ZM7.35937 667.639L6.96774 666.719L6.35937 666.978L6.35937 667.639L7.35937 667.639ZM54.0388 647.016L7.74977 627.387L6.96897 629.229L53.258 648.858L54.0388 647.016ZM8.35937 628.308L8.35937 600.549L6.35937 600.549L6.35937 628.308L8.35937 628.308ZM6.91024 601.443L75.2452 635.793L76.1435 634.006L7.8085 599.656L6.91024 601.443ZM75.6943 635.9L114 635.9L114 633.9L75.6943 633.9L75.6943 635.9ZM113 634.9L113 660.974L115 660.974L115 634.9L113 634.9ZM114 659.974L75.6943 659.974L75.6943 661.974L114 661.974L114 659.974ZM75.246 660.08L6.91101 694.358L7.80774 696.145L76.1427 661.868L75.246 660.08ZM8.35937 695.251L8.35937 667.639L6.35937 667.639L6.35937 695.251L8.35937 695.251ZM7.75101 668.559L54.0401 648.857L53.2568 647.017L6.96774 666.719L7.75101 668.559ZM73.6435 605.618L73.6435 606.618L73.6523 606.618L73.6611 606.618L73.6435 605.618ZM52.5498 601.003L52.997 600.109L52.9942 600.108L52.5498 601.003ZM44.3467 539.407L45.0266 540.14L45.029 540.138L44.3467 539.407ZM104.625 539.48L103.938 540.206L103.938 540.206L104.625 539.48ZM105.357 594.485L106.067 595.189L106.07 595.187L105.357 594.485ZM77.8184 605.544L77.8359 606.544L77.8503 606.544L77.8647 606.543L77.8184 605.544ZM75.1816 580.935L75.1652 581.935L75.1734 581.935L75.1816 581.935L75.1816 580.935ZM76.1338 553.835L76.1482 552.836L76.141 552.835L76.1338 552.835L76.1338 553.835ZM70.7139 580.862L70.6582 581.86L70.6778 581.861L70.6975 581.862L70.7139 580.862ZM73.6435 604.618C65.8653 604.618 58.991 603.106 52.997 600.109L52.1026 601.898C58.4133 605.053 65.6015 606.618 73.6435 606.618L73.6435 604.618ZM52.9942 600.108C46.9621 597.115 42.3516 592.831 39.134 587.247L37.4011 588.246C40.8241 594.186 45.7352 598.739 52.1054 601.899L52.9942 600.108ZM39.134 587.247C35.9149 581.661 34.2871 575.077 34.2871 567.458L32.2871 567.458C32.2871 575.368 33.9796 582.309 37.4011 588.246L39.134 587.247ZM34.2871 567.458C34.2871 555.817 37.8945 546.753 45.0266 540.14L43.6668 538.673C36.0528 545.733 32.2871 555.37 32.2871 567.458L34.2871 567.458ZM45.029 540.138C52.123 533.517 61.8403 530.153 74.3027 530.153L74.3027 528.153C61.4722 528.153 51.2188 531.625 43.6644 538.676L45.029 540.138ZM74.3027 530.153L75.1816 530.153L75.1816 528.153L74.3027 528.153L74.3027 530.153ZM75.1816 530.153C87.3422 530.153 96.889 533.536 103.938 540.206L105.312 538.754C97.8102 531.654 87.7281 528.153 75.1816 528.153L75.1816 530.153ZM103.938 540.206C110.929 546.82 114.465 555.815 114.465 567.312L116.465 567.312C116.465 555.372 112.774 545.812 105.312 538.754L103.938 540.206ZM114.465 567.312C114.465 578.378 111.167 587.167 104.645 593.783L106.07 595.187C113.024 588.131 116.465 578.805 116.465 567.312L114.465 567.312ZM104.648 593.78C98.0715 600.404 89.1476 604.018 77.772 604.546L77.8647 606.543C89.6336 605.997 99.0691 602.238 106.067 595.189L104.648 593.78ZM77.8008 604.545L73.626 604.618L73.6611 606.618L77.8359 606.544L77.8008 604.545ZM75.1816 581.935C82.5692 581.935 88.1849 580.785 91.8523 578.323L90.7375 576.662C87.569 578.79 82.4425 579.935 75.1816 579.935L75.1816 581.935ZM91.8523 578.323C95.5754 575.823 97.4219 572.102 97.4219 567.312L95.4219 567.312C95.4219 571.507 93.8503 574.572 90.7375 576.662L91.8523 578.323ZM97.4219 567.312C97.4219 562.615 95.5898 558.967 91.9032 556.518C88.2877 554.116 82.9883 552.934 76.1482 552.836L76.1193 554.835C82.8046 554.932 87.6493 556.093 90.7965 558.184C93.8726 560.227 95.4219 563.22 95.4219 567.312L97.4219 567.312ZM76.1338 552.835L73.6435 552.835L73.6435 554.835L76.1338 554.835L76.1338 552.835ZM73.6435 552.835C66.4647 552.835 60.9089 553.977 57.1199 556.399C53.2546 558.869 51.3301 562.608 51.3301 567.458L53.3301 567.458C53.3301 563.227 54.9578 560.154 58.197 558.084C61.5125 555.965 66.6134 554.835 73.6435 554.835L73.6435 552.835ZM51.3301 567.458C51.3301 571.871 52.9894 575.366 56.3369 577.806C59.6256 580.204 64.4458 581.514 70.6582 581.86L70.7696 579.863C64.7261 579.526 60.3544 578.26 57.5151 576.19C54.7347 574.163 53.3301 571.298 53.3301 567.458L51.3301 567.458ZM70.6975 581.862L75.1652 581.935L75.198 579.935L70.7303 579.862L70.6975 581.862ZM105.431 474.822L105.345 473.825L102.808 474.042L104.815 475.61L105.431 474.822ZM107.921 515.764L108.579 516.517L108.587 516.51L107.921 515.764ZM34.7519 522.429L33.7519 522.429L33.7519 523.429L34.7519 523.429L34.7519 522.429ZM34.7519 497.747L34.7519 496.747L33.7519 496.747L33.7519 497.747L34.7519 497.747ZM90.3428 475.774L90.8511 474.913L90.6159 474.774L90.3428 474.774L90.3428 475.774ZM34.7519 475.774L33.7519 475.774L33.7519 476.774L34.7519 476.774L34.7519 475.774ZM34.7519 450.945L34.7519 449.945L33.7519 449.945L33.7519 450.945L34.7519 450.945ZM114 450.945L115 450.945L115 449.945L114 449.945L114 450.945ZM114 474.089L114.085 475.086L115 475.008L115 474.089L114 474.089ZM104.815 475.61C111.249 480.635 114.465 487.393 114.465 495.989L116.465 495.989C116.465 486.811 112.991 479.458 106.046 474.034L104.815 475.61ZM114.465 495.989C114.465 504.483 112.014 510.767 107.255 515.018L108.587 516.51C113.886 511.777 116.465 504.877 116.465 495.989L114.465 495.989ZM107.262 515.012C102.428 519.241 95.4224 521.429 86.0947 521.429L86.0947 523.429C95.7123 523.429 103.257 521.174 108.579 516.517L107.262 515.012ZM86.0947 521.429L34.7519 521.429L34.7519 523.429L86.0947 523.429L86.0947 521.429ZM35.7519 522.429L35.7519 497.747L33.7519 497.747L33.7519 522.429L35.7519 522.429ZM34.7519 498.747L86.2412 498.747L86.2412 496.747L34.7519 496.747L34.7519 498.747ZM86.2412 498.747C89.7817 498.747 92.6221 497.887 94.5734 495.992C96.5302 494.092 97.4219 491.316 97.4219 487.859L95.4219 487.859C95.4219 490.993 94.6168 493.162 93.18 494.557C91.7378 495.958 89.4878 496.747 86.2412 496.747L86.2412 498.747ZM97.4219 487.859C97.4219 481.926 95.2749 477.524 90.8511 474.913L89.8344 476.635C93.516 478.809 95.4219 482.464 95.4219 487.859L97.4219 487.859ZM90.3428 474.774L34.7519 474.774L34.7519 476.774L90.3428 476.774L90.3428 474.774ZM35.7519 475.774L35.7519 450.945L33.7519 450.945L33.7519 475.774L35.7519 475.774ZM34.7519 451.945L114 451.945L114 449.945L34.7519 449.945L34.7519 451.945ZM113 450.945L113 474.089L115 474.089L115 450.945L113 450.945ZM113.915 473.093L105.345 473.825L105.516 475.818L114.085 475.086L113.915 473.093ZM57.0908 393.171L58.0882 393.243L58.164 392.192L57.11 392.172L57.0908 393.171ZM56.5049 401.301L55.5075 401.229L55.5049 401.265L55.5049 401.301L56.5049 401.301ZM63.8291 416.243L63.4187 417.155L63.6145 417.243L63.8291 417.243L63.8291 416.243ZM114 416.243L115 416.243L115 415.243L114 415.243L114 416.243ZM114 440.925L114 441.925L115 441.925L115 440.925L114 440.925ZM34.7519 440.925L33.7519 440.925L33.7519 441.925L34.7519 441.925L34.7519 440.925ZM34.7519 417.781L34.673 416.784L33.7519 416.857L33.7519 417.781L34.7519 417.781ZM44.9326 416.975L45.0115 417.972L48.4147 417.703L45.4041 416.093L44.9326 416.975ZM34.166 392.732L34.1852 391.732L33.4263 391.718L33.2082 392.445L34.166 392.732ZM56.0934 393.099L55.5075 401.229L57.5023 401.373L58.0882 393.243L56.0934 393.099ZM55.5049 401.301C55.5049 409.254 58.0219 414.726 63.4187 417.155L64.2395 415.331C59.8706 413.365 57.5049 408.876 57.5049 401.301L55.5049 401.301ZM63.8291 417.243L114 417.243L114 415.243L63.8291 415.243L63.8291 417.243ZM113 416.243L113 440.925L115 440.925L115 416.243L113 416.243ZM114 439.925L34.7519 439.925L34.7519 441.925L114 441.925L114 439.925ZM35.7519 440.925L35.7519 417.781L33.7519 417.781L33.7519 440.925L35.7519 440.925ZM34.8308 418.778L45.0115 417.972L44.8537 415.978L34.673 416.784L34.8308 418.778ZM45.4041 416.093C37.8929 412.078 34.2871 406.594 34.2871 399.617L32.2871 399.617C32.2871 407.483 36.4449 413.572 44.4612 417.857L45.4041 416.093ZM34.2871 399.617C34.2871 397.05 34.5727 394.857 35.1238 393.019L33.2082 392.445C32.5875 394.514 32.2871 396.91 32.2871 399.617L34.2871 399.617ZM34.1468 393.732L57.0716 394.171L57.11 392.172L34.1852 391.732L34.1468 393.732ZM114 325.891L115 325.891L115 324.891L114 324.891L114 325.891ZM114 351.526L114 352.526L115 352.526L115 351.526L114 351.526ZM7.35936 351.526L6.35936 351.526L6.35936 352.526L7.35936 352.526L7.35936 351.526ZM7.35936 325.891L7.35936 324.891L6.35936 324.891L6.35936 325.891L7.35936 325.891ZM113 325.891L113 351.526L115 351.526L115 325.891L113 325.891ZM114 350.526L7.35936 350.526L7.35936 352.526L114 352.526L114 350.526ZM8.35936 351.526L8.35936 325.891L6.35936 325.891L6.35936 351.526L8.35936 351.526ZM7.35936 326.891L114 326.891L114 324.891L7.35936 324.891L7.35936 326.891ZM34.7519 290.237L34.6656 289.241L33.7519 289.32L33.7519 290.237L34.7519 290.237ZM44.0537 289.431L44.14 290.427L46.7182 290.204L44.6597 288.636L44.0537 289.431ZM40.6845 248.342L41.3195 249.115L41.324 249.111L40.6845 248.342ZM62.9502 241.97L62.9502 240.97L62.9428 240.97L62.9354 240.97L62.9502 241.97ZM114 241.97L115 241.97L115 240.97L114 240.97L114 241.97ZM114 266.726L114 267.726L115 267.726L115 266.726L114 266.726ZM55.1865 269.143L55.8325 269.907L55.8422 269.898L55.1865 269.143ZM58.0429 288.699L57.5189 289.55L57.7599 289.699L58.0429 289.699L58.0429 288.699ZM114 288.699L115 288.699L115 287.699L114 287.699L114 288.699ZM114 313.381L114 314.381L115 314.381L115 313.381L114 313.381ZM34.7519 313.381L33.7519 313.381L33.7519 314.381L34.7519 314.381L34.7519 313.381ZM34.8382 291.233L44.14 290.427L43.9674 288.435L34.6656 289.241L34.8382 291.233ZM44.6597 288.636C37.7487 283.37 34.2871 276.13 34.2871 266.799L32.2871 266.799C32.2871 276.707 36.0032 284.555 43.4476 290.227L44.6597 288.636ZM34.2871 266.799C34.2871 258.752 36.6832 252.925 41.3195 249.115L40.0496 247.57C34.8226 251.865 32.2871 258.343 32.2871 266.799L34.2871 266.799ZM41.324 249.111C46.0067 245.217 53.1632 243.115 62.965 242.97L62.9354 240.97C52.9129 241.118 45.2257 243.265 40.0451 247.573L41.324 249.111ZM62.9502 242.97L114 242.97L114 240.97L62.9502 240.97L62.9502 242.97ZM113 241.97L113 266.726L115 266.726L115 241.97L113 241.97ZM114 265.726L63.9756 265.726L63.9756 267.726L114 267.726L114 265.726ZM63.9756 265.726C59.8726 265.726 56.6525 266.546 54.5308 268.388L55.8422 269.898C57.4315 268.518 60.0707 267.726 63.9756 267.726L63.9756 265.726ZM54.5406 268.38C52.2948 270.28 51.3301 273.589 51.3301 277.932L53.3301 277.932C53.3301 273.779 54.2696 271.229 55.8324 269.906L54.5406 268.38ZM51.3301 277.932C51.3301 283.08 53.3868 287.008 57.5189 289.55L58.567 287.847C55.0819 285.702 53.3301 282.453 53.3301 277.932L51.3301 277.932ZM58.0429 289.699L114 289.699L114 287.699L58.0429 287.699L58.0429 289.699ZM113 288.699L113 313.381L115 313.381L115 288.699L113 288.699ZM114 312.381L34.7519 312.381L34.7519 314.381L114 314.381L114 312.381ZM35.7519 313.381L35.7519 290.237L33.7519 290.237L33.7519 313.381L35.7519 313.381ZM105.87 208.66L105.26 207.868L103.339 209.348L105.745 209.652L105.87 208.66ZM114 209.685L115 209.685L115 208.803L114.125 208.693L114 209.685ZM114 231.804L114 232.804L115 232.804L115 231.804L114 231.804ZM1.49998 231.804L0.499978 231.804L0.499978 232.804L1.49998 232.804L1.49998 231.804ZM1.49998 207.122L1.49998 206.122L0.499977 206.122L0.499977 207.122L1.49998 207.122ZM41.124 207.122L41.124 208.122L43.7775 208.122L41.784 206.37L41.124 207.122ZM57.2373 186.248L57.7592 187.101L57.7667 187.096L57.7742 187.091L57.2373 186.248ZM58.7021 207.122L58.2508 208.014L58.4636 208.122L58.7021 208.122L58.7021 207.122ZM90.1963 207.122L90.1963 208.122L90.4323 208.122L90.6435 208.016L90.1963 207.122ZM87.999 184.343L87.7287 185.306L87.7331 185.307L87.999 184.343ZM75.0351 159.416C87.9033 159.416 97.6395 162.079 104.381 167.265L105.601 165.68C98.378 160.123 88.1435 157.416 75.0351 157.416L75.0351 159.416ZM104.381 167.265C111.089 172.424 114.465 179.683 114.465 189.177L116.465 189.177C116.465 179.14 112.858 171.262 105.601 165.68L104.381 167.265ZM114.465 189.177C114.465 196.923 111.411 203.125 105.26 207.868L106.481 209.452C113.122 204.331 116.465 197.545 116.465 189.177L114.465 189.177ZM105.745 209.652L113.875 210.677L114.125 208.693L105.995 207.668L105.745 209.652ZM113 209.685L113 231.804L115 231.804L115 209.685L113 209.685ZM114 230.804L1.49998 230.804L1.49998 232.804L114 232.804L114 230.804ZM2.49998 231.804L2.49998 207.122L0.499977 207.122L0.499978 231.804L2.49998 231.804ZM1.49998 208.122L41.124 208.122L41.124 206.122L1.49998 206.122L1.49998 208.122ZM41.784 206.37C36.7866 201.98 34.2871 196.327 34.2871 189.324L32.2871 189.324C32.2871 196.872 35.0122 203.083 40.464 207.873L41.784 206.37ZM34.2871 189.324C34.2871 179.734 37.7106 172.428 44.5116 167.269L43.3028 165.675C35.9437 171.258 32.2871 179.187 32.2871 189.324L34.2871 189.324ZM44.5116 167.269C51.3555 162.077 61.0727 159.416 73.79 159.416L73.79 157.416C60.8238 157.416 50.619 160.125 43.3028 165.675L44.5116 167.269ZM73.79 159.416L75.0351 159.416L75.0351 157.416L73.79 157.416L73.79 159.416ZM73.497 182.171C65.8455 182.171 60.1776 183.191 56.7004 185.404L57.7742 187.091C60.7423 185.202 65.9143 184.171 73.497 184.171L73.497 182.171ZM56.7153 185.395C53.1145 187.598 51.3301 191.042 51.3301 195.549L53.3301 195.549C53.3301 191.659 54.817 188.901 57.7592 187.101L56.7153 185.395ZM51.3301 195.549C51.3301 198.458 51.885 200.989 53.0471 203.1C54.2141 205.219 55.9625 206.857 58.2508 208.014L59.1534 206.229C57.1937 205.238 55.7561 203.873 54.7991 202.135C53.8371 200.388 53.3301 198.208 53.3301 195.549L51.3301 195.549ZM58.7021 208.122L90.1963 208.122L90.1963 206.122L58.7021 206.122L58.7021 208.122ZM90.6435 208.016C92.9161 206.88 94.6479 205.236 95.8012 203.091C96.9486 200.956 97.4951 198.378 97.4951 195.403L95.4951 195.403C95.4951 198.14 94.9918 200.372 94.0396 202.144C93.0933 203.904 91.6756 205.264 89.7491 206.227L90.6435 208.016ZM97.4951 195.403C97.4951 192.333 96.7449 189.729 95.1641 187.671C93.5841 185.614 91.2506 184.203 88.2649 183.379L87.7331 185.307C90.4115 186.046 92.326 187.259 93.5781 188.889C94.8293 190.518 95.4951 192.662 95.4951 195.403L97.4951 195.403ZM88.2693 183.38C85.3402 182.558 80.3821 182.171 73.497 182.171L73.497 184.171C80.3815 184.171 85.0914 184.566 87.7287 185.306L88.2693 183.38ZM73.6435 154.329L73.6435 155.329L73.6523 155.329L73.6611 155.328L73.6435 154.329ZM52.5498 149.714L52.997 148.82L52.9942 148.819L52.5498 149.714ZM44.3467 88.1177L45.0265 88.851L45.029 88.8487L44.3467 88.1177ZM104.625 88.1909L103.938 88.9172L103.938 88.9174L104.625 88.1909ZM105.357 143.196L106.067 143.9L106.07 143.898L105.357 143.196ZM77.8183 154.255L77.8359 155.255L77.8503 155.255L77.8647 155.254L77.8183 154.255ZM75.1816 129.646L75.1652 130.646L75.1734 130.646L75.1816 130.646L75.1816 129.646ZM76.1338 102.546L76.1482 101.546L76.141 101.546L76.1338 101.546L76.1338 102.546ZM70.7138 129.573L70.6582 130.571L70.6778 130.572L70.6974 130.573L70.7138 129.573ZM73.6435 153.329C65.8653 153.329 58.991 151.817 52.997 148.82L52.1026 150.609C58.4132 153.764 65.6015 155.329 73.6435 155.329L73.6435 153.329ZM52.9942 148.819C46.9621 145.826 42.3516 141.542 39.134 135.958L37.4011 136.957C40.8241 142.897 45.7352 147.45 52.1054 150.61L52.9942 148.819ZM39.134 135.958C35.9149 130.372 34.2871 123.787 34.2871 116.169L32.2871 116.169C32.2871 124.079 33.9796 131.019 37.4011 136.957L39.134 135.958ZM34.2871 116.169C34.2871 104.528 37.8945 95.4635 45.0265 88.851L43.6668 87.3844C36.0527 94.4437 32.2871 104.08 32.2871 116.169L34.2871 116.169ZM45.029 88.8487C52.123 82.2277 61.8403 78.8638 74.3027 78.8638L74.3027 76.8638C61.4721 76.8638 51.2188 80.3358 43.6643 87.3866L45.029 88.8487ZM74.3027 78.8638L75.1816 78.8638L75.1816 76.8638L74.3027 76.8638L74.3027 78.8638ZM75.1816 78.8638C87.3422 78.8638 96.889 82.2471 103.938 88.9172L105.312 87.4646C97.8102 80.3652 87.728 76.8638 75.1816 76.8638L75.1816 78.8638ZM103.938 88.9174C110.929 95.5308 114.465 104.526 114.465 116.023L116.465 116.023C116.465 104.082 112.774 94.5229 105.312 87.4644L103.938 88.9174ZM114.465 116.023C114.465 127.089 111.167 135.877 104.645 142.494L106.07 143.898C113.024 136.842 116.465 127.516 116.465 116.023L114.465 116.023ZM104.648 142.491C98.0715 149.115 89.1476 152.728 77.772 153.256L77.8647 155.254C89.6336 154.708 99.0691 150.949 106.067 143.9L104.648 142.491ZM77.8008 153.256L73.626 153.329L73.6611 155.328L77.8359 155.255L77.8008 153.256ZM75.1816 130.646C82.5692 130.646 88.1849 129.496 91.8523 127.034L90.7375 125.373C87.569 127.501 82.4424 128.646 75.1816 128.646L75.1816 130.646ZM91.8523 127.034C95.5754 124.534 97.4218 120.812 97.4218 116.023L95.4218 116.023C95.4218 120.218 93.8503 123.283 90.7375 125.373L91.8523 127.034ZM97.4218 116.023C97.4218 111.326 95.5897 107.678 91.9031 105.229C88.2877 102.827 82.9883 101.645 76.1482 101.546L76.1193 103.546C82.8046 103.643 87.6493 104.804 90.7965 106.895C93.8726 108.938 95.4218 111.931 95.4218 116.023L97.4218 116.023ZM76.1338 101.546L73.6435 101.546L73.6435 103.546L76.1338 103.546L76.1338 101.546ZM73.6435 101.546C66.4647 101.546 60.9089 102.688 57.1199 105.11C53.2546 107.58 51.3301 111.319 51.3301 116.169L53.3301 116.169C53.3301 111.938 54.9578 108.865 58.197 106.795C61.5124 104.676 66.6134 103.546 73.6435 103.546L73.6435 101.546ZM51.3301 116.169C51.3301 120.582 52.9893 124.077 56.3369 126.517C59.6255 128.915 64.4458 130.225 70.6582 130.571L70.7695 128.574C64.7261 128.237 60.3544 126.971 57.5151 124.901C54.7347 122.874 53.3301 120.009 53.3301 116.169L51.3301 116.169ZM70.6974 130.573L75.1652 130.646L75.198 128.646L70.7302 128.573L70.6974 130.573ZM56.5781 40.2319L57.0325 41.1227L58.7508 40.2463L57.0442 39.3472L56.5781 40.2319ZM34.7519 28.7329L33.7519 28.7329L33.7519 29.3364L34.2858 29.6176L34.7519 28.7329ZM34.7519 3.09814L35.2276 2.21853L33.7519 1.42048L33.7519 3.09814L34.7519 3.09814ZM73.3506 23.9722L72.8749 24.8518L73.3496 25.1085L73.8248 24.8525L73.3506 23.9722ZM114 2.07275L115 2.07275L115 0.398122L113.526 1.19238L114 2.07275ZM114 27.854L114.469 28.7371L115 28.4551L115 27.854L114 27.854ZM90.5625 40.3052L90.0933 39.4221L88.4162 40.313L90.0998 41.1917L90.5625 40.3052ZM114 52.5366L115 52.5366L115 51.9305L114.463 51.6501L114 52.5366ZM114 78.4643L113.524 79.3441L115 80.1416L115 78.4643L114 78.4643ZM73.3506 56.4917L73.8261 55.612L73.3513 55.3553L72.8762 55.6114L73.3506 56.4917ZM34.7519 77.2925L33.7519 77.2925L33.7519 78.9673L35.2263 78.1728L34.7519 77.2925ZM34.7519 51.3647L34.2975 50.4739L33.7519 50.7522L33.7519 51.3647L34.7519 51.3647ZM57.0442 39.3472L35.218 27.8482L34.2858 29.6176L56.112 41.1167L57.0442 39.3472ZM35.7519 28.7329L35.7519 3.09814L33.7519 3.09814L33.7519 28.7329L35.7519 28.7329ZM34.2762 3.97775L72.8749 24.8518L73.8262 23.0926L35.2276 2.21853L34.2762 3.97775ZM73.8248 24.8525L114.474 2.95312L113.526 1.19238L72.8763 23.0918L73.8248 24.8525ZM113 2.07275L113 27.854L115 27.854L115 2.07275L113 2.07275ZM113.531 26.9709L90.0933 39.4221L91.0316 41.1883L114.469 28.7371L113.531 26.9709ZM90.0998 41.1917L113.537 53.4232L114.463 51.6501L91.0251 39.4186L90.0998 41.1917ZM113 52.5366L113 78.4643L115 78.4643L115 52.5366L113 52.5366ZM114.475 77.5846L73.8261 55.612L72.875 57.3714L113.524 79.3441L114.475 77.5846ZM72.8762 55.6114L34.2775 76.4122L35.2263 78.1728L73.825 57.372L72.8762 55.6114ZM35.7519 77.2925L35.7519 51.3647L33.7519 51.3647L33.7519 77.2925L35.7519 77.2925ZM35.2063 52.2556L57.0325 41.1227L56.1237 39.3411L34.2975 50.4739L35.2063 52.2556Z" fill="#E76800" fill-opacity="0.4"/>
</svg>
