<svg width="145" height="40" viewBox="0 0 145 40" fill="none" xmlns="http://www.w3.org/2000/svg">
<path d="M65.3834 20.1305C65.3834 29.4581 59.8454 35.1251 51.6422 35.1251C43.3351 35.1251 38.4547 28.7541 38.4547 20.6233C38.4547 12.1052 43.8543 5.73427 52.0921 5.73427C60.7107 5.69907 65.3834 12.246 65.3834 20.1305ZM45.1696 20.4825C45.1696 26.0438 47.7655 29.9861 51.9883 29.9861C56.2803 29.9861 58.7031 25.8678 58.7031 20.3417C58.7031 15.2027 56.3149 10.8381 51.9537 10.8381C47.6617 10.8381 45.1696 14.9211 45.1696 20.4825Z" fill="#F08E00"/>
<path d="M66.318 20.5532C66.318 17.9837 66.2488 15.8014 66.145 13.9359H71.6484L71.9253 16.787H72.0637C72.8944 15.4494 74.9366 13.4431 78.3286 13.4431C82.4822 13.4431 85.5973 16.259 85.5973 22.3483V34.5974H79.2632V23.1931C79.2632 20.518 78.3286 18.7229 76.0442 18.7229C74.3136 18.7229 73.2752 19.9548 72.8252 21.1516C72.6521 21.5388 72.6175 22.1724 72.6175 22.7355V34.6678H66.2834V20.5532H66.318Z" fill="#F08E00"/>
<path d="M87.8817 27.9799C89.5431 28.8951 92.2083 29.775 94.9081 29.775C97.8155 29.775 99.3731 28.5431 99.3731 26.6776C99.3731 24.9176 98.0232 23.8969 94.7004 22.7001C90.0277 21.0106 86.9817 18.4411 86.9817 14.2525C86.9817 9.39507 90.9968 5.69922 97.5732 5.69922C100.758 5.69922 103.077 6.33279 104.738 7.14236L103.354 12.3165C102.246 11.7886 100.238 10.979 97.504 10.979C94.735 10.979 93.4197 12.2813 93.4197 13.7245C93.4197 15.5196 94.9773 16.3292 98.6116 17.7371C103.561 19.6378 105.846 22.2425 105.846 26.2552C105.846 31.007 102.281 35.09 94.5619 35.09C91.3776 35.09 88.2278 34.21 86.6702 33.3301L87.8817 27.9799Z" fill="#5B5B5B"/>
<path d="M113.114 8.23352C113.114 10.0286 111.834 11.4366 109.722 11.4366C107.715 11.4366 106.434 10.0286 106.434 8.23352C106.434 6.40319 107.749 5.03045 109.792 5.03045C111.799 4.99525 113.08 6.36799 113.114 8.23352ZM106.607 34.6324V13.9709H112.941V34.6324H106.607Z" fill="#5B5B5B"/>
<path d="M121.837 8.05762V13.971H126.371V18.7228H121.837V26.2201C121.837 28.7192 122.46 29.8455 124.329 29.8455C125.16 29.8455 125.783 29.7751 126.198 29.6695L126.233 34.5621C125.402 34.8789 123.914 35.1253 122.148 35.1253C120.106 35.1253 118.41 34.3861 117.372 33.3302C116.195 32.0982 115.641 30.1271 115.641 27.2056V18.758H112.941V13.971H115.641V9.53596L121.837 8.05762Z" fill="#5B5B5B"/>
<path d="M131.494 26.3609C131.667 29.036 134.263 30.3031 137.239 30.3031C139.385 30.3031 141.116 30.0216 142.847 29.4232L143.712 33.7878C141.601 34.6678 139.074 35.0901 136.339 35.0901C129.452 35.0901 125.506 31.0071 125.506 24.5658C125.506 19.3212 128.725 13.5134 135.751 13.5134C142.327 13.5134 144.82 18.7228 144.82 23.8266C144.82 24.953 144.716 25.9033 144.577 26.3609H131.494ZM138.901 21.9611C138.901 20.4123 138.243 17.7725 135.37 17.7725C132.705 17.7725 131.632 20.2364 131.459 21.9611H138.901Z" fill="#5B5B5B"/>
<path d="M32.4321 39.9121L32.4667 0.947266L0 21.6792L21.0791 21.8904L32.4321 39.9121Z" fill="#F08E00"/>
<path d="M32.4321 1.01758V39.9472L20.9753 21.9607L32.4321 1.01758Z" fill="#BA7004"/>
</svg>
