<svg width="145" height="40" viewBox="0 0 145 40" fill="none" xmlns="http://www.w3.org/2000/svg">
<path d="M65.3834 19.7186C65.3834 29.0462 59.8454 34.7132 51.6422 34.7132C43.3351 34.7132 38.4547 28.3423 38.4547 20.2114C38.4547 11.6933 43.8543 5.32241 52.0921 5.32241C60.7107 5.28721 65.3834 11.8341 65.3834 19.7186ZM45.1696 20.0706C45.1696 25.632 47.7655 29.5742 51.9883 29.5742C56.2803 29.5742 58.7031 25.456 58.7031 19.9298C58.7031 14.7908 56.3149 10.4262 51.9537 10.4262C47.6617 10.4262 45.1696 14.5092 45.1696 20.0706Z" fill="#F08E00"/>
<path d="M66.3181 20.1414C66.3181 17.5719 66.2489 15.3896 66.145 13.524H71.6484L71.9253 16.3751H72.0638C72.8945 15.0376 74.9366 13.0312 78.3287 13.0312C82.4822 13.0312 85.5974 15.8471 85.5974 21.9365V34.1856H79.2632V22.7812C79.2632 20.1062 78.3287 18.311 76.0443 18.311C74.3136 18.311 73.2752 19.543 72.8253 20.7397C72.6522 21.1269 72.6176 21.7605 72.6176 22.3237V34.256H66.2835V20.1414H66.3181Z" fill="#F08E00"/>
<path d="M87.8817 27.568C89.5431 28.4832 92.2083 29.3632 94.9081 29.3632C97.8156 29.3632 99.3732 28.1312 99.3732 26.2657C99.3732 24.5058 98.0233 23.485 94.7004 22.2883C90.0277 20.5987 86.9818 18.0292 86.9818 13.8406C86.9818 8.9832 90.9969 5.28735 97.5733 5.28735C100.758 5.28735 103.077 5.92093 104.738 6.73049L103.354 11.9047C102.246 11.3767 100.238 10.5671 97.5041 10.5671C94.7351 10.5671 93.4198 11.8695 93.4198 13.3126C93.4198 15.1077 94.9773 15.9173 98.6117 17.3253C103.561 19.226 105.846 21.8307 105.846 25.8433C105.846 30.5951 102.281 34.6781 94.562 34.6781C91.3776 34.6781 88.2279 33.7982 86.6703 32.9182L87.8817 27.568Z" fill="white"/>
<path d="M113.114 7.82165C113.114 9.61678 111.834 11.0247 109.722 11.0247C107.715 11.0247 106.434 9.61678 106.434 7.82165C106.434 5.99133 107.749 4.61858 109.792 4.61858C111.799 4.58338 113.08 5.95613 113.114 7.82165ZM106.607 34.2206V13.559H112.941V34.2206H106.607Z" fill="white"/>
<path d="M121.837 7.64575V13.5591H126.371V18.3109H121.837V25.8082C121.837 28.3073 122.46 29.4337 124.329 29.4337C125.16 29.4337 125.783 29.3633 126.198 29.2577L126.233 34.1503C125.402 34.4671 123.914 34.7134 122.148 34.7134C120.106 34.7134 118.41 33.9743 117.372 32.9183C116.195 31.6864 115.641 29.7152 115.641 26.7938V18.3461H112.941V13.5591H115.641V9.12409L121.837 7.64575Z" fill="white"/>
<path d="M131.494 25.949C131.667 28.6241 134.263 29.8913 137.239 29.8913C139.385 29.8913 141.116 29.6097 142.847 29.0113L143.712 33.3759C141.601 34.2559 139.074 34.6783 136.34 34.6783C129.452 34.6783 125.506 30.5952 125.506 24.1539C125.506 18.9093 128.725 13.1016 135.751 13.1016C142.328 13.1016 144.82 18.3109 144.82 23.4147C144.82 24.5411 144.716 25.4915 144.577 25.949H131.494ZM138.901 21.5492C138.901 20.0005 138.243 17.3606 135.37 17.3606C132.705 17.3606 131.632 19.8245 131.459 21.5492H138.901Z" fill="white"/>
<path d="M32.4321 39.5002L32.4667 0.5354L0 21.2673L21.0791 21.4785L32.4321 39.5002Z" fill="#F08E00"/>
<path d="M32.4321 0.605713V39.5353L20.9753 21.5489L32.4321 0.605713Z" fill="#AF6A05"/>
</svg>
