<svg width="81" height="321" viewBox="0 0 81 321" fill="none" xmlns="http://www.w3.org/2000/svg">
<path d="M48.8242 274.453L49.5588 273.775L49.5586 273.774L48.8242 274.453ZM55.3183 299.893L54.3183 299.893L54.3183 300.893L55.3183 300.893L55.3183 299.893ZM79 299.893L80 299.893L80 298.893L79 298.893L79 299.893ZM79 319.18L79 320.18L80 320.18L80 319.18L79 319.18ZM7.61325 319.18L6.61325 319.18L6.61325 320.18L7.61325 320.18L7.61325 319.18ZM13.5215 274.16L14.2757 274.817L13.5215 274.16ZM39.5957 299.893L39.5957 300.893L40.5957 300.893L40.5957 299.893L39.5957 299.893ZM37.1543 289.492L36.4268 290.178L36.4334 290.185L37.1543 289.492ZM23.1894 299.893L22.1894 299.893L22.1894 300.893L23.1894 300.893L23.1894 299.893ZM30.3183 268.373C38.0867 268.373 43.961 270.664 48.0898 275.132L49.5586 273.774C44.9634 268.802 38.5004 266.373 30.3183 266.373L30.3183 268.373ZM48.0896 275.132C52.1953 279.577 54.3183 285.974 54.3183 294.473L56.3183 294.473C56.3183 285.653 54.112 278.704 49.5588 273.775L48.0896 275.132ZM54.3183 294.473L54.3183 299.893L56.3183 299.893L56.3183 294.473L54.3183 294.473ZM55.3183 300.893L79 300.893L79 298.893L55.3183 298.893L55.3183 300.893ZM78 299.893L78 319.18L80 319.18L80 299.893L78 299.893ZM79 318.18L7.61325 318.18L7.61325 320.18L79 320.18L79 318.18ZM8.61325 319.18L8.61325 294.473L6.61325 294.473L6.61325 319.18L8.61325 319.18ZM8.61325 294.473C8.61325 285.58 10.5585 279.087 14.2757 274.817L12.7672 273.504C8.60685 278.283 6.61325 285.332 6.61325 294.473L8.61325 294.473ZM14.2757 274.817C17.985 270.556 23.2821 268.373 30.3183 268.373L30.3183 266.373C22.8363 266.373 16.9355 268.715 12.7672 273.504L14.2757 274.817ZM40.5957 299.893L40.5957 296.377L38.5957 296.377L38.5957 299.893L40.5957 299.893ZM40.5957 296.377C40.5957 293.285 39.7216 290.719 37.8751 288.799L36.4334 290.185C37.8422 291.65 38.5957 293.675 38.5957 296.377L40.5957 296.377ZM37.8817 288.806C36.0266 286.84 33.4942 285.904 30.416 285.904L30.416 287.904C33.0669 287.904 35.0267 288.694 36.4269 290.178L37.8817 288.806ZM30.416 285.904C27.825 285.904 25.7061 286.627 24.2537 288.236C22.8188 289.826 22.1894 292.113 22.1894 294.912L24.1894 294.912C24.1894 292.373 24.7645 290.656 25.7385 289.576C26.6948 288.516 28.1893 287.904 30.416 287.904L30.416 285.904ZM22.1894 294.912L22.1894 299.893L24.1894 299.893L24.1894 294.912L22.1894 294.912ZM23.1894 300.893L39.5957 300.893L39.5957 298.893L23.1894 298.893L23.1894 300.893ZM23.0918 221.484L22.1079 221.305L22.1066 221.313L23.0918 221.484ZM23.2871 220.41L23.3815 219.415L22.4675 219.328L22.3032 220.231L23.2871 220.41ZM41.3047 222.119L42.2748 222.362L42.5569 221.233L41.3991 221.124L41.3047 222.119ZM43.5996 237.695L44.3067 236.988L44.3006 236.982L43.5996 237.695ZM79 240.527L80 240.527L80 239.527L79 239.527L79 240.527ZM79 259.619L79 260.619L80 260.619L80 259.619L79 259.619ZM23.6777 259.619L22.6777 259.619L22.6777 260.619L23.6777 260.619L23.6777 259.619ZM23.6777 245.41L23.3583 244.463L22.6777 244.692L22.6777 245.41L23.6777 245.41ZM32.5156 242.432L32.835 243.379L33.5156 243.15L33.5156 242.432L32.5156 242.432ZM32.5156 241.504L33.5156 241.504L33.5156 240.91L32.9938 240.626L32.5156 241.504ZM25.4355 234.863L26.2808 234.329L26.2792 234.326L25.4355 234.863ZM23.7011 226.221C23.7011 224.613 23.8273 223.092 24.077 221.656L22.1066 221.313C21.8354 222.872 21.7011 224.508 21.7011 226.221L23.7011 226.221ZM24.0756 221.663L24.2709 220.589L22.3032 220.231L22.1079 221.305L24.0756 221.663ZM23.1926 221.406L41.2102 223.115L41.3991 221.124L23.3815 219.415L23.1926 221.406ZM40.3345 221.877C39.9149 223.555 39.7187 225.814 39.7187 228.613L41.7187 228.613C41.7187 225.879 41.9132 223.808 42.2748 222.362L40.3345 221.877ZM39.7187 228.613C39.7187 232.905 40.7042 236.251 42.8985 238.408L44.3006 236.982C42.6538 235.363 41.7187 232.655 41.7187 228.613L39.7187 228.613ZM42.8925 238.402C45.025 240.535 48.05 241.527 51.8027 241.527L51.8027 239.527C48.3939 239.527 45.9502 238.632 44.3067 236.988L42.8925 238.402ZM51.8027 241.527L79 241.527L79 239.527L51.8027 239.527L51.8027 241.527ZM78 240.527L78 259.619L80 259.619L80 240.527L78 240.527ZM79 258.619L23.6777 258.619L23.6777 260.619L79 260.619L79 258.619ZM24.6777 259.619L24.6777 245.41L22.6777 245.41L22.6777 259.619L24.6777 259.619ZM23.9971 246.358L32.835 243.379L32.1962 241.484L23.3583 244.463L23.9971 246.358ZM33.5156 242.432L33.5156 241.504L31.5156 241.504L31.5156 242.432L33.5156 242.432ZM32.9938 240.626C30.2144 239.112 27.9805 237.018 26.2808 234.329L24.5903 235.398C26.4713 238.373 28.9574 240.705 32.0374 242.382L32.9938 240.626ZM26.2792 234.326C24.5405 231.594 23.7011 228.897 23.7011 226.221L21.7011 226.221C21.7011 229.339 22.6847 232.403 24.5919 235.4L26.2792 234.326ZM72.4082 169.639L71.7151 170.359L71.7152 170.36L72.4082 169.639ZM72.2129 210.117L72.9039 210.84L72.9062 210.838L72.2129 210.117ZM30.2207 210.264L29.5229 210.98L29.523 210.98L30.2207 210.264ZM26.1679 175.352L25.2935 174.867L26.1679 175.352ZM36.1289 165.732L36.5894 166.62L36.5974 166.616L36.1289 165.732ZM62.1054 196.25L62.5573 197.142L62.562 197.14L62.1054 196.25ZM62.1054 183.604L61.6629 184.5L61.6677 184.503L62.1054 183.604ZM40.5234 196.25L40.9946 195.368L40.9896 195.365L40.5234 196.25ZM51.2168 163.314C60.0843 163.314 66.8719 165.703 71.7151 170.359L73.1013 168.918C67.7882 163.809 60.4482 161.314 51.2168 161.314L51.2168 163.314ZM71.7152 170.36C76.5178 174.976 78.9765 181.492 78.9765 190.049L80.9765 190.049C80.9765 181.093 78.3897 174.002 73.1012 168.918L71.7152 170.36ZM78.9765 190.049C78.9765 198.225 76.466 204.637 71.5195 209.397L72.9062 210.838C78.3112 205.637 80.9765 198.669 80.9765 190.049L78.9765 190.049ZM71.5218 209.394C66.5731 214.125 59.8439 216.539 51.2168 216.539L51.2168 218.539C60.2329 218.539 67.501 216.005 72.9039 210.84L71.5218 209.394ZM51.2168 216.539C42.38 216.539 35.6615 214.166 30.9183 209.547L29.523 210.98C34.7408 216.061 42.0196 218.539 51.2168 218.539L51.2168 216.539ZM30.9184 209.547C26.1454 204.898 23.7011 198.348 23.7011 189.756L21.7011 189.756C21.7011 198.742 24.2699 205.863 29.5229 210.98L30.9184 209.547ZM23.7011 189.756C23.7011 184.465 24.8245 179.835 27.0424 175.837L25.2935 174.867C22.8889 179.201 21.7011 184.174 21.7011 189.756L23.7011 189.756ZM27.0424 175.837C29.2558 171.846 32.4302 168.778 36.5894 166.62L35.6684 164.845C31.1687 167.179 27.7024 170.524 25.2935 174.867L27.0424 175.837ZM36.5974 166.616C40.7255 164.427 45.5883 163.314 51.2168 163.314L51.2168 161.314C45.3218 161.314 40.126 162.481 35.6604 164.849L36.5974 166.616ZM51.2168 199.154C56.0316 199.154 59.8454 198.516 62.5573 197.142L61.6536 195.358C59.3524 196.523 55.9071 197.154 51.2168 197.154L51.2168 199.154ZM62.562 197.14C63.947 196.429 65.027 195.453 65.7536 194.201C66.4778 192.952 66.8164 191.489 66.8164 189.854L64.8164 189.854C64.8164 191.212 64.5365 192.313 64.0237 193.197C63.5133 194.077 62.7379 194.802 61.6489 195.36L62.562 197.14ZM66.8164 189.854C66.8164 188.233 66.4771 186.786 65.7485 185.559C65.0172 184.327 63.9312 183.38 62.5432 182.704L61.6677 184.503C62.7536 185.031 63.5231 185.728 64.0288 186.58C64.5371 187.436 64.8164 188.512 64.8164 189.854L66.8164 189.854ZM62.548 182.707C59.8393 181.37 56.0294 180.748 51.2168 180.748L51.2168 182.748C55.9093 182.748 59.3586 183.363 61.6629 184.5L62.548 182.707ZM51.2168 180.748C46.4396 180.748 42.6857 181.369 40.0666 182.714L40.9802 184.493C43.1788 183.364 46.5538 182.748 51.2168 182.748L51.2168 180.748ZM40.0666 182.714C38.7094 183.411 37.6533 184.378 36.9444 185.623C36.2387 186.863 35.9101 188.32 35.9101 189.951L37.9101 189.951C37.9101 188.588 38.1838 187.489 38.6825 186.613C39.178 185.742 39.9285 185.033 40.9802 184.493L40.0666 182.714ZM35.9101 189.951C35.9101 191.554 36.2404 192.991 36.946 194.221C37.654 195.455 38.7066 196.423 40.0572 197.135L40.9896 195.365C39.9314 194.808 39.1773 194.091 38.6809 193.226C38.1821 192.356 37.9101 191.278 37.9101 189.951L35.9101 189.951ZM40.0522 197.132C42.6456 198.518 46.4078 199.154 51.2168 199.154L51.2168 197.154C46.5205 197.154 43.1538 196.521 40.9946 195.368L40.0522 197.132ZM79 93.3789L80 93.3789L80 92.3789L79 92.3789L79 93.3789ZM79 112.471L79 113.471L80 113.471L80 112.471L79 112.471ZM23.6777 112.471L22.6777 112.471L22.6777 113.471L23.6777 113.471L23.6777 112.471ZM23.6777 93.3789L23.6777 92.3789L22.6777 92.3789L22.6777 93.3789L23.6777 93.3789ZM3.51168 110.566L2.76006 111.226L3.51168 110.566ZM3.56051 95.0879L2.8098 94.4272L3.56051 95.0879ZM37.9843 120.088L38.9843 120.088L38.9843 119.088L37.9843 119.088L37.9843 120.088ZM37.9843 131.855L36.9843 131.855L36.9843 132.855L37.9843 132.855L37.9843 131.855ZM79 131.855L80 131.855L80 130.855L79 130.855L79 131.855ZM79 150.947L79 151.947L80 151.947L80 150.947L79 150.947ZM37.9843 150.947L37.9843 149.947L36.9843 149.947L36.9843 150.947L37.9843 150.947ZM37.9843 158.271L37.9843 159.271L38.9843 159.271L38.9843 158.271L37.9843 158.271ZM28.6093 158.271L27.7547 158.791L28.0468 159.271L28.6093 159.271L28.6093 158.271ZM23.9218 150.557L24.7765 150.037L24.4844 149.557L23.9218 149.557L23.9218 150.557ZM7.27145 146.113L6.58701 146.842L6.591 146.846L7.27145 146.113ZM3.07223 124.58L4.05744 124.751L4.05785 124.749L3.07223 124.58ZM5.12301 116.67L5.43811 115.721L4.48397 115.404L4.17228 116.36L5.12301 116.67ZM17.4765 120.771L18.44 121.039L18.6947 120.122L17.7916 119.822L17.4765 120.771ZM17.8672 130.879L17.2671 131.679L17.2719 131.682L17.8672 130.879ZM23.6777 131.855L23.6777 132.855L24.6777 132.855L24.6777 131.855L23.6777 131.855ZM23.6777 120.088L23.6777 119.088L22.6777 119.088L22.6777 120.088L23.6777 120.088ZM78 93.3789L78 112.471L80 112.471L80 93.3789L78 93.3789ZM79 111.471L23.6777 111.471L23.6777 113.471L79 113.471L79 111.471ZM24.6777 112.471L24.6777 93.3789L22.6777 93.3789L22.6777 112.471L24.6777 112.471ZM23.6777 94.3789L79 94.3789L79 92.3789L23.6777 92.3789L23.6777 94.3789ZM9.90817 111.959C7.22565 111.959 5.41306 111.217 4.26331 109.907L2.76006 111.226C4.40979 113.106 6.86152 113.959 9.90817 113.959L9.90817 111.959ZM4.26331 109.907C3.10115 108.583 2.41207 106.308 2.41207 102.852L0.412073 102.852C0.412073 106.491 1.12274 109.36 2.76006 111.226L4.26331 109.907ZM2.41207 102.852C2.41207 99.4017 3.11472 97.1082 4.31122 95.7485L2.8098 94.4272C1.14171 96.3228 0.412073 99.2051 0.412073 102.852L2.41207 102.852ZM4.31122 95.7485C5.50173 94.3957 7.30679 93.6465 9.90817 93.6465L9.90817 91.6465C6.91058 91.6465 4.48387 92.5249 2.8098 94.4272L4.31122 95.7485ZM9.90817 93.6465C12.4966 93.6465 14.2746 94.4234 15.4349 95.8332C16.6258 97.2803 17.3066 99.5618 17.3066 102.852L19.3066 102.852C19.3066 99.3379 18.5877 96.5168 16.9791 94.5623C15.3399 92.5704 12.9187 91.6465 9.90817 91.6465L9.90817 93.6465ZM17.3066 102.852C17.3066 106.107 16.6265 108.362 15.4379 109.793C14.2787 111.188 12.4998 111.959 9.90817 111.959L9.90817 113.959C12.9155 113.959 15.3358 113.045 16.9761 111.071C18.5869 109.133 19.3066 106.334 19.3066 102.852L17.3066 102.852ZM36.9843 120.088L36.9843 131.855L38.9843 131.855L38.9843 120.088L36.9843 120.088ZM37.9843 132.855L79 132.855L79 130.855L37.9843 130.855L37.9843 132.855ZM78 131.855L78 150.947L80 150.947L80 131.855L78 131.855ZM79 149.947L37.9843 149.947L37.9843 151.947L79 151.947L79 149.947ZM36.9843 150.947L36.9843 158.271L38.9843 158.271L38.9843 150.947L36.9843 150.947ZM37.9843 157.271L28.6093 157.271L28.6093 159.271L37.9843 159.271L37.9843 157.271ZM29.464 157.752L24.7765 150.037L23.0672 151.076L27.7547 158.791L29.464 157.752ZM23.9218 149.557L22.9941 149.557L22.9941 151.557L23.9218 151.557L23.9218 149.557ZM22.9941 149.557C15.7958 149.557 10.8666 148.087 7.9519 145.38L6.591 146.846C10.0565 150.064 15.6091 151.557 22.9941 151.557L22.9941 149.557ZM7.95589 145.384C5.04969 142.656 3.48629 138.196 3.48629 131.758L1.48629 131.758C1.48629 138.471 3.113 143.581 6.58701 146.842L7.95589 145.384ZM3.48629 131.758C3.48629 129.27 3.6777 126.935 4.05744 124.751L2.08702 124.409C1.68552 126.717 1.48629 129.168 1.48629 131.758L3.48629 131.758ZM4.05785 124.749C4.43795 122.532 5.10723 119.944 6.07374 116.98L4.17228 116.36C3.18567 119.385 2.48776 122.071 2.08661 124.411L4.05785 124.749ZM4.80791 117.619L17.1614 121.721L17.7916 119.822L5.43811 115.721L4.80791 117.619ZM16.513 120.504C15.8398 122.928 15.5 125.313 15.5 127.656L17.5 127.656C17.5 125.508 17.8112 123.303 18.44 121.039L16.513 120.504ZM15.5 127.656C15.5 129.337 16.0341 130.754 17.2672 131.679L18.4672 130.079C17.8772 129.636 17.5 128.905 17.5 127.656L15.5 127.656ZM17.2719 131.682C18.4168 132.531 20.1376 132.855 22.2129 132.855L22.2129 130.855C20.2517 130.855 19.0753 130.529 18.4624 130.075L17.2719 131.682ZM22.2129 132.855L23.6777 132.855L23.6777 130.855L22.2129 130.855L22.2129 132.855ZM24.6777 131.855L24.6777 120.088L22.6777 120.088L22.6777 131.855L24.6777 131.855ZM23.6777 121.088L37.9843 121.088L37.9843 119.088L23.6777 119.088L23.6777 121.088ZM79 63.457L80 63.457L80 62.457L79 62.457L79 63.457ZM79 82.5488L79 83.5488L80 83.5488L80 82.5488L79 82.5488ZM3.0234 82.5488L2.0234 82.5488L2.0234 83.5488L3.0234 83.5488L3.0234 82.5488ZM3.0234 63.457L3.0234 62.457L2.0234 62.457L2.0234 63.457L3.0234 63.457ZM78 63.457L78 82.5488L80 82.5488L80 63.457L78 63.457ZM79 81.5488L3.0234 81.5488L3.0234 83.5488L79 83.5488L79 81.5488ZM4.0234 82.5488L4.0234 63.457L2.0234 63.457L2.0234 82.5488L4.0234 82.5488ZM3.0234 64.457L79 64.457L79 62.457L3.0234 62.457L3.0234 64.457ZM72.6523 47.5L73.3708 48.1955L73.3753 48.1908L72.6523 47.5ZM30.2207 48.0371L30.9085 47.3113L30.9062 47.309L30.2207 48.0371ZM29.2441 8.53515L29.9641 9.22918L29.9691 9.22387L29.2441 8.53515ZM56.4902 1.69921L57.4902 1.69921L57.4902 0.699214L56.4902 0.699214L56.4902 1.69921ZM56.4902 35.8301L55.4902 35.8301L55.4902 36.873L56.5323 36.8292L56.4902 35.8301ZM63.7656 32.4609L64.5348 33.1L64.5395 33.0942L63.7656 32.4609ZM65.4746 14.4922L66.4511 14.2764L66.4491 14.2681L65.4746 14.4922ZM62.2031 5.31249L62.2031 4.31249L60.6348 4.31249L61.2964 5.73437L62.2031 5.31249ZM75.9238 5.31249L76.8143 4.85754L76.5358 4.31249L75.9238 4.31249L75.9238 5.31249ZM37.8379 32.8027L38.5684 32.1199L38.5679 32.1193L37.8379 32.8027ZM44.4785 35.4394L44.3928 36.4358L45.4785 36.5292L45.4785 35.4394L44.4785 35.4394ZM44.4785 19.0332L45.4785 19.0332L45.4785 18.0085L44.4541 18.0335L44.4785 19.0332ZM38.082 21.3281L38.7502 22.0722L38.7584 22.0646L38.082 21.3281ZM78.9765 26.0156C78.9765 35.0513 76.5854 41.9357 71.9293 46.8092L73.3753 48.1908C78.4848 42.8429 80.9765 35.4045 80.9765 26.0156L78.9765 26.0156ZM71.9338 46.8045C67.256 51.6371 60.5637 54.1172 51.705 54.1172L51.705 56.1172C60.9454 56.1172 68.2179 53.5191 73.3708 48.1955L71.9338 46.8045ZM51.705 54.1172C42.5244 54.1172 35.6447 51.7997 30.9085 47.3113L29.5328 48.7629C34.7576 53.7146 42.2008 56.1172 51.705 56.1172L51.705 54.1172ZM30.9062 47.309C26.1452 42.8263 23.7011 36.3826 23.7011 27.8223L21.7011 27.8223C21.7011 36.775 24.2701 43.8079 29.5352 48.7652L30.9062 47.309ZM23.7011 27.8223C23.7011 19.6609 25.8341 13.5132 29.964 9.22918L28.5242 7.84112C23.9301 12.6066 21.7011 19.3169 21.7011 27.8223L23.7011 27.8223ZM29.9691 9.22387C34.0575 4.92028 40.0113 2.69921 47.9941 2.69921L47.9941 0.699214C39.6358 0.699215 33.0895 3.0354 28.5191 7.84643L29.9691 9.22387ZM47.9941 2.69921L56.4902 2.69921L56.4902 0.699214L47.9941 0.699214L47.9941 2.69921ZM55.4902 1.69921L55.4902 35.8301L57.4902 35.8301L57.4902 1.69921L55.4902 1.69921ZM56.5323 36.8292C59.8679 36.6887 62.5727 35.4617 64.5348 33.1L62.9964 31.8219C61.4428 33.692 59.2974 34.711 56.4481 34.831L56.5323 36.8292ZM64.5395 33.0942C66.4851 30.7162 67.4023 27.5544 67.4023 23.7207L65.4023 23.7207C65.4023 27.2438 64.5617 29.9087 62.9916 31.8277L64.5395 33.0942ZM67.4023 23.7207C67.4023 20.3072 67.0875 17.1575 66.451 14.2765L64.4981 14.7079C65.0986 17.4258 65.4023 20.4285 65.4023 23.7207L67.4023 23.7207ZM66.4491 14.2681C65.7791 11.3536 64.6623 8.22686 63.1097 4.89062L61.2964 5.73437C62.8038 8.97363 63.8679 11.9667 64.5 14.7162L66.4491 14.2681ZM62.2031 6.31249L75.9238 6.31249L75.9238 4.31249L62.2031 4.31249L62.2031 6.31249ZM75.0333 5.76745C76.5207 8.67901 77.5463 11.6793 78.1141 14.7705L80.0812 14.4092C79.4771 11.1202 78.3868 7.93554 76.8143 4.85754L75.0333 5.76745ZM78.1141 14.7705C78.6859 17.8839 78.9765 21.6288 78.9765 26.0156L80.9765 26.0156C80.9765 21.5482 80.6812 17.676 80.0812 14.4092L78.1141 14.7705ZM34.6894 27.1387C34.6894 29.6186 35.4889 31.7568 37.1078 33.4861L38.5679 32.1193C37.3222 30.7887 36.6894 29.1509 36.6894 27.1387L34.6894 27.1387ZM37.1073 33.4856C38.7414 35.2337 41.2353 36.1642 44.3928 36.4358L44.5642 34.4431C41.667 34.1939 39.7338 33.3666 38.5684 32.1199L37.1073 33.4856ZM45.4785 35.4394L45.4785 19.0332L43.4785 19.0332L43.4785 35.4394L45.4785 35.4394ZM44.4541 18.0335C41.6014 18.1031 39.2179 18.9272 37.4056 20.5916L38.7584 22.0646C40.1362 20.7993 42.017 20.0936 44.5029 20.0329L44.4541 18.0335ZM37.4139 20.5841C35.5772 22.2333 34.6894 24.457 34.6894 27.1387L36.6894 27.1387C36.6894 24.9375 37.3967 23.2875 38.7501 22.0721L37.4139 20.5841Z" fill="#010973"/>
</svg>
