<svg width="113" height="427" viewBox="0 0 113 427" fill="none" xmlns="http://www.w3.org/2000/svg">
<path d="M79.2773 400.099L78.2773 400.099L78.2773 401.099L79.2773 401.099L79.2773 400.099ZM115.459 400.099L116.459 400.099L116.459 399.099L115.459 399.099L115.459 400.099ZM115.459 425.807L115.459 426.807L116.459 426.807L116.459 425.807L115.459 425.807ZM8.81835 425.807L7.81835 425.807L7.81835 426.807L8.81835 426.807L8.81835 425.807ZM13.3594 361.647L14.2594 362.083L14.2634 362.074L13.3594 361.647ZM26.1767 347.072L26.7 347.924L26.7088 347.918L26.1767 347.072ZM69.9756 353.078L70.743 352.436L70.7426 352.436L69.9756 353.078ZM59.4287 400.099L59.4287 401.099L60.4287 401.099L60.4287 400.099L59.4287 400.099ZM55.6934 371.901L54.9663 372.587L54.9728 372.594L55.6934 371.901ZM28.667 382.96L27.667 382.95L27.667 382.96L28.667 382.96ZM28.667 400.099L27.667 400.099L27.667 401.099L28.667 401.099L28.667 400.099ZM79.2773 401.099L115.459 401.099L115.459 399.099L79.2773 399.099L79.2773 401.099ZM114.459 400.099L114.459 425.807L116.459 425.807L116.459 400.099L114.459 400.099ZM115.459 424.807L8.81835 424.807L8.81835 426.807L115.459 426.807L115.459 424.807ZM9.81835 425.807L9.81835 383.253L7.81835 383.253L7.81835 425.807L9.81835 425.807ZM9.81835 383.253C9.81835 375.224 11.3083 368.175 14.2593 362.083L12.4594 361.211C9.3557 367.619 7.81835 374.974 7.81835 383.253L9.81835 383.253ZM14.2634 362.074C17.1647 355.939 21.3103 351.233 26.7 347.924L25.6535 346.22C19.9104 349.746 15.5111 354.757 12.4553 361.219L14.2634 362.074ZM26.7088 347.918C32.0543 344.56 38.1415 342.872 45 342.872L45 340.872C37.796 340.872 31.3343 342.65 25.6447 346.225L26.7088 347.918ZM45 342.872C55.1272 342.872 63.1628 346.493 69.2086 353.719L70.7426 352.436C64.2883 344.721 55.6736 340.872 45 340.872L45 342.872ZM69.2082 353.719C75.2144 360.907 78.2773 370.858 78.2773 383.693L80.2773 383.693C80.2773 370.551 77.1391 360.092 70.743 352.436L69.2082 353.719ZM78.2773 383.693L78.2773 400.099L80.2773 400.099L80.2773 383.693L78.2773 383.693ZM60.4287 400.099L60.4287 383.253L58.4287 383.253L58.4287 400.099L60.4287 400.099ZM60.4287 383.253C60.4287 378.116 59.1431 374.044 56.4139 371.207L54.9728 372.594C57.224 374.934 58.4287 378.43 58.4287 383.253L60.4287 383.253ZM56.4204 371.214C53.6959 368.329 49.8887 366.946 45.1465 366.946L45.1465 368.946C49.4862 368.946 52.7104 370.199 54.9663 372.587L56.4204 371.214ZM45.1465 366.946C39.981 366.946 35.7422 368.343 32.5384 371.231L33.8776 372.717C36.6309 370.234 40.351 368.946 45.1465 368.946L45.1465 366.946ZM32.5384 371.231C29.3191 374.134 27.7183 378.08 27.667 382.95L29.6669 382.971C29.7133 378.564 31.1399 375.185 33.8776 372.717L32.5384 371.231ZM27.667 382.96L27.667 400.099L29.667 400.099L29.667 382.96L27.667 382.96ZM28.667 401.099L59.4287 401.099L59.4287 399.099L28.667 399.099L28.667 401.099ZM58.5498 285.05L59.5472 285.122L59.623 284.071L58.569 284.05L58.5498 285.05ZM57.9639 293.18L56.9664 293.108L56.9639 293.144L56.9639 293.18L57.9639 293.18ZM65.2881 308.122L64.8777 309.033L65.0734 309.122L65.2881 309.122L65.2881 308.122ZM115.459 308.122L116.459 308.122L116.459 307.122L115.459 307.122L115.459 308.122ZM115.459 332.804L115.459 333.804L116.459 333.804L116.459 332.804L115.459 332.804ZM36.2109 332.804L35.2109 332.804L35.2109 333.804L36.2109 333.804L36.2109 332.804ZM36.2109 309.66L36.132 308.663L35.2109 308.736L35.2109 309.66L36.2109 309.66ZM46.3916 308.854L46.4705 309.851L49.8737 309.582L46.863 307.972L46.3916 308.854ZM35.625 284.611L35.6442 283.611L34.8853 283.596L34.6672 284.323L35.625 284.611ZM57.5524 284.978L56.9664 293.108L58.9613 293.252L59.5472 285.122L57.5524 284.978ZM56.9639 293.18C56.9639 301.133 59.4809 306.605 64.8777 309.033L65.6984 307.21C61.3296 305.244 58.9639 300.755 58.9639 293.18L56.9639 293.18ZM65.2881 309.122L115.459 309.122L115.459 307.122L65.2881 307.122L65.2881 309.122ZM114.459 308.122L114.459 332.804L116.459 332.804L116.459 308.122L114.459 308.122ZM115.459 331.804L36.2109 331.804L36.2109 333.804L115.459 333.804L115.459 331.804ZM37.2109 332.804L37.2109 309.66L35.2109 309.66L35.2109 332.804L37.2109 332.804ZM36.2898 310.656L46.4705 309.851L46.3127 307.857L36.132 308.663L36.2898 310.656ZM46.863 307.972C39.3519 303.957 35.7461 298.473 35.7461 291.496L33.7461 291.496C33.7461 299.362 37.9039 305.45 45.9201 309.736L46.863 307.972ZM35.7461 291.496C35.7461 288.929 36.0316 286.735 36.5828 284.898L34.6672 284.323C34.0465 286.392 33.7461 288.788 33.7461 291.496L35.7461 291.496ZM35.6058 285.611L58.5306 286.05L58.569 284.05L35.6442 283.611L35.6058 285.611ZM75.1025 285.651L75.1025 286.651L75.1113 286.651L75.1201 286.651L75.1025 285.651ZM54.0088 281.037L54.456 280.142L54.4532 280.141L54.0088 281.037ZM45.8056 219.44L46.4855 220.173L46.488 220.171L45.8056 219.44ZM106.084 219.513L105.397 220.239L105.397 220.24L106.084 219.513ZM106.816 274.518L107.526 275.223L107.529 275.22L106.816 274.518ZM79.2773 285.578L79.2949 286.577L79.3093 286.577L79.3237 286.576L79.2773 285.578ZM76.6406 260.968L76.6242 261.968L76.6324 261.968L76.6406 261.968L76.6406 260.968ZM77.5928 233.869L77.6072 232.869L77.6 232.869L77.5928 232.869L77.5928 233.869ZM72.1728 260.895L72.1171 261.893L72.1368 261.894L72.1564 261.895L72.1728 260.895ZM75.1025 284.651C67.3243 284.651 60.45 283.139 54.456 280.142L53.5616 281.931C59.8722 285.086 67.0605 286.651 75.1025 286.651L75.1025 284.651ZM54.4532 280.141C48.4211 277.148 43.8106 272.864 40.593 267.28L38.8601 268.279C42.2831 274.219 47.1942 278.772 53.5644 281.932L54.4532 280.141ZM40.593 267.28C37.3739 261.694 35.7461 255.11 35.7461 247.492L33.7461 247.492C33.7461 255.401 35.4386 262.342 38.8601 268.279L40.593 267.28ZM35.7461 247.492C35.7461 235.85 39.3535 226.786 46.4855 220.173L45.1258 218.707C37.5117 225.766 33.7461 235.403 33.7461 247.492L35.7461 247.492ZM46.488 220.171C53.582 213.55 63.2993 210.186 75.7617 210.186L75.7617 208.186C62.9311 208.186 52.6778 211.658 45.1233 218.709L46.488 220.171ZM75.7617 210.186L76.6406 210.186L76.6406 208.186L75.7617 208.186L75.7617 210.186ZM76.6406 210.186C88.8012 210.186 98.348 213.569 105.397 220.239L106.771 218.787C99.2692 211.687 89.187 208.186 76.6406 208.186L76.6406 210.186ZM105.397 220.24C112.388 226.853 115.924 235.848 115.924 247.345L117.924 247.345C117.924 235.405 114.233 225.845 106.771 218.787L105.397 220.24ZM115.924 247.345C115.924 258.411 112.626 267.2 106.104 273.816L107.529 275.22C114.483 268.164 117.924 258.838 117.924 247.345L115.924 247.345ZM106.107 273.813C99.5305 280.437 90.6066 284.051 79.231 284.579L79.3237 286.576C91.0926 286.03 100.528 282.271 107.526 275.223L106.107 273.813ZM79.2598 284.578L75.085 284.651L75.1201 286.651L79.2949 286.577L79.2598 284.578ZM76.6406 261.968C84.0282 261.968 89.6439 260.818 93.3113 258.356L92.1965 256.696C89.028 258.823 83.9014 259.968 76.6406 259.968L76.6406 261.968ZM93.3113 258.356C97.0344 255.856 98.8808 252.135 98.8808 247.345L96.8808 247.345C96.8808 251.54 95.3093 254.606 92.1965 256.696L93.3113 258.356ZM98.8808 247.345C98.8808 242.648 97.0487 239 93.3621 236.551C89.7467 234.15 84.4473 232.967 77.6072 232.869L77.5783 234.868C84.2636 234.965 89.1083 236.127 92.2555 238.217C95.3316 240.261 96.8808 243.253 96.8808 247.345L98.8808 247.345ZM77.5928 232.869L75.1025 232.869L75.1025 234.869L77.5928 234.869L77.5928 232.869ZM75.1025 232.869C67.9236 232.869 62.3679 234.01 58.5789 236.432C54.7136 238.902 52.789 242.641 52.789 247.492L54.789 247.492C54.789 243.26 56.4168 240.187 59.656 238.117C62.9714 235.998 68.0724 234.869 75.1025 234.869L75.1025 232.869ZM52.789 247.492C52.789 251.904 54.4483 255.399 57.7959 257.839C61.0845 260.237 65.9048 261.547 72.1171 261.893L72.2285 259.897C66.1851 259.559 61.8134 258.293 58.9741 256.223C56.1937 254.196 54.789 251.331 54.789 247.492L52.789 247.492ZM72.1564 261.895L76.6242 261.968L76.657 259.968L72.1892 259.895L72.1564 261.895ZM115.459 196.31L115.459 197.31L116.459 197.31L116.459 196.31L115.459 196.31ZM53.3496 196.31L53.3496 195.31L52.3496 195.31L52.3496 196.31L53.3496 196.31ZM53.3496 207.809L53.3496 208.809L54.3496 208.809L54.3496 207.809L53.3496 207.809ZM36.2109 207.809L35.2109 207.809L35.2109 208.809L36.2109 208.809L36.2109 207.809ZM36.2109 196.31L37.2109 196.31L37.2109 195.31L36.2109 195.31L36.2109 196.31ZM33.5742 196.31L33.5603 197.31L33.5742 197.31L33.5742 196.31ZM9.33104 185.91L8.55707 186.543L8.56055 186.547L9.33104 185.91ZM5.66893 133.102L5.83933 132.117L4.95418 131.964L4.7074 132.827L5.66893 133.102ZM25.1513 136.471L26.1173 136.73L26.4006 135.672L25.3218 135.486L25.1513 136.471ZM24.0527 140.573L23.0868 140.314L23.0863 140.316L24.0527 140.573ZM36.2109 171.554L36.2109 172.554L37.2109 172.554L37.2109 171.554L36.2109 171.554ZM36.2109 156.027L36.2109 155.027L35.2109 155.027L35.2109 156.027L36.2109 156.027ZM53.3496 156.027L54.3496 156.027L54.3496 155.027L53.3496 155.027L53.3496 156.027ZM53.3496 171.554L52.3496 171.554L52.3496 172.554L53.3496 172.554L53.3496 171.554ZM115.459 171.554L116.459 171.554L116.459 170.554L115.459 170.554L115.459 171.554ZM115.459 121.749L116.459 121.749L116.459 120.749L115.459 120.749L115.459 121.749ZM115.459 146.579L115.459 147.579L116.459 147.579L116.459 146.579L115.459 146.579ZM36.2109 146.579L35.2109 146.579L35.2109 147.579L36.2109 147.579L36.2109 146.579ZM36.2109 121.749L36.2109 120.749L35.2109 120.749L35.2109 121.749L36.2109 121.749ZM115.459 195.31L53.3496 195.31L53.3496 197.31L115.459 197.31L115.459 195.31ZM52.3496 196.31L52.3496 207.809L54.3496 207.809L54.3496 196.31L52.3496 196.31ZM53.3496 206.809L36.2109 206.809L36.2109 208.809L53.3496 208.809L53.3496 206.809ZM37.2109 207.809L37.2109 196.31L35.2109 196.31L35.2109 207.809L37.2109 207.809ZM36.2109 195.31L33.5742 195.31L33.5742 197.31L36.2109 197.31L36.2109 195.31ZM33.5881 195.31C23.2707 195.167 15.4928 191.789 10.1015 185.272L8.56055 186.547C14.3998 193.605 22.784 197.16 33.5603 197.31L33.5881 195.31ZM10.105 185.276C5.02558 179.068 2.42088 170.314 2.42088 158.883L0.420881 158.883C0.420882 170.597 3.08962 179.86 8.55708 186.543L10.105 185.276ZM2.42088 158.883C2.42088 151.73 3.81424 143.233 6.63045 133.377L4.7074 132.827C1.85955 142.795 0.420881 151.485 0.420881 158.883L2.42088 158.883ZM5.49852 134.087L24.9809 137.457L25.3218 135.486L5.83933 132.117L5.49852 134.087ZM24.1854 136.212L23.0868 140.314L25.0187 140.831L26.1173 136.73L24.1854 136.212ZM23.0863 140.316C21.6464 145.728 20.9287 151.43 20.9287 157.418L22.9287 157.418C22.9287 151.591 23.627 146.062 25.0191 140.83L23.0863 140.316ZM20.9287 157.418C20.9287 162.263 22.0311 166.083 24.4125 168.694C26.8097 171.323 30.3433 172.554 34.8193 172.554L34.8193 170.554C30.7016 170.554 27.7899 169.43 25.8903 167.346C23.9747 165.246 22.9287 161.998 22.9287 157.418L20.9287 157.418ZM34.8193 172.554L36.2109 172.554L36.2109 170.554L34.8193 170.554L34.8193 172.554ZM37.2109 171.554L37.2109 156.027L35.2109 156.027L35.2109 171.554L37.2109 171.554ZM36.2109 157.027L53.3496 157.027L53.3496 155.027L36.2109 155.027L36.2109 157.027ZM52.3496 156.027L52.3496 171.554L54.3496 171.554L54.3496 156.027L52.3496 156.027ZM53.3496 172.554L115.459 172.554L115.459 170.554L53.3496 170.554L53.3496 172.554ZM114.459 171.554L114.459 196.31L116.459 196.31L116.459 171.554L114.459 171.554ZM114.459 121.749L114.459 146.579L116.459 146.579L116.459 121.749L114.459 121.749ZM115.459 145.579L36.2109 145.579L36.2109 147.579L115.459 147.579L115.459 145.579ZM37.2109 146.579L37.2109 121.749L35.2109 121.749L35.2109 146.579L37.2109 146.579ZM36.2109 122.749L115.459 122.749L115.459 120.749L36.2109 120.749L36.2109 122.749ZM115.459 84.4106L116.459 84.4106L116.459 83.4106L115.459 83.4106L115.459 84.4106ZM115.459 109.166L115.459 110.166L116.459 110.166L116.459 109.166L115.459 109.166ZM2.95896 109.166L1.95896 109.166L1.95896 110.166L2.95896 110.166L2.95896 109.166ZM2.95896 84.4106L2.95896 83.4106L1.95896 83.4106L1.95896 84.4106L2.95896 84.4106ZM114.459 84.4106L114.459 109.166L116.459 109.166L116.459 84.4106L114.459 84.4106ZM115.459 108.166L2.95896 108.166L2.95896 110.166L115.459 110.166L115.459 108.166ZM3.95896 109.166L3.95896 84.4106L1.95896 84.4106L1.95896 109.166L3.95896 109.166ZM2.95896 85.4106L115.459 85.4106L115.459 83.4106L2.95896 83.4106L2.95896 85.4106ZM106.084 64.0639L106.803 64.7592L106.805 64.7568L106.084 64.0639ZM54.2285 70.8754L53.7898 71.7741L53.7955 71.7768L54.2285 70.8754ZM39.873 57.6918L40.7363 57.187L40.7331 57.1816L39.873 57.6918ZM45.1465 10.8168L45.8273 11.5493L45.8299 11.5469L45.1465 10.8168ZM83.5986 1.14886L84.5986 1.14886L84.5986 0.14886L83.5986 0.14886L83.5986 1.14886ZM83.5986 50.2211L82.5986 50.2211L82.5986 51.4383L83.7927 51.2021L83.5986 50.2211ZM89.6777 14.5522L89.0318 13.7888L88.106 14.5721L89.0513 15.3317L89.6777 14.5522ZM103.008 3.27288L103.594 2.46294L102.96 2.0035L102.362 2.5095L103.008 3.27288ZM113.188 16.3832L114.103 15.9778L114.101 15.9742L113.188 16.3832ZM68.1445 50.2211L68.0031 51.2111L69.1445 51.3741L69.1445 50.2211L68.1445 50.2211ZM68.1445 25.3188L69.1445 25.3188L69.1445 24.3188L68.1445 24.3188L68.1445 25.3188ZM66.2402 25.3188L66.2155 26.3185L66.2279 26.3188L66.2402 26.3188L66.2402 25.3188ZM57.0849 28.3217L57.7758 29.0447L57.7839 29.0369L57.0849 28.3217ZM115.924 34.5473C115.924 46.4931 112.381 56.0684 105.363 63.371L106.805 64.7568C114.24 57.0203 117.924 46.9179 117.924 34.5473L115.924 34.5473ZM105.365 63.3686C98.3001 70.6708 89.1224 74.3432 77.7392 74.3432L77.7392 76.3432C89.5982 76.3432 99.3171 72.496 106.803 64.7592L105.365 63.3686ZM77.7392 74.3432L75.6885 74.3432L75.6885 76.3432L77.7392 76.3432L77.7392 74.3432ZM75.6885 74.3432C67.7064 74.3432 60.7055 72.8771 54.6615 69.974L53.7955 71.7768C60.1538 74.8308 67.4596 76.3432 75.6885 76.3432L75.6885 74.3432ZM54.6672 69.9768C48.6369 67.0329 44.0023 62.7725 40.7363 57.187L39.0098 58.1966C42.482 64.1346 47.4177 68.6633 53.7898 71.7741L54.6672 69.9768ZM40.7331 57.1816C37.4221 51.6002 35.7461 44.9474 35.7461 37.184L33.7461 37.184C33.7461 45.241 35.488 52.26 39.013 58.202L40.7331 57.1816ZM35.7461 37.184C35.7461 26.2758 39.1332 17.7719 45.8273 11.5493L44.4656 10.0844C37.2925 16.7524 33.7461 25.8266 33.7461 37.184L35.7461 37.184ZM45.8299 11.5469C52.4777 5.32338 61.8232 2.14886 74.0039 2.14886L74.0039 0.14886C61.4775 0.148861 51.5848 3.41966 44.463 10.0868L45.8299 11.5469ZM74.0039 2.14886L83.5986 2.14886L83.5986 0.14886L74.0039 0.14886L74.0039 2.14886ZM82.5986 1.14886L82.5986 50.2211L84.5986 50.2211L84.5986 1.14886L82.5986 1.14886ZM83.7927 51.2021C88.4206 50.2867 92.1257 48.26 94.8333 45.0837L93.3112 43.7863C90.9407 46.5671 87.6633 48.3977 83.4046 49.2401L83.7927 51.2021ZM94.8333 45.0837C97.5573 41.8882 98.8808 37.7847 98.8808 32.8627L96.8808 32.8627C96.8808 37.4134 95.6653 41.0247 93.3112 43.7863L94.8333 45.0837ZM98.8808 32.8627C98.8808 24.7863 96.0379 18.3802 90.3041 13.7727L89.0513 15.3317C94.255 19.5132 96.8808 25.3142 96.8808 32.8627L98.8808 32.8627ZM90.3237 15.3156L103.654 4.03627L102.362 2.5095L89.0318 13.7888L90.3237 15.3156ZM102.421 4.08282C106.503 7.03881 109.795 11.2586 112.276 16.7923L114.101 15.9742C111.503 10.1797 108.008 5.6593 103.594 2.46294L102.421 4.08282ZM112.274 16.7886C114.705 22.269 115.924 28.1847 115.924 34.5473L117.924 34.5473C117.924 27.9216 116.653 21.728 114.103 15.9778L112.274 16.7886ZM52.789 37.3305C52.789 41.1887 54.0786 44.3544 56.7098 46.7171C59.3066 49.0489 63.1144 50.5127 68.0031 51.2111L68.2859 49.2312C63.6043 48.5624 60.2344 47.1941 58.046 45.229C55.8921 43.2949 54.789 40.6989 54.789 37.3305L52.789 37.3305ZM69.1445 50.2211L69.1445 25.3188L67.1445 25.3188L67.1445 50.2211L69.1445 50.2211ZM68.1445 24.3188L66.2402 24.3188L66.2402 26.3188L68.1445 26.3188L68.1445 24.3188ZM66.2649 24.3191C62.1292 24.217 58.783 25.264 56.386 27.6065L57.7839 29.0369C59.6838 27.1802 62.4411 26.2253 66.2155 26.3185L66.2649 24.3191ZM56.3941 27.5987C53.947 29.9371 52.789 33.2333 52.789 37.3305L54.789 37.3305C54.789 33.6152 55.8284 30.9056 57.7758 29.0447L56.3941 27.5987Z" fill="#E76800" fill-opacity="0.4"/>
</svg>
