<svg width="111" height="529" viewBox="0 0 111 529" fill="none" xmlns="http://www.w3.org/2000/svg">
<path d="M76.8184 501.902L75.8184 501.902L75.8184 502.902L76.8184 502.902L76.8184 501.902ZM113 501.902L114 501.902L114 500.902L113 500.902L113 501.902ZM113 527.61L113 528.61L114 528.61L114 527.61L113 527.61ZM6.35937 527.61L5.35937 527.61L5.35937 528.61L6.35937 528.61L6.35937 527.61ZM10.9004 463.45L11.8004 463.886L11.8044 463.877L10.9004 463.45ZM23.7178 448.874L24.2411 449.727L24.2498 449.721L23.7178 448.874ZM67.5166 454.88L68.284 454.239L68.2836 454.239L67.5166 454.88ZM56.9697 501.902L56.9697 502.902L57.9697 502.902L57.9697 501.902L56.9697 501.902ZM53.2344 473.704L52.5073 474.39L52.5138 474.397L53.2344 473.704ZM26.208 484.763L25.208 484.753L25.208 484.763L26.208 484.763ZM26.208 501.902L25.208 501.902L25.208 502.902L26.208 502.902L26.208 501.902ZM76.8184 502.902L113 502.902L113 500.902L76.8184 500.902L76.8184 502.902ZM112 501.902L112 527.61L114 527.61L114 501.902L112 501.902ZM113 526.61L6.35937 526.61L6.35937 528.61L113 528.61L113 526.61ZM7.35937 527.61L7.35937 485.056L5.35937 485.056L5.35937 527.61L7.35937 527.61ZM7.35937 485.056C7.35937 477.027 8.84937 469.978 11.8004 463.886L10.0004 463.014C6.89672 469.421 5.35937 476.777 5.35937 485.056L7.35937 485.056ZM11.8044 463.877C14.7057 457.742 18.8513 453.036 24.241 449.727L23.1945 448.022C17.4514 451.549 13.0521 456.56 9.99636 463.022L11.8044 463.877ZM24.2498 449.721C29.5954 446.362 35.6825 444.674 42.541 444.674L42.541 442.674C35.337 442.674 28.8753 444.453 23.1858 448.028L24.2498 449.721ZM42.541 444.674C52.6682 444.674 60.7038 448.295 66.7496 455.522L68.2836 454.239C61.8294 446.524 53.2146 442.674 42.541 442.674L42.541 444.674ZM66.7492 455.521C72.7554 462.71 75.8184 472.661 75.8184 485.496L77.8184 485.496C77.8184 472.354 74.6801 461.894 68.284 454.239L66.7492 455.521ZM75.8184 485.496L75.8184 501.902L77.8184 501.902L77.8184 485.496L75.8184 485.496ZM57.9697 501.902L57.9697 485.056L55.9697 485.056L55.9697 501.902L57.9697 501.902ZM57.9697 485.056C57.9697 479.918 56.6842 475.846 53.9549 473.01L52.5138 474.397C54.7651 476.736 55.9697 480.233 55.9697 485.056L57.9697 485.056ZM53.9614 473.017C51.2369 470.132 47.4298 468.748 42.6875 468.748L42.6875 470.748C47.0273 470.748 50.2514 472.001 52.5074 474.39L53.9614 473.017ZM42.6875 468.748C37.522 468.748 33.2832 470.145 30.0794 473.034L31.4187 474.519C34.1719 472.037 37.892 470.748 42.6875 470.748L42.6875 468.748ZM30.0794 473.034C26.8601 475.937 25.2593 479.882 25.2081 484.753L27.2079 484.774C27.2543 480.366 28.6809 476.988 31.4187 474.519L30.0794 473.034ZM25.208 484.763L25.208 501.902L27.208 501.902L27.208 484.763L25.208 484.763ZM26.208 502.902L56.9697 502.902L56.9697 500.902L26.208 500.902L26.208 502.902ZM56.0908 386.853L57.0882 386.925L57.164 385.873L56.11 385.853L56.0908 386.853ZM55.5049 394.983L54.5075 394.911L54.5049 394.947L54.5049 394.983L55.5049 394.983ZM62.8291 409.924L62.4187 410.836L62.6145 410.924L62.8291 410.924L62.8291 409.924ZM113 409.924L114 409.924L114 408.924L113 408.924L113 409.924ZM113 434.607L113 435.607L114 435.607L114 434.607L113 434.607ZM33.7519 434.607L32.7519 434.607L32.7519 435.607L33.7519 435.607L33.7519 434.607ZM33.7519 411.462L33.6731 410.465L32.7519 410.538L32.7519 411.462L33.7519 411.462ZM43.9326 410.657L44.0115 411.654L47.4147 411.384L44.4041 409.775L43.9326 410.657ZM33.166 386.414L33.1852 385.414L32.4263 385.399L32.2082 386.126L33.166 386.414ZM55.0934 386.781L54.5075 394.911L56.5023 395.055L57.0882 386.925L55.0934 386.781ZM54.5049 394.983C54.5049 402.936 57.0219 408.408 62.4187 410.836L63.2395 409.012C58.8706 407.046 56.5049 402.557 56.5049 394.983L54.5049 394.983ZM62.8291 410.924L113 410.924L113 408.924L62.8291 408.924L62.8291 410.924ZM112 409.924L112 434.607L114 434.607L114 409.924L112 409.924ZM113 433.607L33.7519 433.607L33.7519 435.607L113 435.607L113 433.607ZM34.7519 434.607L34.7519 411.462L32.7519 411.462L32.7519 434.607L34.7519 434.607ZM33.8308 412.459L44.0115 411.654L43.8537 409.66L33.6731 410.465L33.8308 412.459ZM44.4041 409.775C36.8929 405.759 33.2871 400.275 33.2871 393.298L31.2871 393.298C31.2871 401.165 35.4449 407.253 43.4612 411.539L44.4041 409.775ZM33.2871 393.298C33.2871 390.732 33.5727 388.538 34.1238 386.701L32.2082 386.126C31.5875 388.195 31.2871 390.591 31.2871 393.298L33.2871 393.298ZM33.1468 387.413L56.0716 387.853L56.11 385.853L33.1852 385.414L33.1468 387.413ZM72.6435 387.454L72.6435 388.454L72.6523 388.454L72.6611 388.453L72.6435 387.454ZM51.5498 382.839L51.997 381.945L51.9942 381.943L51.5498 382.839ZM43.3467 321.243L44.0266 321.976L44.029 321.974L43.3467 321.243ZM103.625 321.316L102.938 322.042L102.938 322.042L103.625 321.316ZM104.357 376.321L105.067 377.025L105.07 377.023L104.357 376.321ZM76.8184 387.38L76.8359 388.38L76.8503 388.38L76.8647 388.379L76.8184 387.38ZM74.1816 362.771L74.1652 363.771L74.1734 363.771L74.1816 363.771L74.1816 362.771ZM75.1338 335.671L75.1482 334.671L75.141 334.671L75.1338 334.671L75.1338 335.671ZM69.7139 362.698L69.6582 363.696L69.6778 363.697L69.6975 363.698L69.7139 362.698ZM72.6435 386.454C64.8653 386.454 57.991 384.942 51.997 381.945L51.1026 383.734C57.4133 386.889 64.6015 388.454 72.6435 388.454L72.6435 386.454ZM51.9942 381.943C45.9621 378.951 41.3516 374.667 38.134 369.083L36.4011 370.082C39.8241 376.022 44.7352 380.575 51.1054 383.735L51.9942 381.943ZM38.134 369.083C34.9149 363.497 33.2871 356.912 33.2871 349.294L31.2871 349.294C31.2871 357.204 32.9796 364.144 36.4011 370.082L38.134 369.083ZM33.2871 349.294C33.2871 337.653 36.8945 328.588 44.0266 321.976L42.6668 320.509C35.0528 327.569 31.2871 337.205 31.2871 349.294L33.2871 349.294ZM44.029 321.974C51.123 315.353 60.8403 311.989 73.3027 311.989L73.3027 309.989C60.4722 309.989 50.2188 313.461 42.6644 320.512L44.029 321.974ZM73.3027 311.989L74.1816 311.989L74.1816 309.989L73.3027 309.989L73.3027 311.989ZM74.1816 311.989C86.3422 311.989 95.889 315.372 102.938 322.042L104.312 320.59C96.8102 313.49 86.7281 309.989 74.1816 309.989L74.1816 311.989ZM102.938 322.042C109.929 328.656 113.465 337.651 113.465 349.148L115.465 349.148C115.465 337.207 111.774 327.648 104.312 320.589L102.938 322.042ZM113.465 349.148C113.465 360.214 110.167 369.002 103.645 375.619L105.07 377.023C112.024 369.967 115.465 360.64 115.465 349.148L113.465 349.148ZM103.648 375.616C97.0715 382.24 88.1476 385.853 76.772 386.381L76.8647 388.379C88.6336 387.833 98.0691 384.074 105.067 377.025L103.648 375.616ZM76.8008 386.38L72.626 386.454L72.6611 388.453L76.8359 388.38L76.8008 386.38ZM74.1816 363.771C81.5692 363.771 87.1849 362.621 90.8523 360.159L89.7375 358.498C86.569 360.626 81.4425 361.771 74.1816 361.771L74.1816 363.771ZM90.8523 360.159C94.5754 357.659 96.4219 353.937 96.4219 349.148L94.4219 349.148C94.4219 353.343 92.8503 356.408 89.7375 358.498L90.8523 360.159ZM96.4219 349.148C96.4219 344.451 94.5898 340.803 90.9032 338.354C87.2877 335.952 81.9883 334.77 75.1482 334.671L75.1193 336.671C81.8046 336.768 86.6493 337.929 89.7965 340.02C92.8726 342.063 94.4219 345.055 94.4219 349.148L96.4219 349.148ZM75.1338 334.671L72.6435 334.671L72.6435 336.671L75.1338 336.671L75.1338 334.671ZM72.6435 334.671C65.4647 334.671 59.9089 335.813 56.1199 338.234C52.2546 340.705 50.3301 344.444 50.3301 349.294L52.3301 349.294C52.3301 345.063 53.9578 341.99 57.197 339.92C60.5125 337.801 65.6134 336.671 72.6435 336.671L72.6435 334.671ZM50.3301 349.294C50.3301 353.707 51.9894 357.202 55.3369 359.642C58.6256 362.04 63.4458 363.35 69.6582 363.696L69.7695 361.699C63.7261 361.362 59.3544 360.096 56.5151 358.026C53.7347 355.999 52.3301 353.134 52.3301 349.294L50.3301 349.294ZM69.6975 363.698L74.1652 363.771L74.198 361.771L69.7303 361.698L69.6975 363.698ZM33.7519 277.312L33.7519 276.312L32.7519 276.312L32.7519 277.312L33.7519 277.312ZM115.71 277.312L115.715 276.312L115.71 276.312L115.71 277.312ZM143.762 319.28L143.762 320.28L144.56 320.28L144.737 319.501L143.762 319.28ZM125.085 319.28L124.097 319.126L123.918 320.28L125.085 320.28L125.085 319.28ZM33.7519 302.068L32.7519 302.068L32.7519 303.068L33.7519 303.068L33.7519 302.068ZM33.7519 278.312L115.71 278.312L115.71 276.312L33.7519 276.312L33.7519 278.312ZM115.705 278.312C124.887 278.36 131.824 280.984 136.666 286.059L138.113 284.678C132.799 279.109 125.283 276.362 115.715 276.312L115.705 278.312ZM136.666 286.059C141.519 291.145 144.007 298.291 144.007 307.634L146.007 307.634C146.007 297.934 143.416 290.236 138.113 284.678L136.666 286.059ZM144.007 307.634C144.007 311.668 143.599 315.475 142.786 319.059L144.737 319.501C145.585 315.76 146.007 311.803 146.007 307.634L144.007 307.634ZM143.762 318.28L125.085 318.28L125.085 320.28L143.762 320.28L143.762 318.28ZM126.073 319.433C126.516 316.576 126.744 314.2 126.744 312.322L124.744 312.322C124.744 314.056 124.532 316.319 124.097 319.126L126.073 319.433ZM126.744 312.322C126.744 308.751 125.857 305.89 123.909 303.927C121.958 301.962 119.113 301.068 115.563 301.068L115.563 303.068C118.801 303.068 121.046 303.882 122.489 305.336C123.934 306.791 124.744 309.056 124.744 312.322L126.744 312.322ZM115.563 301.068L33.7519 301.068L33.7519 303.068L115.563 303.068L115.563 301.068ZM34.7519 302.068L34.7519 277.312L32.7519 277.312L32.7519 302.068L34.7519 302.068ZM13.3174 302.899C10.0761 302.899 7.4722 301.743 5.42379 299.428L3.9258 300.753C6.36957 303.515 9.52737 304.899 13.3174 304.899L13.3174 302.899ZM5.42379 299.428C3.36986 297.106 2.30565 294.061 2.30565 290.203L0.305653 290.203C0.305653 294.449 1.48754 297.997 3.9258 300.753L5.42379 299.428ZM2.30565 290.203C2.30565 286.344 3.36986 283.299 5.42379 280.977L3.9258 279.652C1.48754 282.409 0.305652 285.956 0.305653 290.203L2.30565 290.203ZM5.42379 280.977C7.4722 278.662 10.0761 277.506 13.3174 277.506L13.3174 275.506C9.52737 275.506 6.36957 276.89 3.9258 279.652L5.42379 280.977ZM13.3174 277.506C16.5586 277.506 19.1625 278.662 21.211 280.977L22.7089 279.652C20.2652 276.89 17.1074 275.506 13.3174 275.506L13.3174 277.506ZM21.211 280.977C23.2649 283.299 24.3291 286.344 24.3291 290.203L26.3291 290.203C26.3291 285.956 25.1472 282.409 22.7089 279.652L21.211 280.977ZM24.3291 290.203C24.3291 294.061 23.2649 297.106 21.211 299.428L22.7089 300.753C25.1472 297.997 26.3291 294.449 26.3291 290.203L24.3291 290.203ZM21.211 299.428C19.1625 301.743 16.5586 302.899 13.3174 302.899L13.3174 304.899C17.1074 304.899 20.2652 303.515 22.7089 300.753L21.211 299.428ZM103.625 258.21L104.344 258.906L104.346 258.903L103.625 258.21ZM51.7695 265.022L51.3308 265.921L51.3366 265.923L51.7695 265.022ZM37.414 251.838L38.2773 251.334L38.2741 251.328L37.414 251.838ZM42.6875 204.963L43.3683 205.696L43.3709 205.693L42.6875 204.963ZM81.1396 195.295L82.1396 195.295L82.1396 194.295L81.1396 194.295L81.1396 195.295ZM81.1396 244.368L80.1396 244.368L80.1396 245.585L81.3337 245.349L81.1396 244.368ZM87.2187 208.699L86.5728 207.935L85.6471 208.719L86.5923 209.478L87.2187 208.699ZM100.549 197.419L101.135 196.609L100.501 196.15L99.9029 196.656L100.549 197.419ZM110.729 210.53L111.644 210.124L111.642 210.121L110.729 210.53ZM65.6855 244.368L65.5441 245.358L66.6855 245.521L66.6855 244.368L65.6855 244.368ZM65.6855 219.465L66.6855 219.465L66.6855 218.465L65.6855 218.465L65.6855 219.465ZM63.7812 219.465L63.7566 220.465L63.7689 220.465L63.7812 220.465L63.7812 219.465ZM54.626 222.468L55.3169 223.191L55.3249 223.183L54.626 222.468ZM113.465 228.694C113.465 240.64 109.922 250.215 102.904 257.517L104.346 258.903C111.781 251.167 115.465 241.064 115.465 228.694L113.465 228.694ZM102.906 257.515C95.8411 264.817 86.6634 268.49 75.2803 268.49L75.2803 270.49C87.1393 270.49 96.8581 266.642 104.344 258.906L102.906 257.515ZM75.2803 268.49L73.2295 268.49L73.2295 270.49L75.2803 270.49L75.2803 268.49ZM73.2295 268.49C65.2474 268.49 58.2465 267.024 52.2025 264.12L51.3366 265.923C57.6949 268.977 65.0006 270.49 73.2295 270.49L73.2295 268.49ZM52.2082 264.123C46.1779 261.179 41.5434 256.919 38.2773 251.334L36.5508 252.343C40.023 258.281 44.9587 262.81 51.3308 265.921L52.2082 264.123ZM38.2741 251.328C34.9631 245.747 33.2871 239.094 33.2871 231.331L31.2871 231.331C31.2871 239.387 33.0291 246.406 36.554 252.349L38.2741 251.328ZM33.2871 231.331C33.2871 220.422 36.6743 211.918 43.3683 205.696L42.0066 204.231C34.8335 210.899 31.2871 219.973 31.2871 231.331L33.2871 231.331ZM43.3709 205.693C50.0187 199.47 59.3642 196.295 71.5449 196.295L71.5449 194.295C59.0185 194.295 49.1258 197.566 42.0041 204.233L43.3709 205.693ZM71.5449 196.295L81.1396 196.295L81.1396 194.295L71.5449 194.295L71.5449 196.295ZM80.1396 195.295L80.1396 244.368L82.1396 244.368L82.1396 195.295L80.1396 195.295ZM81.3337 245.349C85.9617 244.433 89.6667 242.406 92.3743 239.23L90.8523 237.933C88.4817 240.714 85.2043 242.544 80.9456 243.387L81.3337 245.349ZM92.3743 239.23C95.0983 236.035 96.4219 231.931 96.4219 227.009L94.4219 227.009C94.4219 231.56 93.2063 235.171 90.8523 237.933L92.3743 239.23ZM96.4219 227.009C96.4219 218.933 93.579 212.527 87.8451 207.919L86.5923 209.478C91.796 213.66 94.4219 219.461 94.4219 227.009L96.4219 227.009ZM87.8647 209.462L101.195 198.183L99.9029 196.656L86.5728 207.935L87.8647 209.462ZM99.9623 198.229C104.044 201.185 107.336 205.405 109.817 210.939L111.642 210.121C109.044 204.326 105.549 199.806 101.135 196.609L99.9623 198.229ZM109.815 210.935C112.246 216.415 113.465 222.331 113.465 228.694L115.465 228.694C115.465 222.068 114.194 215.874 111.644 210.124L109.815 210.935ZM50.3301 231.477C50.3301 235.335 51.6196 238.501 54.2508 240.864C56.8476 243.195 60.6554 244.659 65.5441 245.358L65.827 243.378C61.1453 242.709 57.7754 241.341 55.5871 239.376C53.4331 237.441 52.3301 234.845 52.3301 231.477L50.3301 231.477ZM66.6855 244.368L66.6855 219.465L64.6855 219.465L64.6855 244.368L66.6855 244.368ZM65.6855 218.465L63.7812 218.465L63.7812 220.465L65.6855 220.465L65.6855 218.465ZM63.8059 218.466C59.6702 218.363 56.324 219.411 53.927 221.753L55.3249 223.183C57.2248 221.327 59.9821 220.372 63.7566 220.465L63.8059 218.466ZM53.9351 221.745C51.488 224.084 50.3301 227.38 50.3301 231.477L52.3301 231.477C52.3301 227.762 53.3694 225.052 55.3168 223.191L53.9351 221.745ZM92.6387 147.483L93.3549 146.785L93.3458 146.776L92.6387 147.483ZM84.7285 144.7L83.7285 144.7L83.7285 145.714L84.743 145.7L84.7285 144.7ZM84.7285 121.555L84.7285 120.555L83.7285 120.555L83.7285 121.555L84.7285 121.555ZM106.115 130.93L105.368 131.595L105.371 131.598L106.115 130.93ZM51.4033 187.766L50.9676 188.666L50.9706 188.668L51.4033 187.766ZM37.2676 174.949L38.1297 174.442L38.1264 174.436L37.2676 174.949ZM64.0742 121.555L65.0742 121.555L65.0742 120.555L64.0742 120.555L64.0742 121.555ZM64.0742 144.7L64.0742 145.7L65.0742 145.7L65.0742 144.7L64.0742 144.7ZM63.5615 166.965L63.6924 165.974L63.6921 165.974L63.5615 166.965ZM96.4219 155.539C96.4219 151.894 95.4426 148.928 93.3549 146.785L91.9224 148.181C93.5457 149.847 94.4219 152.251 94.4219 155.539L96.4219 155.539ZM93.3458 146.776C91.2048 144.635 88.2814 143.648 84.714 143.7L84.743 145.7C87.9139 145.654 90.2639 146.522 91.9315 148.19L93.3458 146.776ZM85.7285 144.7L85.7285 121.555L83.7285 121.555L83.7285 144.7L85.7285 144.7ZM84.7285 122.555C93.1471 122.555 99.9999 125.567 105.368 131.595L106.862 130.265C101.098 123.793 93.6927 120.555 84.7285 120.555L84.7285 122.555ZM105.371 131.598C110.744 137.584 113.465 145.339 113.465 154.954L115.465 154.954C115.465 144.939 112.619 136.679 106.859 130.262L105.371 131.598ZM113.465 154.954C113.465 166.25 109.933 175.045 102.948 181.463L104.302 182.936C111.77 176.073 115.465 166.704 115.465 154.954L113.465 154.954ZM102.948 181.463C95.9568 187.888 86.2162 191.161 73.5957 191.161L73.5957 193.161C86.5611 193.161 96.84 189.793 104.302 182.936L102.948 181.463ZM73.5957 191.161L72.5703 191.161L72.5703 193.161L73.5957 193.161L73.5957 191.161ZM72.5703 191.161C64.6851 191.161 57.782 189.719 51.836 186.865L50.9706 188.668C57.2316 191.673 64.4398 193.161 72.5703 193.161L72.5703 191.161ZM51.8391 186.866C45.8536 183.968 41.295 179.828 38.1297 174.442L36.4054 175.455C39.7831 181.202 44.6483 185.607 50.9676 188.666L51.8391 186.866ZM38.1264 174.436C34.9136 169.05 33.2871 162.642 33.2871 155.173L31.2871 155.173C31.2871 162.939 32.9809 169.714 36.4087 175.461L38.1264 174.436ZM33.2871 155.173C33.2871 145.062 36.0853 137.151 41.5838 131.323L40.1291 129.951C34.2018 136.233 31.2871 144.679 31.2871 155.173L33.2871 155.173ZM41.5838 131.323C47.0749 125.504 54.532 122.555 64.0742 122.555L64.0742 120.555C54.0851 120.555 46.0638 123.661 40.1291 129.951L41.5838 131.323ZM63.0742 121.555L63.0742 144.7L65.0742 144.7L65.0742 121.555L63.0742 121.555ZM64.0742 143.7C59.8187 143.7 56.3939 144.739 53.9525 146.963L55.2994 148.442C57.2525 146.662 60.1266 145.7 64.0742 145.7L64.0742 143.7ZM53.9525 146.963C51.5184 149.181 50.3301 152.15 50.3301 155.759L52.3301 155.759C52.3301 152.63 53.339 150.228 55.2994 148.442L53.9525 146.963ZM50.3301 155.759C50.3301 159.19 51.434 162.008 53.7124 164.095C55.9596 166.154 59.2442 167.405 63.4309 167.957L63.6921 165.974C59.7246 165.451 56.8934 164.297 55.0634 162.621C53.2647 160.973 52.3301 158.725 52.3301 155.759L50.3301 155.759ZM63.4306 167.957C66.0822 168.307 69.697 168.478 74.2549 168.478L74.2549 166.478C69.7307 166.478 66.2166 166.307 63.6924 165.974L63.4306 167.957ZM74.2549 168.478C82.2253 168.478 87.998 167.537 91.334 165.472L90.2812 163.771C87.4648 165.515 82.2024 166.478 74.2549 166.478L74.2549 168.478ZM91.334 165.472C94.7524 163.356 96.4219 159.976 96.4219 155.539L94.4219 155.539C94.4219 159.404 93.0151 162.079 90.2812 163.771L91.334 165.472ZM14.0498 86.1205L14.0498 85.1205L13.0498 85.1205L13.0498 86.1205L14.0498 86.1205ZM33.7519 86.1205L33.7519 87.1205L34.7519 87.1205L34.7519 86.1205L33.7519 86.1205ZM33.7519 73.0834L33.7519 72.0834L32.7519 72.0834L32.7519 73.0834L33.7519 73.0834ZM50.8906 73.0834L51.8906 73.0834L51.8906 72.0834L50.8906 72.0834L50.8906 73.0834ZM50.8906 86.1205L49.8906 86.1205L49.8906 87.1205L50.8906 87.1205L50.8906 86.1205ZM94.6894 71.9848L94.6894 70.9848L93.4975 70.9848L93.7046 72.1586L94.6894 71.9848ZM112.341 71.9848L113.294 71.6812L113.072 70.9848L112.341 70.9848L112.341 71.9848ZM50.8906 110.803L50.8906 109.803L49.8906 109.803L49.8906 110.803L50.8906 110.803ZM50.8906 120.911L50.8906 121.911L51.8906 121.911L51.8906 120.911L50.8906 120.911ZM33.7519 120.911L32.7519 120.911L32.7519 121.911L33.7519 121.911L33.7519 120.911ZM33.7519 110.803L34.7519 110.803L34.7519 109.803L33.7519 109.803L33.7519 110.803ZM14.0498 110.803L13.0498 110.803L13.0498 111.803L14.0498 111.803L14.0498 110.803ZM14.0498 87.1205L33.7519 87.1205L33.7519 85.1205L14.0498 85.1205L14.0498 87.1205ZM34.7519 86.1205L34.7519 73.0834L32.7519 73.0834L32.7519 86.1205L34.7519 86.1205ZM33.7519 74.0834L50.8906 74.0834L50.8906 72.0834L33.7519 72.0834L33.7519 74.0834ZM49.8906 73.0834L49.8906 86.1205L51.8906 86.1205L51.8906 73.0834L49.8906 73.0834ZM50.8906 87.1205L87.1455 87.1205L87.1455 85.1205L50.8906 85.1205L50.8906 87.1205ZM87.1455 87.1205C90.1807 87.1205 92.5854 86.586 94.0468 85.2464L92.6953 83.7721C91.813 84.5809 90.0673 85.1205 87.1455 85.1205L87.1455 87.1205ZM94.0468 85.2464C95.555 83.8638 96.1289 81.3456 96.1289 78.1371L94.1289 78.1371C94.1289 81.2764 93.5309 83.0062 92.6953 83.7721L94.0468 85.2464ZM96.1289 78.1371C96.1289 75.6609 95.9807 73.5477 95.6742 71.811L93.7046 72.1586C93.9841 73.7422 94.1289 75.7306 94.1289 78.1371L96.1289 78.1371ZM94.6894 72.9848L112.341 72.9848L112.341 70.9848L94.6894 70.9848L94.6894 72.9848ZM111.388 72.2884C112.772 76.6301 113.465 81.1661 113.465 85.9008L115.465 85.9008C115.465 80.9676 114.742 76.2262 113.294 71.6812L111.388 72.2884ZM113.465 85.9008C113.465 94.2616 111.493 100.23 107.748 104.021L109.17 105.427C113.433 101.112 115.465 94.5322 115.465 85.9008L113.465 85.9008ZM107.748 104.021C104 107.815 98.2249 109.803 90.2217 109.803L90.2217 111.803C98.527 111.803 104.91 109.739 109.17 105.427L107.748 104.021ZM90.2217 109.803L50.8906 109.803L50.8906 111.803L90.2217 111.803L90.2217 109.803ZM49.8906 110.803L49.8906 120.911L51.8906 120.911L51.8906 110.803L49.8906 110.803ZM50.8906 119.911L33.7519 119.911L33.7519 121.911L50.8906 121.911L50.8906 119.911ZM34.7519 120.911L34.7519 110.803L32.7519 110.803L32.7519 120.911L34.7519 120.911ZM33.7519 109.803L14.0498 109.803L14.0498 111.803L33.7519 111.803L33.7519 109.803ZM15.0498 110.803L15.0498 86.1205L13.0498 86.1205L13.0498 110.803L15.0498 110.803ZM76.3789 56.6186L77.2511 57.1079L77.2556 57.0997L76.3789 56.6186ZM39.3916 59.9145L40.1799 59.2992L40.1768 59.2953L39.3916 59.9145ZM58.0683 1.6137L59.0683 1.6137L59.0683 0.613704L58.0683 0.613704L58.0683 1.6137ZM58.0683 26.3696L58.0683 27.3696L59.0683 27.3696L59.0683 26.3696L58.0683 26.3696ZM50.7441 42.9223L51.5229 42.295L51.5177 42.2885L51.5123 42.2821L50.7441 42.9223ZM64.8066 32.0825L65.7895 32.2667L65.7898 32.2649L64.8066 32.0825ZM67.956 19.6313L67.0105 19.3058L67.01 19.3073L67.956 19.6313ZM107.653 11.4282L106.836 12.0041L106.838 12.007L107.653 11.4282ZM87.5849 71.4135L86.5849 71.4135L86.5849 72.4135L87.5849 72.4135L87.5849 71.4135ZM87.5849 48.3422L87.5583 47.3426L86.5849 47.3685L86.5849 48.3422L87.5849 48.3422ZM95.6416 44.6801L96.4497 45.2693L96.4576 45.2581L95.6416 44.6801ZM96.081 28.1274L95.3002 28.7521L95.3046 28.7576L95.3091 28.7631L96.081 28.1274ZM90.7344 24.5639C88.1977 24.5639 86.2191 25.929 84.8148 28.3595L86.5465 29.3601C87.6813 27.3961 89.0717 26.5639 90.7344 26.5639L90.7344 24.5639ZM84.8148 28.3595C83.4595 30.7052 82.1155 35.0198 80.7494 41.1673L82.7018 41.6011C84.07 35.4439 85.3627 31.409 86.5465 29.3601L84.8148 28.3595ZM80.7494 41.1673C79.3955 47.2596 77.6404 52.2412 75.5022 56.1375L77.2556 57.0997C79.5119 52.9881 81.3212 47.8135 82.7018 41.6011L80.7494 41.1673ZM75.5067 56.1293C73.3226 60.0228 70.7137 62.9444 67.6973 64.9398L68.8007 66.6079C72.132 64.4041 74.943 61.2222 77.251 57.1078L75.5067 56.1293ZM67.6973 64.9398C64.6999 66.9227 61.2572 67.9233 57.3359 67.9233L57.3359 69.9233C61.6177 69.9233 65.4504 68.8242 68.8007 66.6079L67.6973 64.9398ZM57.3359 67.9233C50.385 67.9233 44.6883 65.0756 40.1799 59.2992L38.6033 60.5298C43.4699 66.7651 49.736 69.9233 57.3359 69.9233L57.3359 67.9233ZM40.1768 59.2953C35.6135 53.5088 33.2871 45.8843 33.2871 36.3305L31.2871 36.3305C31.2871 46.2103 33.697 54.3084 38.6064 60.5337L40.1768 59.2953ZM33.2871 36.3305C33.2871 26.0282 35.6213 17.8603 40.1931 11.7332L38.5901 10.5372C33.6892 17.1054 31.2871 25.7343 31.2871 36.3305L33.2871 36.3305ZM40.1931 11.7332C44.7465 5.63061 50.6789 2.6137 58.0683 2.6137L58.0683 0.613704C50.0281 0.613705 43.5093 3.94446 38.5901 10.5372L40.1931 11.7332ZM57.0683 1.6137L57.0683 26.3696L59.0683 26.3696L59.0683 1.6137L57.0683 1.6137ZM58.0683 25.3696C54.7266 25.3696 52.04 26.2526 50.2018 28.1898C48.3729 30.1172 47.5469 32.9176 47.5469 36.4037L49.5469 36.4037C49.5469 33.2005 50.3077 30.9838 51.6526 29.5664C52.9882 28.1589 55.0624 27.3696 58.0683 27.3696L58.0683 25.3696ZM47.5469 36.4037C47.5469 39.1931 48.3417 41.6015 49.9759 43.5625L51.5123 42.2821C50.2168 40.7275 49.5469 38.7902 49.5469 36.4037L47.5469 36.4037ZM49.9654 43.5496C51.5601 45.5293 53.6225 46.559 56.0908 46.559L56.0908 44.559C54.2622 44.559 52.7601 43.8309 51.5229 42.295L49.9654 43.5496ZM56.0908 46.559C58.6891 46.559 60.7646 45.2564 62.2811 42.8732L60.5938 41.7995C59.376 43.7132 57.887 44.559 56.0908 44.559L56.0908 46.559ZM62.2811 42.8732C63.753 40.5603 64.904 36.9896 65.7895 32.2667L63.8237 31.8982C62.9515 36.5503 61.8563 39.8155 60.5938 41.7995L62.2811 42.8732ZM65.7898 32.2649C66.6621 27.5641 67.7009 23.4629 68.9021 19.9553L67.01 19.3073C65.7698 22.9286 64.7089 27.1282 63.8234 31.9L65.7898 32.2649ZM68.9016 19.9568C70.9111 14.1196 73.6853 9.83234 77.1734 7.00479C80.6482 4.18802 84.9042 2.76019 90.0019 2.76019L90.0019 0.760187C84.504 0.760188 79.7878 2.31087 75.914 5.45114C72.0534 8.58062 69.1025 13.2289 67.0105 19.3058L68.9016 19.9568ZM90.0019 2.76019C96.8701 2.76019 102.462 5.79635 106.836 12.0041L108.471 10.8522C103.762 4.16933 97.5869 0.760187 90.0019 0.760187L90.0019 2.76019ZM106.838 12.007C111.227 18.1899 113.465 26.2707 113.465 36.3305L115.465 36.3305C115.465 25.9801 113.161 17.4593 108.469 10.8493L106.838 12.007ZM113.465 36.3305C113.465 42.9965 112.266 48.9054 109.894 54.0776L111.712 54.9115C114.222 49.4392 115.465 43.2388 115.465 36.3305L113.465 36.3305ZM109.894 54.0776C107.515 59.2626 104.3 63.2665 100.263 66.1301L101.42 67.7614C105.782 64.668 109.207 60.3711 111.712 54.9115L109.894 54.0776ZM100.263 66.1301C96.2137 69.0025 91.9937 70.4135 87.5849 70.4135L87.5849 72.4135C92.4535 72.4135 97.0715 70.846 101.42 67.7614L100.263 66.1301ZM88.5849 71.4135L88.5849 48.3422L86.5849 48.3422L86.5849 71.4135L88.5849 71.4135ZM87.6116 49.3419C91.4941 49.2383 94.5108 47.9281 96.4496 45.2693L94.8336 44.0909C93.3543 46.1196 91 47.2508 87.5583 47.3426L87.6116 49.3419ZM96.4576 45.2581C98.2667 42.7041 99.1318 39.4835 99.1318 35.6713L97.1318 35.6713C97.1318 39.1834 96.3368 41.9686 94.8256 44.1021L96.4576 45.2581ZM99.1318 35.6713C99.1318 32.1944 98.4309 29.4077 96.853 27.4917L95.3091 28.7631C96.4656 30.1674 97.1318 32.41 97.1318 35.6713L99.1318 35.6713ZM96.8619 27.5027C95.3041 25.5554 93.234 24.5639 90.7344 24.5639L90.7344 26.5639C92.6292 26.5639 94.1236 27.2814 95.3002 28.7521L96.8619 27.5027Z" fill="#E76800" fill-opacity="0.4"/>
</svg>
