<svg width="64" height="12" viewBox="0 0 64 12" fill="none" xmlns="http://www.w3.org/2000/svg">
<path d="M57.4232 0.0539551L58.8232 4.45396H63.5232L59.7232 7.25395L61.2232 11.654L57.4232 8.85396L53.6232 11.654L55.1232 7.25395L51.3232 4.45396H56.0232L57.4232 0.0539551Z" fill="#DADADA"/>
<path d="M40.4232 0.0539551L41.8232 4.45396H46.5232L42.7232 7.25395L44.2232 11.654L40.4232 8.85396L36.6232 11.654L38.1232 7.25395L34.3232 4.45396H39.0232L40.4232 0.0539551Z" fill="#DADADA"/>
<path d="M23.4232 0.0539551L24.8232 4.45396H29.5232L25.7232 7.25395L27.2232 11.654L23.4232 8.85396L19.6232 11.654L21.1232 7.25395L17.3232 4.45396H22.0232L23.4232 0.0539551Z" fill="#DADADA"/>
<path d="M6.42324 0.0539551L7.82324 4.45396H12.5232L8.72324 7.25395L10.2232 11.654L6.42324 8.85396L2.62324 11.654L4.12324 7.25395L0.323242 4.45396H5.02324L6.42324 0.0539551Z" fill="#DADADA"/>
</svg>
