<svg width="117" height="18" viewBox="0 0 117 18" fill="none" xmlns="http://www.w3.org/2000/svg">
<path d="M83.4301 0.804565L85.4545 7.16702H92.2507L86.7559 11.2159L88.9249 17.5783L83.4301 13.5295L77.9352 17.5783L80.1042 11.2159L74.6094 7.16702H81.4056L83.4301 0.804565Z" fill="#DADADA"/>
<path d="M108.012 0.804565L110.037 7.16702H116.833L111.338 11.2159L113.507 17.5783L108.012 13.5295L102.517 17.5783L104.686 11.2159L99.1914 7.16702H105.988L108.012 0.804565Z" fill="#DADADA"/>
<path d="M58.848 0.804565L60.8724 7.16702H67.6687L62.1739 11.2159L64.3429 17.5783L58.848 13.5295L53.3532 17.5783L55.5222 11.2159L50.0273 7.16702H56.8236L58.848 0.804565Z" fill="#DADADA"/>
<path d="M34.266 0.804565L36.2904 7.16702H43.0867L37.5918 11.2159L39.7608 17.5783L34.266 13.5295L28.7711 17.5783L30.9402 11.2159L25.4453 7.16702H32.2416L34.266 0.804565Z" fill="#DADADA"/>
<path d="M9.68396 0.804565L11.7084 7.16702H18.5046L13.0098 11.2159L15.1788 17.5783L9.68396 13.5295L4.18911 17.5783L6.35813 11.2159L0.863281 7.16702H7.65954L9.68396 0.804565Z" fill="#DADADA"/>
</svg>
